G04 Layer_Physical_Order=1*
G04 Layer_Color=255*
%FSLAX24Y24*%
%MOIN*%
G70*
G01*
G75*
%ADD10R,0.0866X0.0413*%
%ADD11R,0.0433X0.0413*%
G04:AMPARAMS|DCode=12|XSize=39.4mil|YSize=78.7mil|CornerRadius=9.8mil|HoleSize=0mil|Usage=FLASHONLY|Rotation=0.000|XOffset=0mil|YOffset=0mil|HoleType=Round|Shape=RoundedRectangle|*
%AMROUNDEDRECTD12*
21,1,0.0394,0.0591,0,0,0.0*
21,1,0.0197,0.0787,0,0,0.0*
1,1,0.0197,0.0098,-0.0295*
1,1,0.0197,-0.0098,-0.0295*
1,1,0.0197,-0.0098,0.0295*
1,1,0.0197,0.0098,0.0295*
%
%ADD12ROUNDEDRECTD12*%
G04:AMPARAMS|DCode=13|XSize=39.4mil|YSize=78.7mil|CornerRadius=9.8mil|HoleSize=0mil|Usage=FLASHONLY|Rotation=90.000|XOffset=0mil|YOffset=0mil|HoleType=Round|Shape=RoundedRectangle|*
%AMROUNDEDRECTD13*
21,1,0.0394,0.0591,0,0,90.0*
21,1,0.0197,0.0787,0,0,90.0*
1,1,0.0197,0.0295,0.0098*
1,1,0.0197,0.0295,-0.0098*
1,1,0.0197,-0.0295,-0.0098*
1,1,0.0197,-0.0295,0.0098*
%
%ADD13ROUNDEDRECTD13*%
%ADD14R,0.0413X0.0394*%
%ADD15R,0.0984X0.1496*%
%ADD16R,0.0197X0.0787*%
%ADD17O,0.0709X0.0118*%
%ADD18O,0.0118X0.0709*%
%ADD19R,0.0354X0.0315*%
%ADD20R,0.0394X0.0413*%
%ADD21R,0.0591X0.0630*%
%ADD22R,0.0315X0.0354*%
G04:AMPARAMS|DCode=23|XSize=19.7mil|YSize=23.6mil|CornerRadius=0mil|HoleSize=0mil|Usage=FLASHONLY|Rotation=225.000|XOffset=0mil|YOffset=0mil|HoleType=Round|Shape=Rectangle|*
%AMROTATEDRECTD23*
4,1,4,-0.0014,0.0153,0.0153,-0.0014,0.0014,-0.0153,-0.0153,0.0014,-0.0014,0.0153,0.0*
%
%ADD23ROTATEDRECTD23*%

%ADD24R,0.0276X0.0591*%
%ADD25R,0.0906X0.0591*%
%ADD26R,0.0591X0.0276*%
%ADD27R,0.0591X0.0512*%
%ADD28C,0.1000*%
%ADD29C,0.0200*%
%ADD30C,0.0300*%
%ADD31C,0.0100*%
%ADD32C,0.0400*%
%ADD33C,0.0150*%
%ADD34C,0.1200*%
%ADD35C,0.2250*%
%ADD36C,0.0689*%
%ADD37C,0.2100*%
%ADD38R,0.0591X0.0591*%
%ADD39C,0.0591*%
%ADD40R,0.0591X0.0591*%
G04:AMPARAMS|DCode=41|XSize=40mil|YSize=40mil|CornerRadius=10mil|HoleSize=0mil|Usage=FLASHONLY|Rotation=90.000|XOffset=0mil|YOffset=0mil|HoleType=Round|Shape=RoundedRectangle|*
%AMROUNDEDRECTD41*
21,1,0.0400,0.0200,0,0,90.0*
21,1,0.0200,0.0400,0,0,90.0*
1,1,0.0200,0.0100,0.0100*
1,1,0.0200,0.0100,-0.0100*
1,1,0.0200,-0.0100,-0.0100*
1,1,0.0200,-0.0100,0.0100*
%
%ADD41ROUNDEDRECTD41*%
%ADD42C,0.0400*%
%ADD43C,0.0500*%
G36*
X68177Y32651D02*
X68082Y32593D01*
X67944Y32476D01*
X67827Y32338D01*
X67732Y32184D01*
X67663Y32016D01*
X67621Y31840D01*
X67606Y31660D01*
X67621Y31480D01*
X67663Y31304D01*
X67732Y31136D01*
X67827Y30982D01*
X67944Y30844D01*
X68082Y30727D01*
X68236Y30632D01*
X68404Y30563D01*
X68580Y30521D01*
X68760Y30506D01*
X68940Y30521D01*
X69116Y30563D01*
X69284Y30632D01*
X69438Y30727D01*
X69576Y30844D01*
X69693Y30982D01*
X69788Y31136D01*
X69808Y31185D01*
X69857Y31175D01*
Y11695D01*
X69808Y11685D01*
X69788Y11734D01*
X69693Y11888D01*
X69576Y12026D01*
X69438Y12143D01*
X69284Y12238D01*
X69116Y12307D01*
X68940Y12349D01*
X68760Y12364D01*
X68580Y12349D01*
X68404Y12307D01*
X68236Y12238D01*
X68082Y12143D01*
X67944Y12026D01*
X67827Y11888D01*
X67732Y11734D01*
X67663Y11566D01*
X67621Y11390D01*
X67606Y11210D01*
X67621Y11030D01*
X67663Y10854D01*
X67732Y10686D01*
X67827Y10532D01*
X67944Y10394D01*
X68082Y10277D01*
X68202Y10203D01*
X68188Y10153D01*
X40422D01*
X40408Y10203D01*
X40528Y10277D01*
X40666Y10394D01*
X40783Y10532D01*
X40878Y10686D01*
X40947Y10854D01*
X40989Y11030D01*
X41004Y11210D01*
X40989Y11390D01*
X40947Y11566D01*
X40878Y11734D01*
X40783Y11888D01*
X40666Y12026D01*
X40528Y12143D01*
X40374Y12238D01*
X40206Y12307D01*
X40030Y12349D01*
X39850Y12364D01*
X39670Y12349D01*
X39494Y12307D01*
X39326Y12238D01*
X39172Y12143D01*
X39034Y12026D01*
X38917Y11888D01*
X38835Y11754D01*
X38785Y11768D01*
Y31102D01*
X38835Y31116D01*
X38917Y30982D01*
X39034Y30844D01*
X39172Y30727D01*
X39326Y30632D01*
X39494Y30563D01*
X39670Y30521D01*
X39850Y30506D01*
X40030Y30521D01*
X40206Y30563D01*
X40374Y30632D01*
X40528Y30727D01*
X40666Y30844D01*
X40783Y30982D01*
X40878Y31136D01*
X40947Y31304D01*
X40989Y31480D01*
X41004Y31660D01*
X40989Y31840D01*
X40947Y32016D01*
X40878Y32184D01*
X40783Y32338D01*
X40666Y32476D01*
X40528Y32593D01*
X40433Y32651D01*
X40447Y32701D01*
X68163D01*
X68177Y32651D01*
D02*
G37*
%LPC*%
G36*
X57215Y14800D02*
X56920D01*
Y14544D01*
X57215D01*
Y14800D01*
D02*
G37*
G36*
X62176D02*
X61880D01*
Y14544D01*
X62176D01*
Y14800D01*
D02*
G37*
G36*
X61680D02*
X61385D01*
Y14544D01*
X61680D01*
Y14800D01*
D02*
G37*
G36*
X68525Y14270D02*
X68092D01*
Y14063D01*
X68525D01*
Y14270D01*
D02*
G37*
G36*
X61516Y20599D02*
X61424Y20587D01*
X61339Y20552D01*
X61266Y20496D01*
X61210Y20423D01*
X61175Y20337D01*
X61163Y20246D01*
X61175Y20155D01*
X61210Y20070D01*
X61266Y19996D01*
X61339Y19940D01*
X61424Y19905D01*
X61500Y19895D01*
X61501Y19894D01*
X61507Y19890D01*
X61538Y19864D01*
X61632Y19769D01*
X61658Y19737D01*
X61685Y19697D01*
X61708Y19656D01*
X61722Y19627D01*
X61707Y19594D01*
X61688Y19577D01*
X61574D01*
Y19300D01*
X61474D01*
Y19200D01*
X61217D01*
Y19027D01*
X61217Y19023D01*
Y18977D01*
X61217Y18973D01*
Y18800D01*
X61474D01*
Y18700D01*
X61574D01*
Y18423D01*
X61718D01*
X61732Y18423D01*
X61770Y18394D01*
X61771Y18363D01*
Y17889D01*
X61658Y17776D01*
X61385D01*
Y17300D01*
Y17165D01*
X62176D01*
Y17300D01*
Y17573D01*
X62206Y17603D01*
X62261Y17686D01*
X62280Y17783D01*
Y18423D01*
X62283D01*
Y18520D01*
X62284Y18524D01*
X62284Y18525D01*
X62284Y18525D01*
X62283Y18529D01*
Y18872D01*
X62284Y18876D01*
X62284Y18877D01*
X62284Y18878D01*
X62283Y18913D01*
Y18977D01*
X62283D01*
Y19023D01*
X62293Y19039D01*
X62353Y19048D01*
X63574Y17827D01*
Y15017D01*
X62964Y14407D01*
X61780D01*
X61694Y14390D01*
X61385D01*
Y13914D01*
Y13780D01*
X62176D01*
Y13897D01*
X63069D01*
X63167Y13916D01*
X63250Y13972D01*
X64009Y14731D01*
X64019Y14746D01*
X64086D01*
X64090Y14746D01*
X64114Y14744D01*
X64124Y14742D01*
Y14693D01*
X64221D01*
X64225Y14692D01*
X64229Y14693D01*
X64573D01*
X64577Y14692D01*
X64581Y14693D01*
X64678D01*
Y14742D01*
X64686Y14744D01*
X64722Y14746D01*
X64836D01*
X64840Y14746D01*
X64864Y14744D01*
X64874Y14742D01*
Y14693D01*
X64949D01*
X64953Y14677D01*
X64956Y14655D01*
X64957Y14642D01*
Y14137D01*
X64951Y14082D01*
X64948Y14062D01*
X64944Y14046D01*
X64940Y14033D01*
X64937Y14026D01*
X64936Y14024D01*
X64931Y14018D01*
X64930Y14017D01*
X64866Y13953D01*
X64930Y13889D01*
X64931Y13888D01*
X64933Y13886D01*
X64942Y13877D01*
X64944Y13875D01*
X64945Y13874D01*
X65001Y13818D01*
X65017Y13795D01*
X65040Y13779D01*
X65111Y13708D01*
Y13658D01*
X63984Y12531D01*
X63426D01*
X63353Y12522D01*
X63315Y12506D01*
X63189D01*
Y12400D01*
X63182Y12391D01*
X63165Y12350D01*
X63112Y12352D01*
X63111Y12356D01*
Y12506D01*
X62988D01*
X62920Y12534D01*
X62848Y12543D01*
X62176D01*
Y12635D01*
X61385D01*
Y12497D01*
X61385Y12497D01*
X61385Y12497D01*
X61406Y12456D01*
Y12046D01*
X61605D01*
X61640Y12019D01*
X61708Y11991D01*
X61780Y11981D01*
X62848D01*
X62920Y11991D01*
X62929Y11994D01*
X63111D01*
Y12151D01*
X63158Y12161D01*
X63161Y12160D01*
X63182Y12109D01*
X63189Y12100D01*
Y11994D01*
X63315D01*
X63353Y11978D01*
X63426Y11969D01*
X64100D01*
X64100Y11969D01*
X64173Y11978D01*
X64241Y12007D01*
X64299Y12051D01*
X66916Y14669D01*
X66985D01*
X67094Y14668D01*
X67106Y14668D01*
Y14665D01*
X67188D01*
X67194Y14664D01*
X67199Y14665D01*
X67205Y14665D01*
X67206Y14665D01*
X67459D01*
Y14470D01*
X68525D01*
Y14677D01*
Y15225D01*
Y15431D01*
X67459D01*
Y15236D01*
X67106D01*
Y15235D01*
X66861Y15231D01*
X66800D01*
X66800Y15231D01*
X66727Y15222D01*
X66659Y15193D01*
X66601Y15149D01*
X66601Y15149D01*
X65440Y13988D01*
X65440Y13988D01*
X65392Y13995D01*
X65385Y13998D01*
X65381Y14006D01*
X65378Y14018D01*
X65374Y14034D01*
X65370Y14053D01*
X65365Y14124D01*
Y14645D01*
X65365Y14658D01*
X65368Y14681D01*
X65370Y14693D01*
X65428D01*
Y14790D01*
X65429Y14794D01*
X65428Y14798D01*
Y15194D01*
X65428Y15207D01*
Y15244D01*
X65428Y15257D01*
Y15401D01*
X64874D01*
Y15257D01*
X64874Y15244D01*
Y15207D01*
X64874Y15194D01*
Y15158D01*
X64866Y15156D01*
X64829Y15154D01*
X64726D01*
X64678Y15184D01*
X64678Y15244D01*
X64678Y15257D01*
Y15401D01*
X64401D01*
Y15501D01*
X64301D01*
Y15759D01*
X64134D01*
X64124Y15759D01*
X64084Y15783D01*
Y17933D01*
X64064Y18031D01*
X64009Y18113D01*
X62206Y19916D01*
X61888Y20234D01*
X61873Y20253D01*
X61867Y20261D01*
X61867Y20262D01*
X61857Y20337D01*
X61821Y20423D01*
X61765Y20496D01*
X61692Y20552D01*
X61607Y20587D01*
X61516Y20599D01*
D02*
G37*
G36*
X56720Y14800D02*
X56424D01*
Y14544D01*
X56720D01*
Y14800D01*
D02*
G37*
G36*
Y15256D02*
X56424D01*
Y15000D01*
X56720D01*
Y15256D01*
D02*
G37*
G36*
X61374Y19577D02*
X61217D01*
Y19400D01*
X61374D01*
Y19577D01*
D02*
G37*
G36*
X47483Y19642D02*
Y19356D01*
X47768D01*
X47768Y19359D01*
X47728Y19456D01*
X47665Y19538D01*
X47582Y19602D01*
X47486Y19641D01*
X47483Y19642D01*
D02*
G37*
G36*
X43345Y20611D02*
X43253Y20603D01*
X43065Y20558D01*
X42887Y20485D01*
X42723Y20384D01*
X42576Y20259D01*
X42451Y20112D01*
X42350Y19948D01*
X42276Y19769D01*
X42231Y19582D01*
X42224Y19490D01*
X43345D01*
Y20611D01*
D02*
G37*
G36*
X44300Y14975D02*
X43964D01*
X43967Y14959D01*
X44011Y14851D01*
X44083Y14758D01*
X44175Y14687D01*
X44284Y14642D01*
X44300Y14640D01*
Y14975D01*
D02*
G37*
G36*
X44835D02*
X44500D01*
Y14640D01*
X44516Y14642D01*
X44624Y14687D01*
X44717Y14758D01*
X44788Y14851D01*
X44833Y14959D01*
X44835Y14975D01*
D02*
G37*
G36*
X43545Y20611D02*
Y19490D01*
X44666D01*
X44659Y19582D01*
X44614Y19769D01*
X44540Y19948D01*
X44439Y20112D01*
X44314Y20259D01*
X44167Y20384D01*
X44003Y20485D01*
X43825Y20558D01*
X43637Y20603D01*
X43545Y20611D01*
D02*
G37*
G36*
X67892Y14270D02*
X67459D01*
Y14063D01*
X67892D01*
Y14270D01*
D02*
G37*
G36*
X50592Y21793D02*
X50415D01*
Y21635D01*
X50592D01*
Y21793D01*
D02*
G37*
G36*
X50215D02*
X50038D01*
Y21635D01*
X50215D01*
Y21793D01*
D02*
G37*
G36*
X49634Y13230D02*
X49457D01*
Y13072D01*
X49634D01*
Y13230D01*
D02*
G37*
G36*
X62176Y13107D02*
X61385D01*
Y12969D01*
Y12835D01*
X62176D01*
Y12969D01*
Y13107D01*
D02*
G37*
G36*
X51340Y21793D02*
X51163D01*
Y21635D01*
X51340D01*
Y21793D01*
D02*
G37*
G36*
X50963D02*
X50786D01*
Y21635D01*
X50963D01*
Y21793D01*
D02*
G37*
G36*
X50011Y13230D02*
X49834D01*
Y13072D01*
X50011D01*
Y13230D01*
D02*
G37*
G36*
X51914Y14042D02*
X51618D01*
Y13727D01*
X51914D01*
Y14042D01*
D02*
G37*
G36*
X52409D02*
X52114D01*
Y13727D01*
X52409D01*
Y14042D01*
D02*
G37*
G36*
X57215Y14390D02*
X56424D01*
Y13914D01*
Y13780D01*
X57215D01*
Y13914D01*
Y14390D01*
D02*
G37*
G36*
X48689Y13319D02*
X48493D01*
Y13112D01*
X48689D01*
Y13319D01*
D02*
G37*
G36*
X49086D02*
X48889D01*
Y13112D01*
X49086D01*
Y13319D01*
D02*
G37*
G36*
X62176Y13580D02*
X61385D01*
Y13442D01*
Y13307D01*
X62176D01*
Y13442D01*
Y13580D01*
D02*
G37*
G36*
X43345Y19290D02*
X42224D01*
X42231Y19198D01*
X42276Y19010D01*
X42350Y18832D01*
X42451Y18668D01*
X42576Y18521D01*
X42723Y18396D01*
X42887Y18295D01*
X43065Y18221D01*
X43253Y18176D01*
X43345Y18169D01*
Y19290D01*
D02*
G37*
G36*
X61270Y18327D02*
X61132D01*
Y18032D01*
X61270D01*
Y18327D01*
D02*
G37*
G36*
X62176Y16493D02*
X61385D01*
Y16355D01*
Y15883D01*
Y15410D01*
X62176D01*
Y15968D01*
X62507D01*
X62512Y15945D01*
X62556Y15879D01*
X62569Y15870D01*
Y15820D01*
X62556Y15812D01*
X62512Y15746D01*
X62497Y15670D01*
X63491D01*
X63476Y15746D01*
X63432Y15812D01*
X63420Y15820D01*
Y15870D01*
X63432Y15879D01*
X63476Y15945D01*
X63492Y16022D01*
Y16219D01*
X63476Y16296D01*
X63432Y16362D01*
X63367Y16406D01*
X63289Y16421D01*
X62699D01*
X62621Y16406D01*
X62556Y16362D01*
X62512Y16296D01*
X62507Y16273D01*
X62176D01*
Y16493D01*
D02*
G37*
G36*
X67892Y15838D02*
X67459D01*
Y15632D01*
X67892D01*
Y15838D01*
D02*
G37*
G36*
X68525D02*
X68092D01*
Y15632D01*
X68525D01*
Y15838D01*
D02*
G37*
G36*
X44666Y19290D02*
X43545D01*
Y18169D01*
X43637Y18176D01*
X43825Y18221D01*
X44003Y18295D01*
X44167Y18396D01*
X44314Y18521D01*
X44439Y18668D01*
X44540Y18832D01*
X44614Y19010D01*
X44659Y19198D01*
X44666Y19290D01*
D02*
G37*
G36*
X57215Y16020D02*
X56424D01*
Y15883D01*
Y15748D01*
X57215D01*
Y15883D01*
Y16020D01*
D02*
G37*
G36*
X61270Y17831D02*
X61132D01*
Y17536D01*
X61270D01*
Y17831D01*
D02*
G37*
G36*
X59200Y18327D02*
X58140D01*
Y17931D01*
Y17536D01*
X59200D01*
Y17931D01*
Y18327D01*
D02*
G37*
G36*
X62176Y16965D02*
X61385D01*
Y16828D01*
Y16693D01*
X62176D01*
Y16828D01*
Y16965D01*
D02*
G37*
G36*
X57215Y17776D02*
X56920D01*
Y17638D01*
X57215D01*
Y17776D01*
D02*
G37*
G36*
X56720D02*
X56424D01*
Y17638D01*
X56720D01*
Y17776D01*
D02*
G37*
G36*
X57215Y16493D02*
X56424D01*
Y16355D01*
Y16220D01*
X57215D01*
Y16355D01*
Y16493D01*
D02*
G37*
G36*
X65428Y15759D02*
X65251D01*
Y15601D01*
X65428D01*
Y15759D01*
D02*
G37*
G36*
X62176Y15256D02*
X61880D01*
Y15000D01*
X62176D01*
Y15256D01*
D02*
G37*
G36*
X44300Y15510D02*
X44284Y15508D01*
X44175Y15463D01*
X44083Y15392D01*
X44011Y15299D01*
X43967Y15191D01*
X43964Y15175D01*
X44300D01*
Y15510D01*
D02*
G37*
G36*
X62894Y15470D02*
X62497D01*
X62512Y15395D01*
X62556Y15329D01*
X62621Y15285D01*
X62699Y15270D01*
X62894D01*
Y15470D01*
D02*
G37*
G36*
X47283Y19642D02*
X47279Y19641D01*
X47183Y19602D01*
X47101Y19538D01*
X47037Y19456D01*
X46998Y19359D01*
X46997Y19356D01*
X47283D01*
Y19642D01*
D02*
G37*
G36*
X57215Y15256D02*
X56920D01*
Y15000D01*
X57215D01*
Y15256D01*
D02*
G37*
G36*
X61680D02*
X61385D01*
Y15000D01*
X61680D01*
Y15256D01*
D02*
G37*
G36*
X63491Y15470D02*
X63094D01*
Y15270D01*
X63289D01*
X63367Y15285D01*
X63432Y15329D01*
X63476Y15395D01*
X63491Y15470D01*
D02*
G37*
G36*
X59437Y18884D02*
X59237D01*
Y18689D01*
X59252Y18612D01*
X59296Y18546D01*
X59362Y18502D01*
X59437Y18487D01*
Y18884D01*
D02*
G37*
G36*
X65051Y15759D02*
X64874D01*
Y15601D01*
X65051D01*
Y15759D01*
D02*
G37*
G36*
X61374Y18600D02*
X61217D01*
Y18423D01*
X61374D01*
Y18600D01*
D02*
G37*
G36*
X56720Y15548D02*
X56424D01*
Y15410D01*
X56720D01*
Y15548D01*
D02*
G37*
G36*
X57215D02*
X56920D01*
Y15410D01*
X57215D01*
Y15548D01*
D02*
G37*
G36*
X64501Y15759D02*
Y15601D01*
X64678D01*
Y15759D01*
X64501D01*
D02*
G37*
G36*
X63233Y30914D02*
X63154Y30904D01*
X63081Y30873D01*
X63019Y30825D01*
X62971Y30763D01*
X62940Y30690D01*
X62930Y30611D01*
X62940Y30533D01*
X62971Y30460D01*
X63019Y30397D01*
X63081Y30349D01*
X63154Y30319D01*
X63233Y30309D01*
X63311Y30319D01*
X63384Y30349D01*
X63447Y30397D01*
X63495Y30460D01*
X63525Y30533D01*
X63535Y30611D01*
X63525Y30690D01*
X63495Y30763D01*
X63447Y30825D01*
X63384Y30873D01*
X63311Y30904D01*
X63233Y30914D01*
D02*
G37*
G36*
X61658D02*
X61580Y30904D01*
X61507Y30873D01*
X61444Y30825D01*
X61396Y30763D01*
X61366Y30690D01*
X61355Y30611D01*
X61366Y30533D01*
X61396Y30460D01*
X61444Y30397D01*
X61507Y30349D01*
X61580Y30319D01*
X61658Y30309D01*
X61736Y30319D01*
X61809Y30349D01*
X61872Y30397D01*
X61920Y30460D01*
X61950Y30533D01*
X61960Y30611D01*
X61950Y30690D01*
X61920Y30763D01*
X61872Y30825D01*
X61809Y30873D01*
X61736Y30904D01*
X61658Y30914D01*
D02*
G37*
G36*
X64020D02*
X63942Y30904D01*
X63869Y30873D01*
X63806Y30825D01*
X63758Y30763D01*
X63728Y30690D01*
X63717Y30611D01*
X63718Y30607D01*
X63718Y30589D01*
X63717Y30571D01*
X63715Y30556D01*
X63712Y30542D01*
X63709Y30531D01*
X63706Y30521D01*
X63702Y30513D01*
X63698Y30507D01*
X63696Y30504D01*
X55785Y22593D01*
X54958D01*
X54900Y22581D01*
X54850Y22548D01*
X53378Y21076D01*
X53332Y21095D01*
Y22857D01*
X60763Y30288D01*
X60766Y30290D01*
X60772Y30293D01*
X60780Y30297D01*
X60790Y30300D01*
X60801Y30303D01*
X60813Y30306D01*
X60849Y30309D01*
X60866Y30309D01*
X60870Y30309D01*
X60949Y30319D01*
X61022Y30349D01*
X61084Y30397D01*
X61133Y30460D01*
X61163Y30533D01*
X61173Y30611D01*
X61163Y30690D01*
X61133Y30763D01*
X61084Y30825D01*
X61022Y30873D01*
X60949Y30904D01*
X60870Y30914D01*
X60792Y30904D01*
X60719Y30873D01*
X60657Y30825D01*
X60608Y30763D01*
X60578Y30690D01*
X60568Y30611D01*
X60568Y30607D01*
X60568Y30589D01*
X60567Y30571D01*
X60565Y30556D01*
X60563Y30542D01*
X60559Y30531D01*
X60556Y30521D01*
X60552Y30513D01*
X60549Y30507D01*
X60547Y30504D01*
X53168Y23125D01*
X53122Y23144D01*
Y23279D01*
X52508D01*
Y23279D01*
X52492D01*
Y23279D01*
X52103D01*
Y29554D01*
X52116Y29566D01*
X52149Y29616D01*
X52151Y29624D01*
X52521D01*
Y30612D01*
X51163D01*
Y30118D01*
Y29624D01*
X51550D01*
X51552Y29616D01*
X51585Y29566D01*
X51597Y29554D01*
Y20658D01*
X51552Y20649D01*
X51516Y20624D01*
X51479Y20649D01*
X51417Y20661D01*
X51412Y20660D01*
X51373Y20692D01*
Y20827D01*
X51362Y20885D01*
X51340Y20918D01*
Y21228D01*
X51340Y21242D01*
Y21278D01*
X51340Y21292D01*
Y21435D01*
X51245D01*
X51245Y21435D01*
X51257Y21419D01*
X51271Y21401D01*
X51310Y21359D01*
X51219Y21308D01*
X51200Y21327D01*
X51164Y21357D01*
X51148Y21368D01*
X51133Y21377D01*
X51120Y21382D01*
X51108Y21386D01*
X51096Y21386D01*
X51087Y21384D01*
X51078Y21379D01*
X51152Y21435D01*
X50786D01*
Y21292D01*
X50786Y21278D01*
X50757Y21240D01*
X50726Y21239D01*
X50619D01*
X50592Y21278D01*
Y21435D01*
X50038D01*
Y21413D01*
X47908D01*
X47881Y21415D01*
X47845Y21421D01*
X47817Y21429D01*
X47797Y21437D01*
X47786Y21444D01*
X47781Y21448D01*
X47779Y21450D01*
X47779Y21452D01*
X47778Y21459D01*
Y21652D01*
X46987D01*
Y20861D01*
X47673D01*
X47677Y20860D01*
X47680Y20861D01*
X47683Y20860D01*
X47685Y20861D01*
X47778D01*
Y20896D01*
X47885Y20903D01*
X50036D01*
X50038Y20901D01*
Y20727D01*
X50487D01*
X50491Y20726D01*
X50492Y20726D01*
X50493Y20726D01*
X50528Y20727D01*
X50592D01*
Y20728D01*
X50652Y20729D01*
X50786D01*
Y20727D01*
X50883D01*
X50887Y20726D01*
X50888Y20726D01*
X50888Y20726D01*
X50892Y20727D01*
X51068D01*
Y20561D01*
X51067Y20542D01*
X51067Y20542D01*
X51067Y20542D01*
X51066Y20539D01*
X51066Y20539D01*
X51058Y20499D01*
Y19908D01*
X51061Y19893D01*
X51019Y19851D01*
X51004Y19854D01*
X50778D01*
X50774Y19856D01*
X50767Y19858D01*
X50760Y19863D01*
X50751Y19868D01*
X50742Y19875D01*
X50738Y19879D01*
X50252Y20364D01*
X50203Y20398D01*
X50144Y20409D01*
X47843D01*
X47834Y20411D01*
X47822Y20415D01*
X47806Y20422D01*
X47788Y20433D01*
X47767Y20446D01*
X47745Y20462D01*
X47693Y20508D01*
X47671Y20530D01*
X47665Y20538D01*
X47582Y20602D01*
X47486Y20641D01*
X47383Y20655D01*
X47279Y20641D01*
X47183Y20602D01*
X47101Y20538D01*
X47037Y20456D01*
X46998Y20359D01*
X46984Y20256D01*
X46998Y20153D01*
X47037Y20057D01*
X47101Y19974D01*
X47183Y19911D01*
X47279Y19871D01*
X47383Y19858D01*
X47486Y19871D01*
X47582Y19911D01*
X47665Y19974D01*
X47671Y19983D01*
X47693Y20005D01*
X47745Y20050D01*
X47767Y20066D01*
X47788Y20080D01*
X47806Y20090D01*
X47822Y20097D01*
X47834Y20102D01*
X47843Y20103D01*
X50081D01*
X50318Y19866D01*
X50313Y19816D01*
X50299Y19806D01*
X50264Y19754D01*
X50251Y19692D01*
X50264Y19630D01*
X50288Y19593D01*
X50264Y19557D01*
X50251Y19495D01*
X50252Y19490D01*
X50221Y19451D01*
X50056D01*
X49997Y19439D01*
X49948Y19406D01*
X49445Y18903D01*
X47654D01*
X47637Y18953D01*
X47665Y18974D01*
X47728Y19057D01*
X47768Y19153D01*
X47768Y19156D01*
X46997D01*
X46998Y19153D01*
X47037Y19057D01*
X47101Y18974D01*
X47143Y18942D01*
X47144Y18924D01*
X47136Y18884D01*
X47097Y18858D01*
X46782Y18543D01*
X46748Y18494D01*
X46737Y18435D01*
Y16909D01*
X46748Y16851D01*
X46782Y16801D01*
X47032Y16551D01*
X47036Y16545D01*
X47039Y16538D01*
X47041Y16529D01*
X47043Y16517D01*
X47042Y16503D01*
X47040Y16485D01*
X47035Y16464D01*
X47028Y16440D01*
X47016Y16409D01*
X47015Y16401D01*
X46998Y16359D01*
X46984Y16256D01*
X46998Y16153D01*
X47037Y16057D01*
X47101Y15974D01*
X47183Y15911D01*
X47279Y15871D01*
X47300Y15869D01*
X47316Y15821D01*
X46860Y15366D01*
X46829Y15340D01*
X46788Y15313D01*
X46747Y15290D01*
X46704Y15270D01*
X46660Y15254D01*
X46614Y15241D01*
X46567Y15232D01*
X46526Y15227D01*
X45608D01*
X44906Y15929D01*
X44905Y15930D01*
X44889Y15951D01*
X44877Y15970D01*
X44867Y15989D01*
X44859Y16007D01*
X44853Y16023D01*
X44849Y16040D01*
X44847Y16055D01*
X44846Y16063D01*
X44848Y16075D01*
X44833Y16191D01*
X44788Y16299D01*
X44717Y16392D01*
X44624Y16463D01*
X44516Y16508D01*
X44400Y16523D01*
X44284Y16508D01*
X44175Y16463D01*
X44083Y16392D01*
X44011Y16299D01*
X43967Y16191D01*
X43951Y16075D01*
X43967Y15959D01*
X44011Y15851D01*
X44083Y15758D01*
X44175Y15687D01*
X44284Y15642D01*
X44400Y15626D01*
X44411Y15628D01*
X44419Y15628D01*
X44435Y15625D01*
X44451Y15622D01*
X44468Y15616D01*
X44486Y15608D01*
X44504Y15598D01*
X44524Y15585D01*
X44544Y15570D01*
X44545Y15569D01*
X44578Y15536D01*
X44549Y15494D01*
X44516Y15508D01*
X44500Y15510D01*
Y15175D01*
X44835D01*
X44833Y15191D01*
X44819Y15225D01*
X44861Y15253D01*
X45322Y14792D01*
X45404Y14737D01*
X45502Y14718D01*
X49436D01*
X49462Y14715D01*
X49498Y14709D01*
X49527Y14702D01*
X49546Y14694D01*
X49558Y14687D01*
X49562Y14683D01*
X49563Y14682D01*
X49564Y14681D01*
X49565Y14665D01*
X49565Y14665D01*
X49565Y14575D01*
X49565Y14525D01*
Y13945D01*
X50054D01*
X50058Y13945D01*
X50062Y13945D01*
X50159D01*
Y13997D01*
X50174Y13998D01*
X50602D01*
X50611Y13997D01*
X50619Y13996D01*
Y13727D01*
X51409D01*
Y14519D01*
X51409Y14557D01*
X51409Y14607D01*
Y15399D01*
X51228D01*
X51227Y15402D01*
X51223Y15417D01*
X51219Y15438D01*
X51218Y15453D01*
Y15551D01*
X51218Y15556D01*
X51220Y15580D01*
X51221Y15589D01*
X51271D01*
Y15686D01*
X51272Y15690D01*
X51271Y15694D01*
Y15904D01*
X51293Y15930D01*
X51329Y15965D01*
X51362Y16014D01*
X51373Y16073D01*
Y16526D01*
X51412Y16558D01*
X51417Y16557D01*
X51479Y16569D01*
X51516Y16594D01*
X51552Y16569D01*
X51614Y16557D01*
X51676Y16569D01*
X51713Y16594D01*
X51749Y16569D01*
X51811Y16557D01*
X51816Y16558D01*
X51855Y16526D01*
Y15399D01*
X51618D01*
Y14607D01*
X51618Y14569D01*
X51618Y14519D01*
Y14242D01*
X52409D01*
Y14519D01*
X52409Y14557D01*
X52409Y14607D01*
Y15399D01*
X52161D01*
Y16526D01*
X52199Y16558D01*
X52205Y16557D01*
X52267Y16569D01*
X52303Y16594D01*
X52340Y16569D01*
X52402Y16557D01*
X52464Y16569D01*
X52500Y16594D01*
X52536Y16569D01*
X52598Y16557D01*
X52632Y16529D01*
Y16037D01*
X52631Y16031D01*
X52628Y16021D01*
X52623Y16008D01*
X52616Y15994D01*
X52606Y15979D01*
X52594Y15962D01*
X52559Y15921D01*
X52542Y15904D01*
X52536Y15899D01*
X52480Y15826D01*
X52444Y15741D01*
X52432Y15650D01*
X52444Y15558D01*
X52480Y15473D01*
X52536Y15400D01*
X52609Y15344D01*
X52694Y15309D01*
X52785Y15297D01*
X52877Y15309D01*
X52952Y15340D01*
X53002Y15319D01*
Y14223D01*
X51354Y12574D01*
X50047D01*
X50011Y12610D01*
Y12665D01*
X50011Y12679D01*
Y12715D01*
X50011Y12729D01*
Y12872D01*
X49457D01*
Y12729D01*
X49457Y12715D01*
Y12679D01*
X49457Y12665D01*
Y12595D01*
X49455Y12594D01*
X49440Y12590D01*
X49418Y12587D01*
X49404Y12586D01*
X49140D01*
X49125Y12587D01*
X49104Y12591D01*
X49089Y12595D01*
X49086Y12596D01*
X49086Y12689D01*
X49086Y12739D01*
Y12912D01*
X48493D01*
Y12739D01*
X48493Y12705D01*
X48493Y12655D01*
Y12596D01*
X48490Y12595D01*
X48475Y12591D01*
X48453Y12587D01*
X48438Y12586D01*
X48077D01*
X48062Y12587D01*
X48041Y12591D01*
X48026Y12595D01*
X48023Y12596D01*
X48023Y12689D01*
X48023Y12739D01*
Y13319D01*
X47430D01*
Y13226D01*
X47427Y13225D01*
X47412Y13221D01*
X47390Y13217D01*
X47375Y13216D01*
X45547D01*
X44904Y13859D01*
X44895Y13870D01*
X44884Y13888D01*
X44874Y13908D01*
X44866Y13930D01*
X44859Y13953D01*
X44853Y13979D01*
X44849Y14007D01*
X44847Y14038D01*
X44846Y14062D01*
X44848Y14075D01*
X44833Y14191D01*
X44788Y14299D01*
X44717Y14392D01*
X44624Y14463D01*
X44516Y14508D01*
X44400Y14523D01*
X44284Y14508D01*
X44175Y14463D01*
X44083Y14392D01*
X44011Y14299D01*
X43967Y14191D01*
X43951Y14075D01*
X43967Y13959D01*
X44011Y13851D01*
X44083Y13758D01*
X44175Y13687D01*
X44284Y13642D01*
X44400Y13626D01*
X44413Y13628D01*
X44437Y13628D01*
X44467Y13625D01*
X44495Y13621D01*
X44521Y13616D01*
X44545Y13609D01*
X44566Y13600D01*
X44586Y13590D01*
X44604Y13579D01*
X44616Y13570D01*
X45259Y12927D01*
X45299Y12868D01*
X45365Y12823D01*
X45443Y12808D01*
X47375D01*
X47390Y12807D01*
X47412Y12803D01*
X47427Y12799D01*
X47430Y12798D01*
X47430Y12705D01*
X47430Y12655D01*
Y12075D01*
X48023D01*
Y12168D01*
X48026Y12169D01*
X48041Y12173D01*
X48062Y12177D01*
X48077Y12178D01*
X48438D01*
X48453Y12177D01*
X48475Y12173D01*
X48490Y12169D01*
X48493Y12168D01*
Y12075D01*
X49086D01*
Y12168D01*
X49089Y12169D01*
X49104Y12173D01*
X49125Y12177D01*
X49140Y12178D01*
X49456D01*
X49457Y12178D01*
Y12164D01*
X49554D01*
X49558Y12163D01*
X49562Y12164D01*
X50011D01*
Y12268D01*
X51417D01*
X51476Y12280D01*
X51525Y12313D01*
X53264Y14051D01*
X53297Y14101D01*
X53308Y14159D01*
Y15900D01*
X53297Y15958D01*
X53264Y16008D01*
X53145Y16126D01*
Y16526D01*
X53184Y16558D01*
X53189Y16557D01*
X53194Y16558D01*
X53233Y16526D01*
Y16319D01*
X53245Y16260D01*
X53278Y16211D01*
X55005Y14484D01*
Y12082D01*
X55016Y12024D01*
X55049Y11974D01*
X55911Y11112D01*
X55961Y11079D01*
X56019Y11068D01*
X57707D01*
X57765Y11079D01*
X57815Y11112D01*
X58148Y11446D01*
X58167Y11473D01*
X59200D01*
Y11868D01*
Y12264D01*
X57330D01*
Y11582D01*
X57330Y11582D01*
X57292Y11543D01*
X56153D01*
X55480Y12216D01*
Y15401D01*
X55469Y15459D01*
X55436Y15509D01*
X54101Y16844D01*
Y17364D01*
X54193D01*
X54255Y17377D01*
X54308Y17412D01*
X54343Y17464D01*
X54355Y17526D01*
X54343Y17588D01*
X54318Y17625D01*
X54343Y17661D01*
X54355Y17723D01*
X54343Y17785D01*
X54318Y17822D01*
X54343Y17858D01*
X54355Y17920D01*
X54343Y17982D01*
X54318Y18018D01*
X54343Y18055D01*
X54355Y18117D01*
X54343Y18179D01*
X54318Y18215D01*
X54343Y18252D01*
X54355Y18314D01*
X54354Y18319D01*
X54386Y18358D01*
X55570D01*
X56058Y17870D01*
Y17323D01*
X56069Y17264D01*
X56102Y17215D01*
X56360Y16957D01*
X56410Y16924D01*
X56424Y16921D01*
Y16693D01*
X57215D01*
Y16828D01*
Y17300D01*
Y17438D01*
X56422D01*
X56374Y17412D01*
X56364Y17420D01*
Y17933D01*
X56352Y17992D01*
X56319Y18041D01*
X56114Y18246D01*
X56133Y18292D01*
X57330D01*
Y17536D01*
X57940D01*
Y17931D01*
Y18327D01*
X57713D01*
X57709Y18347D01*
X57676Y18397D01*
X57520Y18553D01*
X57470Y18586D01*
X57411Y18598D01*
X56003D01*
X55842Y18759D01*
X55845Y18796D01*
X56443Y19394D01*
X59221D01*
X59250Y19344D01*
X59237Y19280D01*
Y19084D01*
X59537D01*
Y18984D01*
X59637D01*
Y18487D01*
X59713Y18502D01*
X59779Y18546D01*
X59787Y18559D01*
X59837D01*
X59846Y18546D01*
X59912Y18502D01*
X59934Y18498D01*
Y18327D01*
X59400D01*
Y17931D01*
Y17536D01*
X60932D01*
Y17931D01*
Y18327D01*
X60713D01*
Y19312D01*
X60701Y19371D01*
X60668Y19420D01*
X60433Y19655D01*
X60383Y19689D01*
X60325Y19700D01*
X57327D01*
X57308Y19746D01*
X59188Y21626D01*
X59191Y21628D01*
X59197Y21632D01*
X59205Y21635D01*
X59215Y21639D01*
X59226Y21642D01*
X59239Y21644D01*
X59275Y21648D01*
X59291Y21648D01*
X59296Y21647D01*
X59374Y21658D01*
X59447Y21688D01*
X59510Y21736D01*
X59558Y21799D01*
X59588Y21872D01*
X59598Y21950D01*
X59588Y22028D01*
X59572Y22067D01*
X59605Y22117D01*
X59773D01*
X59807Y22067D01*
X59791Y22028D01*
X59780Y21950D01*
X59791Y21872D01*
X59821Y21799D01*
X59869Y21736D01*
X59932Y21688D01*
X60005Y21658D01*
X60083Y21647D01*
X60161Y21658D01*
X60234Y21688D01*
X60297Y21736D01*
X60345Y21799D01*
X60361Y21837D01*
X60420Y21849D01*
X60427Y21842D01*
X60477Y21809D01*
X60536Y21797D01*
X60566D01*
X60569Y21797D01*
X60576Y21795D01*
X60584Y21792D01*
X60593Y21787D01*
X60604Y21781D01*
X60614Y21774D01*
X60642Y21751D01*
X60654Y21740D01*
X60657Y21736D01*
X60719Y21688D01*
X60792Y21658D01*
X60870Y21647D01*
X60949Y21658D01*
X61022Y21688D01*
X61084Y21736D01*
X61133Y21799D01*
X61163Y21872D01*
X61173Y21950D01*
X61163Y22028D01*
X61133Y22101D01*
X61084Y22164D01*
X61022Y22212D01*
X60949Y22242D01*
X60870Y22253D01*
X60792Y22242D01*
X60719Y22212D01*
X60657Y22164D01*
X60654Y22160D01*
X60641Y22148D01*
X60628Y22136D01*
X60615Y22127D01*
X60604Y22119D01*
X60593Y22113D01*
X60590Y22111D01*
X60324Y22378D01*
X60274Y22411D01*
X60216Y22423D01*
X56113D01*
X56094Y22469D01*
X63913Y30288D01*
X63915Y30290D01*
X63922Y30293D01*
X63930Y30297D01*
X63939Y30300D01*
X63951Y30303D01*
X63963Y30306D01*
X63999Y30309D01*
X64016Y30309D01*
X64020Y30309D01*
X64098Y30319D01*
X64171Y30349D01*
X64234Y30397D01*
X64282Y30460D01*
X64312Y30533D01*
X64323Y30611D01*
X64312Y30690D01*
X64282Y30763D01*
X64234Y30825D01*
X64171Y30873D01*
X64098Y30904D01*
X64020Y30914D01*
D02*
G37*
G36*
X64807D02*
X64729Y30904D01*
X64656Y30873D01*
X64594Y30825D01*
X64545Y30763D01*
X64515Y30690D01*
X64505Y30611D01*
X64515Y30533D01*
X64545Y30460D01*
X64594Y30397D01*
X64656Y30349D01*
X64729Y30319D01*
X64807Y30309D01*
X64886Y30319D01*
X64959Y30349D01*
X65021Y30397D01*
X65070Y30460D01*
X65100Y30533D01*
X65110Y30611D01*
X65100Y30690D01*
X65070Y30763D01*
X65021Y30825D01*
X64959Y30873D01*
X64886Y30904D01*
X64807Y30914D01*
D02*
G37*
G36*
X49126Y30540D02*
X48929D01*
Y30333D01*
X49126D01*
Y30540D01*
D02*
G37*
G36*
X62729Y30511D02*
X62545D01*
Y30328D01*
X62597Y30349D01*
X62659Y30397D01*
X62707Y30460D01*
X62729Y30511D01*
D02*
G37*
G36*
X62345D02*
X62162D01*
X62183Y30460D01*
X62231Y30397D01*
X62294Y30349D01*
X62345Y30328D01*
Y30511D01*
D02*
G37*
G36*
X50963Y30612D02*
X50865D01*
Y30218D01*
X50963D01*
Y30612D01*
D02*
G37*
G36*
Y30018D02*
X50865D01*
Y29624D01*
X50963D01*
Y30018D01*
D02*
G37*
G36*
X46340Y27183D02*
X46203Y27170D01*
X46071Y27130D01*
X45949Y27065D01*
X45843Y26977D01*
X45755Y26871D01*
X45690Y26749D01*
X45650Y26617D01*
X45637Y26480D01*
X45650Y26343D01*
X45690Y26211D01*
X45755Y26089D01*
X45843Y25983D01*
X45949Y25895D01*
X46071Y25830D01*
X46203Y25790D01*
X46340Y25777D01*
X46477Y25790D01*
X46609Y25830D01*
X46731Y25895D01*
X46837Y25983D01*
X46925Y26089D01*
X46990Y26211D01*
X47030Y26343D01*
X47043Y26480D01*
X47030Y26617D01*
X46990Y26749D01*
X46925Y26871D01*
X46837Y26977D01*
X46731Y27065D01*
X46609Y27130D01*
X46477Y27170D01*
X46340Y27183D01*
D02*
G37*
G36*
X57721Y30914D02*
X57643Y30904D01*
X57570Y30873D01*
X57507Y30825D01*
X57459Y30763D01*
X57429Y30690D01*
X57418Y30611D01*
X57429Y30533D01*
X57459Y30460D01*
X57507Y30397D01*
X57570Y30349D01*
X57643Y30319D01*
X57721Y30309D01*
X57799Y30319D01*
X57872Y30349D01*
X57935Y30397D01*
X57983Y30460D01*
X58013Y30533D01*
X58023Y30611D01*
X58013Y30690D01*
X57983Y30763D01*
X57935Y30825D01*
X57872Y30873D01*
X57799Y30904D01*
X57721Y30914D01*
D02*
G37*
G36*
X60083D02*
X60005Y30904D01*
X59932Y30873D01*
X59869Y30825D01*
X59821Y30763D01*
X59791Y30690D01*
X59780Y30611D01*
X59791Y30533D01*
X59821Y30460D01*
X59869Y30397D01*
X59932Y30349D01*
X60005Y30319D01*
X60083Y30309D01*
X60161Y30319D01*
X60234Y30349D01*
X60297Y30397D01*
X60345Y30460D01*
X60375Y30533D01*
X60386Y30611D01*
X60375Y30690D01*
X60345Y30763D01*
X60297Y30825D01*
X60234Y30873D01*
X60161Y30904D01*
X60083Y30914D01*
D02*
G37*
G36*
X59296D02*
X59217Y30904D01*
X59144Y30873D01*
X59082Y30825D01*
X59034Y30763D01*
X59003Y30690D01*
X58993Y30611D01*
X59003Y30533D01*
X59034Y30460D01*
X59082Y30397D01*
X59144Y30349D01*
X59217Y30319D01*
X59296Y30309D01*
X59374Y30319D01*
X59447Y30349D01*
X59510Y30397D01*
X59558Y30460D01*
X59588Y30533D01*
X59598Y30611D01*
X59588Y30690D01*
X59558Y30763D01*
X59510Y30825D01*
X59447Y30873D01*
X59374Y30904D01*
X59296Y30914D01*
D02*
G37*
G36*
X58508D02*
X58430Y30904D01*
X58357Y30873D01*
X58294Y30825D01*
X58246Y30763D01*
X58216Y30690D01*
X58206Y30611D01*
X58216Y30533D01*
X58246Y30460D01*
X58294Y30397D01*
X58357Y30349D01*
X58430Y30319D01*
X58508Y30309D01*
X58587Y30319D01*
X58660Y30349D01*
X58722Y30397D01*
X58770Y30460D01*
X58801Y30533D01*
X58811Y30611D01*
X58801Y30690D01*
X58770Y30763D01*
X58722Y30825D01*
X58660Y30873D01*
X58587Y30904D01*
X58508Y30914D01*
D02*
G37*
G36*
X61270Y12264D02*
X61132D01*
Y11968D01*
X61270D01*
Y12264D01*
D02*
G37*
G36*
X56720Y12162D02*
X56424D01*
Y12024D01*
X56720D01*
Y12162D01*
D02*
G37*
G36*
X45490Y32183D02*
X45353Y32170D01*
X45221Y32130D01*
X45099Y32065D01*
X44993Y31977D01*
X44905Y31871D01*
X44840Y31749D01*
X44800Y31617D01*
X44787Y31480D01*
X44800Y31343D01*
X44840Y31211D01*
X44905Y31089D01*
X44993Y30983D01*
X45099Y30895D01*
X45221Y30830D01*
X45353Y30790D01*
X45490Y30777D01*
X45627Y30790D01*
X45759Y30830D01*
X45881Y30895D01*
X45987Y30983D01*
X46075Y31089D01*
X46140Y31211D01*
X46180Y31343D01*
X46193Y31480D01*
X46180Y31617D01*
X46140Y31749D01*
X46075Y31871D01*
X45987Y31977D01*
X45881Y32065D01*
X45759Y32130D01*
X45627Y32170D01*
X45490Y32183D01*
D02*
G37*
G36*
X61270Y11768D02*
X61132D01*
Y11473D01*
X61270D01*
Y11768D01*
D02*
G37*
G36*
X53939Y31950D02*
X52754D01*
Y31316D01*
X52752Y31315D01*
X52737Y31311D01*
X52715Y31308D01*
X52700Y31306D01*
X50686D01*
X50671Y31308D01*
X50649Y31311D01*
X50634Y31315D01*
X50631Y31316D01*
Y31950D01*
X49447D01*
Y31316D01*
X49445Y31315D01*
X49429Y31311D01*
X49408Y31308D01*
X49393Y31306D01*
X49180D01*
X49165Y31308D01*
X49144Y31311D01*
X49128Y31315D01*
X49126Y31316D01*
Y31576D01*
X48532D01*
Y31450D01*
X48525Y31449D01*
X48516Y31448D01*
X48371D01*
X48369Y31448D01*
X48368Y31448D01*
Y31488D01*
X48271D01*
X48267Y31489D01*
X48263Y31488D01*
X47813D01*
Y30987D01*
X47813Y30973D01*
Y30937D01*
X47813Y30923D01*
Y30779D01*
X48267D01*
Y30835D01*
X48269Y30817D01*
X48275Y30801D01*
X48285Y30787D01*
X48293Y30779D01*
X48368D01*
Y30923D01*
X48368Y30937D01*
Y30973D01*
X48368Y30987D01*
Y31089D01*
X48375Y31090D01*
X48384Y31091D01*
X48516D01*
X48525Y31090D01*
X48532Y31089D01*
Y30996D01*
X48532Y30963D01*
X48532D01*
Y30946D01*
X48532Y30946D01*
Y30748D01*
X48536Y30749D01*
X48562Y30756D01*
X48584Y30765D01*
X48602Y30776D01*
X48616Y30789D01*
X48626Y30804D01*
X48632Y30821D01*
X48634Y30840D01*
Y30740D01*
X49126D01*
Y30898D01*
X49393D01*
X49408Y30897D01*
X49429Y30894D01*
X49445Y30890D01*
X49447Y30888D01*
Y30254D01*
X50631D01*
Y30888D01*
X50634Y30890D01*
X50649Y30894D01*
X50671Y30897D01*
X50686Y30898D01*
X52700D01*
X52715Y30897D01*
X52737Y30894D01*
X52752Y30890D01*
X52754Y30888D01*
Y30254D01*
X53939D01*
Y31950D01*
D02*
G37*
G36*
X60460Y12264D02*
X59400D01*
Y11868D01*
Y11473D01*
X60460D01*
Y11868D01*
Y12264D01*
D02*
G37*
G36*
X60932D02*
X60660D01*
Y11868D01*
Y11473D01*
X60932D01*
Y11868D01*
Y12264D01*
D02*
G37*
G36*
X48267Y30579D02*
X48191D01*
Y30422D01*
X48368D01*
Y30535D01*
X48275Y30529D01*
X48269Y30526D01*
X48267Y30523D01*
Y30579D01*
D02*
G37*
G36*
X47991D02*
X47813D01*
Y30422D01*
X47991D01*
Y30579D01*
D02*
G37*
G36*
X57215Y12162D02*
X56920D01*
Y12024D01*
X57215D01*
Y12162D01*
D02*
G37*
G36*
X48729Y30540D02*
X48634D01*
Y30440D01*
X48632Y30459D01*
X48626Y30476D01*
X48616Y30491D01*
X48602Y30504D01*
X48584Y30515D01*
X48562Y30524D01*
X48536Y30531D01*
X48532Y30531D01*
Y30333D01*
X48729D01*
Y30540D01*
D02*
G37*
G36*
X43490Y32183D02*
X43353Y32170D01*
X43221Y32130D01*
X43099Y32065D01*
X42993Y31977D01*
X42905Y31871D01*
X42840Y31749D01*
X42800Y31617D01*
X42787Y31480D01*
X42800Y31343D01*
X42840Y31211D01*
X42905Y31089D01*
X42993Y30983D01*
X43099Y30895D01*
X43221Y30830D01*
X43353Y30790D01*
X43490Y30777D01*
X43627Y30790D01*
X43759Y30830D01*
X43881Y30895D01*
X43987Y30983D01*
X44075Y31089D01*
X44140Y31211D01*
X44180Y31343D01*
X44193Y31480D01*
X44180Y31617D01*
X44140Y31749D01*
X44075Y31871D01*
X43987Y31977D01*
X43881Y32065D01*
X43759Y32130D01*
X43627Y32170D01*
X43490Y32183D01*
D02*
G37*
G36*
X62545Y30895D02*
Y30711D01*
X62729D01*
X62707Y30763D01*
X62659Y30825D01*
X62597Y30873D01*
X62545Y30895D01*
D02*
G37*
G36*
X62345D02*
X62294Y30873D01*
X62231Y30825D01*
X62183Y30763D01*
X62162Y30711D01*
X62345D01*
Y30895D01*
D02*
G37*
G36*
X43445Y24556D02*
X43253Y24540D01*
X43065Y24495D01*
X42887Y24422D01*
X42723Y24321D01*
X42576Y24196D01*
X42451Y24049D01*
X42350Y23885D01*
X42276Y23706D01*
X42231Y23519D01*
X42216Y23327D01*
X42231Y23135D01*
X42276Y22947D01*
X42350Y22769D01*
X42451Y22605D01*
X42576Y22458D01*
X42723Y22333D01*
X42887Y22232D01*
X43065Y22158D01*
X43253Y22113D01*
X43445Y22098D01*
X43637Y22113D01*
X43825Y22158D01*
X44003Y22232D01*
X44167Y22333D01*
X44314Y22458D01*
X44439Y22605D01*
X44540Y22769D01*
X44614Y22947D01*
X44659Y23135D01*
X44674Y23327D01*
X44659Y23519D01*
X44614Y23706D01*
X44540Y23885D01*
X44439Y24049D01*
X44314Y24196D01*
X44167Y24321D01*
X44003Y24422D01*
X43825Y24495D01*
X43637Y24540D01*
X43445Y24556D01*
D02*
G37*
G36*
X47383Y22977D02*
X47279Y22964D01*
X47183Y22924D01*
X47101Y22861D01*
X47037Y22778D01*
X46998Y22682D01*
X46984Y22579D01*
X46998Y22476D01*
X47037Y22379D01*
X47101Y22297D01*
X47183Y22233D01*
X47279Y22194D01*
X47383Y22180D01*
X47486Y22194D01*
X47582Y22233D01*
X47665Y22297D01*
X47728Y22379D01*
X47768Y22476D01*
X47781Y22579D01*
X47768Y22682D01*
X47728Y22778D01*
X47665Y22861D01*
X47582Y22924D01*
X47486Y22964D01*
X47383Y22977D01*
D02*
G37*
G36*
X64707Y22233D02*
X64656Y22212D01*
X64594Y22164D01*
X64545Y22101D01*
X64524Y22050D01*
X64707D01*
Y22233D01*
D02*
G37*
G36*
X64907D02*
Y22050D01*
X65091D01*
X65070Y22101D01*
X65021Y22164D01*
X64959Y22212D01*
X64907Y22233D01*
D02*
G37*
G36*
X46778Y22479D02*
X46483D01*
Y22183D01*
X46778D01*
Y22479D01*
D02*
G37*
G36*
X46283Y22974D02*
X45987D01*
Y22679D01*
X46283D01*
Y22974D01*
D02*
G37*
G36*
X48383Y22977D02*
X48279Y22964D01*
X48183Y22924D01*
X48101Y22861D01*
X48037Y22778D01*
X47998Y22682D01*
X47984Y22579D01*
X47998Y22476D01*
X48037Y22379D01*
X48101Y22297D01*
X48183Y22233D01*
X48279Y22194D01*
X48383Y22180D01*
X48486Y22194D01*
X48582Y22233D01*
X48665Y22297D01*
X48728Y22379D01*
X48768Y22476D01*
X48781Y22579D01*
X48768Y22682D01*
X48728Y22778D01*
X48665Y22861D01*
X48582Y22924D01*
X48486Y22964D01*
X48383Y22977D01*
D02*
G37*
G36*
X46283Y22479D02*
X45987D01*
Y22183D01*
X46283D01*
Y22479D01*
D02*
G37*
G36*
X63233Y22253D02*
X63154Y22242D01*
X63081Y22212D01*
X63019Y22164D01*
X62971Y22101D01*
X62940Y22028D01*
X62930Y21950D01*
X62940Y21872D01*
X62971Y21799D01*
X63019Y21736D01*
X63081Y21688D01*
X63154Y21658D01*
X63233Y21647D01*
X63311Y21658D01*
X63384Y21688D01*
X63447Y21736D01*
X63495Y21799D01*
X63525Y21872D01*
X63535Y21950D01*
X63525Y22028D01*
X63495Y22101D01*
X63447Y22164D01*
X63384Y22212D01*
X63311Y22242D01*
X63233Y22253D01*
D02*
G37*
G36*
X64020D02*
X63942Y22242D01*
X63869Y22212D01*
X63806Y22164D01*
X63758Y22101D01*
X63728Y22028D01*
X63717Y21950D01*
X63728Y21872D01*
X63758Y21799D01*
X63806Y21736D01*
X63869Y21688D01*
X63942Y21658D01*
X64020Y21647D01*
X64098Y21658D01*
X64171Y21688D01*
X64234Y21736D01*
X64282Y21799D01*
X64312Y21872D01*
X64323Y21950D01*
X64312Y22028D01*
X64282Y22101D01*
X64234Y22164D01*
X64171Y22212D01*
X64098Y22242D01*
X64020Y22253D01*
D02*
G37*
G36*
X61658D02*
X61580Y22242D01*
X61507Y22212D01*
X61444Y22164D01*
X61396Y22101D01*
X61366Y22028D01*
X61355Y21950D01*
X61366Y21872D01*
X61396Y21799D01*
X61444Y21736D01*
X61507Y21688D01*
X61580Y21658D01*
X61658Y21647D01*
X61736Y21658D01*
X61809Y21688D01*
X61872Y21736D01*
X61920Y21799D01*
X61950Y21872D01*
X61960Y21950D01*
X61950Y22028D01*
X61920Y22101D01*
X61872Y22164D01*
X61809Y22212D01*
X61736Y22242D01*
X61658Y22253D01*
D02*
G37*
G36*
X62445D02*
X62367Y22242D01*
X62294Y22212D01*
X62231Y22164D01*
X62183Y22101D01*
X62153Y22028D01*
X62143Y21950D01*
X62153Y21872D01*
X62183Y21799D01*
X62231Y21736D01*
X62294Y21688D01*
X62367Y21658D01*
X62445Y21647D01*
X62524Y21658D01*
X62597Y21688D01*
X62659Y21736D01*
X62707Y21799D01*
X62738Y21872D01*
X62748Y21950D01*
X62738Y22028D01*
X62707Y22101D01*
X62659Y22164D01*
X62597Y22212D01*
X62524Y22242D01*
X62445Y22253D01*
D02*
G37*
G36*
X57215Y13580D02*
X56424D01*
Y13442D01*
Y12969D01*
Y12835D01*
X57215D01*
Y12969D01*
Y13442D01*
Y13580D01*
D02*
G37*
G36*
Y12635D02*
X56424D01*
Y12497D01*
Y12362D01*
X57215D01*
Y12497D01*
Y12635D01*
D02*
G37*
G36*
X64707Y21850D02*
X64524D01*
X64545Y21799D01*
X64594Y21736D01*
X64656Y21688D01*
X64707Y21667D01*
Y21850D01*
D02*
G37*
G36*
X65091D02*
X64907D01*
Y21667D01*
X64959Y21688D01*
X65021Y21736D01*
X65070Y21799D01*
X65091Y21850D01*
D02*
G37*
G36*
X46778Y22974D02*
X46483D01*
Y22679D01*
X46778D01*
Y22974D01*
D02*
G37*
G36*
X44490Y27183D02*
X44353Y27170D01*
X44221Y27130D01*
X44099Y27065D01*
X43993Y26977D01*
X43905Y26871D01*
X43840Y26749D01*
X43800Y26617D01*
X43787Y26480D01*
X43800Y26343D01*
X43840Y26211D01*
X43905Y26089D01*
X43993Y25983D01*
X44099Y25895D01*
X44221Y25830D01*
X44353Y25790D01*
X44490Y25777D01*
X44627Y25790D01*
X44759Y25830D01*
X44881Y25895D01*
X44987Y25983D01*
X45075Y26089D01*
X45140Y26211D01*
X45180Y26343D01*
X45193Y26480D01*
X45180Y26617D01*
X45140Y26749D01*
X45075Y26871D01*
X44987Y26977D01*
X44881Y27065D01*
X44759Y27130D01*
X44627Y27170D01*
X44490Y27183D01*
D02*
G37*
G36*
X42640D02*
X42503Y27170D01*
X42371Y27130D01*
X42249Y27065D01*
X42143Y26977D01*
X42055Y26871D01*
X41990Y26749D01*
X41950Y26617D01*
X41937Y26480D01*
X41950Y26343D01*
X41990Y26211D01*
X42055Y26089D01*
X42143Y25983D01*
X42249Y25895D01*
X42371Y25830D01*
X42503Y25790D01*
X42640Y25777D01*
X42777Y25790D01*
X42909Y25830D01*
X43031Y25895D01*
X43137Y25983D01*
X43225Y26089D01*
X43290Y26211D01*
X43330Y26343D01*
X43343Y26480D01*
X43330Y26617D01*
X43290Y26749D01*
X43225Y26871D01*
X43137Y26977D01*
X43031Y27065D01*
X42909Y27130D01*
X42777Y27170D01*
X42640Y27183D01*
D02*
G37*
%LPD*%
G36*
X53602Y17364D02*
X53795D01*
Y16781D01*
X53806Y16722D01*
X53839Y16673D01*
X55175Y15338D01*
Y14812D01*
X55128Y14793D01*
X53539Y16382D01*
Y16658D01*
X53540Y16676D01*
X53540Y16676D01*
X53540Y16676D01*
X53540Y16679D01*
X53540Y16679D01*
X53548Y16719D01*
Y17310D01*
X53545Y17325D01*
X53588Y17367D01*
X53602Y17364D01*
D02*
G37*
G36*
X67194Y14745D02*
X67190Y14746D01*
X67178Y14746D01*
X67096Y14749D01*
X66800Y14750D01*
Y15150D01*
X67194Y15155D01*
Y14745D01*
D02*
G37*
G36*
X57666Y11574D02*
X57651Y11571D01*
X57635Y11566D01*
X57619Y11558D01*
X57601Y11549D01*
X57583Y11537D01*
X57564Y11523D01*
X57525Y11489D01*
X57504Y11468D01*
X57398Y11504D01*
X57404Y11510D01*
X57410Y11517D01*
X57415Y11524D01*
X57419Y11531D01*
X57423Y11538D01*
X57426Y11545D01*
X57428Y11552D01*
X57430Y11560D01*
X57431Y11567D01*
X57431Y11574D01*
X57680Y11576D01*
X57666Y11574D01*
D02*
G37*
G36*
X62601Y16021D02*
X62600Y16030D01*
X62597Y16039D01*
X62592Y16046D01*
X62585Y16053D01*
X62576Y16058D01*
X62565Y16063D01*
X62551Y16066D01*
X62536Y16068D01*
X62519Y16070D01*
X62500Y16070D01*
Y16170D01*
X62519Y16171D01*
X62536Y16172D01*
X62551Y16175D01*
X62565Y16178D01*
X62576Y16183D01*
X62585Y16188D01*
X62592Y16195D01*
X62597Y16202D01*
X62600Y16211D01*
X62601Y16220D01*
Y16021D01*
D02*
G37*
G36*
X62075Y16211D02*
X62078Y16202D01*
X62083Y16195D01*
X62090Y16188D01*
X62099Y16183D01*
X62110Y16178D01*
X62123Y16175D01*
X62138Y16172D01*
X62155Y16171D01*
X62174Y16170D01*
Y16070D01*
X62155Y16070D01*
X62138Y16068D01*
X62123Y16066D01*
X62110Y16062D01*
X62099Y16058D01*
X62090Y16052D01*
X62083Y16046D01*
X62078Y16038D01*
X62075Y16030D01*
X62074Y16020D01*
Y16220D01*
X62075Y16211D01*
D02*
G37*
G36*
X51200Y16085D02*
X51252Y16033D01*
X51226Y16007D01*
X51221Y16001D01*
X51182Y15956D01*
X51176Y15946D01*
X51171Y15938D01*
X51169Y15931D01*
X51169Y15926D01*
X51170Y15922D01*
X51162Y15934D01*
X51126Y15893D01*
X51119Y15881D01*
X51115Y15872D01*
X51114Y15865D01*
X51012Y15966D01*
X51020Y15968D01*
X51029Y15972D01*
X51041Y15979D01*
X51054Y15988D01*
X51088Y16016D01*
X51099Y16026D01*
X51089Y16042D01*
X51092Y16040D01*
X51097Y16039D01*
X51103Y16041D01*
X51110Y16044D01*
X51119Y16050D01*
X51129Y16057D01*
X51154Y16079D01*
X51185Y16108D01*
X51200Y16085D01*
D02*
G37*
G36*
X64225Y14794D02*
X64223Y14804D01*
X64217Y14814D01*
X64207Y14822D01*
X64193Y14830D01*
X64175Y14836D01*
X64153Y14841D01*
X64127Y14845D01*
X64097Y14848D01*
X64025Y14850D01*
Y15050D01*
X64063Y15051D01*
X64127Y15055D01*
X64153Y15059D01*
X64175Y15064D01*
X64193Y15070D01*
X64207Y15078D01*
X64217Y15086D01*
X64223Y15096D01*
X64225Y15106D01*
Y14794D01*
D02*
G37*
G36*
X49667Y15087D02*
Y14676D01*
X49664Y14704D01*
X49655Y14729D01*
X49640Y14751D01*
X49619Y14770D01*
X49592Y14786D01*
X49559Y14799D01*
X49520Y14809D01*
X49475Y14817D01*
X49424Y14821D01*
X49367Y14822D01*
Y15122D01*
X49667Y15087D01*
D02*
G37*
G36*
X53439Y16694D02*
X53439Y16690D01*
X53438Y16684D01*
X53437Y16655D01*
X53436Y16590D01*
X53336D01*
X53331Y16697D01*
X53440D01*
X53439Y16694D01*
D02*
G37*
G36*
X53046D02*
X53045Y16690D01*
X53044Y16684D01*
X53043Y16655D01*
X53042Y16590D01*
X52942D01*
X52938Y16697D01*
X53047D01*
X53046Y16694D01*
D02*
G37*
G36*
X50358Y14822D02*
X50301Y14821D01*
X50250Y14817D01*
X50205Y14809D01*
X50166Y14799D01*
X50133Y14786D01*
X50106Y14770D01*
X50085Y14751D01*
X50070Y14729D01*
X50061Y14704D01*
X50058Y14676D01*
Y15087D01*
X50061Y15094D01*
X50070Y15100D01*
X50085Y15105D01*
X50106Y15110D01*
X50133Y15114D01*
X50205Y15119D01*
X50358Y15122D01*
Y14822D01*
D02*
G37*
G36*
X49079Y16977D02*
X49069Y16974D01*
X49054Y16964D01*
X49033Y16949D01*
X48974Y16898D01*
X48787Y16719D01*
X48726Y16659D01*
X48515Y16872D01*
X48555Y16914D01*
X48591Y16957D01*
X48623Y16999D01*
X48651Y17041D01*
X48674Y17083D01*
X48693Y17124D01*
X48708Y17166D01*
X48719Y17207D01*
X48725Y17249D01*
X48727Y17290D01*
X49079Y16977D01*
D02*
G37*
G36*
X52652Y16694D02*
X52651Y16690D01*
X52651Y16684D01*
X52649Y16655D01*
X52648Y16590D01*
X52548D01*
X52544Y16697D01*
X52653D01*
X52652Y16694D01*
D02*
G37*
G36*
X52847Y16692D02*
X52845Y16685D01*
X52842Y16677D01*
X52841Y16667D01*
X52838Y16643D01*
X52836Y16613D01*
X52835Y16577D01*
X52735Y16562D01*
X52741Y16697D01*
X52850D01*
X52847Y16692D01*
D02*
G37*
G36*
X47209Y16663D02*
X47223Y16654D01*
X47241Y16643D01*
X47291Y16617D01*
X47444Y16550D01*
X47493Y16530D01*
X47111Y16372D01*
X47124Y16406D01*
X47134Y16438D01*
X47141Y16468D01*
X47144Y16496D01*
X47145Y16523D01*
X47142Y16548D01*
X47136Y16571D01*
X47126Y16592D01*
X47114Y16612D01*
X47098Y16630D01*
X47199Y16671D01*
X47209Y16663D01*
D02*
G37*
G36*
X52062Y16694D02*
X52061Y16690D01*
X52060Y16684D01*
X52059Y16655D01*
X52058Y16590D01*
X51958D01*
X51953Y16697D01*
X52062D01*
X52062Y16694D01*
D02*
G37*
G36*
X51274D02*
X51273Y16690D01*
X51273Y16684D01*
X51271Y16655D01*
X51270Y16590D01*
X51170D01*
X51166Y16697D01*
X51275D01*
X51274Y16694D01*
D02*
G37*
G36*
X50721Y14026D02*
X50719Y14041D01*
X50715Y14053D01*
X50707Y14065D01*
X50697Y14074D01*
X50683Y14083D01*
X50666Y14089D01*
X50647Y14095D01*
X50624Y14098D01*
X50598Y14101D01*
X50570Y14101D01*
Y14251D01*
X50598Y14252D01*
X50624Y14254D01*
X50647Y14258D01*
X50666Y14263D01*
X50683Y14270D01*
X50697Y14278D01*
X50707Y14288D01*
X50715Y14299D01*
X50719Y14312D01*
X50721Y14326D01*
Y14026D01*
D02*
G37*
G36*
X50058Y14312D02*
X50063Y14299D01*
X50070Y14288D01*
X50081Y14278D01*
X50095Y14270D01*
X50111Y14263D01*
X50131Y14258D01*
X50154Y14254D01*
X50179Y14252D01*
X50208Y14251D01*
Y14101D01*
X50179Y14101D01*
X50131Y14096D01*
X50112Y14093D01*
X50095Y14088D01*
X50082Y14082D01*
X50071Y14075D01*
X50064Y14066D01*
X50059Y14057D01*
X50058Y14046D01*
X50057Y14326D01*
X50058Y14312D01*
D02*
G37*
G36*
X47923Y12563D02*
X47929Y12546D01*
X47939Y12531D01*
X47953Y12518D01*
X47971Y12507D01*
X47993Y12498D01*
X48019Y12491D01*
X48050Y12486D01*
X48084Y12483D01*
X48122Y12482D01*
Y12282D01*
X48084Y12281D01*
X48050Y12278D01*
X48019Y12273D01*
X47993Y12266D01*
X47971Y12257D01*
X47953Y12246D01*
X47939Y12233D01*
X47929Y12218D01*
X47923Y12201D01*
X47921Y12182D01*
Y12582D01*
X47923Y12563D01*
D02*
G37*
G36*
X65261Y14177D02*
X65261Y14138D01*
X65269Y14040D01*
X65274Y14014D01*
X65279Y13990D01*
X65286Y13970D01*
X65294Y13952D01*
X65302Y13937D01*
X65312Y13925D01*
X65009Y13953D01*
X65019Y13965D01*
X65028Y13980D01*
X65036Y13997D01*
X65042Y14018D01*
X65048Y14042D01*
X65053Y14068D01*
X65059Y14130D01*
X65060Y14166D01*
X65061Y14205D01*
X65261Y14177D01*
D02*
G37*
G36*
X64975Y14794D02*
X65327D01*
X65314Y14792D01*
X65303Y14786D01*
X65293Y14776D01*
X65285Y14762D01*
X65277Y14744D01*
X65271Y14722D01*
X65267Y14696D01*
X65263Y14666D01*
X65261Y14594D01*
X65061D01*
X65060Y14632D01*
X65057Y14666D01*
X65053Y14696D01*
X65047Y14722D01*
X65039Y14744D01*
X65030Y14762D01*
X65019Y14776D01*
X65006Y14786D01*
X64991Y14792D01*
X64975Y14794D01*
X64973Y14804D01*
X64967Y14814D01*
X64957Y14822D01*
X64943Y14830D01*
X64925Y14836D01*
X64903Y14841D01*
X64877Y14845D01*
X64847Y14848D01*
X64775Y14850D01*
X64739Y14849D01*
X64675Y14845D01*
X64649Y14841D01*
X64627Y14836D01*
X64609Y14830D01*
X64595Y14822D01*
X64585Y14814D01*
X64579Y14804D01*
X64577Y14794D01*
Y15106D01*
X64579Y15096D01*
X64585Y15086D01*
X64595Y15078D01*
X64609Y15070D01*
X64627Y15064D01*
X64649Y15059D01*
X64675Y15055D01*
X64705Y15052D01*
X64776Y15050D01*
X64813Y15051D01*
X64877Y15055D01*
X64903Y15059D01*
X64925Y15064D01*
X64943Y15070D01*
X64957Y15078D01*
X64967Y15086D01*
X64973Y15096D01*
X64975Y15106D01*
Y14794D01*
D02*
G37*
G36*
X51159Y15688D02*
X51150Y15682D01*
X51141Y15672D01*
X51134Y15658D01*
X51128Y15640D01*
X51123Y15618D01*
X51119Y15592D01*
X51116Y15562D01*
X51114Y15494D01*
X51115Y15460D01*
X51118Y15426D01*
X51123Y15395D01*
X51130Y15369D01*
X51139Y15347D01*
X51150Y15329D01*
X51163Y15315D01*
X51178Y15305D01*
X51195Y15299D01*
X51214Y15297D01*
X51116D01*
X51120Y15090D01*
X50908D01*
X50909Y15094D01*
X50910Y15104D01*
X50912Y15142D01*
X50913Y15297D01*
X50814D01*
X50833Y15299D01*
X50850Y15305D01*
X50865Y15315D01*
X50878Y15329D01*
X50889Y15347D01*
X50898Y15369D01*
X50905Y15395D01*
X50910Y15426D01*
X50913Y15460D01*
X50914Y15495D01*
X50913Y15528D01*
X50909Y15592D01*
X50905Y15618D01*
X50900Y15640D01*
X50894Y15658D01*
X50886Y15672D01*
X50878Y15682D01*
X50868Y15688D01*
X50858Y15690D01*
X51170D01*
X51159Y15688D01*
D02*
G37*
G36*
X49910Y12512D02*
X49913Y12503D01*
X49918Y12496D01*
X49925Y12489D01*
X49934Y12484D01*
X49945Y12479D01*
X49959Y12476D01*
X49974Y12473D01*
X49991Y12472D01*
X50010Y12471D01*
Y12371D01*
X49991Y12371D01*
X49974Y12369D01*
X49959Y12367D01*
X49945Y12363D01*
X49934Y12359D01*
X49925Y12353D01*
X49918Y12347D01*
X49913Y12339D01*
X49910Y12331D01*
X49909Y12321D01*
Y12521D01*
X49910Y12512D01*
D02*
G37*
G36*
X52058Y15379D02*
X52060Y15362D01*
X52062Y15346D01*
X52066Y15333D01*
X52070Y15322D01*
X52076Y15313D01*
X52082Y15306D01*
X52090Y15301D01*
X52098Y15298D01*
X52108Y15297D01*
X51908D01*
X51917Y15298D01*
X51926Y15301D01*
X51933Y15306D01*
X51940Y15313D01*
X51945Y15322D01*
X51950Y15333D01*
X51953Y15346D01*
X51956Y15362D01*
X51957Y15379D01*
X51958Y15398D01*
X52058D01*
X52058Y15379D01*
D02*
G37*
G36*
X49558Y12265D02*
X49556Y12268D01*
X49550Y12271D01*
X49540Y12274D01*
X49526Y12276D01*
X49508Y12278D01*
X49430Y12281D01*
X49358Y12282D01*
Y12482D01*
X49396Y12483D01*
X49430Y12486D01*
X49460Y12491D01*
X49486Y12497D01*
X49508Y12506D01*
X49526Y12516D01*
X49540Y12529D01*
X49550Y12543D01*
X49556Y12559D01*
X49558Y12578D01*
Y12265D01*
D02*
G37*
G36*
X47364Y15294D02*
X47337Y15258D01*
X47321Y15226D01*
X47314Y15199D01*
X47318Y15175D01*
X47332Y15156D01*
X47356Y15142D01*
X47390Y15131D01*
X47435Y15125D01*
X47490Y15122D01*
X46828Y14822D01*
X46465Y15122D01*
X46525Y15125D01*
X46582Y15131D01*
X46637Y15142D01*
X46691Y15156D01*
X46743Y15175D01*
X46794Y15199D01*
X46842Y15226D01*
X46889Y15258D01*
X46934Y15294D01*
X46978Y15335D01*
X47402D01*
X47364Y15294D01*
D02*
G37*
G36*
X47532Y12812D02*
X47530Y12831D01*
X47524Y12848D01*
X47514Y12863D01*
X47500Y12876D01*
X47482Y12887D01*
X47460Y12896D01*
X47433Y12903D01*
X47403Y12908D01*
X47369Y12911D01*
X47331Y12912D01*
Y13112D01*
X47369Y13113D01*
X47403Y13116D01*
X47433Y13121D01*
X47460Y13128D01*
X47482Y13137D01*
X47500Y13148D01*
X47514Y13161D01*
X47524Y13176D01*
X47530Y13193D01*
X47532Y13212D01*
Y12812D01*
D02*
G37*
G36*
X52837Y16025D02*
X52840Y16006D01*
X52847Y15986D01*
X52855Y15965D01*
X52867Y15944D01*
X52880Y15922D01*
X52897Y15899D01*
X52915Y15876D01*
X52960Y15828D01*
X52610D01*
X52634Y15852D01*
X52674Y15899D01*
X52690Y15922D01*
X52704Y15944D01*
X52715Y15965D01*
X52724Y15986D01*
X52730Y16006D01*
X52734Y16025D01*
X52735Y16045D01*
X52835D01*
X52837Y16025D01*
D02*
G37*
G36*
X50721Y14672D02*
X50718Y14701D01*
X50709Y14726D01*
X50694Y14749D01*
X50673Y14768D01*
X50646Y14785D01*
X50612Y14798D01*
X50573Y14809D01*
X50528Y14816D01*
X50477Y14821D01*
X50420Y14822D01*
Y15122D01*
X50477Y15124D01*
X50528Y15128D01*
X50573Y15136D01*
X50612Y15146D01*
X50646Y15160D01*
X50673Y15176D01*
X50694Y15196D01*
X50709Y15218D01*
X50718Y15244D01*
X50721Y15272D01*
Y14672D01*
D02*
G37*
G36*
X44745Y14033D02*
X44748Y13996D01*
X44753Y13961D01*
X44760Y13928D01*
X44769Y13896D01*
X44781Y13867D01*
X44795Y13839D01*
X44811Y13813D01*
X44829Y13789D01*
X44850Y13766D01*
X44708Y13625D01*
X44686Y13645D01*
X44662Y13663D01*
X44636Y13679D01*
X44608Y13693D01*
X44578Y13705D01*
X44547Y13714D01*
X44514Y13722D01*
X44479Y13727D01*
X44442Y13730D01*
X44403Y13730D01*
X44744Y14071D01*
X44745Y14033D01*
D02*
G37*
G36*
X44745Y16046D02*
X44749Y16020D01*
X44755Y15995D01*
X44764Y15969D01*
X44775Y15944D01*
X44789Y15918D01*
X44806Y15892D01*
X44825Y15867D01*
X44847Y15841D01*
X44871Y15815D01*
X44659Y15603D01*
X44633Y15628D01*
X44608Y15649D01*
X44582Y15669D01*
X44556Y15685D01*
X44531Y15699D01*
X44505Y15711D01*
X44480Y15719D01*
X44454Y15726D01*
X44429Y15729D01*
X44403Y15730D01*
X44744Y16071D01*
X44745Y16046D01*
D02*
G37*
G36*
X48986Y12563D02*
X48992Y12546D01*
X49002Y12531D01*
X49016Y12518D01*
X49034Y12507D01*
X49056Y12498D01*
X49082Y12491D01*
X49113Y12486D01*
X49147Y12483D01*
X49185Y12482D01*
Y12282D01*
X49147Y12281D01*
X49113Y12278D01*
X49082Y12273D01*
X49056Y12266D01*
X49034Y12257D01*
X49016Y12246D01*
X49002Y12233D01*
X48992Y12218D01*
X48986Y12201D01*
X48984Y12182D01*
Y12582D01*
X48986Y12563D01*
D02*
G37*
G36*
X48595Y12182D02*
X48593Y12201D01*
X48587Y12218D01*
X48577Y12233D01*
X48563Y12246D01*
X48545Y12257D01*
X48522Y12266D01*
X48496Y12273D01*
X48466Y12278D01*
X48432Y12281D01*
X48394Y12282D01*
Y12482D01*
X48432Y12483D01*
X48466Y12486D01*
X48496Y12491D01*
X48522Y12498D01*
X48545Y12507D01*
X48563Y12518D01*
X48577Y12531D01*
X48587Y12546D01*
X48593Y12563D01*
X48595Y12582D01*
Y12182D01*
D02*
G37*
G36*
X52850Y20521D02*
X52741D01*
X52742Y20524D01*
X52742Y20528D01*
X52743Y20534D01*
X52745Y20563D01*
X52745Y20628D01*
X52845D01*
X52850Y20521D01*
D02*
G37*
G36*
X53047D02*
X52938D01*
X52938Y20524D01*
X52939Y20528D01*
X52940Y20534D01*
X52941Y20563D01*
X52942Y20628D01*
X53042D01*
X53047Y20521D01*
D02*
G37*
G36*
X52259D02*
X52150D01*
X52151Y20524D01*
X52152Y20528D01*
X52153Y20534D01*
X52154Y20563D01*
X52155Y20628D01*
X52255D01*
X52259Y20521D01*
D02*
G37*
G36*
X51472D02*
X51363D01*
X51364Y20524D01*
X51364Y20528D01*
X51365Y20534D01*
X51367Y20563D01*
X51367Y20628D01*
X51467D01*
X51472Y20521D01*
D02*
G37*
G36*
X52062D02*
X51953D01*
X51954Y20524D01*
X51955Y20528D01*
X51956Y20534D01*
X51957Y20563D01*
X51958Y20628D01*
X52058D01*
X52062Y20521D01*
D02*
G37*
G36*
X51215Y20983D02*
X51226Y20927D01*
X51231Y20912D01*
X51240Y20887D01*
X51245Y20877D01*
X51250Y20869D01*
X51256Y20862D01*
X51185Y20791D01*
X51179Y20797D01*
X51170Y20802D01*
X51160Y20807D01*
X51149Y20812D01*
X51135Y20817D01*
X51103Y20825D01*
X51085Y20829D01*
X51043Y20836D01*
X51212Y21005D01*
X51215Y20983D01*
D02*
G37*
G36*
X55913Y21184D02*
X55922Y21180D01*
X55933Y21176D01*
X55946Y21173D01*
X55962Y21170D01*
X56001Y21166D01*
X56050Y21164D01*
X56078Y21164D01*
Y20864D01*
X56050Y20864D01*
X55962Y20858D01*
X55946Y20855D01*
X55933Y20852D01*
X55922Y20848D01*
X55913Y20844D01*
X55907Y20839D01*
Y21189D01*
X55913Y21184D01*
D02*
G37*
G36*
X55899Y20829D02*
X55894Y20821D01*
X55891Y20810D01*
X55887Y20796D01*
X55885Y20780D01*
X55881Y20741D01*
X55879Y20692D01*
X55878Y20664D01*
X55578D01*
X55578Y20692D01*
X55572Y20780D01*
X55569Y20796D01*
X55566Y20810D01*
X55562Y20821D01*
X55558Y20829D01*
X55553Y20835D01*
X55903D01*
X55899Y20829D01*
D02*
G37*
G36*
X53243Y20521D02*
X53134D01*
X53135Y20524D01*
X53136Y20528D01*
X53137Y20534D01*
X53138Y20563D01*
X53139Y20628D01*
X53239D01*
X53243Y20521D01*
D02*
G37*
G36*
X53440D02*
X53331D01*
X53332Y20524D01*
X53333Y20528D01*
X53334Y20534D01*
X53335Y20563D01*
X53336Y20627D01*
X53436D01*
X53440Y20521D01*
D02*
G37*
G36*
X50664Y19808D02*
X50678Y19796D01*
X50693Y19785D01*
X50707Y19775D01*
X50721Y19768D01*
X50735Y19761D01*
X50749Y19756D01*
X50763Y19752D01*
X50777Y19750D01*
X50791Y19750D01*
X50508D01*
X50521Y19750D01*
X50531Y19752D01*
X50538Y19756D01*
X50543Y19761D01*
X50544Y19768D01*
X50543Y19775D01*
X50538Y19785D01*
X50531Y19796D01*
X50521Y19808D01*
X50508Y19821D01*
X50650D01*
X50664Y19808D01*
D02*
G37*
G36*
X51668Y19883D02*
X51667Y19879D01*
X51666Y19873D01*
X51665Y19844D01*
X51664Y19779D01*
X51564D01*
X51560Y19886D01*
X51669D01*
X51668Y19883D01*
D02*
G37*
G36*
X52930Y19758D02*
X52992Y19746D01*
X53054Y19758D01*
X53091Y19783D01*
X53127Y19758D01*
X53189Y19746D01*
X53251Y19758D01*
X53287Y19783D01*
X53324Y19758D01*
X53386Y19746D01*
X53401Y19749D01*
X53443Y19707D01*
X53440Y19692D01*
X53453Y19630D01*
X53477Y19593D01*
X53477Y19593D01*
X53488Y19577D01*
X53532Y19547D01*
X53580Y19549D01*
Y19534D01*
X53602Y19530D01*
X53898D01*
Y19460D01*
X53602D01*
X53580Y19456D01*
Y19440D01*
X53578Y19441D01*
X53573Y19442D01*
X53567Y19443D01*
X53538Y19444D01*
X53535Y19444D01*
X53488Y19413D01*
X53477Y19396D01*
X53477Y19396D01*
X53453Y19360D01*
X53440Y19298D01*
X53453Y19236D01*
X53477Y19200D01*
X53453Y19163D01*
X53440Y19101D01*
X53453Y19039D01*
X53477Y19003D01*
X53453Y18966D01*
X53440Y18904D01*
X53453Y18842D01*
X53477Y18806D01*
X53453Y18770D01*
X53440Y18707D01*
X53453Y18645D01*
X53477Y18609D01*
X53453Y18573D01*
X53440Y18511D01*
X53453Y18449D01*
X53477Y18412D01*
X53453Y18376D01*
X53440Y18314D01*
X53453Y18252D01*
X53477Y18215D01*
X53453Y18179D01*
X53440Y18117D01*
X53453Y18055D01*
X53477Y18018D01*
X53453Y17982D01*
X53440Y17920D01*
X53453Y17858D01*
X53477Y17822D01*
X53453Y17785D01*
X53440Y17723D01*
X53453Y17661D01*
X53477Y17625D01*
X53453Y17588D01*
X53440Y17526D01*
X53443Y17512D01*
X53401Y17469D01*
X53386Y17472D01*
X53324Y17460D01*
X53287Y17435D01*
X53251Y17460D01*
X53189Y17472D01*
X53127Y17460D01*
X53091Y17435D01*
X53054Y17460D01*
X52992Y17472D01*
X52930Y17460D01*
X52894Y17435D01*
X52857Y17460D01*
X52795Y17472D01*
X52733Y17460D01*
X52697Y17435D01*
X52660Y17460D01*
X52598Y17472D01*
X52593Y17471D01*
X52555Y17503D01*
Y17625D01*
X52556Y17631D01*
X52559Y17641D01*
X52564Y17653D01*
X52571Y17667D01*
X52581Y17683D01*
X52593Y17699D01*
X52628Y17740D01*
X52645Y17757D01*
X52651Y17762D01*
X52707Y17835D01*
X52735Y17902D01*
X52750Y17974D01*
X52751Y17982D01*
X52736Y18120D01*
X52707Y18188D01*
X52651Y18261D01*
X52578Y18318D01*
X52493Y18353D01*
X52402Y18365D01*
X52310Y18353D01*
X52225Y18318D01*
X52152Y18261D01*
X52096Y18188D01*
X52061Y18103D01*
X52049Y18012D01*
X52061Y17920D01*
X52096Y17835D01*
X52152Y17762D01*
X52157Y17758D01*
X52195Y17718D01*
X52209Y17700D01*
X52222Y17683D01*
X52232Y17667D01*
X52239Y17653D01*
X52244Y17641D01*
X52247Y17631D01*
X52249Y17625D01*
Y17503D01*
X52210Y17471D01*
X52205Y17472D01*
X52143Y17460D01*
X52106Y17435D01*
X52070Y17460D01*
X52008Y17472D01*
X51946Y17460D01*
X51909Y17435D01*
X51873Y17460D01*
X51811Y17472D01*
X51749Y17460D01*
X51713Y17435D01*
X51676Y17460D01*
X51614Y17472D01*
X51552Y17460D01*
X51516Y17435D01*
X51479Y17460D01*
X51417Y17472D01*
X51355Y17460D01*
X51319Y17435D01*
X51283Y17460D01*
X51220Y17472D01*
X51206Y17469D01*
X51163Y17512D01*
X51166Y17526D01*
X51154Y17588D01*
X51129Y17625D01*
X51129Y17625D01*
X51119Y17641D01*
X51074Y17671D01*
X51027Y17669D01*
Y17684D01*
X51004Y17689D01*
X50709D01*
Y17758D01*
X51004D01*
X51027Y17762D01*
Y17778D01*
X51029Y17777D01*
X51033Y17776D01*
X51039Y17775D01*
X51068Y17774D01*
X51072Y17774D01*
X51119Y17805D01*
X51129Y17822D01*
X51129Y17822D01*
X51154Y17858D01*
X51166Y17920D01*
X51154Y17982D01*
X51129Y18018D01*
X51154Y18055D01*
X51166Y18117D01*
X51154Y18179D01*
X51129Y18215D01*
X51129Y18215D01*
X51119Y18232D01*
X51074Y18261D01*
X51027Y18259D01*
Y18275D01*
X51004Y18279D01*
X50413D01*
X50351Y18267D01*
X50299Y18232D01*
X50288Y18215D01*
X50288Y18215D01*
X50264Y18179D01*
X50251Y18117D01*
X50264Y18055D01*
X50288Y18018D01*
X50264Y17982D01*
X50251Y17920D01*
X50264Y17858D01*
X50288Y17822D01*
X50264Y17785D01*
X50251Y17723D01*
X50252Y17718D01*
X50221Y17679D01*
X50204D01*
X50145Y17668D01*
X50095Y17635D01*
X49977Y17516D01*
X49930Y17535D01*
Y17585D01*
X49376D01*
Y17427D01*
X49347Y17389D01*
X49317Y17388D01*
X49207D01*
X49180Y17427D01*
X49180Y17441D01*
Y17585D01*
X48626D01*
Y17441D01*
X48626Y17427D01*
Y17391D01*
X48626Y17377D01*
Y17297D01*
X48625Y17295D01*
X48624Y17259D01*
X48619Y17228D01*
X48610Y17196D01*
X48599Y17163D01*
X48583Y17129D01*
X48564Y17094D01*
X48540Y17058D01*
X48512Y17021D01*
X48493Y16998D01*
X47818Y16323D01*
X47770Y16339D01*
X47768Y16359D01*
X47728Y16456D01*
X47665Y16538D01*
X47582Y16602D01*
X47541Y16619D01*
X47532Y16624D01*
X47532Y16624D01*
X47532Y16624D01*
X47484Y16644D01*
X47335Y16709D01*
X47290Y16732D01*
X47277Y16740D01*
X47273Y16742D01*
X47115Y16900D01*
X47148Y16938D01*
X47183Y16911D01*
X47279Y16871D01*
X47383Y16858D01*
X47486Y16871D01*
X47582Y16911D01*
X47665Y16974D01*
X47728Y17057D01*
X47768Y17153D01*
X47781Y17256D01*
X47768Y17359D01*
X47728Y17456D01*
X47665Y17538D01*
X47582Y17602D01*
X47486Y17641D01*
X47383Y17655D01*
X47279Y17641D01*
X47183Y17602D01*
X47101Y17538D01*
X47090Y17524D01*
X47043Y17540D01*
Y17972D01*
X47090Y17988D01*
X47101Y17974D01*
X47183Y17911D01*
X47279Y17871D01*
X47383Y17858D01*
X47486Y17871D01*
X47582Y17911D01*
X47665Y17974D01*
X47728Y18057D01*
X47768Y18153D01*
X47781Y18256D01*
X47768Y18359D01*
X47728Y18456D01*
X47665Y18538D01*
X47650Y18550D01*
X47666Y18597D01*
X49508D01*
X49566Y18609D01*
X49616Y18642D01*
X50119Y19145D01*
X50221D01*
X50252Y19106D01*
X50251Y19101D01*
X50264Y19039D01*
X50288Y19003D01*
X50264Y18966D01*
X50251Y18904D01*
X50264Y18842D01*
X50288Y18806D01*
X50264Y18770D01*
X50251Y18707D01*
X50264Y18645D01*
X50288Y18609D01*
X50264Y18573D01*
X50251Y18511D01*
X50264Y18449D01*
X50288Y18412D01*
X50288Y18412D01*
X50299Y18396D01*
X50351Y18361D01*
X50413Y18348D01*
X51004D01*
X51027Y18353D01*
Y18368D01*
X51029Y18367D01*
X51033Y18367D01*
X51039Y18366D01*
X51068Y18364D01*
X51072Y18364D01*
X51119Y18396D01*
X51129Y18412D01*
X51129Y18412D01*
X51154Y18449D01*
X51166Y18511D01*
X51154Y18573D01*
X51129Y18609D01*
X51154Y18645D01*
X51166Y18707D01*
X51154Y18770D01*
X51129Y18806D01*
X51154Y18842D01*
X51166Y18904D01*
X51154Y18966D01*
X51129Y19003D01*
X51154Y19039D01*
X51166Y19101D01*
X51154Y19163D01*
X51129Y19200D01*
X51154Y19236D01*
X51166Y19298D01*
X51154Y19360D01*
X51129Y19396D01*
X51154Y19433D01*
X51166Y19495D01*
X51154Y19557D01*
X51129Y19593D01*
X51154Y19630D01*
X51166Y19692D01*
X51163Y19707D01*
X51206Y19749D01*
X51220Y19746D01*
X51283Y19758D01*
X51319Y19783D01*
X51355Y19758D01*
X51417Y19746D01*
X51423Y19747D01*
X51461Y19715D01*
Y19405D01*
X51460Y19399D01*
X51457Y19387D01*
X51452Y19373D01*
X51444Y19357D01*
X51435Y19341D01*
X51388Y19270D01*
X51368Y19245D01*
X51364Y19236D01*
X51338Y19202D01*
X51303Y19117D01*
X51291Y19026D01*
X51303Y18934D01*
X51338Y18849D01*
X51394Y18776D01*
X51467Y18720D01*
X51552Y18685D01*
X51644Y18673D01*
X51735Y18685D01*
X51820Y18720D01*
X51893Y18776D01*
X51949Y18849D01*
X51985Y18934D01*
X51997Y19026D01*
X51985Y19117D01*
X51949Y19202D01*
X51893Y19275D01*
X51866Y19296D01*
X51861Y19303D01*
X51838Y19321D01*
X51819Y19338D01*
X51804Y19353D01*
X51792Y19368D01*
X51783Y19381D01*
X51776Y19392D01*
X51771Y19402D01*
X51768Y19411D01*
X51767Y19417D01*
Y19715D01*
X51806Y19747D01*
X51811Y19746D01*
X51873Y19758D01*
X51909Y19783D01*
X51946Y19758D01*
X52008Y19746D01*
X52070Y19758D01*
X52106Y19783D01*
X52143Y19758D01*
X52205Y19746D01*
X52267Y19758D01*
X52303Y19783D01*
X52340Y19758D01*
X52402Y19746D01*
X52464Y19758D01*
X52500Y19783D01*
X52536Y19758D01*
X52598Y19746D01*
X52660Y19758D01*
X52697Y19783D01*
X52733Y19758D01*
X52795Y19746D01*
X52857Y19758D01*
X52894Y19783D01*
X52930Y19758D01*
D02*
G37*
G36*
X54558Y19753D02*
X54548Y19751D01*
X54538Y19748D01*
X54527Y19742D01*
X54515Y19735D01*
X54502Y19726D01*
X54473Y19704D01*
X54457Y19690D01*
X54422Y19656D01*
X54351Y19727D01*
X54369Y19745D01*
X54411Y19793D01*
X54421Y19807D01*
X54437Y19832D01*
X54442Y19843D01*
X54446Y19854D01*
X54448Y19863D01*
X54558Y19753D01*
D02*
G37*
G36*
X55365Y20007D02*
X55373Y20006D01*
X55385Y20005D01*
X55521Y20003D01*
X55610Y20002D01*
Y19702D01*
X55363Y19696D01*
Y20009D01*
X55365Y20007D01*
D02*
G37*
G36*
X47624Y20433D02*
X47681Y20383D01*
X47708Y20363D01*
X47735Y20345D01*
X47760Y20331D01*
X47784Y20320D01*
X47807Y20313D01*
X47830Y20308D01*
X47851Y20306D01*
Y20206D01*
X47830Y20205D01*
X47807Y20200D01*
X47784Y20192D01*
X47760Y20181D01*
X47735Y20167D01*
X47708Y20150D01*
X47681Y20130D01*
X47624Y20079D01*
X47594Y20050D01*
Y20463D01*
X47624Y20433D01*
D02*
G37*
G36*
X51275Y20521D02*
X51166D01*
X51167Y20524D01*
X51168Y20528D01*
X51168Y20534D01*
X51170Y20563D01*
X51170Y20628D01*
X51270D01*
X51275Y20521D01*
D02*
G37*
G36*
X55011Y19957D02*
X55081Y19958D01*
Y19746D01*
X55077Y19747D01*
X55067Y19748D01*
X55029Y19750D01*
X55011Y19750D01*
Y19696D01*
X55009Y19707D01*
X55003Y19716D01*
X54993Y19725D01*
X54979Y19732D01*
X54961Y19738D01*
X54939Y19743D01*
X54913Y19747D01*
X54883Y19750D01*
X54868Y19751D01*
X54821Y19747D01*
X54795Y19743D01*
X54773Y19738D01*
X54755Y19732D01*
X54741Y19725D01*
X54731Y19716D01*
X54725Y19707D01*
X54723Y19696D01*
Y20009D01*
X54725Y19998D01*
X54731Y19988D01*
X54741Y19980D01*
X54755Y19973D01*
X54773Y19966D01*
X54795Y19961D01*
X54821Y19957D01*
X54851Y19955D01*
X54865Y19954D01*
X54867Y19954D01*
X54913Y19957D01*
X54939Y19961D01*
X54961Y19966D01*
X54979Y19973D01*
X54993Y19980D01*
X55003Y19988D01*
X55009Y19998D01*
X55011Y20009D01*
Y19957D01*
D02*
G37*
G36*
X58232Y22067D02*
X58216Y22028D01*
X58206Y21950D01*
X58206Y21945D01*
X58206Y21928D01*
X58205Y21910D01*
X58203Y21894D01*
X58200Y21881D01*
X58197Y21869D01*
X58194Y21859D01*
X58190Y21851D01*
X58186Y21845D01*
X58185Y21843D01*
X56441Y20099D01*
X56298D01*
X56240Y20088D01*
X56190Y20054D01*
X56016Y19881D01*
X55970Y19905D01*
X55983Y19970D01*
Y20742D01*
X55985Y20757D01*
X56014Y20759D01*
X56785D01*
X56882Y20778D01*
X56965Y20834D01*
X57658Y21527D01*
X57661Y21529D01*
X57726Y21582D01*
X57755Y21602D01*
X57784Y21619D01*
X57810Y21633D01*
X57835Y21644D01*
X57858Y21652D01*
X57884Y21658D01*
X57886Y21659D01*
X57899Y21662D01*
X57916Y21673D01*
X57920Y21675D01*
X57922Y21677D01*
X57965Y21706D01*
X58009Y21772D01*
X58025Y21850D01*
Y22050D01*
X58019Y22078D01*
X58051Y22117D01*
X58199D01*
X58232Y22067D01*
D02*
G37*
G36*
X61767Y20236D02*
X61770Y20227D01*
X61775Y20216D01*
X61782Y20205D01*
X61791Y20191D01*
X61816Y20161D01*
X61850Y20125D01*
X61869Y20105D01*
X61657Y19893D01*
X61637Y19912D01*
X61570Y19970D01*
X61557Y19980D01*
X61545Y19987D01*
X61535Y19992D01*
X61526Y19995D01*
X61518Y19996D01*
X61766Y20244D01*
X61767Y20236D01*
D02*
G37*
G36*
X47679Y21429D02*
X47688Y21404D01*
X47703Y21381D01*
X47724Y21362D01*
X47751Y21345D01*
X47784Y21332D01*
X47823Y21321D01*
X47868Y21314D01*
X47920Y21309D01*
X47977Y21308D01*
Y21008D01*
X47920Y21007D01*
X47752Y20997D01*
X47725Y20991D01*
X47704Y20986D01*
X47689Y20979D01*
X47680Y20971D01*
X47677Y20962D01*
X47676Y21458D01*
X47679Y21429D01*
D02*
G37*
G36*
X64018Y30411D02*
X63994Y30411D01*
X63949Y30407D01*
X63928Y30403D01*
X63909Y30398D01*
X63891Y30391D01*
X63875Y30384D01*
X63860Y30375D01*
X63846Y30365D01*
X63834Y30354D01*
X63763Y30425D01*
X63774Y30437D01*
X63784Y30451D01*
X63793Y30466D01*
X63800Y30483D01*
X63806Y30500D01*
X63812Y30519D01*
X63815Y30540D01*
X63818Y30562D01*
X63820Y30585D01*
X63820Y30609D01*
X64018Y30411D01*
D02*
G37*
G36*
X49550Y30902D02*
X49548Y30921D01*
X49542Y30938D01*
X49532Y30953D01*
X49517Y30966D01*
X49499Y30977D01*
X49477Y30986D01*
X49451Y30993D01*
X49421Y30998D01*
X49387Y31001D01*
X49348Y31002D01*
Y31202D01*
X49387Y31203D01*
X49421Y31206D01*
X49451Y31211D01*
X49477Y31218D01*
X49499Y31227D01*
X49517Y31238D01*
X49532Y31251D01*
X49542Y31266D01*
X49548Y31283D01*
X49550Y31302D01*
Y30902D01*
D02*
G37*
G36*
X60868Y30411D02*
X60844Y30411D01*
X60799Y30407D01*
X60778Y30403D01*
X60759Y30398D01*
X60742Y30391D01*
X60725Y30384D01*
X60710Y30375D01*
X60696Y30365D01*
X60684Y30354D01*
X60613Y30425D01*
X60624Y30437D01*
X60634Y30451D01*
X60643Y30466D01*
X60651Y30483D01*
X60657Y30500D01*
X60662Y30519D01*
X60666Y30540D01*
X60669Y30562D01*
X60670Y30585D01*
X60670Y30609D01*
X60868Y30411D01*
D02*
G37*
G36*
X51744Y29726D02*
X51744Y29725D01*
X51743Y29722D01*
X51743Y29684D01*
X51743Y29674D01*
X51643D01*
X51642Y29727D01*
X51744D01*
X51744Y29726D01*
D02*
G37*
G36*
X52059D02*
X52059Y29725D01*
X52058Y29722D01*
X52058Y29684D01*
X52058Y29674D01*
X51958D01*
X51957Y29727D01*
X52059D01*
X52059Y29726D01*
D02*
G37*
G36*
X48268Y31379D02*
X48273Y31372D01*
X48280Y31365D01*
X48291Y31360D01*
X48304Y31355D01*
X48321Y31351D01*
X48340Y31348D01*
X48363Y31346D01*
X48417Y31345D01*
Y31195D01*
X48388Y31194D01*
X48362Y31192D01*
X48340Y31188D01*
X48320Y31183D01*
X48303Y31176D01*
X48290Y31168D01*
X48279Y31158D01*
X48271Y31147D01*
X48267Y31134D01*
X48265Y31120D01*
X48267Y31387D01*
X48268Y31379D01*
D02*
G37*
G36*
X48634Y31120D02*
X48633Y31134D01*
X48628Y31147D01*
X48621Y31158D01*
X48610Y31168D01*
X48596Y31176D01*
X48580Y31183D01*
X48560Y31188D01*
X48538Y31192D01*
X48512Y31194D01*
X48483Y31195D01*
Y31345D01*
X48512Y31345D01*
X48538Y31348D01*
X48560Y31351D01*
X48580Y31357D01*
X48596Y31363D01*
X48610Y31372D01*
X48621Y31381D01*
X48628Y31393D01*
X48633Y31405D01*
X48634Y31420D01*
Y31120D01*
D02*
G37*
G36*
X49025Y31283D02*
X49031Y31266D01*
X49042Y31251D01*
X49056Y31238D01*
X49074Y31227D01*
X49096Y31218D01*
X49122Y31211D01*
X49152Y31206D01*
X49186Y31203D01*
X49224Y31202D01*
Y31002D01*
X49024Y31064D01*
X49023Y31302D01*
X49025Y31283D01*
D02*
G37*
G36*
X50531D02*
X50537Y31266D01*
X50547Y31251D01*
X50561Y31238D01*
X50579Y31227D01*
X50602Y31218D01*
X50628Y31211D01*
X50658Y31206D01*
X50692Y31203D01*
X50730Y31202D01*
Y31002D01*
X50692Y31001D01*
X50658Y30998D01*
X50628Y30993D01*
X50602Y30986D01*
X50579Y30977D01*
X50561Y30966D01*
X50547Y30953D01*
X50537Y30938D01*
X50531Y30921D01*
X50529Y30902D01*
Y31302D01*
X50531Y31283D01*
D02*
G37*
G36*
X52857Y30902D02*
X52855Y30921D01*
X52849Y30938D01*
X52839Y30953D01*
X52825Y30966D01*
X52806Y30977D01*
X52784Y30986D01*
X52758Y30993D01*
X52728Y30998D01*
X52694Y31001D01*
X52656Y31002D01*
Y31202D01*
X52694Y31203D01*
X52728Y31206D01*
X52758Y31211D01*
X52784Y31218D01*
X52806Y31227D01*
X52825Y31238D01*
X52839Y31251D01*
X52849Y31266D01*
X52855Y31283D01*
X52857Y31302D01*
Y30902D01*
D02*
G37*
G36*
X57859Y21757D02*
X57829Y21749D01*
X57798Y21739D01*
X57766Y21725D01*
X57734Y21708D01*
X57700Y21687D01*
X57666Y21664D01*
X57595Y21607D01*
X57558Y21574D01*
X57520Y21537D01*
X57308Y21749D01*
X57344Y21787D01*
X57408Y21860D01*
X57434Y21895D01*
X57478Y21963D01*
X57496Y21995D01*
X57510Y22027D01*
X57520Y22058D01*
X57528Y22089D01*
X57859Y21757D01*
D02*
G37*
G36*
X59019Y22067D02*
X59003Y22028D01*
X58993Y21950D01*
X58994Y21945D01*
X58993Y21928D01*
X58992Y21910D01*
X58990Y21894D01*
X58988Y21881D01*
X58985Y21869D01*
X58981Y21859D01*
X58977Y21851D01*
X58974Y21845D01*
X58972Y21843D01*
X57046Y19917D01*
X56757D01*
X56737Y19963D01*
X58401Y21626D01*
X58403Y21628D01*
X58410Y21632D01*
X58418Y21635D01*
X58427Y21639D01*
X58439Y21642D01*
X58451Y21644D01*
X58487Y21648D01*
X58504Y21648D01*
X58508Y21647D01*
X58587Y21658D01*
X58660Y21688D01*
X58722Y21736D01*
X58770Y21799D01*
X58801Y21872D01*
X58811Y21950D01*
X58801Y22028D01*
X58784Y22067D01*
X58818Y22117D01*
X58986D01*
X59019Y22067D01*
D02*
G37*
G36*
X57392Y22108D02*
X57415Y22067D01*
X57414Y22064D01*
X57404Y22040D01*
X57390Y22014D01*
X57351Y21954D01*
X57329Y21924D01*
X57289Y21879D01*
X56679Y21269D01*
X56000D01*
X55976Y21271D01*
X55967Y21273D01*
X55965Y21273D01*
X55905Y21319D01*
X55820Y21355D01*
X55728Y21367D01*
X55637Y21355D01*
X55552Y21319D01*
X55479Y21263D01*
X55423Y21190D01*
X55387Y21105D01*
X55375Y21014D01*
X55387Y20922D01*
X55423Y20837D01*
X55469Y20777D01*
X55469Y20775D01*
X55471Y20768D01*
X55473Y20728D01*
Y20707D01*
X55464Y20661D01*
X55423Y20661D01*
X55287D01*
Y20404D01*
X55087D01*
Y20661D01*
X54910D01*
Y20160D01*
X54910Y20146D01*
Y20110D01*
X54910Y20084D01*
X54869Y20067D01*
X54824Y20093D01*
X54824Y20146D01*
X54824Y20160D01*
Y20661D01*
X54647D01*
Y20404D01*
X54447D01*
Y20661D01*
X54270D01*
Y20508D01*
X54273Y20509D01*
X54299Y20513D01*
X54321Y20518D01*
X54339Y20524D01*
X54353Y20531D01*
X54363Y20540D01*
X54369Y20549D01*
X54371Y20560D01*
Y20247D01*
X54369Y20258D01*
X54363Y20268D01*
X54353Y20276D01*
X54339Y20283D01*
X54321Y20289D01*
X54299Y20295D01*
X54273Y20298D01*
X54247Y20301D01*
X54238Y20300D01*
X54217Y20296D01*
X54197Y20289D01*
X54180Y20282D01*
X54166Y20272D01*
X54153Y20260D01*
X54142Y20247D01*
X54134Y20232D01*
X54128Y20216D01*
X53988Y20488D01*
Y20285D01*
X53788D01*
Y20623D01*
X53711Y20591D01*
X53638Y20535D01*
X53598Y20483D01*
X53550Y20498D01*
X53548Y20499D01*
X53542Y20529D01*
X53541Y20566D01*
X55092Y22117D01*
X57378D01*
X57392Y22108D01*
D02*
G37*
G36*
X52752Y21206D02*
X52712Y21159D01*
X52696Y21137D01*
X52682Y21115D01*
X52671Y21093D01*
X52662Y21072D01*
X52656Y21052D01*
X52652Y21033D01*
X52651Y21014D01*
X52551D01*
X52550Y21033D01*
X52546Y21052D01*
X52540Y21072D01*
X52531Y21093D01*
X52520Y21115D01*
X52506Y21137D01*
X52490Y21159D01*
X52471Y21182D01*
X52426Y21230D01*
X52776D01*
X52752Y21206D01*
D02*
G37*
G36*
X50887Y20828D02*
X50884Y20829D01*
X50875Y20830D01*
X50860Y20831D01*
X50720Y20833D01*
X50491Y20828D01*
Y21141D01*
X50494Y21139D01*
X50503Y21138D01*
X50518Y21137D01*
X50658Y21136D01*
X50887Y21141D01*
Y20828D01*
D02*
G37*
G36*
X52829Y21731D02*
X52785Y21709D01*
X52778Y21714D01*
X52692Y21750D01*
X52601Y21762D01*
X52571Y21758D01*
X52558Y21806D01*
X52571Y21811D01*
X52644Y21868D01*
X52700Y21941D01*
X52735Y22026D01*
X52747Y22117D01*
X52735Y22209D01*
X52700Y22294D01*
X52644Y22367D01*
X52571Y22423D01*
X52486Y22458D01*
X52394Y22470D01*
X52303Y22458D01*
X52218Y22423D01*
X52153Y22373D01*
X52103Y22388D01*
Y22685D01*
X52492D01*
Y22685D01*
X52508D01*
Y22685D01*
X52829D01*
Y21731D01*
D02*
G37*
G36*
X53020Y22787D02*
X53023Y22786D01*
X53025Y22783D01*
X53026Y22778D01*
X53028Y22771D01*
X53029Y22762D01*
X53031Y22738D01*
X53032Y22687D01*
X52932D01*
X52932Y22706D01*
X52930Y22723D01*
X52928Y22738D01*
X52924Y22751D01*
X52920Y22762D01*
X52914Y22771D01*
X52908Y22779D01*
X52900Y22784D01*
X52892Y22787D01*
X52882Y22788D01*
X53020Y22787D01*
D02*
G37*
G36*
X60728Y21810D02*
X60710Y21827D01*
X60675Y21856D01*
X60658Y21868D01*
X60641Y21878D01*
X60624Y21886D01*
X60607Y21892D01*
X60590Y21896D01*
X60573Y21899D01*
X60557Y21900D01*
Y22000D01*
X60573Y22001D01*
X60590Y22004D01*
X60607Y22008D01*
X60624Y22014D01*
X60641Y22023D01*
X60658Y22032D01*
X60675Y22044D01*
X60693Y22058D01*
X60710Y22073D01*
X60728Y22090D01*
Y21810D01*
D02*
G37*
G36*
X58506Y21750D02*
X58482Y21750D01*
X58437Y21745D01*
X58416Y21741D01*
X58397Y21736D01*
X58379Y21730D01*
X58363Y21723D01*
X58348Y21714D01*
X58334Y21704D01*
X58322Y21693D01*
X58251Y21764D01*
X58262Y21776D01*
X58272Y21790D01*
X58281Y21805D01*
X58288Y21821D01*
X58295Y21839D01*
X58300Y21858D01*
X58304Y21878D01*
X58306Y21900D01*
X58308Y21923D01*
X58308Y21948D01*
X58506Y21750D01*
D02*
G37*
G36*
X59294D02*
X59269Y21750D01*
X59224Y21745D01*
X59204Y21741D01*
X59185Y21736D01*
X59167Y21730D01*
X59150Y21723D01*
X59135Y21714D01*
X59122Y21704D01*
X59109Y21693D01*
X59039Y21764D01*
X59050Y21776D01*
X59060Y21790D01*
X59068Y21805D01*
X59076Y21821D01*
X59082Y21839D01*
X59087Y21858D01*
X59091Y21878D01*
X59094Y21900D01*
X59095Y21923D01*
X59096Y21948D01*
X59294Y21750D01*
D02*
G37*
G36*
X54218Y19745D02*
X54222Y19745D01*
X54228Y19744D01*
X54257Y19742D01*
X54322Y19742D01*
Y19642D01*
X54215Y19637D01*
Y19746D01*
X54218Y19745D01*
D02*
G37*
G36*
X62132Y17677D02*
X62121Y17667D01*
X62111Y17659D01*
X62102Y17653D01*
X62095Y17649D01*
X62089Y17648D01*
X62084Y17649D01*
X62080Y17652D01*
X62077Y17657D01*
X62075Y17665D01*
X62074Y17674D01*
X61700Y17673D01*
X61702Y17675D01*
X61710Y17682D01*
X61917Y17887D01*
X62132Y17677D01*
D02*
G37*
G36*
X50391Y17669D02*
X50389Y17670D01*
X50384Y17670D01*
X50378Y17671D01*
X50349Y17673D01*
X50284Y17673D01*
Y17773D01*
X50391Y17778D01*
Y17669D01*
D02*
G37*
G36*
Y17472D02*
X50389Y17473D01*
X50384Y17473D01*
X50378Y17474D01*
X50349Y17476D01*
X50284Y17476D01*
Y17576D01*
X50391Y17581D01*
Y17472D01*
D02*
G37*
G36*
X52553Y17809D02*
X52513Y17762D01*
X52497Y17740D01*
X52483Y17718D01*
X52472Y17697D01*
X52463Y17676D01*
X52457Y17656D01*
X52453Y17636D01*
X52452Y17617D01*
X52352D01*
X52350Y17636D01*
X52347Y17656D01*
X52340Y17676D01*
X52332Y17697D01*
X52320Y17718D01*
X52307Y17740D01*
X52290Y17762D01*
X52272Y17785D01*
X52227Y17833D01*
X52577D01*
X52553Y17809D01*
D02*
G37*
G36*
X60138Y18306D02*
X60139Y18289D01*
X60142Y18274D01*
X60145Y18261D01*
X60150Y18250D01*
X60155Y18241D01*
X60162Y18233D01*
X60169Y18228D01*
X60178Y18225D01*
X60187Y18224D01*
X59987D01*
X59997Y18225D01*
X60005Y18228D01*
X60013Y18233D01*
X60019Y18241D01*
X60025Y18250D01*
X60029Y18261D01*
X60033Y18274D01*
X60035Y18289D01*
X60037Y18306D01*
X60037Y18326D01*
X60137D01*
X60138Y18306D01*
D02*
G37*
G36*
X60610D02*
X60612Y18289D01*
X60614Y18274D01*
X60618Y18261D01*
X60622Y18250D01*
X60628Y18241D01*
X60634Y18233D01*
X60642Y18228D01*
X60650Y18225D01*
X60660Y18224D01*
X60460D01*
X60469Y18225D01*
X60478Y18228D01*
X60485Y18233D01*
X60492Y18241D01*
X60497Y18250D01*
X60502Y18261D01*
X60505Y18274D01*
X60508Y18289D01*
X60509Y18306D01*
X60510Y18326D01*
X60610D01*
X60610Y18306D01*
D02*
G37*
G36*
X62181Y18521D02*
X62180Y18512D01*
X62179Y18497D01*
X62176Y18224D01*
X61876D01*
X61869Y18524D01*
X62182D01*
X62181Y18521D01*
D02*
G37*
G36*
X57618Y18276D02*
X57620Y18247D01*
X57621Y18240D01*
X57622Y18235D01*
X57624Y18230D01*
X57626Y18227D01*
X57628Y18225D01*
X57631Y18224D01*
X57505D01*
X57507Y18225D01*
X57509Y18227D01*
X57511Y18230D01*
X57513Y18235D01*
X57514Y18240D01*
X57516Y18247D01*
X57517Y18256D01*
X57518Y18276D01*
X57518Y18289D01*
X57618D01*
X57618Y18276D01*
D02*
G37*
G36*
X49766Y17234D02*
X49810Y17189D01*
X49812Y17186D01*
X49812Y17184D01*
X49811Y17183D01*
Y17083D01*
X49812Y17083D01*
X49812Y17081D01*
X49810Y17078D01*
X49807Y17074D01*
X49802Y17068D01*
X49787Y17053D01*
X49753Y17021D01*
Y17245D01*
X49766Y17234D01*
D02*
G37*
G36*
X49935Y17187D02*
X49915Y17166D01*
X49881Y17126D01*
X49867Y17108D01*
X49855Y17090D01*
X49845Y17072D01*
X49838Y17056D01*
X49832Y17040D01*
X49829Y17025D01*
X49828Y17011D01*
X49829Y17290D01*
X49830Y17278D01*
X49832Y17268D01*
X49835Y17262D01*
X49840Y17258D01*
X49847Y17257D01*
X49855Y17259D01*
X49864Y17263D01*
X49874Y17271D01*
X49886Y17281D01*
X49900Y17293D01*
X49935Y17187D01*
D02*
G37*
G36*
X50370Y17373D02*
X50370Y17372D01*
X50370Y17372D01*
X50373Y17372D01*
X50373Y17372D01*
X50413Y17364D01*
X51004D01*
X51019Y17367D01*
X51061Y17325D01*
X51058Y17310D01*
Y16719D01*
X51064Y16689D01*
X51068Y16611D01*
Y16179D01*
X51032Y16143D01*
X50770D01*
X50756Y16143D01*
X50720D01*
X50706Y16143D01*
X50563D01*
Y15866D01*
Y15589D01*
X50706D01*
X50720Y15589D01*
X50756D01*
X50770Y15589D01*
X50806D01*
X50807Y15581D01*
X50810Y15544D01*
Y15453D01*
X50809Y15438D01*
X50805Y15417D01*
X50801Y15402D01*
X50800Y15399D01*
X50619D01*
Y15274D01*
X50618Y15267D01*
X50617Y15265D01*
X50616Y15263D01*
X50611Y15258D01*
X50600Y15251D01*
X50580Y15243D01*
X50552Y15236D01*
X50515Y15230D01*
X50489Y15227D01*
X47508D01*
X47489Y15274D01*
X48944Y16728D01*
X49042Y16822D01*
X49097Y16869D01*
X49106Y16876D01*
X49116Y16876D01*
X49180D01*
Y16877D01*
X49240Y16879D01*
X49376D01*
Y16876D01*
X49449D01*
X49449Y16876D01*
X49473D01*
X49477Y16875D01*
X49478Y16875D01*
X49479Y16875D01*
X49482Y16876D01*
X49508D01*
X49508Y16876D01*
X49930D01*
Y17011D01*
X49931Y17013D01*
X49933Y17018D01*
X49936Y17026D01*
X49942Y17037D01*
X49950Y17049D01*
X49960Y17063D01*
X49985Y17092D01*
X50267Y17373D01*
X50352D01*
X50370Y17373D01*
D02*
G37*
G36*
X56527Y17008D02*
X56526Y17009D01*
X56524Y17011D01*
X56522Y17012D01*
X56517Y17013D01*
X56512Y17013D01*
X56498Y17015D01*
X56479Y17015D01*
X56468Y17015D01*
Y17115D01*
X56479Y17115D01*
X56517Y17118D01*
X56522Y17119D01*
X56524Y17120D01*
X56526Y17121D01*
X56527Y17123D01*
Y17008D01*
D02*
G37*
G36*
X52653Y17432D02*
Y17332D01*
X52544D01*
X52546Y17336D01*
X52547Y17341D01*
X52548Y17348D01*
X52550Y17357D01*
X52551Y17380D01*
X52553Y17446D01*
X52653Y17432D01*
D02*
G37*
G36*
X54038Y17468D02*
X54030Y17465D01*
X54022Y17459D01*
X54016Y17452D01*
X54010Y17443D01*
X54006Y17432D01*
X54002Y17419D01*
X54000Y17404D01*
X53998Y17387D01*
X53998Y17367D01*
X53898D01*
X53897Y17387D01*
X53896Y17404D01*
X53893Y17419D01*
X53890Y17432D01*
X53885Y17443D01*
X53880Y17452D01*
X53873Y17459D01*
X53866Y17465D01*
X53857Y17468D01*
X53848Y17469D01*
X54048D01*
X54038Y17468D01*
D02*
G37*
G36*
X49477Y16977D02*
X49474Y16978D01*
X49465Y16979D01*
X49450Y16980D01*
X49308Y16982D01*
X49079Y16977D01*
Y17290D01*
X49082Y17289D01*
X49091Y17287D01*
X49106Y17287D01*
X49248Y17285D01*
X49477Y17290D01*
Y16977D01*
D02*
G37*
G36*
X52456Y17332D02*
X52347D01*
X52348Y17335D01*
X52349Y17339D01*
X52349Y17345D01*
X52351Y17374D01*
X52352Y17439D01*
X52452D01*
X52456Y17332D01*
D02*
G37*
G36*
X54218Y18564D02*
X54222Y18564D01*
X54228Y18563D01*
X54257Y18561D01*
X54322Y18561D01*
Y18461D01*
X54215Y18456D01*
Y18565D01*
X54218Y18564D01*
D02*
G37*
G36*
X51666Y19405D02*
X51669Y19385D01*
X51676Y19365D01*
X51685Y19345D01*
X51697Y19325D01*
X51712Y19305D01*
X51729Y19284D01*
X51749Y19264D01*
X51771Y19244D01*
X51796Y19224D01*
X51449Y19182D01*
X51471Y19210D01*
X51523Y19288D01*
X51535Y19312D01*
X51546Y19334D01*
X51554Y19355D01*
X51560Y19376D01*
X51563Y19395D01*
X51564Y19413D01*
X51664Y19425D01*
X51666Y19405D01*
D02*
G37*
G36*
X50391Y19244D02*
X50389Y19244D01*
X50384Y19245D01*
X50378Y19246D01*
X50349Y19247D01*
X50284Y19248D01*
Y19348D01*
X50391Y19353D01*
Y19244D01*
D02*
G37*
G36*
X62026Y19736D02*
X62176D01*
X62182Y19489D01*
X62388Y19162D01*
X62347Y19202D01*
X62280Y19263D01*
X62252Y19286D01*
X62229Y19303D01*
X62210Y19313D01*
X62195Y19319D01*
X62184Y19318D01*
X62178Y19312D01*
X62176Y19300D01*
X61876Y19374D01*
X61873Y19433D01*
X61867Y19491D01*
X61856Y19546D01*
X61842Y19600D01*
X61823Y19652D01*
X61799Y19702D01*
X61772Y19751D01*
X61740Y19798D01*
X61704Y19843D01*
X61663Y19886D01*
X62026Y19736D01*
D02*
G37*
G36*
X54218Y19155D02*
X54222Y19154D01*
X54228Y19153D01*
X54257Y19152D01*
X54322Y19151D01*
Y19051D01*
X54215Y19047D01*
Y19156D01*
X54218Y19155D01*
D02*
G37*
G36*
Y18958D02*
X54222Y18957D01*
X54228Y18957D01*
X54257Y18955D01*
X54322Y18954D01*
Y18854D01*
X54215Y18850D01*
Y18959D01*
X54218Y18958D01*
D02*
G37*
G36*
Y19352D02*
X54222Y19351D01*
X54228Y19350D01*
X54257Y19349D01*
X54322Y19348D01*
Y19248D01*
X54215Y19244D01*
Y19353D01*
X54218Y19352D01*
D02*
G37*
G36*
Y18761D02*
X54222Y18760D01*
X54228Y18760D01*
X54257Y18758D01*
X54322Y18757D01*
Y18657D01*
X54215Y18653D01*
Y18762D01*
X54218Y18761D01*
D02*
G37*
G36*
X60178Y18590D02*
X60169Y18587D01*
X60162Y18582D01*
X60155Y18575D01*
X60150Y18566D01*
X60145Y18555D01*
X60142Y18542D01*
X60139Y18526D01*
X60138Y18509D01*
X60137Y18490D01*
X60037D01*
X60037Y18509D01*
X60035Y18526D01*
X60033Y18542D01*
X60029Y18555D01*
X60025Y18566D01*
X60019Y18575D01*
X60013Y18582D01*
X60006Y18587D01*
X59997Y18590D01*
X59988Y18591D01*
X60187D01*
X60178Y18590D01*
D02*
G37*
G36*
X62177Y19124D02*
X62182D01*
X62181Y19121D01*
X62180Y19112D01*
X62179Y19097D01*
X62178Y19053D01*
X62182Y18876D01*
X62176D01*
X62176Y18824D01*
X61876D01*
X61874Y18876D01*
X61869D01*
X61870Y18879D01*
X61872Y18888D01*
X61873Y18903D01*
X61873Y18947D01*
X61869Y19124D01*
X61875D01*
X61876Y19176D01*
X62176D01*
X62177Y19124D01*
D02*
G37*
%LPC*%
G36*
X52872Y19201D02*
X52635D01*
X52667Y19125D01*
X52723Y19052D01*
X52735Y19042D01*
X52772Y19100D01*
X52872Y19142D01*
Y19201D01*
D02*
G37*
G36*
X49378Y16814D02*
X49302Y16782D01*
X49229Y16726D01*
X49173Y16653D01*
X49141Y16576D01*
X49378D01*
Y16814D01*
D02*
G37*
G36*
X49578D02*
Y16576D01*
X49816D01*
X49784Y16653D01*
X49728Y16726D01*
X49655Y16782D01*
X49578Y16814D01*
D02*
G37*
G36*
X52872Y19639D02*
X52796Y19607D01*
X52723Y19551D01*
X52667Y19478D01*
X52635Y19401D01*
X52872D01*
Y19639D01*
D02*
G37*
G36*
X53072D02*
Y19401D01*
X53310D01*
X53278Y19478D01*
X53222Y19551D01*
X53149Y19607D01*
X53072Y19639D01*
D02*
G37*
G36*
X53310Y19201D02*
X53072D01*
Y18964D01*
X53149Y18995D01*
X53222Y19052D01*
X53278Y19125D01*
X53310Y19201D01*
D02*
G37*
G36*
X49180Y17942D02*
X49003D01*
Y17785D01*
X49180D01*
Y17942D01*
D02*
G37*
G36*
X50363Y16143D02*
X50205D01*
Y15966D01*
X50363D01*
Y16143D01*
D02*
G37*
G36*
X49553Y17942D02*
X49376D01*
Y17785D01*
X49553D01*
Y17942D01*
D02*
G37*
G36*
X50363Y15766D02*
X50205D01*
Y15589D01*
X50363D01*
Y15766D01*
D02*
G37*
G36*
X49930Y17942D02*
X49753D01*
Y17785D01*
X49828D01*
Y17823D01*
X49829Y17814D01*
X49832Y17805D01*
X49837Y17798D01*
X49844Y17791D01*
X49853Y17786D01*
X49856Y17785D01*
X49930D01*
Y17942D01*
D02*
G37*
G36*
X49816Y16376D02*
X49578D01*
Y16139D01*
X49655Y16171D01*
X49728Y16227D01*
X49784Y16300D01*
X49816Y16376D01*
D02*
G37*
G36*
X53988Y20623D02*
Y20517D01*
X53994Y20515D01*
X54025Y20510D01*
X54063Y20506D01*
X54133Y20504D01*
X54160Y20504D01*
X54171Y20486D01*
Y20491D01*
X54137Y20535D01*
X54064Y20591D01*
X53988Y20623D01*
D02*
G37*
G36*
X49378Y16376D02*
X49141D01*
X49173Y16300D01*
X49229Y16227D01*
X49302Y16171D01*
X49378Y16139D01*
Y16376D01*
D02*
G37*
G36*
X48803Y17942D02*
X48626D01*
Y17785D01*
X48803D01*
Y17942D01*
D02*
G37*
G36*
X52872Y19128D02*
X52867Y19121D01*
X52856Y19105D01*
X52847Y19089D01*
X52839Y19072D01*
X52833Y19055D01*
X52828Y19037D01*
X52824Y19018D01*
X52822Y18999D01*
X52822Y18985D01*
X52872Y18964D01*
Y19128D01*
D02*
G37*
%LPD*%
D10*
X67992Y14370D02*
D03*
Y15532D02*
D03*
D11*
X67402Y14951D02*
D03*
D12*
X59537Y18984D02*
D03*
X60087D02*
D03*
D13*
X62994Y15570D02*
D03*
Y16120D02*
D03*
D14*
X52815Y22982D02*
D03*
X52185D02*
D03*
D15*
X50039Y31102D02*
D03*
X53346D02*
D03*
D16*
X52323Y30118D02*
D03*
X51378D02*
D03*
X51063D02*
D03*
X52008D02*
D03*
X51693D02*
D03*
D17*
X50709Y17526D02*
D03*
Y17723D02*
D03*
Y17920D02*
D03*
Y18117D02*
D03*
Y18314D02*
D03*
Y18511D02*
D03*
Y18707D02*
D03*
Y18904D02*
D03*
Y19101D02*
D03*
Y19298D02*
D03*
Y19495D02*
D03*
Y19692D02*
D03*
X53898D02*
D03*
Y19495D02*
D03*
Y19298D02*
D03*
Y19101D02*
D03*
Y18904D02*
D03*
Y18707D02*
D03*
Y18511D02*
D03*
Y18314D02*
D03*
Y18117D02*
D03*
Y17920D02*
D03*
Y17723D02*
D03*
Y17526D02*
D03*
D18*
X51220Y20204D02*
D03*
X51417D02*
D03*
X51614D02*
D03*
X51811D02*
D03*
X52008D02*
D03*
X52205D02*
D03*
X52402D02*
D03*
X52598D02*
D03*
X52795D02*
D03*
X53386Y17015D02*
D03*
X53189D02*
D03*
X52992D02*
D03*
X52795D02*
D03*
X52598D02*
D03*
X52402D02*
D03*
X52205D02*
D03*
X52008D02*
D03*
X51811D02*
D03*
X51614D02*
D03*
X51417D02*
D03*
X51220D02*
D03*
X52992Y20204D02*
D03*
X53189D02*
D03*
X53386D02*
D03*
D19*
X51063Y21535D02*
D03*
Y20984D02*
D03*
X64401Y15501D02*
D03*
Y14950D02*
D03*
X65151Y15501D02*
D03*
Y14950D02*
D03*
X55187Y20404D02*
D03*
Y19852D02*
D03*
X54547Y20404D02*
D03*
Y19852D02*
D03*
X48903Y17685D02*
D03*
Y17133D02*
D03*
X49653Y17685D02*
D03*
Y17133D02*
D03*
X50315Y21535D02*
D03*
Y20984D02*
D03*
X49734Y12972D02*
D03*
Y12421D02*
D03*
X48091Y30679D02*
D03*
Y31230D02*
D03*
D20*
X49862Y14882D02*
D03*
Y14252D02*
D03*
X48789Y12382D02*
D03*
Y13012D02*
D03*
X47726D02*
D03*
Y12382D02*
D03*
X48829Y31270D02*
D03*
Y30640D02*
D03*
D21*
X51014Y14984D02*
D03*
Y14142D02*
D03*
X52014Y14984D02*
D03*
Y14142D02*
D03*
D22*
X61474Y18700D02*
D03*
X62026D02*
D03*
X61474Y19300D02*
D03*
X62026D02*
D03*
X63426Y12250D02*
D03*
X62874D02*
D03*
X50463Y15866D02*
D03*
X51014D02*
D03*
D23*
X65161Y13939D02*
D03*
X65439Y13661D02*
D03*
D24*
X61032Y17931D02*
D03*
X60560D02*
D03*
X60087D02*
D03*
X57568D02*
D03*
X58040D02*
D03*
X58513D02*
D03*
X58513Y11868D02*
D03*
X58040D02*
D03*
X57568D02*
D03*
X60087D02*
D03*
X60560D02*
D03*
X61032D02*
D03*
D25*
X59300Y17931D02*
D03*
X59300Y11868D02*
D03*
D26*
X56820Y14152D02*
D03*
Y12262D02*
D03*
Y12735D02*
D03*
Y13680D02*
D03*
Y13207D02*
D03*
Y16593D02*
D03*
Y17065D02*
D03*
Y16120D02*
D03*
Y15648D02*
D03*
Y17538D02*
D03*
X61780D02*
D03*
Y15648D02*
D03*
Y16120D02*
D03*
Y17065D02*
D03*
Y16593D02*
D03*
Y13207D02*
D03*
Y13680D02*
D03*
Y12735D02*
D03*
Y12262D02*
D03*
Y14152D02*
D03*
D27*
X56820Y14900D02*
D03*
X61780D02*
D03*
D28*
X41673Y19468D02*
X41752Y19390D01*
X43445D01*
X45118D01*
X43445Y18012D02*
X43563Y17894D01*
X43445Y18012D02*
Y19390D01*
X43406Y21181D02*
X43445Y21142D01*
Y19390D02*
Y21142D01*
D29*
X44400Y14075D02*
X45443Y13032D01*
Y13012D02*
Y13032D01*
Y13012D02*
X47726D01*
X54006Y20404D02*
X54547D01*
X53888Y20285D02*
X54006Y20404D01*
X65161Y13939D02*
Y14940D01*
X47726Y12382D02*
X48789D01*
X49695D01*
X48130Y30640D02*
X48829D01*
X48091Y30679D02*
X48130Y30640D01*
X54547Y19852D02*
X55187D01*
X51014Y14984D02*
Y15866D01*
X64401Y14950D02*
X65151D01*
X63867D02*
X64401D01*
X48996Y31102D02*
X50039D01*
X48829Y31270D02*
X48996Y31102D01*
X50039D02*
X53346D01*
D30*
X45502Y14972D02*
X46828D01*
X44400Y16075D02*
X45502Y14972D01*
X46828D02*
X51002D01*
X51014Y14984D01*
X46828Y14972D02*
X48903Y17048D01*
Y17133D01*
X48903Y17133D01*
X49653D01*
X47383Y21158D02*
Y21256D01*
X50141Y21158D02*
X50315Y20984D01*
X51063D01*
X55728Y21014D02*
X56785D01*
X57721Y21950D01*
X47383Y21158D02*
X50141D01*
X55728Y19970D02*
Y21014D01*
X55610Y19852D02*
X55728Y19970D01*
X55187Y19852D02*
X55610D01*
X62026Y19300D02*
Y19736D01*
Y18700D02*
Y19300D01*
Y17783D02*
Y18700D01*
X61780Y17538D02*
X62026Y17783D01*
X63829Y14911D02*
Y17933D01*
X63069Y14152D02*
X63829Y14911D01*
X61516Y20246D02*
X62026Y19736D01*
X63829Y17933D01*
X61780Y14152D02*
X63069D01*
D31*
X52549Y16506D02*
X52598Y16555D01*
Y17015D01*
X49653Y17685D02*
X49692Y17723D01*
X50709D01*
X51394D02*
X51985Y18314D01*
X52772Y19100D02*
X52972Y19301D01*
X51985Y18314D02*
X52772Y19100D01*
X50709Y18314D02*
X51985D01*
X50709Y17723D02*
X51394D01*
X52772Y17837D02*
Y19100D01*
X52603Y17668D02*
X52772Y17837D01*
X52603Y17019D02*
Y17668D01*
X52598Y17015D02*
X52603Y17019D01*
X52972Y19301D02*
X53166Y19495D01*
X53898D01*
X51063Y21535D02*
X51417Y21181D01*
Y20204D02*
Y21181D01*
X53189Y20671D02*
X54958Y22440D01*
X53189Y20204D02*
Y20671D01*
X57109Y19764D02*
X59296Y21950D01*
X56356Y19764D02*
X57109D01*
X55694Y19101D02*
X56356Y19764D01*
X56380Y19547D02*
X60325D01*
X55737Y18904D02*
X56380Y19547D01*
X60325D02*
X60560Y19312D01*
Y17931D02*
Y19312D01*
X61780Y16120D02*
X62994D01*
X60087Y17931D02*
Y18984D01*
X56505Y19946D02*
X58508Y21950D01*
X56298Y19946D02*
X56505D01*
X55650Y19298D02*
X56298Y19946D01*
X53898Y19298D02*
X55650D01*
X53898Y19101D02*
X55694D01*
X55849Y22440D02*
X64020Y30611D01*
X54958Y22440D02*
X55849D01*
X52008Y14984D02*
Y17015D01*
X47205Y18750D02*
X49508D01*
X50056Y19298D01*
X50709D01*
X46890Y18435D02*
X47205Y18750D01*
X46890Y16909D02*
Y18435D01*
X51614Y19055D02*
Y20204D01*
Y19055D02*
X51644Y19026D01*
X50144Y20256D02*
X50709Y19692D01*
X47383Y20256D02*
X50144D01*
X46890Y16909D02*
X47383Y16417D01*
Y16256D02*
Y16417D01*
X52402Y17015D02*
Y18012D01*
X52785Y15650D02*
Y16985D01*
X52805Y17005D01*
X52795Y17015D02*
X52805Y17005D01*
X52008Y14990D02*
X52014Y14984D01*
X51220Y20204D02*
Y20827D01*
X51063Y20984D02*
X51220Y20827D01*
X51014Y15866D02*
X51220Y16073D01*
Y17015D01*
X49653Y17133D02*
X49811D01*
X50204Y17526D01*
X50709D01*
X53898D02*
X53948Y17476D01*
Y16781D02*
Y17476D01*
X57568Y17931D02*
Y18289D01*
X57411Y18445D02*
X57568Y18289D01*
X56211Y17323D02*
X56468Y17065D01*
X56820D01*
X53386Y16319D02*
Y17015D01*
Y16319D02*
X55157Y14547D01*
X53948Y16781D02*
X55327Y15401D01*
Y12153D02*
Y15401D01*
X55157Y12082D02*
Y14547D01*
X57568Y11603D02*
Y11868D01*
X55157Y12082D02*
X56019Y11220D01*
X57707D01*
X55327Y12153D02*
X56090Y11390D01*
X57355D01*
X57568Y11603D01*
X57707Y11220D02*
X58040Y11554D01*
Y11868D01*
X60536Y21950D02*
X60870D01*
X60216Y22270D02*
X60536Y21950D01*
X52982Y20945D02*
Y22815D01*
X52815Y22982D02*
X52982Y22815D01*
X52992Y20714D02*
X53179Y20901D01*
Y22920D01*
X60870Y30611D01*
X53898Y19692D02*
X54387D01*
X54547Y19852D01*
X49734Y12421D02*
X51417D01*
X53155Y14159D01*
X52795Y20204D02*
Y20758D01*
X52982Y20945D01*
X53386Y20204D02*
Y20627D01*
X55029Y22270D01*
X60216D01*
X51693Y29674D02*
Y30118D01*
X52008Y29674D02*
Y30118D01*
X52008Y20204D02*
Y20641D01*
X51950Y29617D02*
X52008Y29674D01*
X51693D02*
X51750Y29617D01*
X52992Y20204D02*
Y20714D01*
Y16063D02*
Y17015D01*
Y16063D02*
X53155Y15900D01*
Y14159D02*
Y15900D01*
X52205Y20204D02*
Y21928D01*
X52394Y22117D01*
X52601Y20755D02*
Y21409D01*
X52402Y20204D02*
Y20555D01*
X52601Y20755D01*
X51811Y20204D02*
Y20555D01*
X51750Y20616D02*
X51811Y20555D01*
X51950Y20699D02*
X52008Y20641D01*
X51750Y20616D02*
Y29617D01*
X51950Y20699D02*
Y29617D01*
X53898Y18904D02*
X55737D01*
X53898Y18511D02*
X55633D01*
X56211Y17933D01*
Y17323D02*
Y17933D01*
X55939Y18445D02*
X57411D01*
X55677Y18707D02*
X55939Y18445D01*
X53898Y18707D02*
X55677D01*
D32*
X63426Y12250D02*
X64100D01*
X66800Y14950D01*
X67409D01*
X61780Y12262D02*
X62848D01*
D33*
X49823Y14176D02*
X50979D01*
X51014Y14142D01*
X48130Y31270D02*
X48829D01*
X48091Y31230D02*
X48130Y31270D01*
D34*
X42640Y26480D02*
D03*
X44490D02*
D03*
X46340D02*
D03*
X43490Y31480D02*
D03*
X45490D02*
D03*
D35*
X43445Y19390D02*
D03*
Y23327D02*
D03*
D36*
X44400Y14075D02*
D03*
Y15075D02*
D03*
Y16075D02*
D03*
D37*
X39850Y31660D02*
D03*
Y11210D02*
D03*
X68760Y31660D02*
D03*
Y11210D02*
D03*
D38*
X47383Y21256D02*
D03*
D39*
Y20256D02*
D03*
Y19256D02*
D03*
Y18256D02*
D03*
Y17256D02*
D03*
Y16256D02*
D03*
Y22579D02*
D03*
X48383D02*
D03*
D40*
X46383D02*
D03*
D41*
X57721Y21950D02*
D03*
D42*
X58508D02*
D03*
X59296D02*
D03*
X60083D02*
D03*
X60870D02*
D03*
X61658D02*
D03*
X62445D02*
D03*
X63233D02*
D03*
X64020D02*
D03*
X64807D02*
D03*
Y30611D02*
D03*
X64020D02*
D03*
X63233D02*
D03*
X62445D02*
D03*
X61658D02*
D03*
X60870D02*
D03*
X60083D02*
D03*
X59296D02*
D03*
X58508D02*
D03*
X57721D02*
D03*
D43*
X62500Y11545D02*
D03*
X66656Y15791D02*
D03*
X66134Y15496D02*
D03*
X65710Y15072D02*
D03*
X64437Y13799D02*
D03*
X64013Y13375D02*
D03*
X63476Y13107D02*
D03*
X62894Y12961D02*
D03*
X63104Y11443D02*
D03*
X63702Y11393D02*
D03*
X64302Y11420D02*
D03*
X64806Y11744D02*
D03*
X65231Y12169D02*
D03*
X65655Y12593D02*
D03*
X66079Y13017D02*
D03*
X66503Y13441D02*
D03*
X66928Y13866D02*
D03*
X69000Y30000D02*
D03*
X68000Y28000D02*
D03*
X69000Y26000D02*
D03*
X68000Y24000D02*
D03*
X69000Y22000D02*
D03*
X68000Y20000D02*
D03*
X69000Y18000D02*
D03*
X67000Y30000D02*
D03*
X66000Y28000D02*
D03*
X67000Y26000D02*
D03*
X66000Y24000D02*
D03*
X67000Y22000D02*
D03*
X66000Y20000D02*
D03*
X67000Y18000D02*
D03*
X65000Y30000D02*
D03*
X64000Y28000D02*
D03*
X65000Y26000D02*
D03*
X64000Y24000D02*
D03*
Y20000D02*
D03*
X65000Y18000D02*
D03*
X62000Y28000D02*
D03*
X63000Y26000D02*
D03*
X62000Y24000D02*
D03*
X63000Y18000D02*
D03*
X61000Y30000D02*
D03*
X60000Y28000D02*
D03*
X61000Y26000D02*
D03*
X60000Y24000D02*
D03*
Y20000D02*
D03*
Y16000D02*
D03*
X61000Y14000D02*
D03*
X59000Y30000D02*
D03*
X58000Y24000D02*
D03*
Y20000D02*
D03*
Y16000D02*
D03*
X59000Y14000D02*
D03*
X57000Y30000D02*
D03*
X56000Y28000D02*
D03*
X57000Y26000D02*
D03*
X56000Y24000D02*
D03*
X55000Y30000D02*
D03*
X54000Y28000D02*
D03*
X55000Y26000D02*
D03*
Y18000D02*
D03*
X54000Y12000D02*
D03*
X53000Y30000D02*
D03*
Y26000D02*
D03*
Y18000D02*
D03*
X52000Y12000D02*
D03*
X50000Y28000D02*
D03*
X51000Y26000D02*
D03*
X50000Y24000D02*
D03*
X49000Y30000D02*
D03*
X48000Y28000D02*
D03*
X49000Y26000D02*
D03*
X48000Y24000D02*
D03*
X49000Y22000D02*
D03*
X47000Y30000D02*
D03*
X46000Y28000D02*
D03*
Y24000D02*
D03*
X47000Y22000D02*
D03*
X46000Y16000D02*
D03*
X47000Y14000D02*
D03*
X46000Y12000D02*
D03*
X45000Y30000D02*
D03*
X44000Y28000D02*
D03*
X45000Y22000D02*
D03*
X44000Y12000D02*
D03*
X43000Y30000D02*
D03*
X42000Y28000D02*
D03*
X43000Y14000D02*
D03*
X42000Y12000D02*
D03*
X41000Y30000D02*
D03*
X40000Y28000D02*
D03*
X41000Y26000D02*
D03*
X40000Y24000D02*
D03*
X41000Y22000D02*
D03*
X40000Y20000D02*
D03*
X41000Y18000D02*
D03*
X40000Y16000D02*
D03*
X41000Y14000D02*
D03*
X49478Y16476D02*
D03*
X53888Y20285D02*
D03*
X52972Y19301D02*
D03*
X51644Y19026D02*
D03*
X52402Y18012D02*
D03*
X52785Y15650D02*
D03*
X52394Y22117D02*
D03*
X52601Y21409D02*
D03*
X55728Y21014D02*
D03*
X61516Y20246D02*
D03*
M02*
