G04 Layer_Physical_Order=2*
G04 Layer_Color=16711680*
%FSLAX24Y24*%
%MOIN*%
G70*
G01*
G75*
%ADD14R,0.0413X0.0394*%
%ADD20R,0.0394X0.0413*%
%ADD22R,0.0315X0.0354*%
%ADD28C,0.1000*%
%ADD29C,0.0200*%
%ADD30C,0.0300*%
%ADD31C,0.0100*%
%ADD34C,0.1200*%
%ADD35C,0.2250*%
%ADD36C,0.0689*%
%ADD37C,0.2100*%
%ADD38R,0.0591X0.0591*%
%ADD39C,0.0591*%
%ADD40R,0.0591X0.0591*%
G04:AMPARAMS|DCode=41|XSize=40mil|YSize=40mil|CornerRadius=10mil|HoleSize=0mil|Usage=FLASHONLY|Rotation=90.000|XOffset=0mil|YOffset=0mil|HoleType=Round|Shape=RoundedRectangle|*
%AMROUNDEDRECTD41*
21,1,0.0400,0.0200,0,0,90.0*
21,1,0.0200,0.0400,0,0,90.0*
1,1,0.0200,0.0100,0.0100*
1,1,0.0200,0.0100,-0.0100*
1,1,0.0200,-0.0100,-0.0100*
1,1,0.0200,-0.0100,0.0100*
%
%ADD41ROUNDEDRECTD41*%
%ADD42C,0.0400*%
%ADD43C,0.0500*%
%ADD44C,0.0500*%
G36*
X68177Y32651D02*
X68082Y32593D01*
X67944Y32476D01*
X67827Y32338D01*
X67732Y32184D01*
X67663Y32016D01*
X67621Y31840D01*
X67606Y31660D01*
X67621Y31480D01*
X67663Y31304D01*
X67732Y31136D01*
X67827Y30982D01*
X67944Y30844D01*
X68082Y30727D01*
X68236Y30632D01*
X68404Y30563D01*
X68580Y30521D01*
X68760Y30506D01*
X68940Y30521D01*
X69116Y30563D01*
X69284Y30632D01*
X69438Y30727D01*
X69576Y30844D01*
X69693Y30982D01*
X69788Y31136D01*
X69808Y31185D01*
X69857Y31175D01*
Y11695D01*
X69808Y11685D01*
X69788Y11734D01*
X69693Y11888D01*
X69576Y12026D01*
X69438Y12143D01*
X69284Y12238D01*
X69116Y12307D01*
X68940Y12349D01*
X68760Y12364D01*
X68580Y12349D01*
X68404Y12307D01*
X68236Y12238D01*
X68082Y12143D01*
X67944Y12026D01*
X67827Y11888D01*
X67732Y11734D01*
X67663Y11566D01*
X67621Y11390D01*
X67606Y11210D01*
X67621Y11030D01*
X67663Y10854D01*
X67732Y10686D01*
X67827Y10532D01*
X67944Y10394D01*
X68082Y10277D01*
X68202Y10203D01*
X68188Y10153D01*
X40422D01*
X40408Y10203D01*
X40528Y10277D01*
X40666Y10394D01*
X40783Y10532D01*
X40878Y10686D01*
X40947Y10854D01*
X40989Y11030D01*
X41004Y11210D01*
X40989Y11390D01*
X40947Y11566D01*
X40878Y11734D01*
X40783Y11888D01*
X40666Y12026D01*
X40528Y12143D01*
X40374Y12238D01*
X40206Y12307D01*
X40030Y12349D01*
X39850Y12364D01*
X39670Y12349D01*
X39494Y12307D01*
X39326Y12238D01*
X39172Y12143D01*
X39034Y12026D01*
X38917Y11888D01*
X38835Y11754D01*
X38785Y11768D01*
Y31102D01*
X38835Y31116D01*
X38917Y30982D01*
X39034Y30844D01*
X39172Y30727D01*
X39326Y30632D01*
X39494Y30563D01*
X39670Y30521D01*
X39850Y30506D01*
X40030Y30521D01*
X40206Y30563D01*
X40374Y30632D01*
X40528Y30727D01*
X40666Y30844D01*
X40783Y30982D01*
X40878Y31136D01*
X40947Y31304D01*
X40989Y31480D01*
X41004Y31660D01*
X40989Y31840D01*
X40947Y32016D01*
X40878Y32184D01*
X40783Y32338D01*
X40666Y32476D01*
X40528Y32593D01*
X40433Y32651D01*
X40447Y32701D01*
X68163D01*
X68177Y32651D01*
D02*
G37*
%LPC*%
G36*
X49378Y16376D02*
X49141D01*
X49173Y16300D01*
X49229Y16227D01*
X49302Y16171D01*
X49378Y16139D01*
Y16376D01*
D02*
G37*
G36*
X49816D02*
X49578D01*
Y16139D01*
X49655Y16171D01*
X49728Y16227D01*
X49784Y16300D01*
X49816Y16376D01*
D02*
G37*
G36*
X53450Y15267D02*
Y15090D01*
X53607D01*
Y15267D01*
X53450D01*
D02*
G37*
G36*
X47383Y16655D02*
X47279Y16641D01*
X47183Y16602D01*
X47101Y16538D01*
X47037Y16456D01*
X46998Y16359D01*
X46984Y16256D01*
X46998Y16153D01*
X47037Y16057D01*
X47101Y15974D01*
X47183Y15911D01*
X47279Y15871D01*
X47383Y15858D01*
X47486Y15871D01*
X47582Y15911D01*
X47665Y15974D01*
X47728Y16057D01*
X47768Y16153D01*
X47781Y16256D01*
X47768Y16359D01*
X47728Y16456D01*
X47665Y16538D01*
X47582Y16602D01*
X47486Y16641D01*
X47383Y16655D01*
D02*
G37*
G36*
X53988Y20623D02*
Y20385D01*
X54225D01*
X54194Y20462D01*
X54137Y20535D01*
X54064Y20591D01*
X53988Y20623D01*
D02*
G37*
G36*
X49378Y16814D02*
X49302Y16782D01*
X49229Y16726D01*
X49173Y16653D01*
X49141Y16576D01*
X49378D01*
Y16814D01*
D02*
G37*
G36*
X49578D02*
Y16576D01*
X49816D01*
X49784Y16653D01*
X49728Y16726D01*
X49655Y16782D01*
X49578Y16814D01*
D02*
G37*
G36*
X54225Y20185D02*
X53988D01*
Y19948D01*
X54064Y19980D01*
X54137Y20036D01*
X54194Y20109D01*
X54225Y20185D01*
D02*
G37*
G36*
X53788Y20623D02*
X53711Y20591D01*
X53638Y20535D01*
X53582Y20462D01*
X53550Y20385D01*
X53788D01*
Y20623D01*
D02*
G37*
G36*
X62445Y22253D02*
X62367Y22242D01*
X62294Y22212D01*
X62231Y22164D01*
X62183Y22101D01*
X62153Y22028D01*
X62143Y21950D01*
X62153Y21872D01*
X62183Y21799D01*
X62231Y21736D01*
X62294Y21688D01*
X62367Y21658D01*
X62445Y21647D01*
X62524Y21658D01*
X62597Y21688D01*
X62659Y21736D01*
X62707Y21799D01*
X62738Y21872D01*
X62748Y21950D01*
X62738Y22028D01*
X62707Y22101D01*
X62659Y22164D01*
X62597Y22212D01*
X62524Y22242D01*
X62445Y22253D01*
D02*
G37*
G36*
X61658D02*
X61580Y22242D01*
X61507Y22212D01*
X61444Y22164D01*
X61396Y22101D01*
X61366Y22028D01*
X61355Y21950D01*
X61366Y21872D01*
X61396Y21799D01*
X61444Y21736D01*
X61507Y21688D01*
X61580Y21658D01*
X61658Y21647D01*
X61736Y21658D01*
X61809Y21688D01*
X61872Y21736D01*
X61920Y21799D01*
X61950Y21872D01*
X61960Y21950D01*
X61950Y22028D01*
X61920Y22101D01*
X61872Y22164D01*
X61809Y22212D01*
X61736Y22242D01*
X61658Y22253D01*
D02*
G37*
G36*
X64020D02*
X63942Y22242D01*
X63869Y22212D01*
X63806Y22164D01*
X63758Y22101D01*
X63728Y22028D01*
X63717Y21950D01*
X63728Y21872D01*
X63758Y21799D01*
X63806Y21736D01*
X63869Y21688D01*
X63942Y21658D01*
X64020Y21647D01*
X64098Y21658D01*
X64171Y21688D01*
X64234Y21736D01*
X64282Y21799D01*
X64312Y21872D01*
X64323Y21950D01*
X64312Y22028D01*
X64282Y22101D01*
X64234Y22164D01*
X64171Y22212D01*
X64098Y22242D01*
X64020Y22253D01*
D02*
G37*
G36*
X63233D02*
X63154Y22242D01*
X63081Y22212D01*
X63019Y22164D01*
X62971Y22101D01*
X62940Y22028D01*
X62930Y21950D01*
X62940Y21872D01*
X62971Y21799D01*
X63019Y21736D01*
X63081Y21688D01*
X63154Y21658D01*
X63233Y21647D01*
X63311Y21658D01*
X63384Y21688D01*
X63447Y21736D01*
X63495Y21799D01*
X63525Y21872D01*
X63535Y21950D01*
X63525Y22028D01*
X63495Y22101D01*
X63447Y22164D01*
X63384Y22212D01*
X63311Y22242D01*
X63233Y22253D01*
D02*
G37*
G36*
X60870D02*
X60792Y22242D01*
X60719Y22212D01*
X60657Y22164D01*
X60608Y22101D01*
X60578Y22028D01*
X60568Y21950D01*
X60578Y21872D01*
X60608Y21799D01*
X60657Y21736D01*
X60719Y21688D01*
X60792Y21658D01*
X60870Y21647D01*
X60949Y21658D01*
X61022Y21688D01*
X61084Y21736D01*
X61133Y21799D01*
X61163Y21872D01*
X61173Y21950D01*
X61163Y22028D01*
X61133Y22101D01*
X61084Y22164D01*
X61022Y22212D01*
X60949Y22242D01*
X60870Y22253D01*
D02*
G37*
G36*
X58508D02*
X58430Y22242D01*
X58357Y22212D01*
X58294Y22164D01*
X58246Y22101D01*
X58216Y22028D01*
X58206Y21950D01*
X58216Y21872D01*
X58246Y21799D01*
X58294Y21736D01*
X58357Y21688D01*
X58430Y21658D01*
X58508Y21647D01*
X58587Y21658D01*
X58660Y21688D01*
X58722Y21736D01*
X58770Y21799D01*
X58801Y21872D01*
X58811Y21950D01*
X58801Y22028D01*
X58770Y22101D01*
X58722Y22164D01*
X58660Y22212D01*
X58587Y22242D01*
X58508Y22253D01*
D02*
G37*
G36*
X56844Y23092D02*
X56808D01*
X56794Y23092D01*
X56651D01*
Y22815D01*
Y22538D01*
X56794D01*
X56808Y22538D01*
X56846Y22509D01*
X56847Y22478D01*
Y22263D01*
X56808Y22236D01*
X56794Y22236D01*
X56651D01*
Y21959D01*
Y21681D01*
X56794D01*
X56808Y21681D01*
X56844D01*
X56858Y21681D01*
X57254D01*
X57258Y21681D01*
X57261Y21681D01*
X57263Y21681D01*
X57266Y21681D01*
X57359D01*
Y21685D01*
X57408Y21692D01*
X57417Y21692D01*
X57480Y21684D01*
X57501Y21680D01*
X57516Y21675D01*
X57525Y21672D01*
X57534Y21667D01*
X57535Y21667D01*
X57543Y21662D01*
X57569Y21656D01*
X57572Y21656D01*
X57573Y21656D01*
X57621Y21646D01*
X57821D01*
X57899Y21662D01*
X57965Y21706D01*
X58009Y21772D01*
X58025Y21850D01*
Y22050D01*
X58009Y22128D01*
X57965Y22194D01*
X57899Y22238D01*
X57821Y22254D01*
X57621D01*
X57573Y22244D01*
X57572Y22244D01*
X57569Y22244D01*
X57543Y22238D01*
X57535Y22233D01*
X57534Y22233D01*
X57525Y22228D01*
X57516Y22225D01*
X57501Y22220D01*
X57482Y22217D01*
X57409Y22211D01*
X57387Y22222D01*
X57358Y22255D01*
X57357Y22295D01*
Y22538D01*
X57359D01*
Y22635D01*
X57360Y22639D01*
X57360Y22640D01*
X57360Y22640D01*
X57359Y22644D01*
Y23092D01*
X56858D01*
X56844Y23092D01*
D02*
G37*
G36*
X60083Y22253D02*
X60005Y22242D01*
X59932Y22212D01*
X59869Y22164D01*
X59821Y22101D01*
X59791Y22028D01*
X59780Y21950D01*
X59791Y21872D01*
X59821Y21799D01*
X59869Y21736D01*
X59932Y21688D01*
X60005Y21658D01*
X60083Y21647D01*
X60161Y21658D01*
X60234Y21688D01*
X60297Y21736D01*
X60345Y21799D01*
X60375Y21872D01*
X60386Y21950D01*
X60375Y22028D01*
X60345Y22101D01*
X60297Y22164D01*
X60234Y22212D01*
X60161Y22242D01*
X60083Y22253D01*
D02*
G37*
G36*
X59296D02*
X59217Y22242D01*
X59144Y22212D01*
X59082Y22164D01*
X59034Y22101D01*
X59003Y22028D01*
X58993Y21950D01*
X59003Y21872D01*
X59034Y21799D01*
X59082Y21736D01*
X59144Y21688D01*
X59217Y21658D01*
X59296Y21647D01*
X59374Y21658D01*
X59447Y21688D01*
X59510Y21736D01*
X59558Y21799D01*
X59588Y21872D01*
X59598Y21950D01*
X59588Y22028D01*
X59558Y22101D01*
X59510Y22164D01*
X59447Y22212D01*
X59374Y22242D01*
X59296Y22253D01*
D02*
G37*
G36*
X53788Y20185D02*
X53550D01*
X53582Y20109D01*
X53638Y20036D01*
X53711Y19980D01*
X53788Y19948D01*
Y20185D01*
D02*
G37*
G36*
X52402Y18365D02*
X52310Y18353D01*
X52225Y18318D01*
X52152Y18261D01*
X52096Y18188D01*
X52061Y18103D01*
X52049Y18012D01*
X52053Y17980D01*
X52052Y17972D01*
X52055Y17942D01*
X52056Y17917D01*
X52056Y17896D01*
X52054Y17877D01*
X52051Y17860D01*
X52048Y17847D01*
X52044Y17837D01*
X52040Y17829D01*
X52037Y17824D01*
X51622Y17409D01*
X47843D01*
X47834Y17411D01*
X47822Y17415D01*
X47806Y17422D01*
X47788Y17433D01*
X47767Y17446D01*
X47745Y17462D01*
X47693Y17508D01*
X47671Y17530D01*
X47665Y17538D01*
X47582Y17602D01*
X47486Y17641D01*
X47383Y17655D01*
X47279Y17641D01*
X47183Y17602D01*
X47101Y17538D01*
X47037Y17456D01*
X46998Y17359D01*
X46984Y17256D01*
X46998Y17153D01*
X47037Y17057D01*
X47101Y16974D01*
X47183Y16911D01*
X47279Y16871D01*
X47383Y16858D01*
X47486Y16871D01*
X47582Y16911D01*
X47665Y16974D01*
X47671Y16983D01*
X47693Y17005D01*
X47745Y17050D01*
X47767Y17066D01*
X47788Y17080D01*
X47806Y17090D01*
X47822Y17097D01*
X47834Y17102D01*
X47843Y17103D01*
X51685D01*
X51744Y17115D01*
X51794Y17148D01*
X52261Y17615D01*
X52266Y17619D01*
X52276Y17625D01*
X52290Y17631D01*
X52307Y17637D01*
X52327Y17643D01*
X52349Y17648D01*
X52406Y17658D01*
X52439Y17662D01*
X52448Y17665D01*
X52493Y17671D01*
X52578Y17706D01*
X52651Y17762D01*
X52707Y17835D01*
X52743Y17920D01*
X52755Y18012D01*
X52743Y18103D01*
X52707Y18188D01*
X52651Y18261D01*
X52578Y18318D01*
X52493Y18353D01*
X52402Y18365D01*
D02*
G37*
G36*
X53310Y19201D02*
X53072D01*
Y18964D01*
X53149Y18995D01*
X53222Y19052D01*
X53278Y19125D01*
X53310Y19201D01*
D02*
G37*
G36*
X46376Y19526D02*
X46281D01*
Y19319D01*
X46478D01*
Y19518D01*
X46474Y19517D01*
X46448Y19510D01*
X46426Y19501D01*
X46408Y19490D01*
X46394Y19477D01*
X46384Y19462D01*
X46378Y19445D01*
X46376Y19426D01*
Y19526D01*
D02*
G37*
G36*
X46081D02*
X45884D01*
Y19319D01*
X46081D01*
Y19526D01*
D02*
G37*
G36*
X52872Y19201D02*
X52635D01*
X52667Y19125D01*
X52723Y19052D01*
X52796Y18995D01*
X52872Y18964D01*
Y19201D01*
D02*
G37*
G36*
X44666Y19290D02*
X43545D01*
Y18169D01*
X43637Y18176D01*
X43825Y18221D01*
X44003Y18295D01*
X44167Y18396D01*
X44314Y18521D01*
X44439Y18668D01*
X44540Y18832D01*
X44614Y19010D01*
X44659Y19198D01*
X44666Y19290D01*
D02*
G37*
G36*
X43345D02*
X42224D01*
X42231Y19198D01*
X42276Y19010D01*
X42350Y18832D01*
X42451Y18668D01*
X42576Y18521D01*
X42723Y18396D01*
X42887Y18295D01*
X43065Y18221D01*
X43253Y18176D01*
X43345Y18169D01*
Y19290D01*
D02*
G37*
G36*
X47768Y19156D02*
X47483D01*
Y18871D01*
X47486Y18871D01*
X47582Y18911D01*
X47665Y18974D01*
X47728Y19057D01*
X47768Y19153D01*
X47768Y19156D01*
D02*
G37*
G36*
X47283D02*
X46997D01*
X46998Y19153D01*
X47037Y19057D01*
X47101Y18974D01*
X47183Y18911D01*
X47279Y18871D01*
X47283Y18871D01*
Y19156D01*
D02*
G37*
G36*
X43545Y20611D02*
Y19490D01*
X44666D01*
X44659Y19582D01*
X44614Y19769D01*
X44540Y19948D01*
X44439Y20112D01*
X44314Y20259D01*
X44167Y20384D01*
X44003Y20485D01*
X43825Y20558D01*
X43637Y20603D01*
X43545Y20611D01*
D02*
G37*
G36*
X43345D02*
X43253Y20603D01*
X43065Y20558D01*
X42887Y20485D01*
X42723Y20384D01*
X42576Y20259D01*
X42451Y20112D01*
X42350Y19948D01*
X42276Y19769D01*
X42231Y19582D01*
X42224Y19490D01*
X43345D01*
Y20611D01*
D02*
G37*
G36*
X47089Y21652D02*
X47085Y21652D01*
X46987D01*
Y21562D01*
X46987Y21561D01*
X46986Y21546D01*
X46985Y21546D01*
X46985Y21545D01*
X46980Y21541D01*
X46969Y21534D01*
X46949Y21527D01*
X46921Y21519D01*
X46884Y21513D01*
X46859Y21511D01*
X46306D01*
X46208Y21492D01*
X46125Y21437D01*
X45036Y20348D01*
X44981Y20265D01*
X44962Y20167D01*
Y16907D01*
X44611Y16556D01*
X44607Y16553D01*
X44588Y16539D01*
X44570Y16529D01*
X44554Y16521D01*
X44539Y16516D01*
X44525Y16512D01*
X44512Y16511D01*
X44499Y16511D01*
X44481Y16514D01*
X44475Y16513D01*
X44400Y16523D01*
X44284Y16508D01*
X44175Y16463D01*
X44083Y16392D01*
X44011Y16299D01*
X43967Y16191D01*
X43951Y16075D01*
X43967Y15959D01*
X44011Y15851D01*
X44083Y15758D01*
X44175Y15687D01*
X44284Y15642D01*
X44400Y15626D01*
X44411Y15628D01*
X44419Y15628D01*
X44435Y15625D01*
X44451Y15622D01*
X44468Y15616D01*
X44486Y15608D01*
X44504Y15598D01*
X44524Y15585D01*
X44544Y15570D01*
X44545Y15569D01*
X44578Y15536D01*
X44549Y15494D01*
X44516Y15508D01*
X44500Y15510D01*
Y15175D01*
X44835D01*
X44833Y15191D01*
X44819Y15225D01*
X44861Y15253D01*
X45322Y14792D01*
X45404Y14737D01*
X45502Y14718D01*
X47757D01*
X49711Y12763D01*
X49794Y12707D01*
X49892Y12688D01*
X52815D01*
X52913Y12707D01*
X52995Y12763D01*
X53531Y13298D01*
X53620Y13379D01*
X53626Y13384D01*
X53696D01*
Y13464D01*
X53901Y13698D01*
X55909Y15706D01*
X55964Y15788D01*
X55983Y15886D01*
Y20742D01*
X55985Y20757D01*
X56014Y20759D01*
X60662D01*
X61142Y20279D01*
X61152Y20268D01*
X61159Y20258D01*
X61163Y20251D01*
X61163Y20246D01*
X61175Y20155D01*
X61210Y20070D01*
X61266Y19996D01*
X61339Y19940D01*
X61424Y19905D01*
X61516Y19893D01*
X61607Y19905D01*
X61692Y19940D01*
X61765Y19996D01*
X61821Y20070D01*
X61857Y20155D01*
X61869Y20246D01*
X61857Y20337D01*
X61821Y20423D01*
X61765Y20496D01*
X61692Y20552D01*
X61607Y20587D01*
X61554Y20594D01*
X61553Y20595D01*
X61511Y20631D01*
X60948Y21194D01*
X60865Y21249D01*
X60768Y21269D01*
X56000D01*
X55976Y21271D01*
X55967Y21273D01*
X55965Y21273D01*
X55905Y21319D01*
X55820Y21355D01*
X55728Y21367D01*
X55637Y21355D01*
X55552Y21319D01*
X55479Y21263D01*
X55423Y21190D01*
X55387Y21105D01*
X55375Y21014D01*
X55387Y20922D01*
X55423Y20837D01*
X55469Y20777D01*
X55469Y20775D01*
X55471Y20768D01*
X55473Y20728D01*
Y15991D01*
X53657Y14175D01*
X53607Y14196D01*
Y14313D01*
X53350D01*
Y14513D01*
X53607D01*
Y14663D01*
X53607Y14690D01*
X53607Y14740D01*
Y14890D01*
X53350D01*
Y14990D01*
X53250D01*
Y15267D01*
X53106D01*
X53093Y15267D01*
X53056D01*
X53043Y15267D01*
X52992D01*
X52992Y15268D01*
X52976Y15284D01*
X52963Y15317D01*
X52965Y15321D01*
X52977Y15337D01*
X53012Y15378D01*
X53029Y15395D01*
X53035Y15400D01*
X53091Y15473D01*
X53126Y15558D01*
X53138Y15650D01*
X53126Y15741D01*
X53091Y15826D01*
X53035Y15899D01*
X52962Y15955D01*
X52877Y15991D01*
X52785Y16003D01*
X52694Y15991D01*
X52609Y15955D01*
X52536Y15899D01*
X52480Y15826D01*
X52444Y15741D01*
X52432Y15650D01*
X52444Y15558D01*
X52480Y15473D01*
X52536Y15400D01*
X52541Y15396D01*
X52579Y15356D01*
X52593Y15338D01*
X52606Y15321D01*
X52608Y15317D01*
X52595Y15284D01*
X52579Y15268D01*
X52579Y15267D01*
X52541D01*
Y14713D01*
X52541D01*
Y14690D01*
X52541D01*
Y14135D01*
X52646D01*
Y13978D01*
X52453D01*
Y13384D01*
X52830D01*
X52850Y13338D01*
X52709Y13198D01*
X49997D01*
X48042Y15153D01*
X47960Y15208D01*
X47862Y15227D01*
X45608D01*
X44906Y15929D01*
X44905Y15930D01*
X44889Y15951D01*
X44877Y15970D01*
X44867Y15989D01*
X44859Y16007D01*
X44853Y16023D01*
X44850Y16034D01*
X44854Y16045D01*
X44863Y16063D01*
X44874Y16082D01*
X44887Y16102D01*
X44901Y16121D01*
X44921Y16145D01*
X45397Y16621D01*
X45452Y16704D01*
X45471Y16801D01*
Y20062D01*
X45838Y20428D01*
X45884Y20409D01*
Y19983D01*
X45884Y19949D01*
X45884Y19899D01*
Y19726D01*
X46376D01*
Y19826D01*
X46378Y19807D01*
X46384Y19790D01*
X46394Y19775D01*
X46408Y19762D01*
X46426Y19751D01*
X46448Y19742D01*
X46474Y19735D01*
X46478Y19734D01*
Y19899D01*
X46478Y19933D01*
X46478Y19983D01*
Y20103D01*
X46922D01*
X46931Y20101D01*
X46944Y20097D01*
X46960Y20090D01*
X46978Y20080D01*
X46998Y20066D01*
X47020Y20050D01*
X47073Y20004D01*
X47094Y19983D01*
X47101Y19974D01*
X47183Y19911D01*
X47279Y19871D01*
X47383Y19858D01*
X47486Y19871D01*
X47582Y19911D01*
X47665Y19974D01*
X47728Y20057D01*
X47768Y20153D01*
X47781Y20256D01*
X47768Y20359D01*
X47728Y20456D01*
X47665Y20538D01*
X47582Y20602D01*
X47486Y20641D01*
X47383Y20655D01*
X47279Y20641D01*
X47183Y20602D01*
X47101Y20538D01*
X47094Y20530D01*
X47072Y20508D01*
X47020Y20462D01*
X46998Y20446D01*
X46978Y20432D01*
X46959Y20422D01*
X46944Y20415D01*
X46931Y20411D01*
X46922Y20409D01*
X46478D01*
Y20563D01*
X46038D01*
X46018Y20609D01*
X46411Y21001D01*
X46859D01*
X46884Y20999D01*
X46921Y20993D01*
X46949Y20986D01*
X46969Y20978D01*
X46980Y20972D01*
X46985Y20968D01*
X46985Y20967D01*
X46986Y20966D01*
X46987Y20951D01*
X46987Y20951D01*
Y20861D01*
X47085D01*
X47089Y20860D01*
X47092Y20861D01*
X47098D01*
X47100Y20861D01*
X47100Y20861D01*
X47390D01*
X47394Y20860D01*
X47398Y20861D01*
X47472D01*
X47475Y20859D01*
X47500Y20842D01*
X47558Y20793D01*
X49038Y19312D01*
Y19238D01*
X49037Y19224D01*
X49034Y19202D01*
X49030Y19187D01*
X49029Y19185D01*
X48945D01*
Y19087D01*
X48945Y19083D01*
X48945Y19080D01*
Y19074D01*
X48945Y19072D01*
X48945Y19072D01*
Y18605D01*
X48945Y18571D01*
X48945Y18521D01*
Y18409D01*
X47843D01*
X47834Y18411D01*
X47822Y18415D01*
X47806Y18422D01*
X47788Y18433D01*
X47767Y18446D01*
X47745Y18462D01*
X47693Y18508D01*
X47671Y18530D01*
X47665Y18538D01*
X47582Y18602D01*
X47486Y18641D01*
X47383Y18655D01*
X47279Y18641D01*
X47183Y18602D01*
X47101Y18538D01*
X47037Y18456D01*
X46998Y18359D01*
X46984Y18256D01*
X46998Y18153D01*
X47037Y18057D01*
X47101Y17974D01*
X47183Y17911D01*
X47279Y17871D01*
X47383Y17858D01*
X47486Y17871D01*
X47582Y17911D01*
X47665Y17974D01*
X47671Y17983D01*
X47693Y18005D01*
X47745Y18050D01*
X47767Y18066D01*
X47788Y18080D01*
X47806Y18090D01*
X47822Y18097D01*
X47834Y18102D01*
X47843Y18103D01*
X48945D01*
Y17941D01*
X49539D01*
Y18103D01*
X49998D01*
X50057Y18115D01*
X50107Y18148D01*
X50831Y18873D01*
X51257D01*
X51263Y18872D01*
X51273Y18868D01*
X51285Y18863D01*
X51299Y18856D01*
X51315Y18846D01*
X51331Y18834D01*
X51372Y18799D01*
X51389Y18782D01*
X51394Y18776D01*
X51467Y18720D01*
X51552Y18685D01*
X51644Y18673D01*
X51735Y18685D01*
X51820Y18720D01*
X51893Y18776D01*
X51949Y18849D01*
X51985Y18934D01*
X51997Y19026D01*
X51985Y19117D01*
X51949Y19202D01*
X51893Y19275D01*
X51820Y19331D01*
X51735Y19367D01*
X51644Y19379D01*
X51552Y19367D01*
X51467Y19331D01*
X51394Y19275D01*
X51390Y19270D01*
X51350Y19232D01*
X51332Y19218D01*
X51315Y19205D01*
X51299Y19195D01*
X51285Y19188D01*
X51273Y19183D01*
X51263Y19180D01*
X51257Y19179D01*
X50768D01*
X50709Y19167D01*
X50660Y19134D01*
X49935Y18409D01*
X49574D01*
X49539Y18445D01*
X49539Y18555D01*
X49539Y18605D01*
Y19072D01*
X49539Y19072D01*
X49539Y19074D01*
Y19080D01*
X49540Y19083D01*
X49539Y19087D01*
Y19185D01*
X49455D01*
X49455Y19187D01*
X49451Y19202D01*
X49447Y19224D01*
X49446Y19238D01*
Y19397D01*
X49446Y19397D01*
X49431Y19475D01*
X49386Y19541D01*
X48026Y20901D01*
X48033Y20939D01*
X48014Y21036D01*
X47959Y21119D01*
X47778Y21299D01*
Y21652D01*
X47100D01*
X47100Y21652D01*
X47098Y21652D01*
X47092D01*
X47089Y21652D01*
D02*
G37*
G36*
X47283Y19642D02*
X47279Y19641D01*
X47188Y19603D01*
X47195Y19599D01*
X47219Y19586D01*
X47243Y19575D01*
X47268Y19566D01*
X47283Y19563D01*
Y19642D01*
D02*
G37*
G36*
X53072Y19639D02*
Y19401D01*
X53310D01*
X53278Y19478D01*
X53222Y19551D01*
X53149Y19607D01*
X53072Y19639D01*
D02*
G37*
G36*
X47283Y19455D02*
X47184Y19356D01*
X47283D01*
Y19455D01*
D02*
G37*
G36*
X47035Y19451D02*
X46998Y19359D01*
X46997Y19356D01*
X47076D01*
X47073Y19371D01*
X47064Y19396D01*
X47053Y19420D01*
X47040Y19444D01*
X47035Y19451D01*
D02*
G37*
G36*
X52872Y19639D02*
X52796Y19607D01*
X52723Y19551D01*
X52667Y19478D01*
X52635Y19401D01*
X52872D01*
Y19639D01*
D02*
G37*
G36*
X47483Y19642D02*
Y19356D01*
X47768D01*
X47768Y19359D01*
X47728Y19456D01*
X47665Y19538D01*
X47582Y19602D01*
X47486Y19641D01*
X47483Y19642D01*
D02*
G37*
G36*
X64707Y21850D02*
X64524D01*
X64545Y21799D01*
X64594Y21736D01*
X64656Y21688D01*
X64707Y21667D01*
Y21850D01*
D02*
G37*
G36*
X64807Y30914D02*
X64729Y30904D01*
X64656Y30873D01*
X64594Y30825D01*
X64545Y30763D01*
X64515Y30690D01*
X64505Y30611D01*
X64515Y30533D01*
X64545Y30460D01*
X64594Y30397D01*
X64656Y30349D01*
X64729Y30319D01*
X64807Y30309D01*
X64886Y30319D01*
X64959Y30349D01*
X65021Y30397D01*
X65070Y30460D01*
X65100Y30533D01*
X65110Y30611D01*
X65100Y30690D01*
X65070Y30763D01*
X65021Y30825D01*
X64959Y30873D01*
X64886Y30904D01*
X64807Y30914D01*
D02*
G37*
G36*
X44490Y27183D02*
X44353Y27170D01*
X44221Y27130D01*
X44099Y27065D01*
X43993Y26977D01*
X43905Y26871D01*
X43840Y26749D01*
X43800Y26617D01*
X43787Y26480D01*
X43800Y26343D01*
X43840Y26211D01*
X43905Y26089D01*
X43993Y25983D01*
X44019Y25961D01*
X44023Y25957D01*
X44046Y25927D01*
X44066Y25894D01*
X44084Y25859D01*
X44100Y25821D01*
X44112Y25779D01*
X44123Y25735D01*
X44130Y25687D01*
X44135Y25635D01*
X44135Y25617D01*
Y24526D01*
X44107Y24505D01*
X44070Y24481D01*
X44036Y24463D01*
X44008Y24452D01*
X43984Y24446D01*
X43965Y24445D01*
X43951Y24447D01*
X43928Y24454D01*
X43923Y24455D01*
X43825Y24495D01*
X43637Y24540D01*
X43445Y24556D01*
X43253Y24540D01*
X43065Y24495D01*
X42887Y24422D01*
X42723Y24321D01*
X42576Y24196D01*
X42451Y24049D01*
X42350Y23885D01*
X42276Y23706D01*
X42231Y23519D01*
X42216Y23327D01*
X42231Y23135D01*
X42276Y22947D01*
X42350Y22769D01*
X42451Y22605D01*
X42576Y22458D01*
X42723Y22333D01*
X42887Y22232D01*
X43065Y22158D01*
X43253Y22113D01*
X43445Y22098D01*
X43637Y22113D01*
X43825Y22158D01*
X44003Y22232D01*
X44167Y22333D01*
X44314Y22458D01*
X44439Y22605D01*
X44540Y22769D01*
X44614Y22947D01*
X44659Y23135D01*
X44674Y23327D01*
X44659Y23519D01*
X44614Y23706D01*
X44573Y23805D01*
X44572Y23810D01*
X44565Y23833D01*
X44563Y23847D01*
X44564Y23866D01*
X44570Y23890D01*
X44581Y23918D01*
X44599Y23951D01*
X44622Y23987D01*
X44693Y24075D01*
X44706Y24088D01*
X44738Y24120D01*
X44794Y24194D01*
X44829Y24279D01*
X44841Y24370D01*
Y25617D01*
X44842Y25635D01*
X44846Y25687D01*
X44854Y25735D01*
X44864Y25779D01*
X44877Y25821D01*
X44892Y25859D01*
X44910Y25894D01*
X44931Y25927D01*
X44950Y25952D01*
X44987Y25983D01*
X45075Y26089D01*
X45140Y26211D01*
X45180Y26343D01*
X45193Y26480D01*
X45180Y26617D01*
X45140Y26749D01*
X45075Y26871D01*
X44987Y26977D01*
X44881Y27065D01*
X44759Y27130D01*
X44627Y27170D01*
X44490Y27183D01*
D02*
G37*
G36*
X46340D02*
X46203Y27170D01*
X46071Y27130D01*
X45949Y27065D01*
X45843Y26977D01*
X45755Y26871D01*
X45690Y26749D01*
X45650Y26617D01*
X45637Y26480D01*
X45650Y26343D01*
X45690Y26211D01*
X45755Y26089D01*
X45843Y25983D01*
X45949Y25895D01*
X46071Y25830D01*
X46203Y25790D01*
X46340Y25777D01*
X46477Y25790D01*
X46609Y25830D01*
X46731Y25895D01*
X46837Y25983D01*
X46925Y26089D01*
X46990Y26211D01*
X47030Y26343D01*
X47043Y26480D01*
X47030Y26617D01*
X46990Y26749D01*
X46925Y26871D01*
X46837Y26977D01*
X46731Y27065D01*
X46609Y27130D01*
X46477Y27170D01*
X46340Y27183D01*
D02*
G37*
G36*
X42640D02*
X42503Y27170D01*
X42371Y27130D01*
X42249Y27065D01*
X42143Y26977D01*
X42055Y26871D01*
X41990Y26749D01*
X41950Y26617D01*
X41937Y26480D01*
X41950Y26343D01*
X41961Y26308D01*
X41463Y25810D01*
X41407Y25737D01*
X41372Y25652D01*
X41360Y25561D01*
Y16762D01*
X41372Y16670D01*
X41407Y16585D01*
X41463Y16512D01*
X43959Y14016D01*
X43967Y13959D01*
X44011Y13851D01*
X44083Y13758D01*
X44175Y13687D01*
X44284Y13642D01*
X44400Y13626D01*
X44516Y13642D01*
X44624Y13687D01*
X44717Y13758D01*
X44788Y13851D01*
X44833Y13959D01*
X44848Y14075D01*
X44833Y14191D01*
X44788Y14299D01*
X44717Y14392D01*
X44624Y14463D01*
X44516Y14508D01*
X44458Y14515D01*
X44393Y14580D01*
X44416Y14629D01*
X44516Y14642D01*
X44624Y14687D01*
X44717Y14758D01*
X44788Y14851D01*
X44833Y14959D01*
X44835Y14975D01*
X44400D01*
Y15075D01*
X44300D01*
Y15510D01*
X44284Y15508D01*
X44175Y15463D01*
X44083Y15392D01*
X44011Y15299D01*
X43967Y15191D01*
X43953Y15091D01*
X43905Y15069D01*
X42066Y16908D01*
Y25414D01*
X42456Y25804D01*
X42503Y25790D01*
X42640Y25777D01*
X42777Y25790D01*
X42909Y25830D01*
X43031Y25895D01*
X43137Y25983D01*
X43225Y26089D01*
X43290Y26211D01*
X43330Y26343D01*
X43343Y26480D01*
X43330Y26617D01*
X43290Y26749D01*
X43225Y26871D01*
X43137Y26977D01*
X43031Y27065D01*
X42909Y27130D01*
X42777Y27170D01*
X42640Y27183D01*
D02*
G37*
G36*
X48996Y23273D02*
X47924D01*
X47865Y23261D01*
X47816Y23228D01*
X47600Y23012D01*
X47593Y23008D01*
X47581Y23002D01*
X47564Y22995D01*
X47544Y22990D01*
X47520Y22985D01*
X47493Y22981D01*
X47424Y22976D01*
X47393Y22976D01*
X47383Y22977D01*
X47279Y22964D01*
X47183Y22924D01*
X47101Y22861D01*
X47037Y22778D01*
X46998Y22682D01*
X46984Y22579D01*
X46998Y22476D01*
X47037Y22379D01*
X47101Y22297D01*
X47183Y22233D01*
X47279Y22194D01*
X47383Y22180D01*
X47486Y22194D01*
X47582Y22233D01*
X47665Y22297D01*
X47728Y22379D01*
X47768Y22476D01*
X47781Y22579D01*
X47780Y22589D01*
X47780Y22620D01*
X47785Y22689D01*
X47789Y22716D01*
X47794Y22740D01*
X47799Y22760D01*
X47805Y22777D01*
X47811Y22789D01*
X47816Y22796D01*
X47987Y22967D01*
X48161D01*
X48168Y22954D01*
X48174Y22917D01*
X48101Y22861D01*
X48037Y22778D01*
X47998Y22682D01*
X47984Y22579D01*
X47998Y22476D01*
X48037Y22379D01*
X48101Y22297D01*
X48183Y22233D01*
X48279Y22194D01*
X48383Y22180D01*
X48486Y22194D01*
X48582Y22233D01*
X48665Y22297D01*
X48671Y22305D01*
X48693Y22327D01*
X48745Y22373D01*
X48767Y22389D01*
X48788Y22402D01*
X48806Y22413D01*
X48822Y22420D01*
X48834Y22424D01*
X48843Y22426D01*
X49234D01*
X49852Y21808D01*
X49901Y21775D01*
X49960Y21763D01*
X51987D01*
X52203Y21547D01*
X52207Y21542D01*
X52213Y21532D01*
X52219Y21518D01*
X52225Y21501D01*
X52231Y21483D01*
X52247Y21400D01*
X52251Y21368D01*
X52255Y21358D01*
X52260Y21317D01*
X52295Y21232D01*
X52351Y21159D01*
X52424Y21103D01*
X52510Y21068D01*
X52601Y21056D01*
X52692Y21068D01*
X52778Y21103D01*
X52851Y21159D01*
X52907Y21232D01*
X52942Y21317D01*
X52954Y21409D01*
X52942Y21500D01*
X52907Y21585D01*
X52851Y21658D01*
X52778Y21714D01*
X52692Y21750D01*
X52601Y21762D01*
X52593Y21768D01*
X52591Y21771D01*
X52594Y21830D01*
X52644Y21868D01*
X52700Y21941D01*
X52735Y22026D01*
X52747Y22117D01*
X52735Y22209D01*
X52700Y22294D01*
X52644Y22367D01*
X52571Y22423D01*
X52486Y22458D01*
X52394Y22470D01*
X52303Y22458D01*
X52218Y22423D01*
X52145Y22367D01*
X52140Y22361D01*
X52101Y22324D01*
X52083Y22309D01*
X52065Y22297D01*
X52049Y22287D01*
X52035Y22279D01*
X52023Y22274D01*
X52013Y22271D01*
X52007Y22270D01*
X50062D01*
X49104Y23228D01*
X49055Y23261D01*
X48996Y23273D01*
D02*
G37*
G36*
X56451Y23092D02*
X56293D01*
Y22915D01*
X56451D01*
Y23092D01*
D02*
G37*
G36*
X62345Y30511D02*
X62162D01*
X62183Y30460D01*
X62231Y30397D01*
X62294Y30349D01*
X62345Y30328D01*
Y30511D01*
D02*
G37*
G36*
X62729D02*
X62545D01*
Y30328D01*
X62597Y30349D01*
X62659Y30397D01*
X62707Y30460D01*
X62729Y30511D01*
D02*
G37*
G36*
X61658Y30914D02*
X61580Y30904D01*
X61507Y30873D01*
X61444Y30825D01*
X61396Y30763D01*
X61366Y30690D01*
X61355Y30611D01*
X61366Y30533D01*
X61396Y30460D01*
X61444Y30397D01*
X61507Y30349D01*
X61580Y30319D01*
X61658Y30309D01*
X61736Y30319D01*
X61809Y30349D01*
X61872Y30397D01*
X61920Y30460D01*
X61950Y30533D01*
X61960Y30611D01*
X61950Y30690D01*
X61920Y30763D01*
X61872Y30825D01*
X61809Y30873D01*
X61736Y30904D01*
X61658Y30914D01*
D02*
G37*
G36*
X60870D02*
X60792Y30904D01*
X60719Y30873D01*
X60657Y30825D01*
X60608Y30763D01*
X60578Y30690D01*
X60568Y30611D01*
X60578Y30533D01*
X60608Y30460D01*
X60657Y30397D01*
X60719Y30349D01*
X60792Y30319D01*
X60870Y30309D01*
X60949Y30319D01*
X61022Y30349D01*
X61084Y30397D01*
X61133Y30460D01*
X61163Y30533D01*
X61173Y30611D01*
X61163Y30690D01*
X61133Y30763D01*
X61084Y30825D01*
X61022Y30873D01*
X60949Y30904D01*
X60870Y30914D01*
D02*
G37*
G36*
X64020D02*
X63942Y30904D01*
X63869Y30873D01*
X63806Y30825D01*
X63758Y30763D01*
X63728Y30690D01*
X63717Y30611D01*
X63728Y30533D01*
X63758Y30460D01*
X63806Y30397D01*
X63869Y30349D01*
X63942Y30319D01*
X64020Y30309D01*
X64098Y30319D01*
X64171Y30349D01*
X64234Y30397D01*
X64282Y30460D01*
X64312Y30533D01*
X64323Y30611D01*
X64312Y30690D01*
X64282Y30763D01*
X64234Y30825D01*
X64171Y30873D01*
X64098Y30904D01*
X64020Y30914D01*
D02*
G37*
G36*
X63233D02*
X63154Y30904D01*
X63081Y30873D01*
X63019Y30825D01*
X62971Y30763D01*
X62940Y30690D01*
X62930Y30611D01*
X62940Y30533D01*
X62971Y30460D01*
X63019Y30397D01*
X63081Y30349D01*
X63154Y30319D01*
X63233Y30309D01*
X63311Y30319D01*
X63384Y30349D01*
X63447Y30397D01*
X63495Y30460D01*
X63525Y30533D01*
X63535Y30611D01*
X63525Y30690D01*
X63495Y30763D01*
X63447Y30825D01*
X63384Y30873D01*
X63311Y30904D01*
X63233Y30914D01*
D02*
G37*
G36*
X58508D02*
X58430Y30904D01*
X58357Y30873D01*
X58294Y30825D01*
X58246Y30763D01*
X58216Y30690D01*
X58206Y30611D01*
X58216Y30533D01*
X58246Y30460D01*
X58294Y30397D01*
X58357Y30349D01*
X58430Y30319D01*
X58508Y30309D01*
X58587Y30319D01*
X58660Y30349D01*
X58722Y30397D01*
X58770Y30460D01*
X58801Y30533D01*
X58811Y30611D01*
X58801Y30690D01*
X58770Y30763D01*
X58722Y30825D01*
X58660Y30873D01*
X58587Y30904D01*
X58508Y30914D01*
D02*
G37*
G36*
X57721D02*
X57643Y30904D01*
X57570Y30873D01*
X57507Y30825D01*
X57459Y30763D01*
X57429Y30690D01*
X57418Y30611D01*
X57429Y30533D01*
X57459Y30460D01*
X57507Y30397D01*
X57570Y30349D01*
X57643Y30319D01*
X57721Y30309D01*
X57799Y30319D01*
X57872Y30349D01*
X57935Y30397D01*
X57983Y30460D01*
X58013Y30533D01*
X58023Y30611D01*
X58013Y30690D01*
X57983Y30763D01*
X57935Y30825D01*
X57872Y30873D01*
X57799Y30904D01*
X57721Y30914D01*
D02*
G37*
G36*
X60083D02*
X60005Y30904D01*
X59932Y30873D01*
X59869Y30825D01*
X59821Y30763D01*
X59791Y30690D01*
X59780Y30611D01*
X59791Y30533D01*
X59821Y30460D01*
X59869Y30397D01*
X59932Y30349D01*
X60005Y30319D01*
X60083Y30309D01*
X60161Y30319D01*
X60234Y30349D01*
X60297Y30397D01*
X60345Y30460D01*
X60375Y30533D01*
X60386Y30611D01*
X60375Y30690D01*
X60345Y30763D01*
X60297Y30825D01*
X60234Y30873D01*
X60161Y30904D01*
X60083Y30914D01*
D02*
G37*
G36*
X59296D02*
X59217Y30904D01*
X59144Y30873D01*
X59082Y30825D01*
X59034Y30763D01*
X59003Y30690D01*
X58993Y30611D01*
X59003Y30533D01*
X59034Y30460D01*
X59082Y30397D01*
X59144Y30349D01*
X59217Y30319D01*
X59296Y30309D01*
X59374Y30319D01*
X59447Y30349D01*
X59510Y30397D01*
X59558Y30460D01*
X59588Y30533D01*
X59598Y30611D01*
X59588Y30690D01*
X59558Y30763D01*
X59510Y30825D01*
X59447Y30873D01*
X59374Y30904D01*
X59296Y30914D01*
D02*
G37*
G36*
X46778Y22974D02*
X46483D01*
Y22679D01*
X46778D01*
Y22974D01*
D02*
G37*
G36*
X56451Y22236D02*
X56293D01*
Y22059D01*
X56451D01*
Y22236D01*
D02*
G37*
G36*
X68525Y15225D02*
X67620D01*
Y14665D01*
X68514D01*
X68525Y14677D01*
Y15225D01*
D02*
G37*
G36*
X45490Y32183D02*
X45353Y32170D01*
X45221Y32130D01*
X45099Y32065D01*
X44993Y31977D01*
X44905Y31871D01*
X44840Y31749D01*
X44800Y31617D01*
X44787Y31480D01*
X44800Y31343D01*
X44840Y31211D01*
X44905Y31089D01*
X44993Y30983D01*
X45099Y30895D01*
X45221Y30830D01*
X45353Y30790D01*
X45490Y30777D01*
X45627Y30790D01*
X45759Y30830D01*
X45881Y30895D01*
X45987Y30983D01*
X46075Y31089D01*
X46140Y31211D01*
X46180Y31343D01*
X46193Y31480D01*
X46180Y31617D01*
X46140Y31749D01*
X46075Y31871D01*
X45987Y31977D01*
X45881Y32065D01*
X45759Y32130D01*
X45627Y32170D01*
X45490Y32183D01*
D02*
G37*
G36*
X64907Y22233D02*
Y22050D01*
X65091D01*
X65070Y22101D01*
X65021Y22164D01*
X64959Y22212D01*
X64907Y22233D01*
D02*
G37*
G36*
X65091Y21850D02*
X64907D01*
Y21667D01*
X64959Y21688D01*
X65021Y21736D01*
X65070Y21799D01*
X65091Y21850D01*
D02*
G37*
G36*
X56451Y21859D02*
X56293D01*
Y21681D01*
X56451D01*
Y21859D01*
D02*
G37*
G36*
X64707Y22233D02*
X64656Y22212D01*
X64594Y22164D01*
X64545Y22101D01*
X64524Y22050D01*
X64707D01*
Y22233D01*
D02*
G37*
G36*
X46283Y22479D02*
X45987D01*
Y22183D01*
X46283D01*
Y22479D01*
D02*
G37*
G36*
X62545Y30895D02*
Y30711D01*
X62729D01*
X62707Y30763D01*
X62659Y30825D01*
X62597Y30873D01*
X62545Y30895D01*
D02*
G37*
G36*
X62345D02*
X62294Y30873D01*
X62231Y30825D01*
X62183Y30763D01*
X62162Y30711D01*
X62345D01*
Y30895D01*
D02*
G37*
G36*
X46283Y22974D02*
X45987D01*
Y22679D01*
X46283D01*
Y22974D01*
D02*
G37*
G36*
X56451Y22715D02*
X56293D01*
Y22538D01*
X56451D01*
Y22715D01*
D02*
G37*
G36*
X43490Y32183D02*
X43353Y32170D01*
X43221Y32130D01*
X43099Y32065D01*
X42993Y31977D01*
X42905Y31871D01*
X42840Y31749D01*
X42800Y31617D01*
X42787Y31480D01*
X42800Y31343D01*
X42840Y31211D01*
X42905Y31089D01*
X42993Y30983D01*
X43099Y30895D01*
X43221Y30830D01*
X43353Y30790D01*
X43490Y30777D01*
X43627Y30790D01*
X43759Y30830D01*
X43881Y30895D01*
X43987Y30983D01*
X44075Y31089D01*
X44140Y31211D01*
X44180Y31343D01*
X44193Y31480D01*
X44180Y31617D01*
X44140Y31749D01*
X44075Y31871D01*
X43987Y31977D01*
X43881Y32065D01*
X43759Y32130D01*
X43627Y32170D01*
X43490Y32183D01*
D02*
G37*
G36*
X46778Y22479D02*
X46483D01*
Y22183D01*
X46778D01*
Y22479D01*
D02*
G37*
%LPD*%
G36*
X52427Y17763D02*
X52392Y17759D01*
X52328Y17748D01*
X52300Y17741D01*
X52275Y17734D01*
X52251Y17725D01*
X52231Y17716D01*
X52212Y17706D01*
X52196Y17695D01*
X52183Y17683D01*
X52104Y17745D01*
X52117Y17760D01*
X52128Y17777D01*
X52138Y17796D01*
X52145Y17817D01*
X52151Y17839D01*
X52155Y17864D01*
X52157Y17890D01*
X52158Y17919D01*
X52157Y17949D01*
X52153Y17981D01*
X52427Y17763D01*
D02*
G37*
G36*
X47624Y18433D02*
X47681Y18383D01*
X47708Y18363D01*
X47735Y18345D01*
X47760Y18331D01*
X47784Y18320D01*
X47807Y18313D01*
X47830Y18308D01*
X47851Y18306D01*
Y18206D01*
X47830Y18205D01*
X47807Y18200D01*
X47784Y18192D01*
X47760Y18181D01*
X47735Y18167D01*
X47708Y18150D01*
X47681Y18130D01*
X47624Y18079D01*
X47594Y18050D01*
Y18463D01*
X47624Y18433D01*
D02*
G37*
G36*
X52937Y15447D02*
X52897Y15400D01*
X52880Y15378D01*
X52867Y15356D01*
X52855Y15334D01*
X52847Y15314D01*
X52840Y15293D01*
X52837Y15274D01*
X52836Y15258D01*
X52836Y15247D01*
X52837Y15230D01*
X52840Y15215D01*
X52843Y15201D01*
X52848Y15190D01*
X52853Y15181D01*
X52860Y15174D01*
X52867Y15169D01*
X52876Y15166D01*
X52885Y15165D01*
X52685D01*
X52695Y15166D01*
X52703Y15169D01*
X52711Y15174D01*
X52717Y15181D01*
X52723Y15190D01*
X52727Y15201D01*
X52731Y15215D01*
X52733Y15230D01*
X52735Y15247D01*
X52735Y15258D01*
X52734Y15274D01*
X52730Y15293D01*
X52724Y15314D01*
X52715Y15334D01*
X52704Y15356D01*
X52690Y15378D01*
X52674Y15400D01*
X52655Y15423D01*
X52610Y15471D01*
X52960D01*
X52937Y15447D01*
D02*
G37*
G36*
X52889Y14237D02*
X52881Y14234D01*
X52873Y14229D01*
X52867Y14222D01*
X52861Y14213D01*
X52857Y14201D01*
X52853Y14188D01*
X52851Y14173D01*
X52849Y14156D01*
X52849Y14137D01*
X52749D01*
X52748Y14156D01*
X52747Y14173D01*
X52744Y14188D01*
X52741Y14201D01*
X52736Y14213D01*
X52731Y14222D01*
X52724Y14229D01*
X52717Y14234D01*
X52708Y14237D01*
X52699Y14238D01*
X52899D01*
X52889Y14237D01*
D02*
G37*
G36*
Y14814D02*
X52881Y14811D01*
X52873Y14806D01*
X52867Y14799D01*
X52861Y14790D01*
X52857Y14779D01*
X52853Y14766D01*
X52851Y14751D01*
X52849Y14733D01*
X52849Y14714D01*
X52749D01*
X52748Y14733D01*
X52747Y14751D01*
X52744Y14766D01*
X52741Y14779D01*
X52736Y14790D01*
X52731Y14799D01*
X52724Y14806D01*
X52717Y14811D01*
X52708Y14814D01*
X52699Y14815D01*
X52899D01*
X52889Y14814D01*
D02*
G37*
G36*
X52849Y14669D02*
X52851Y14652D01*
X52853Y14637D01*
X52857Y14624D01*
X52861Y14613D01*
X52867Y14604D01*
X52873Y14596D01*
X52881Y14591D01*
X52889Y14588D01*
X52899Y14587D01*
X52699D01*
X52708Y14588D01*
X52717Y14591D01*
X52724Y14596D01*
X52731Y14604D01*
X52736Y14613D01*
X52741Y14624D01*
X52744Y14637D01*
X52747Y14652D01*
X52748Y14669D01*
X52749Y14689D01*
X52849D01*
X52849Y14669D01*
D02*
G37*
G36*
Y13958D02*
X52851Y13940D01*
X52853Y13925D01*
X52857Y13912D01*
X52861Y13901D01*
X52867Y13892D01*
X52873Y13885D01*
X52881Y13880D01*
X52889Y13877D01*
X52899Y13876D01*
X52699D01*
X52708Y13877D01*
X52717Y13880D01*
X52724Y13885D01*
X52731Y13892D01*
X52736Y13901D01*
X52741Y13912D01*
X52744Y13925D01*
X52747Y13940D01*
X52748Y13958D01*
X52749Y13977D01*
X52849D01*
X52849Y13958D01*
D02*
G37*
G36*
X53913Y13858D02*
X53853Y13797D01*
X53608Y13518D01*
X53598Y13499D01*
X53595Y13485D01*
X53295Y13876D01*
X53316Y13856D01*
X53341Y13846D01*
X53372Y13845D01*
X53407Y13852D01*
X53447Y13869D01*
X53492Y13895D01*
X53541Y13930D01*
X53596Y13974D01*
X53719Y14089D01*
X53913Y13858D01*
D02*
G37*
G36*
X53595Y13485D02*
X53587Y13482D01*
X53573Y13473D01*
X53553Y13457D01*
X53459Y13371D01*
X53251Y13167D01*
X52972Y13312D01*
X53036Y13378D01*
X53136Y13495D01*
X53171Y13545D01*
X53197Y13590D01*
X53214Y13630D01*
X53221Y13664D01*
X53218Y13694D01*
X53207Y13717D01*
X53185Y13736D01*
X53595Y13485D01*
D02*
G37*
G36*
X44888Y16260D02*
X44863Y16235D01*
X44821Y16185D01*
X44803Y16160D01*
X44787Y16135D01*
X44773Y16110D01*
X44761Y16086D01*
X44751Y16062D01*
X44746Y16043D01*
X44749Y16020D01*
X44755Y15995D01*
X44764Y15969D01*
X44775Y15944D01*
X44789Y15918D01*
X44806Y15892D01*
X44825Y15867D01*
X44847Y15841D01*
X44871Y15815D01*
X44659Y15603D01*
X44633Y15628D01*
X44608Y15649D01*
X44582Y15669D01*
X44556Y15685D01*
X44531Y15699D01*
X44505Y15711D01*
X44480Y15719D01*
X44454Y15726D01*
X44429Y15729D01*
X44403Y15730D01*
X44718Y16045D01*
X44467Y16413D01*
X44492Y16409D01*
X44517Y16409D01*
X44542Y16412D01*
X44567Y16418D01*
X44593Y16427D01*
X44618Y16439D01*
X44644Y16454D01*
X44669Y16472D01*
X44695Y16493D01*
X44721Y16518D01*
X44888Y16260D01*
D02*
G37*
G36*
X47624Y17433D02*
X47681Y17383D01*
X47708Y17363D01*
X47735Y17345D01*
X47760Y17331D01*
X47784Y17320D01*
X47807Y17313D01*
X47830Y17308D01*
X47851Y17306D01*
Y17206D01*
X47830Y17205D01*
X47807Y17200D01*
X47784Y17192D01*
X47760Y17181D01*
X47735Y17167D01*
X47708Y17150D01*
X47681Y17130D01*
X47624Y17079D01*
X47594Y17050D01*
Y17463D01*
X47624Y17433D01*
D02*
G37*
G36*
X49048Y18156D02*
X49047Y18166D01*
X49044Y18174D01*
X49039Y18182D01*
X49031Y18188D01*
X49022Y18194D01*
X49011Y18198D01*
X48998Y18202D01*
X48983Y18204D01*
X48966Y18206D01*
X48946Y18206D01*
Y18306D01*
X48966Y18307D01*
X48983Y18308D01*
X48998Y18311D01*
X49011Y18314D01*
X49022Y18319D01*
X49031Y18324D01*
X49039Y18331D01*
X49044Y18338D01*
X49047Y18347D01*
X49048Y18356D01*
Y18156D01*
D02*
G37*
G36*
X52216Y21942D02*
X52192Y21966D01*
X52145Y22006D01*
X52122Y22022D01*
X52100Y22036D01*
X52079Y22047D01*
X52058Y22056D01*
X52038Y22062D01*
X52018Y22066D01*
X51999Y22067D01*
Y22167D01*
X52018Y22168D01*
X52038Y22172D01*
X52058Y22178D01*
X52079Y22187D01*
X52100Y22198D01*
X52122Y22212D01*
X52145Y22228D01*
X52168Y22247D01*
X52216Y22292D01*
Y21942D01*
D02*
G37*
G36*
X57582Y21757D02*
X57567Y21765D01*
X57548Y21772D01*
X57524Y21779D01*
X57496Y21785D01*
X57427Y21793D01*
X57406Y21794D01*
X57261Y21786D01*
X57258Y21783D01*
Y21800D01*
X57235Y21800D01*
Y22100D01*
X57258Y22100D01*
Y22135D01*
X57261Y22128D01*
X57270Y22122D01*
X57285Y22117D01*
X57306Y22112D01*
X57333Y22109D01*
X57367Y22106D01*
X57496Y22115D01*
X57524Y22121D01*
X57548Y22128D01*
X57567Y22135D01*
X57582Y22143D01*
Y21757D01*
D02*
G37*
G36*
X47089Y20962D02*
X47086Y20990D01*
X47077Y21014D01*
X47062Y21036D01*
X47041Y21054D01*
X47014Y21070D01*
X46981Y21083D01*
X46942Y21093D01*
X46897Y21101D01*
X46846Y21105D01*
X46789Y21106D01*
Y21406D01*
X46846Y21408D01*
X46897Y21412D01*
X46942Y21419D01*
X46981Y21429D01*
X47014Y21442D01*
X47041Y21458D01*
X47062Y21477D01*
X47077Y21499D01*
X47086Y21523D01*
X47089Y21550D01*
Y20962D01*
D02*
G37*
G36*
X52348Y21692D02*
X52365Y21680D01*
X52383Y21671D01*
X52404Y21663D01*
X52427Y21658D01*
X52451Y21654D01*
X52478Y21652D01*
X52506Y21651D01*
X52536Y21653D01*
X52568Y21656D01*
X52353Y21381D01*
X52348Y21416D01*
X52330Y21508D01*
X52322Y21533D01*
X52313Y21557D01*
X52304Y21577D01*
X52294Y21596D01*
X52283Y21612D01*
X52271Y21625D01*
X52333Y21705D01*
X52348Y21692D01*
D02*
G37*
G36*
X57257Y22636D02*
X57256Y22627D01*
X57255Y22612D01*
X57253Y22401D01*
X57258Y22135D01*
X56946D01*
X56947Y22138D01*
X56948Y22147D01*
X56949Y22162D01*
X56951Y22372D01*
X56946Y22639D01*
X57258D01*
X57257Y22636D01*
D02*
G37*
G36*
X44665Y24193D02*
X44617Y24143D01*
X44539Y24047D01*
X44511Y24003D01*
X44488Y23960D01*
X44473Y23920D01*
X44463Y23882D01*
X44461Y23845D01*
X44465Y23811D01*
X44475Y23779D01*
X43897Y24357D01*
X43929Y24347D01*
X43963Y24343D01*
X44000Y24345D01*
X44038Y24354D01*
X44079Y24370D01*
X44121Y24392D01*
X44166Y24421D01*
X44212Y24457D01*
X44261Y24498D01*
X44311Y24547D01*
X44665Y24193D01*
D02*
G37*
G36*
X44876Y26023D02*
X44847Y25985D01*
X44821Y25945D01*
X44799Y25901D01*
X44781Y25855D01*
X44765Y25806D01*
X44753Y25754D01*
X44745Y25699D01*
X44740Y25641D01*
X44738Y25581D01*
X44238D01*
X44236Y25641D01*
X44231Y25699D01*
X44223Y25754D01*
X44211Y25806D01*
X44196Y25855D01*
X44177Y25901D01*
X44155Y25945D01*
X44129Y25985D01*
X44100Y26023D01*
X44068Y26058D01*
X44908D01*
X44876Y26023D01*
D02*
G37*
G36*
X48624Y22756D02*
X48681Y22706D01*
X48708Y22685D01*
X48735Y22668D01*
X48760Y22654D01*
X48784Y22643D01*
X48807Y22635D01*
X48830Y22630D01*
X48851Y22629D01*
Y22529D01*
X48830Y22527D01*
X48807Y22522D01*
X48784Y22515D01*
X48760Y22504D01*
X48735Y22490D01*
X48708Y22472D01*
X48681Y22452D01*
X48624Y22402D01*
X48594Y22372D01*
Y22785D01*
X48624Y22756D01*
D02*
G37*
G36*
X47749Y22874D02*
X47735Y22858D01*
X47723Y22839D01*
X47712Y22817D01*
X47702Y22792D01*
X47695Y22765D01*
X47688Y22734D01*
X47683Y22700D01*
X47678Y22624D01*
X47678Y22582D01*
X47386Y22874D01*
X47428Y22874D01*
X47504Y22879D01*
X47538Y22884D01*
X47569Y22891D01*
X47596Y22899D01*
X47621Y22908D01*
X47643Y22919D01*
X47662Y22931D01*
X47678Y22945D01*
X47749Y22874D01*
D02*
G37*
G36*
X47172Y20049D02*
X47142Y20079D01*
X47084Y20129D01*
X47057Y20150D01*
X47031Y20167D01*
X47006Y20181D01*
X46981Y20192D01*
X46958Y20200D01*
X46936Y20204D01*
X46915Y20206D01*
X46914Y20306D01*
X46936Y20307D01*
X46958Y20312D01*
X46981Y20320D01*
X47005Y20331D01*
X47031Y20345D01*
X47057Y20362D01*
X47084Y20383D01*
X47141Y20433D01*
X47172Y20463D01*
X47172Y20049D01*
D02*
G37*
G36*
X46377Y20346D02*
X46380Y20338D01*
X46385Y20330D01*
X46392Y20324D01*
X46401Y20318D01*
X46412Y20314D01*
X46425Y20310D01*
X46440Y20308D01*
X46458Y20306D01*
X46477Y20306D01*
Y20206D01*
X46458Y20205D01*
X46440Y20204D01*
X46425Y20201D01*
X46412Y20198D01*
X46401Y20193D01*
X46392Y20188D01*
X46385Y20181D01*
X46380Y20174D01*
X46377Y20165D01*
X46376Y20156D01*
Y20356D01*
X46377Y20346D01*
D02*
G37*
G36*
X49343Y19245D02*
X49346Y19211D01*
X49351Y19181D01*
X49357Y19155D01*
X49366Y19133D01*
X49377Y19115D01*
X49389Y19101D01*
X49403Y19091D01*
X49420Y19085D01*
X49438Y19083D01*
X49046D01*
X49065Y19085D01*
X49081Y19091D01*
X49095Y19101D01*
X49108Y19115D01*
X49118Y19133D01*
X49127Y19155D01*
X49134Y19181D01*
X49138Y19211D01*
X49141Y19245D01*
X49142Y19283D01*
X49342D01*
X49343Y19245D01*
D02*
G37*
G36*
X49438Y18347D02*
X49441Y18338D01*
X49446Y18331D01*
X49453Y18324D01*
X49462Y18319D01*
X49473Y18314D01*
X49486Y18311D01*
X49501Y18308D01*
X49519Y18307D01*
X49538Y18306D01*
Y18206D01*
X49519Y18206D01*
X49501Y18204D01*
X49486Y18202D01*
X49473Y18198D01*
X49462Y18194D01*
X49453Y18188D01*
X49446Y18182D01*
X49441Y18174D01*
X49438Y18166D01*
X49437Y18156D01*
Y18356D01*
X49438Y18347D01*
D02*
G37*
G36*
X51465Y18851D02*
X51441Y18874D01*
X51394Y18914D01*
X51372Y18931D01*
X51350Y18944D01*
X51328Y18956D01*
X51308Y18964D01*
X51287Y18971D01*
X51268Y18974D01*
X51249Y18976D01*
Y19076D01*
X51268Y19077D01*
X51287Y19081D01*
X51308Y19087D01*
X51328Y19096D01*
X51350Y19107D01*
X51372Y19121D01*
X51394Y19137D01*
X51417Y19156D01*
X51465Y19201D01*
Y18851D01*
D02*
G37*
G36*
X47535Y21253D02*
X47541Y21245D01*
X47567Y21217D01*
X47607Y21176D01*
X47677Y21245D01*
X47676Y21243D01*
X47678Y21243D01*
X47685Y21238D01*
X47696Y21228D01*
X47810Y21118D01*
X47884Y21045D01*
X47810Y20971D01*
X47818Y20962D01*
X47677Y20821D01*
X47636Y20860D01*
X47562Y20923D01*
X47530Y20945D01*
X47500Y20962D01*
X47473Y20974D01*
X47449Y20979D01*
X47428D01*
X47409Y20974D01*
X47394Y20962D01*
X47462Y21030D01*
X47383Y21106D01*
X47533Y21256D01*
X47535Y21253D01*
D02*
G37*
G36*
X55913Y21184D02*
X55922Y21180D01*
X55933Y21176D01*
X55946Y21173D01*
X55962Y21170D01*
X56001Y21166D01*
X56050Y21164D01*
X56078Y21164D01*
Y20864D01*
X56050Y20864D01*
X55962Y20858D01*
X55946Y20855D01*
X55933Y20852D01*
X55922Y20848D01*
X55913Y20844D01*
X55907Y20839D01*
Y21189D01*
X55913Y21184D01*
D02*
G37*
G36*
X61412Y20582D02*
X61491Y20513D01*
X61502Y20506D01*
X61512Y20500D01*
X61520Y20497D01*
X61527Y20496D01*
X61266Y20262D01*
X61266Y20271D01*
X61263Y20280D01*
X61258Y20291D01*
X61251Y20303D01*
X61242Y20317D01*
X61231Y20332D01*
X61202Y20365D01*
X61165Y20404D01*
X61392Y20602D01*
X61412Y20582D01*
D02*
G37*
G36*
X55899Y20829D02*
X55894Y20821D01*
X55891Y20810D01*
X55887Y20796D01*
X55885Y20780D01*
X55881Y20741D01*
X55879Y20692D01*
X55878Y20664D01*
X55578D01*
X55578Y20692D01*
X55572Y20780D01*
X55569Y20796D01*
X55566Y20810D01*
X55562Y20821D01*
X55558Y20829D01*
X55553Y20835D01*
X55903D01*
X55899Y20829D01*
D02*
G37*
%LPC*%
G36*
X47675Y21243D02*
X47665Y21230D01*
X47660Y21211D01*
Y21208D01*
X47675Y21243D01*
D02*
G37*
%LPD*%
D14*
X52759Y13681D02*
D03*
X53389D02*
D03*
D20*
X49242Y18878D02*
D03*
Y18248D02*
D03*
X46181Y20256D02*
D03*
Y19626D02*
D03*
D22*
X53350Y14990D02*
D03*
X52799D02*
D03*
X53350Y14413D02*
D03*
X52799D02*
D03*
X56551Y22815D02*
D03*
X57102D02*
D03*
X56551Y21959D02*
D03*
X57102D02*
D03*
D28*
X42598Y19390D02*
X43445D01*
X44419D02*
X44439Y19409D01*
X43445Y19390D02*
X44419D01*
X43445Y17854D02*
X43484Y17815D01*
X43445Y17854D02*
Y19390D01*
Y21142D02*
X43514Y21211D01*
X43445Y19390D02*
Y21142D01*
D29*
X49242Y18878D02*
Y19397D01*
X47383Y21256D02*
X49242Y19397D01*
X47013Y19626D02*
X47383Y19256D01*
X46181Y19626D02*
X47013D01*
D30*
X57102Y21959D02*
Y22815D01*
Y21959D02*
X57111Y21950D01*
X57721D01*
X44400Y16075D02*
X45502Y14972D01*
X45217Y16801D02*
Y20167D01*
X44490Y16075D02*
X45217Y16801D01*
X44400Y16075D02*
X44490D01*
X45502Y14972D02*
X47862D01*
X49892Y12943D01*
X52815D01*
X45217Y20167D02*
X46306Y21256D01*
X47383D01*
X47461D02*
X47778Y20939D01*
X47383Y21256D02*
X47461D01*
X55728Y21014D02*
X60768D01*
X61516Y20266D01*
Y20246D02*
Y20266D01*
X52815Y12943D02*
X53389Y13517D01*
Y13681D01*
X53524D01*
X55728Y15886D01*
Y21014D01*
D31*
X49998Y18256D02*
X50768Y19026D01*
X51644D01*
X47383Y18256D02*
X49998D01*
X47383Y17256D02*
X51685D01*
X52411Y17982D01*
X52402Y18012D02*
X52411Y17982D01*
X52785Y15023D02*
Y15650D01*
Y15023D02*
X52805Y15004D01*
X52795Y14994D02*
X52805Y15004D01*
X52759Y13681D02*
X52799Y13720D01*
Y14413D01*
Y14990D01*
X52795Y14994D02*
X52799Y14990D01*
X47382Y20256D02*
X47383Y20256D01*
X46181Y20256D02*
X47382D01*
X47924Y23120D02*
X48996D01*
X47383Y22579D02*
X47924Y23120D01*
X48383Y22579D02*
X49297D01*
X52558Y21409D02*
X52601D01*
X48996Y23120D02*
X49999Y22117D01*
X52394D01*
X49960Y21916D02*
X52051D01*
X52558Y21409D01*
X49297Y22579D02*
X49960Y21916D01*
D34*
X42640Y26480D02*
D03*
X44490D02*
D03*
X46340D02*
D03*
X43490Y31480D02*
D03*
X45490D02*
D03*
D35*
X43445Y19390D02*
D03*
Y23327D02*
D03*
D36*
X44400Y14075D02*
D03*
Y15075D02*
D03*
Y16075D02*
D03*
D37*
X39850Y31660D02*
D03*
Y11210D02*
D03*
X68760Y31660D02*
D03*
Y11210D02*
D03*
D38*
X47383Y21256D02*
D03*
D39*
Y20256D02*
D03*
Y19256D02*
D03*
Y18256D02*
D03*
Y17256D02*
D03*
Y16256D02*
D03*
Y22579D02*
D03*
X48383D02*
D03*
D40*
X46383D02*
D03*
D41*
X57721Y21950D02*
D03*
D42*
X58508D02*
D03*
X59296D02*
D03*
X60083D02*
D03*
X60870D02*
D03*
X61658D02*
D03*
X62445D02*
D03*
X63233D02*
D03*
X64020D02*
D03*
X64807D02*
D03*
Y30611D02*
D03*
X64020D02*
D03*
X63233D02*
D03*
X62445D02*
D03*
X61658D02*
D03*
X60870D02*
D03*
X60083D02*
D03*
X59296D02*
D03*
X58508D02*
D03*
X57721D02*
D03*
D43*
X62500Y11545D02*
D03*
X66656Y15791D02*
D03*
X66134Y15496D02*
D03*
X65710Y15072D02*
D03*
X64437Y13799D02*
D03*
X64013Y13375D02*
D03*
X63476Y13107D02*
D03*
X62894Y12961D02*
D03*
X63104Y11443D02*
D03*
X63702Y11393D02*
D03*
X64302Y11420D02*
D03*
X64806Y11744D02*
D03*
X65231Y12169D02*
D03*
X65655Y12593D02*
D03*
X66079Y13017D02*
D03*
X66503Y13441D02*
D03*
X66928Y13866D02*
D03*
X69000Y30000D02*
D03*
X68000Y28000D02*
D03*
X69000Y26000D02*
D03*
X68000Y24000D02*
D03*
X69000Y22000D02*
D03*
X68000Y20000D02*
D03*
X69000Y18000D02*
D03*
X67000Y30000D02*
D03*
X66000Y28000D02*
D03*
X67000Y26000D02*
D03*
X66000Y24000D02*
D03*
X67000Y22000D02*
D03*
X66000Y20000D02*
D03*
X67000Y18000D02*
D03*
X65000Y30000D02*
D03*
X64000Y28000D02*
D03*
X65000Y26000D02*
D03*
X64000Y24000D02*
D03*
Y20000D02*
D03*
X65000Y18000D02*
D03*
X62000Y28000D02*
D03*
X63000Y26000D02*
D03*
X62000Y24000D02*
D03*
X63000Y18000D02*
D03*
X61000Y30000D02*
D03*
X60000Y28000D02*
D03*
X61000Y26000D02*
D03*
X60000Y24000D02*
D03*
Y20000D02*
D03*
Y16000D02*
D03*
X61000Y14000D02*
D03*
X59000Y30000D02*
D03*
X58000Y24000D02*
D03*
Y20000D02*
D03*
Y16000D02*
D03*
X59000Y14000D02*
D03*
X57000Y30000D02*
D03*
X56000Y28000D02*
D03*
X57000Y26000D02*
D03*
X56000Y24000D02*
D03*
X55000Y30000D02*
D03*
X54000Y28000D02*
D03*
X55000Y26000D02*
D03*
Y18000D02*
D03*
X54000Y12000D02*
D03*
X53000Y30000D02*
D03*
Y26000D02*
D03*
Y18000D02*
D03*
X52000Y12000D02*
D03*
X50000Y28000D02*
D03*
X51000Y26000D02*
D03*
X50000Y24000D02*
D03*
X49000Y30000D02*
D03*
X48000Y28000D02*
D03*
X49000Y26000D02*
D03*
X48000Y24000D02*
D03*
X49000Y22000D02*
D03*
X47000Y30000D02*
D03*
X46000Y28000D02*
D03*
Y24000D02*
D03*
X47000Y22000D02*
D03*
X46000Y16000D02*
D03*
X47000Y14000D02*
D03*
X46000Y12000D02*
D03*
X45000Y30000D02*
D03*
X44000Y28000D02*
D03*
X45000Y22000D02*
D03*
X44000Y12000D02*
D03*
X43000Y30000D02*
D03*
X42000Y28000D02*
D03*
X43000Y14000D02*
D03*
X42000Y12000D02*
D03*
X41000Y30000D02*
D03*
X40000Y28000D02*
D03*
X41000Y26000D02*
D03*
X40000Y24000D02*
D03*
X41000Y22000D02*
D03*
X40000Y20000D02*
D03*
X41000Y18000D02*
D03*
X40000Y16000D02*
D03*
X41000Y14000D02*
D03*
X49478Y16476D02*
D03*
X53888Y20285D02*
D03*
X52972Y19301D02*
D03*
X51644Y19026D02*
D03*
X52402Y18012D02*
D03*
X52785Y15650D02*
D03*
X52394Y22117D02*
D03*
X52601Y21409D02*
D03*
X55728Y21014D02*
D03*
X61516Y20246D02*
D03*
D44*
X41713Y25561D02*
X42638Y26486D01*
X41713Y16762D02*
Y25561D01*
Y16762D02*
X44400Y14075D01*
X43445Y23327D02*
X44488Y24370D01*
Y26486D01*
M02*
