M48
;Layer_Color=9474304
;FILE_FORMAT=2:4
INCH,TZ
;TYPE=PLATED
T1F00S00C0.0250
T2F00S00C0.0280
T3F00S00C0.0354
T4F00S00C0.0453
T5F00S00C0.0800
T6F00S00C0.1200
T7F00S00C0.1500
%
T01
X63233Y21950
X64020
X64807
Y30611
X64020
X63233
X62445
X61658
X60870
X60083
X59296
X58508
X57721
Y21950
X58508
X59296
X60083
X60870
X61658
X62445
T02
X42000Y12000
X44000
X46000
X43000Y14000
X41000
X47000
X52000Y12000
X54000
X59000Y14000
X61000
X62894Y12961
X63476Y13107
X64013Y13375
X64437Y13799
X64806Y11744
X64302Y11420
X63702Y11393
X63104Y11443
X62500Y11545
X65231Y12169
X65655Y12593
X66079Y13017
X66503Y13441
X66928Y13866
X66134Y15496
X65710Y15072
X66656Y15791
X67000Y18000
X69000
X68000Y20000
X66000
X64000
X65000Y18000
X63000
X64000Y24000
X66000
X68000
X69000Y26000
X67000
X65000
X63000
X64000Y28000
X66000
X68000
X69000Y30000
X67000
X65000
X67000Y22000
X69000
X62000Y24000
X60000
X58000
X56000
X57000Y26000
X55000
X53000
X51000
X49000
X50000Y28000
X48000
X49000Y30000
X47000
X53000
X55000
X57000
X59000
X61000
X62000Y28000
X60000
X61000Y26000
X61516Y20246
X60000Y20000
X58000
X55728Y21014
X53888Y20285
X52972Y19301
X53000Y18000
X52402Y18012
X51644Y19026
X52601Y21409
X52394Y22117
X49000Y22000
X47000
X48000Y24000
X50000
X54000Y28000
X56000
X55000Y18000
X52785Y15650
X49478Y16476
X58000Y16000
X60000
X46000
X40000
X41000Y18000
X40000Y20000
X41000Y22000
X40000Y24000
X41000Y26000
X42000Y28000
X44000
X46000
X45000Y30000
X43000
X41000
X40000Y28000
X46000Y24000
X45000Y22000
T03
X47383Y16256
Y17256
Y18256
Y19256
Y20256
Y21256
Y22579
X48383
X46383
T04
X44400Y14075
Y15075
Y16075
T05
X42640Y26480
X44490
X46340
X45490Y31480
X43490
T06
X39850Y11210
X68760
X39850Y31660
X68760
T07
X43445Y19390
Y23327
M30
