G04 Layer_Color=65535*
%FSLAX24Y24*%
%MOIN*%
G70*
G01*
G75*
%ADD31C,0.0100*%
%ADD45C,0.0236*%
%ADD46C,0.0098*%
%ADD47C,0.0079*%
%ADD48C,0.0010*%
%ADD49C,0.0070*%
D31*
X50789Y13705D02*
G03*
X50789Y13705I-11J0D01*
G01*
X62372Y11918D02*
G03*
X62372Y11918I-50J0D01*
G01*
X43240Y32830D02*
X45740D01*
X41890Y31480D02*
X43240Y32830D01*
X45740D02*
X47090Y31480D01*
X41890Y25730D02*
Y31480D01*
X47090Y25730D02*
Y31480D01*
X41890Y25730D02*
X47090D01*
X43150Y21800D02*
X43740Y21800D01*
X43445Y21505D02*
Y22096D01*
Y20621D02*
Y21211D01*
X41801Y12697D02*
X45285D01*
Y17461D01*
X41801D02*
X45285D01*
X41801Y12697D02*
Y17461D01*
X52579Y30069D02*
X53514D01*
Y30217D01*
X49872Y30069D02*
Y30217D01*
Y30069D02*
X50807D01*
X53514Y31988D02*
Y32333D01*
X49872Y31988D02*
Y32333D01*
X66021Y21013D02*
Y31548D01*
X57721Y21013D02*
X68119D01*
Y31548D01*
X55150Y24001D02*
Y28560D01*
X57721Y31548D01*
X57719D02*
X57721D01*
X68119D01*
X55150Y24001D02*
X57721Y21013D01*
X67644Y16675D02*
X67444D01*
X67544D01*
Y16176D01*
X67444Y16076D01*
X67344D01*
X67244Y16176D01*
X67844Y16076D02*
X68043D01*
X67943D01*
Y16675D01*
X67844Y16575D01*
X41144Y27063D02*
X41044Y26963D01*
Y26763D01*
X41144Y26663D01*
X41244D01*
X41344Y26763D01*
Y26963D01*
X41444Y27063D01*
X41544D01*
X41644Y26963D01*
Y26763D01*
X41544Y26663D01*
X41644Y27263D02*
Y27463D01*
Y27363D01*
X41044D01*
X41144Y27263D01*
X58490Y19242D02*
X58290D01*
X58390D01*
Y18742D01*
X58290Y18642D01*
X58191D01*
X58091Y18742D01*
X58690Y19142D02*
X58790Y19242D01*
X58990D01*
X59090Y19142D01*
Y19042D01*
X58990Y18942D01*
X58890D01*
X58990D01*
X59090Y18842D01*
Y18742D01*
X58990Y18642D01*
X58790D01*
X58690Y18742D01*
X62688Y16945D02*
Y16745D01*
Y16845D01*
X63187D01*
X63287Y16745D01*
Y16645D01*
X63187Y16545D01*
X63287Y17545D02*
Y17145D01*
X62888Y17545D01*
X62788D01*
X62688Y17445D01*
Y17245D01*
X62788Y17145D01*
X50846Y22397D02*
X50746Y22297D01*
Y22097D01*
X50846Y21997D01*
X51246D01*
X51346Y22097D01*
Y22297D01*
X51246Y22397D01*
X51346Y22597D02*
Y22797D01*
Y22697D01*
X50746D01*
X50846Y22597D01*
X51346Y23397D02*
X50746D01*
X51046Y23097D01*
Y23497D01*
X49360Y20580D02*
X49560D01*
X49460D01*
Y19980D01*
X49360D01*
X49560D01*
X50260Y20480D02*
X50160Y20580D01*
X49960D01*
X49860Y20480D01*
Y20080D01*
X49960Y19980D01*
X50160D01*
X50260Y20080D01*
X50460Y19980D02*
X50660D01*
X50560D01*
Y20580D01*
X50460Y20480D01*
X44272Y12391D02*
Y11891D01*
X44372Y11791D01*
X44572D01*
X44672Y11891D01*
Y12391D01*
X44871Y12291D02*
X44971Y12391D01*
X45171D01*
X45271Y12291D01*
Y12191D01*
X45171Y12091D01*
X45071D01*
X45171D01*
X45271Y11991D01*
Y11891D01*
X45171Y11791D01*
X44971D01*
X44871Y11891D01*
X55200Y32540D02*
Y32040D01*
X55300Y31940D01*
X55500D01*
X55600Y32040D01*
Y32540D01*
X56200Y31940D02*
X55800D01*
X56200Y32340D01*
Y32440D01*
X56100Y32540D01*
X55900D01*
X55800Y32440D01*
X56580Y19170D02*
Y18670D01*
X56680Y18570D01*
X56880D01*
X56980Y18670D01*
Y19170D01*
X57180Y18570D02*
X57380D01*
X57280D01*
Y19170D01*
X57180Y19070D01*
X49104Y10512D02*
X48505D01*
Y10812D01*
X48604Y10912D01*
X48804D01*
X48904Y10812D01*
Y10512D01*
Y10712D02*
X49104Y10912D01*
X48505Y11112D02*
Y11511D01*
X48604D01*
X49004Y11112D01*
X49104D01*
X48051Y10512D02*
X47451D01*
Y10812D01*
X47551Y10912D01*
X47751D01*
X47851Y10812D01*
Y10512D01*
Y10712D02*
X48051Y10912D01*
X47451Y11511D02*
X47551Y11312D01*
X47751Y11112D01*
X47951D01*
X48051Y11212D01*
Y11412D01*
X47951Y11511D01*
X47851D01*
X47751Y11412D01*
Y11112D01*
X49291Y14052D02*
X48692D01*
Y14352D01*
X48791Y14452D01*
X48991D01*
X49091Y14352D01*
Y14052D01*
Y14252D02*
X49291Y14452D01*
X48692Y15052D02*
Y14652D01*
X48991D01*
X48891Y14852D01*
Y14952D01*
X48991Y15052D01*
X49191D01*
X49291Y14952D01*
Y14752D01*
X49191Y14652D01*
X49104Y29016D02*
X48505D01*
Y29316D01*
X48604Y29416D01*
X48804D01*
X48904Y29316D01*
Y29016D01*
Y29216D02*
X49104Y29416D01*
Y30015D02*
Y29616D01*
X48704Y30015D01*
X48604D01*
X48505Y29915D01*
Y29716D01*
X48604Y29616D01*
X53061Y23415D02*
X52461D01*
Y23715D01*
X52561Y23815D01*
X52761D01*
X52861Y23715D01*
Y23415D01*
Y23615D02*
X53061Y23815D01*
Y24015D02*
Y24215D01*
Y24115D01*
X52461D01*
X52561Y24015D01*
X45581Y21014D02*
Y21614D01*
X45881D01*
X45981Y21514D01*
Y21314D01*
X45881Y21214D01*
X45581D01*
X46181Y21514D02*
X46280Y21614D01*
X46480D01*
X46580Y21514D01*
Y21414D01*
X46480Y21314D01*
X46380D01*
X46480D01*
X46580Y21214D01*
Y21114D01*
X46480Y21014D01*
X46280D01*
X46181Y21114D01*
X45944Y23420D02*
Y24020D01*
X46244D01*
X46344Y23920D01*
Y23720D01*
X46244Y23620D01*
X45944D01*
X46943Y23420D02*
X46544D01*
X46943Y23820D01*
Y23920D01*
X46843Y24020D01*
X46643D01*
X46544Y23920D01*
X48474Y32037D02*
Y32637D01*
X48774D01*
X48874Y32537D01*
Y32337D01*
X48774Y32237D01*
X48474D01*
X49074Y32037D02*
X49274D01*
X49174D01*
Y32637D01*
X49074Y32537D01*
X66121Y12570D02*
X66545Y12146D01*
X66828Y12428D01*
X66969Y12570D02*
X67111Y12711D01*
X67040Y12640D01*
X66616Y13065D01*
Y12923D01*
X52628Y15186D02*
X52828D01*
X52728D01*
Y14587D01*
X52628D01*
X52828D01*
X53528Y15086D02*
X53428Y15186D01*
X53228D01*
X53128Y15086D01*
Y14687D01*
X53228Y14587D01*
X53428D01*
X53528Y14687D01*
X54127Y14587D02*
X53728D01*
X54127Y14986D01*
Y15086D01*
X54028Y15186D01*
X53828D01*
X53728Y15086D01*
X49480Y10912D02*
X49381Y10812D01*
Y10612D01*
X49480Y10512D01*
X49880D01*
X49980Y10612D01*
Y10812D01*
X49880Y10912D01*
X49980Y11112D02*
Y11312D01*
Y11212D01*
X49381D01*
X49480Y11112D01*
Y11611D02*
X49381Y11711D01*
Y11911D01*
X49480Y12011D01*
X49580D01*
X49680Y11911D01*
X49780Y12011D01*
X49880D01*
X49980Y11911D01*
Y11711D01*
X49880Y11611D01*
X49780D01*
X49680Y11711D01*
X49580Y11611D01*
X49480D01*
X49680Y11711D02*
Y11911D01*
X48973Y16071D02*
X48873Y16171D01*
X48673D01*
X48573Y16071D01*
Y15671D01*
X48673Y15571D01*
X48873D01*
X48973Y15671D01*
X49173Y15571D02*
X49373D01*
X49273D01*
Y16171D01*
X49173Y16071D01*
X50072Y16171D02*
X49672D01*
Y15871D01*
X49872Y15971D01*
X49972D01*
X50072Y15871D01*
Y15671D01*
X49972Y15571D01*
X49772D01*
X49672Y15671D01*
X50076Y22397D02*
X49976Y22297D01*
Y22097D01*
X50076Y21997D01*
X50476D01*
X50576Y22097D01*
Y22297D01*
X50476Y22397D01*
X50576Y22597D02*
Y22797D01*
Y22697D01*
X49976D01*
X50076Y22597D01*
Y23097D02*
X49976Y23197D01*
Y23397D01*
X50076Y23497D01*
X50176D01*
X50276Y23397D01*
Y23297D01*
Y23397D01*
X50376Y23497D01*
X50476D01*
X50576Y23397D01*
Y23197D01*
X50476Y23097D01*
X49453Y18459D02*
X49353Y18359D01*
Y18159D01*
X49453Y18059D01*
X49853D01*
X49953Y18159D01*
Y18359D01*
X49853Y18459D01*
X49953Y18659D02*
Y18859D01*
Y18759D01*
X49353D01*
X49453Y18659D01*
X49953Y19559D02*
Y19159D01*
X49553Y19559D01*
X49453D01*
X49353Y19459D01*
Y19259D01*
X49453Y19159D01*
X48653Y18459D02*
X48553Y18359D01*
Y18159D01*
X48653Y18059D01*
X49053D01*
X49153Y18159D01*
Y18359D01*
X49053Y18459D01*
X49153Y18659D02*
Y18859D01*
Y18759D01*
X48553D01*
X48653Y18659D01*
X49153Y19159D02*
Y19359D01*
Y19259D01*
X48553D01*
X48653Y19159D01*
X54156Y21246D02*
X54056Y21146D01*
Y20946D01*
X54156Y20846D01*
X54556D01*
X54656Y20946D01*
Y21146D01*
X54556Y21246D01*
X54656Y21446D02*
Y21646D01*
Y21546D01*
X54056D01*
X54156Y21446D01*
Y21946D02*
X54056Y22046D01*
Y22246D01*
X54156Y22346D01*
X54556D01*
X54656Y22246D01*
Y22046D01*
X54556Y21946D01*
X54156D01*
X54963Y21236D02*
X54863Y21137D01*
Y20937D01*
X54963Y20837D01*
X55363D01*
X55463Y20937D01*
Y21137D01*
X55363Y21236D01*
Y21436D02*
X55463Y21536D01*
Y21736D01*
X55363Y21836D01*
X54963D01*
X54863Y21736D01*
Y21536D01*
X54963Y21436D01*
X55063D01*
X55163Y21536D01*
Y21836D01*
X62880Y19663D02*
X62780Y19763D01*
X62580D01*
X62480Y19663D01*
Y19263D01*
X62580Y19163D01*
X62780D01*
X62880Y19263D01*
X63480Y19763D02*
X63280Y19663D01*
X63080Y19463D01*
Y19263D01*
X63180Y19163D01*
X63380D01*
X63480Y19263D01*
Y19363D01*
X63380Y19463D01*
X63080D01*
X62880Y18846D02*
X62780Y18946D01*
X62580D01*
X62480Y18846D01*
Y18446D01*
X62580Y18346D01*
X62780D01*
X62880Y18446D01*
X63480Y18946D02*
X63080D01*
Y18646D01*
X63280Y18746D01*
X63380D01*
X63480Y18646D01*
Y18446D01*
X63380Y18346D01*
X63180D01*
X63080Y18446D01*
X47807Y29416D02*
X47707Y29316D01*
Y29116D01*
X47807Y29016D01*
X48207D01*
X48307Y29116D01*
Y29316D01*
X48207Y29416D01*
X48307Y29915D02*
X47707D01*
X48007Y29616D01*
Y30015D01*
X63077Y10874D02*
X62977Y10974D01*
X62777D01*
X62677Y10874D01*
Y10474D01*
X62777Y10374D01*
X62977D01*
X63077Y10474D01*
X63277Y10874D02*
X63377Y10974D01*
X63577D01*
X63677Y10874D01*
Y10774D01*
X63577Y10674D01*
X63477D01*
X63577D01*
X63677Y10574D01*
Y10474D01*
X63577Y10374D01*
X63377D01*
X63277Y10474D01*
X64951Y16375D02*
X64851Y16275D01*
Y16076D01*
X64951Y15976D01*
X65351D01*
X65451Y16076D01*
Y16275D01*
X65351Y16375D01*
X65451Y16975D02*
Y16575D01*
X65051Y16975D01*
X64951D01*
X64851Y16875D01*
Y16675D01*
X64951Y16575D01*
X64101Y16375D02*
X64001Y16275D01*
Y16076D01*
X64101Y15976D01*
X64501D01*
X64601Y16076D01*
Y16275D01*
X64501Y16375D01*
X64601Y16575D02*
Y16775D01*
Y16675D01*
X64001D01*
X64101Y16575D01*
X45138Y25334D02*
Y24734D01*
X45438D01*
X45538Y24834D01*
Y24934D01*
X45438Y25034D01*
X45138D01*
X45438D01*
X45538Y25134D01*
Y25234D01*
X45438Y25334D01*
X45138D01*
X45738D02*
X46137D01*
X45938D01*
Y24734D01*
X46337D02*
X46537D01*
X46437D01*
Y25334D01*
X46337Y25234D01*
X39016Y12923D02*
Y13123D01*
Y13023D01*
X39616D01*
Y12923D01*
Y13123D01*
Y13423D02*
X39016D01*
Y13723D01*
X39116Y13823D01*
X39316D01*
X39416Y13723D01*
Y13423D01*
X39616Y14023D02*
X39016D01*
Y14323D01*
X39116Y14423D01*
X39316D01*
X39416Y14323D01*
Y14023D01*
X39016Y14623D02*
X39616D01*
Y14923D01*
X39516Y15023D01*
X39116D01*
X39016Y14923D01*
Y14623D01*
X39616Y16222D02*
Y15822D01*
X39216Y16222D01*
X39116D01*
X39016Y16122D01*
Y15922D01*
X39116Y15822D01*
Y16422D02*
X39016Y16522D01*
Y16722D01*
X39116Y16822D01*
X39516D01*
X39616Y16722D01*
Y16522D01*
X39516Y16422D01*
X39116D01*
X39616Y17022D02*
Y17222D01*
Y17122D01*
X39016D01*
X39116Y17022D01*
X39616Y17822D02*
X39016D01*
X39316Y17522D01*
Y17922D01*
Y18721D02*
Y19121D01*
X39216Y19921D02*
X39616Y20121D01*
X39216Y20321D01*
X39616Y20521D02*
Y20721D01*
Y20621D01*
X39216D01*
Y20521D01*
X39616Y21021D02*
Y21321D01*
X39516Y21420D01*
X39416Y21321D01*
Y21121D01*
X39316Y21021D01*
X39216Y21121D01*
Y21420D01*
X39616Y21620D02*
X39216D01*
X39016Y21820D01*
X39216Y22020D01*
X39616D01*
X39316D01*
Y21620D01*
X39616Y22220D02*
X39016D01*
Y22520D01*
X39116Y22620D01*
X39316D01*
X39416Y22520D01*
Y22220D01*
Y22420D02*
X39616Y22620D01*
X39116Y23820D02*
X39016Y23720D01*
Y23520D01*
X39116Y23420D01*
X39516D01*
X39616Y23520D01*
Y23720D01*
X39516Y23820D01*
X39316D01*
Y23620D01*
X39616Y24020D02*
X39016D01*
Y24320D01*
X39116Y24420D01*
X39316D01*
X39416Y24320D01*
Y24020D01*
X39116Y25019D02*
X39016Y24919D01*
Y24719D01*
X39116Y24619D01*
X39216D01*
X39316Y24719D01*
Y24919D01*
X39416Y25019D01*
X39516D01*
X39616Y24919D01*
Y24719D01*
X39516Y24619D01*
X39016Y25819D02*
X39616D01*
Y26119D01*
X39516Y26219D01*
X39416D01*
X39316Y26119D01*
Y25819D01*
Y26119D01*
X39216Y26219D01*
X39116D01*
X39016Y26119D01*
Y25819D01*
X39616Y26719D02*
Y26519D01*
X39516Y26419D01*
X39316D01*
X39216Y26519D01*
Y26719D01*
X39316Y26819D01*
X39416D01*
Y26419D01*
X39216Y27119D02*
Y27319D01*
X39316Y27419D01*
X39616D01*
Y27119D01*
X39516Y27019D01*
X39416Y27119D01*
Y27419D01*
X39216Y28018D02*
Y27718D01*
X39316Y27618D01*
X39516D01*
X39616Y27718D01*
Y28018D01*
Y28318D02*
Y28518D01*
X39516Y28618D01*
X39316D01*
X39216Y28518D01*
Y28318D01*
X39316Y28218D01*
X39516D01*
X39616Y28318D01*
Y28818D02*
X39216D01*
Y29118D01*
X39316Y29218D01*
X39616D01*
X40669Y12992D02*
X40069D01*
Y13292D01*
X40169Y13392D01*
X40369D01*
X40469Y13292D01*
Y12992D01*
Y13192D02*
X40669Y13392D01*
Y13892D02*
Y13692D01*
X40569Y13592D01*
X40369D01*
X40269Y13692D01*
Y13892D01*
X40369Y13992D01*
X40469D01*
Y13592D01*
X40269Y14192D02*
X40669Y14392D01*
X40269Y14592D01*
X40669Y15391D02*
Y15591D01*
Y15491D01*
X40069D01*
X40169Y15391D01*
X40369Y16491D02*
Y16891D01*
X40069Y17691D02*
X40669D01*
X40469D01*
X40069Y18090D01*
X40369Y17791D01*
X40669Y18090D01*
X40069Y18290D02*
X40669D01*
X40369D01*
X40269Y18390D01*
Y18590D01*
X40369Y18690D01*
X40669D01*
X40269Y18990D02*
Y19190D01*
X40369Y19290D01*
X40669D01*
Y18990D01*
X40569Y18890D01*
X40469Y18990D01*
Y19290D01*
X40669Y19490D02*
Y19690D01*
Y19590D01*
X40069D01*
Y19490D01*
X40669Y20290D02*
Y20090D01*
X40569Y19990D01*
X40369D01*
X40269Y20090D01*
Y20290D01*
X40369Y20390D01*
X40469D01*
Y19990D01*
X40069Y20990D02*
X40669D01*
Y20690D01*
X40569Y20590D01*
X40369D01*
X40269Y20690D01*
Y20990D01*
X40069Y21789D02*
X40669D01*
X40369D01*
Y22189D01*
X40069D01*
X40669D01*
X40269Y22489D02*
Y22689D01*
X40369Y22789D01*
X40669D01*
Y22489D01*
X40569Y22389D01*
X40469Y22489D01*
Y22789D01*
X40669Y22989D02*
Y23289D01*
X40569Y23389D01*
X40469Y23289D01*
Y23089D01*
X40369Y22989D01*
X40269Y23089D01*
Y23389D01*
X40669Y23589D02*
Y23889D01*
X40569Y23989D01*
X40469Y23889D01*
Y23689D01*
X40369Y23589D01*
X40269Y23689D01*
Y23989D01*
Y24288D02*
Y24488D01*
X40369Y24588D01*
X40669D01*
Y24288D01*
X40569Y24188D01*
X40469Y24288D01*
Y24588D01*
X40669Y24788D02*
X40269D01*
Y25088D01*
X40369Y25188D01*
X40669D01*
D45*
X51732Y17920D02*
G03*
X51732Y17920I-118J0D01*
G01*
D46*
X50994Y17015D02*
G03*
X50994Y17015I-49J0D01*
G01*
D47*
X53386Y17526D02*
Y19692D01*
X51220Y17526D02*
Y19692D01*
X53386D01*
X51220Y17526D02*
X53386D01*
X46883Y15756D02*
X47883D01*
X46883Y21756D02*
X47883D01*
Y15756D02*
Y21756D01*
X46883Y15756D02*
Y21756D01*
X65564Y13452D02*
X65648Y13536D01*
X45883Y22079D02*
X48883D01*
Y23079D01*
X45883D02*
X48883D01*
X45883Y22079D02*
Y23079D01*
D48*
X57150Y25330D02*
X57160D01*
D49*
X65421Y25650D02*
X65821Y25917D01*
X65421D02*
X65821Y25650D01*
X65421Y26050D02*
X65821D01*
Y26250D01*
X65754Y26316D01*
X65688D01*
X65621Y26250D01*
Y26050D01*
Y26250D01*
X65554Y26316D01*
X65488D01*
X65421Y26250D01*
Y26050D01*
Y26716D02*
Y26450D01*
X65821D01*
Y26716D01*
X65621Y26450D02*
Y26583D01*
X65421Y27116D02*
Y26850D01*
X65821D01*
Y27116D01*
X65621Y26850D02*
Y26983D01*
X67421Y24900D02*
X67821Y25167D01*
X67421D02*
X67821Y24900D01*
X67421Y25300D02*
X67821D01*
Y25500D01*
X67754Y25566D01*
X67688D01*
X67621Y25500D01*
Y25300D01*
Y25500D01*
X67554Y25566D01*
X67488D01*
X67421Y25500D01*
Y25300D01*
Y25966D02*
Y25700D01*
X67821D01*
Y25966D01*
X67621Y25700D02*
Y25833D01*
X67421Y26366D02*
Y26100D01*
X67821D01*
Y26366D01*
X67621Y26100D02*
Y26233D01*
X67888Y26499D02*
Y26766D01*
X67821Y26899D02*
X67421D01*
Y27099D01*
X67488Y27166D01*
X67621D01*
X67688Y27099D01*
Y26899D01*
X67821Y27299D02*
X67421D01*
Y27499D01*
X67488Y27566D01*
X67621D01*
X67688Y27499D01*
Y27299D01*
Y27433D02*
X67821Y27566D01*
X67421Y27899D02*
Y27766D01*
X67488Y27699D01*
X67754D01*
X67821Y27766D01*
Y27899D01*
X67754Y27966D01*
X67488D01*
X67421Y27899D01*
X57971Y21350D02*
Y21483D01*
Y21417D01*
X57571D01*
X57638Y21350D01*
X65621Y21200D02*
Y21333D01*
Y21267D01*
X65221D01*
X65288Y21200D01*
Y21533D02*
X65221Y21600D01*
Y21733D01*
X65288Y21800D01*
X65554D01*
X65621Y21733D01*
Y21600D01*
X65554Y21533D01*
X65288D01*
X65671Y30850D02*
Y30983D01*
Y30917D01*
X65271D01*
X65338Y30850D01*
X65671Y31183D02*
Y31317D01*
Y31250D01*
X65271D01*
X65338Y31183D01*
X58071Y31167D02*
Y30900D01*
X57804Y31167D01*
X57738D01*
X57671Y31100D01*
Y30967D01*
X57738Y30900D01*
Y31300D02*
X57671Y31367D01*
Y31500D01*
X57738Y31566D01*
X58004D01*
X58071Y31500D01*
Y31367D01*
X58004Y31300D01*
X57738D01*
M02*
