G04 Layer_Color=8421504*
%FSLAX24Y24*%
%MOIN*%
G70*
G01*
G75*
%ADD10R,0.0866X0.0413*%
%ADD11R,0.0433X0.0413*%
G04:AMPARAMS|DCode=12|XSize=39.4mil|YSize=78.7mil|CornerRadius=9.8mil|HoleSize=0mil|Usage=FLASHONLY|Rotation=0.000|XOffset=0mil|YOffset=0mil|HoleType=Round|Shape=RoundedRectangle|*
%AMROUNDEDRECTD12*
21,1,0.0394,0.0591,0,0,0.0*
21,1,0.0197,0.0787,0,0,0.0*
1,1,0.0197,0.0098,-0.0295*
1,1,0.0197,-0.0098,-0.0295*
1,1,0.0197,-0.0098,0.0295*
1,1,0.0197,0.0098,0.0295*
%
%ADD12ROUNDEDRECTD12*%
G04:AMPARAMS|DCode=13|XSize=39.4mil|YSize=78.7mil|CornerRadius=9.8mil|HoleSize=0mil|Usage=FLASHONLY|Rotation=90.000|XOffset=0mil|YOffset=0mil|HoleType=Round|Shape=RoundedRectangle|*
%AMROUNDEDRECTD13*
21,1,0.0394,0.0591,0,0,90.0*
21,1,0.0197,0.0787,0,0,90.0*
1,1,0.0197,0.0295,0.0098*
1,1,0.0197,0.0295,-0.0098*
1,1,0.0197,-0.0295,-0.0098*
1,1,0.0197,-0.0295,0.0098*
%
%ADD13ROUNDEDRECTD13*%
%ADD14R,0.0413X0.0394*%
%ADD15R,0.0984X0.1496*%
%ADD16R,0.0197X0.0787*%
%ADD17O,0.0709X0.0118*%
%ADD18O,0.0118X0.0709*%
%ADD19R,0.0354X0.0315*%
%ADD20R,0.0394X0.0413*%
%ADD21R,0.0591X0.0630*%
%ADD22R,0.0315X0.0354*%
G04:AMPARAMS|DCode=23|XSize=19.7mil|YSize=23.6mil|CornerRadius=0mil|HoleSize=0mil|Usage=FLASHONLY|Rotation=225.000|XOffset=0mil|YOffset=0mil|HoleType=Round|Shape=Rectangle|*
%AMROTATEDRECTD23*
4,1,4,-0.0014,0.0153,0.0153,-0.0014,0.0014,-0.0153,-0.0153,0.0014,-0.0014,0.0153,0.0*
%
%ADD23ROTATEDRECTD23*%

%ADD24R,0.0276X0.0591*%
%ADD25R,0.0906X0.0591*%
%ADD26R,0.0591X0.0276*%
%ADD27R,0.0591X0.0512*%
D10*
X67992Y14370D02*
D03*
Y15532D02*
D03*
D11*
X67402Y14951D02*
D03*
D12*
X59537Y18984D02*
D03*
X60087D02*
D03*
D13*
X62994Y15570D02*
D03*
Y16120D02*
D03*
D14*
X52815Y22982D02*
D03*
X52185D02*
D03*
D15*
X50039Y31102D02*
D03*
X53346D02*
D03*
D16*
X52323Y30118D02*
D03*
X51378D02*
D03*
X51063D02*
D03*
X52008D02*
D03*
X51693D02*
D03*
D17*
X50709Y17526D02*
D03*
Y17723D02*
D03*
Y17920D02*
D03*
Y18117D02*
D03*
Y18314D02*
D03*
Y18511D02*
D03*
Y18707D02*
D03*
Y18904D02*
D03*
Y19101D02*
D03*
Y19298D02*
D03*
Y19495D02*
D03*
Y19692D02*
D03*
X53898D02*
D03*
Y19495D02*
D03*
Y19298D02*
D03*
Y19101D02*
D03*
Y18904D02*
D03*
Y18707D02*
D03*
Y18511D02*
D03*
Y18314D02*
D03*
Y18117D02*
D03*
Y17920D02*
D03*
Y17723D02*
D03*
Y17526D02*
D03*
D18*
X51220Y20204D02*
D03*
X51417D02*
D03*
X51614D02*
D03*
X51811D02*
D03*
X52008D02*
D03*
X52205D02*
D03*
X52402D02*
D03*
X52598D02*
D03*
X52795D02*
D03*
X53386Y17015D02*
D03*
X53189D02*
D03*
X52992D02*
D03*
X52795D02*
D03*
X52598D02*
D03*
X52402D02*
D03*
X52205D02*
D03*
X52008D02*
D03*
X51811D02*
D03*
X51614D02*
D03*
X51417D02*
D03*
X51220D02*
D03*
X52992Y20204D02*
D03*
X53189D02*
D03*
X53386D02*
D03*
D19*
X51063Y21535D02*
D03*
Y20984D02*
D03*
X64401Y15501D02*
D03*
Y14950D02*
D03*
X65151Y15501D02*
D03*
Y14950D02*
D03*
X55187Y20404D02*
D03*
Y19852D02*
D03*
X54547Y20404D02*
D03*
Y19852D02*
D03*
X48903Y17685D02*
D03*
Y17133D02*
D03*
X49653Y17685D02*
D03*
Y17133D02*
D03*
X50315Y21535D02*
D03*
Y20984D02*
D03*
X49734Y12972D02*
D03*
Y12421D02*
D03*
X48091Y30679D02*
D03*
Y31230D02*
D03*
D20*
X49862Y14882D02*
D03*
Y14252D02*
D03*
X48789Y12382D02*
D03*
Y13012D02*
D03*
X47726D02*
D03*
Y12382D02*
D03*
X48829Y31270D02*
D03*
Y30640D02*
D03*
D21*
X51014Y14984D02*
D03*
Y14142D02*
D03*
X52014Y14984D02*
D03*
Y14142D02*
D03*
D22*
X61474Y18700D02*
D03*
X62026D02*
D03*
X61474Y19300D02*
D03*
X62026D02*
D03*
X63426Y12250D02*
D03*
X62874D02*
D03*
X50463Y15866D02*
D03*
X51014D02*
D03*
D23*
X65161Y13939D02*
D03*
X65439Y13661D02*
D03*
D24*
X61032Y17931D02*
D03*
X60560D02*
D03*
X60087D02*
D03*
X57568D02*
D03*
X58040D02*
D03*
X58513D02*
D03*
X58513Y11868D02*
D03*
X58040D02*
D03*
X57568D02*
D03*
X60087D02*
D03*
X60560D02*
D03*
X61032D02*
D03*
D25*
X59300Y17931D02*
D03*
X59300Y11868D02*
D03*
D26*
X56820Y14152D02*
D03*
Y12262D02*
D03*
Y12735D02*
D03*
Y13680D02*
D03*
Y13207D02*
D03*
Y16593D02*
D03*
Y17065D02*
D03*
Y16120D02*
D03*
Y15648D02*
D03*
Y17538D02*
D03*
X61780D02*
D03*
Y15648D02*
D03*
Y16120D02*
D03*
Y17065D02*
D03*
Y16593D02*
D03*
Y13207D02*
D03*
Y13680D02*
D03*
Y12735D02*
D03*
Y12262D02*
D03*
Y14152D02*
D03*
D27*
X56820Y14900D02*
D03*
X61780D02*
D03*
M02*
