M48
;Layer_Color=9474304
;FILE_FORMAT=2:4
INCH
;TYPE=PLATED
T1F00S00C0.0150
T2F00S00C0.0250
T3F00S00C0.0280
T4F00S00C0.0315
T5F00S00C0.0354
T6F00S00C0.0360
T7F00S00C0.0413
T8F00S00C0.1200
%
T01
X002500Y000500
X003000
X003500
X004000
X005000
X005500
X005250Y001000
X005500Y001500
X005250Y002000
X004750
X004250
X003750
X003250
X002750
X002250
X002500Y002500
X003000
X003500
X004000
X004500
X005000
X005500
X005250Y003000
X004750
X004250
X003750
X003250
X002750
Y004000
X002500Y004500
X002750Y005000
X002500Y005500
X001000
X000500
X000750Y005000
X001250
X001500Y004500
X001000
X000500
X000750Y004000
X001250
X000500Y003500
X000750Y003000
X001000Y002500
X001500
X002000
X002500Y001500
X003000
X003500
X003250Y001000
X002750
X000500Y002500
X003750Y005000
X005500Y004500
X006000
X006500
X006750Y005000
X007250
X007750
X008250
X008750
X009250
X009750
X010250
X010750
X011250
X011500Y005500
X012000
X012500
X013000
X012992Y004600
X012500Y004500
X012000
X011000
X010500
X010000
Y005500
X010500
X011000
X009500
X009000
X008500
X008000
X007500
X007000
X006500
X006250Y005000
X005750
X006150Y003500
X005750Y003000
X006000Y002500
X006250Y002000
X005750
X006000Y001500
X006250Y001000
X005750
X006000Y000500
X008000
X007950Y001400
X008000Y002500
X008250Y003000
X009750
X010000Y002500
X010250Y002000
X010750
X010500Y001500
X010000
X010250Y001000
X010750
X010500Y000500
X010000
X012500
X012750Y001000
X012500Y001500
X012750Y002000
X012500Y002500
X012750Y003000
X012250
X011750
X011250
X008500Y004500
X008000
X007500
X006750Y003000
X014350Y004338
X014700Y005050
X014300Y005550
X016297Y004850
X017175Y005525
X017500Y005500
X019000
X018550Y004970
X018000Y004500
X017700Y003550
X017250Y004000
X018900Y003900
X020250Y003000
X020750
X021000Y002500
X018940Y001349
X018100Y001300
X019000Y000500
X016050Y000700
X015731Y001150
X015750Y002000
X016100Y001950
X016200Y001600
X021250Y001000
X021750
X021900Y002050
X022000Y002500
X022500
X023000
X023500
X023615Y002050
X024250Y002000
X024750
X025250
X025750
X026250
X026750
X027000Y001500
X027500
X028000
X028500
X029000
X029500
X030000
X030500
X031000
X031250Y002000
X030750
X030250
X029750
X029250
X028750
X028250
X028500Y002500
X029000
X029500
X030000
X030500
X031000
X031250Y003000
X030750
X030250
X029750
X029250
X028750
X028250
X027750
X027250
X026750
X026250
X025750
X025250
X024750
X024250
Y003700
X024200Y004250
X023750Y004000
X025250
X025750
X026250
X026750
X027250
X027750
X028250
X028500Y004500
X028000
X028250Y005000
X028750
X029000Y005500
X029500
X030000
X030500
X030700Y004900
X030500Y004500
X031000
X031250Y004000
X030750
X030250
X029750
X029250
X029500Y004500
X030000
X028500Y005500
X028050Y003300
X028000Y002500
X026500
X026000
X025500
X025000
X024500
Y001500
X025000
X025500
X026000
X026500
X023250Y003000
X022750
X022250
X021750
X021250
X021500Y002500
X033000
X033250Y003000
Y002000
X033000Y001500
X033250Y001000
X033000Y000500
X035000
Y001500
Y002500
X034750Y003000
X036750
Y002000
Y001000
X036500Y005500
X036000
X035500
X035000
X033000
X032500
X037000
X037500
X038000
Y003500
X038500
X039000
X038750Y003000
X038250
X039000Y002500
X038750Y002000
X039000Y001500
X038750Y001000
X039000Y000500
X037000
Y001500
Y002500
Y003500
X040500
X041000
X040750Y003000
X041000Y002500
X040750Y002000
Y001000
X042250Y003000
X042750
X042500Y003500
X042750Y004000
X042250
X043250Y005400
X044000Y005500
X044500
X045000
X045500
X046000
X046250Y005000
X045750
X045250
X044750
X044250
X047000Y005500
Y004500
X047750Y004000
Y003000
X048000Y002500
X048500
X049000
X049500
X049750Y003000
X048950Y004350
X048720Y004920
X047750Y002000
X047250Y001000
X047500Y000500
X047000
X046500
X046250Y003000
X045750
Y006000
X045250
X045500Y006500
X046000
X046050Y005800
X047150Y005900
X047250Y007000
X047750
X047500Y007500
X047650Y008700
X046750Y009000
X045800Y008950
X044550Y007600
X044150
Y008000
X043700Y007950
X042940Y007910
X042850Y007600
X043100Y006950
X043800Y007150
X045000Y006500
X042100Y006250
X041750Y006550
X041350Y007750
X041400Y008150
X042800Y008700
X043300Y008850
X038700Y008250
X037950Y008850
X036950Y008450
X038000Y007300
X037750Y006000
X037250
X039800Y006600
X049800Y006735
X036750Y006000
X036250
X035750
X035250
X035000Y006500
X034750Y007000
X033950Y007900
X036000
X032750Y007000
X033000Y006500
X033250Y006000
X032750
X032000Y007600
X030250Y008000
X029750
X029250
X028750
X028250
X027750
X027250
X026750
X026250
X025750
X025250
X025750Y009000
X026250
X026500Y009500
X026000
X025500
X025000
X024250Y009000
X023750
X022350Y008788
X021265Y009215
X021500Y009500
X024000Y006500
X024500
X025000
X025500
X026000
X026500
X027000
X027500
X028000
X028500
X029000
X029500
X030000
X030250Y006000
X029750
X029250
X028750
X028250
X030000Y008500
X029500Y009500
X021000
X020500
X021000Y008500
X019250Y008000
X018750
X019000Y007500
X018750Y007000
X018900Y006250
X014750Y006000
X014250
X013750
X013250
X012750
X012250
X011750
X011250
X010750
X010250
X009750
X009250
X008750
X008250
X007750
X007250
X005750Y007000
Y008000
X004000Y008500
X002500
X002750Y009000
X002500Y009500
X002750Y008000
X002250
X002500Y007500
X002000
X001500
X001000
X000500
X000750Y007000
X000500Y006500
X000750Y006000
X002750
X002500Y006500
X002750Y007000
X002250
T02
X010500Y002830
T03
X007500Y002850
X024100Y000650
X030850
X034100Y003000
X037600Y003150
X038750Y004800
X041650Y003150
X044750Y002950
X046950Y002400
X034100Y006638
X031185Y006265
T04
X001313Y003450
X002100
X003963Y001150
X004750
X001450Y005913
Y006700
T05
X036900Y009400
X037900
X038900
X039900
X040900
X035900
X029000Y009350
X028000
X027000
T06
X030510Y008850
X031180
X031850
X032520
X033190
T07
X027450Y002324
Y005276
T08
X001100Y001100
X048900
Y008900
X001100
M30
