%FSAX24Y24*%
%MOIN*%
G70*
G01*
G75*
G04 Layer_Color=16711935*
%ADD10C,0.1000*%
%ADD11C,0.0100*%
%ADD12C,0.1200*%
%ADD13C,0.0200*%
%ADD14C,0.0300*%
%ADD15C,0.0400*%
%ADD16C,0.0150*%
%ADD17C,0.0500*%
%ADD18O,0.0709X0.0118*%
%ADD19O,0.0118X0.0709*%
%ADD20R,0.0413X0.0394*%
%ADD21R,0.0433X0.0669*%
%ADD22R,0.1181X0.2362*%
%ADD23R,0.0276X0.0354*%
%ADD24R,0.0374X0.0394*%
%ADD25R,0.0118X0.0157*%
%ADD26R,0.0394X0.0413*%
%ADD27O,0.0866X0.0236*%
%ADD28R,0.0787X0.0787*%
%ADD29R,0.0394X0.0374*%
%ADD30R,0.0433X0.0236*%
%ADD31R,0.1496X0.0984*%
%ADD32R,0.0787X0.0197*%
%ADD33R,0.0315X0.0315*%
%ADD34R,0.4110X0.3504*%
%ADD35R,0.0394X0.1339*%
%ADD36C,0.0150*%
%ADD37C,0.3000*%
%ADD38C,0.0700*%
%ADD39R,0.0550X0.0750*%
%ADD40O,0.0550X0.0750*%
%ADD41R,0.0750X0.0550*%
%ADD42O,0.0750X0.0550*%
%ADD43C,0.0591*%
%ADD44R,0.0591X0.0591*%
%ADD45C,0.0748*%
%ADD46C,0.2100*%
G04:AMPARAMS|DCode=47|XSize=51mil|YSize=51mil|CornerRadius=12.8mil|HoleSize=0mil|Usage=FLASHONLY|Rotation=0.000|XOffset=0mil|YOffset=0mil|HoleType=Round|Shape=RoundedRectangle|*
%AMROUNDEDRECTD47*
21,1,0.0510,0.0255,0,0,0.0*
21,1,0.0255,0.0510,0,0,0.0*
1,1,0.0255,0.0128,-0.0128*
1,1,0.0255,-0.0128,-0.0128*
1,1,0.0255,-0.0128,0.0128*
1,1,0.0255,0.0128,0.0128*
%
%ADD47ROUNDEDRECTD47*%
%ADD48R,0.0510X0.0510*%
%ADD49C,0.0250*%
%ADD50C,0.0700*%
%ADD51R,0.0630X0.0591*%
%ADD52R,0.0669X0.0433*%
%ADD53C,0.0098*%
%ADD54C,0.0236*%
%ADD55C,0.0050*%
%ADD56C,0.0079*%
%ADD57O,0.1080X0.1000*%
%ADD58O,0.1280X0.1200*%
%ADD59O,0.0789X0.0198*%
%ADD60O,0.0198X0.0789*%
%ADD61R,0.0493X0.0474*%
%ADD62R,0.0513X0.0749*%
%ADD63R,0.0356X0.0434*%
%ADD64R,0.0454X0.0474*%
%ADD65R,0.0198X0.0237*%
%ADD66R,0.0474X0.0493*%
%ADD67O,0.0946X0.0316*%
%ADD68R,0.0867X0.0867*%
%ADD69R,0.0474X0.0454*%
%ADD70R,0.0513X0.0316*%
%ADD71R,0.1576X0.1064*%
%ADD72R,0.0867X0.0277*%
%ADD73R,0.0395X0.0395*%
%ADD74R,0.4190X0.3584*%
%ADD75R,0.0474X0.1419*%
%ADD76C,0.0230*%
%ADD77C,0.1080*%
%ADD78C,0.1280*%
%ADD79C,0.3080*%
%ADD80R,0.0630X0.0830*%
%ADD81O,0.0630X0.0830*%
%ADD82R,0.0830X0.0630*%
%ADD83O,0.0830X0.0630*%
%ADD84C,0.0671*%
%ADD85R,0.0671X0.0671*%
%ADD86C,0.0828*%
%ADD87C,0.2180*%
G04:AMPARAMS|DCode=88|XSize=59mil|YSize=59mil|CornerRadius=16.8mil|HoleSize=0mil|Usage=FLASHONLY|Rotation=0.000|XOffset=0mil|YOffset=0mil|HoleType=Round|Shape=RoundedRectangle|*
%AMROUNDEDRECTD88*
21,1,0.0590,0.0255,0,0,0.0*
21,1,0.0255,0.0590,0,0,0.0*
1,1,0.0335,0.0128,-0.0128*
1,1,0.0335,-0.0128,-0.0128*
1,1,0.0335,-0.0128,0.0128*
1,1,0.0335,0.0128,0.0128*
%
%ADD88ROUNDEDRECTD88*%
%ADD89R,0.0590X0.0590*%
%ADD90C,0.0780*%
%ADD91R,0.0710X0.0671*%
%ADD92R,0.0749X0.0513*%
D22*
X042700Y001250D02*
D03*
X044668D02*
D03*
D57*
X045950Y001150D02*
G03*
X046950Y002150I000000J001000D01*
G01*
X037200Y003150D02*
G03*
X036200Y002150I000000J-001000D01*
G01*
X027237Y002537D02*
G03*
X026529Y002830I-000707J-000707D01*
G01*
X027450Y002324D02*
G03*
X027824Y001950I000374J000000D01*
G01*
X031185Y005800D02*
G03*
X032185Y004800I001000J000000D01*
G01*
D61*
X039315Y006600D02*
D03*
X038685D02*
D03*
X048735Y006300D02*
D03*
X049365D02*
D03*
X048720Y005350D02*
D03*
X049350D02*
D03*
D62*
X049531Y004350D02*
D03*
X048468D02*
D03*
D77*
X044569Y001150D02*
X045950D01*
X046950Y002150D02*
Y002400D01*
X042600Y003150D02*
X044550D01*
X041650D02*
X042600D01*
Y001150D02*
Y003150D01*
X017650Y002830D02*
X018300D01*
X015300D02*
X017650D01*
X024100Y000650D02*
X030850D01*
X037200Y003150D02*
X037600D01*
X041650D01*
X018300Y002830D02*
X026529D01*
X027237Y002537D02*
X027450Y002324D01*
X010500Y002830D02*
X015300D01*
X034100Y002000D02*
Y003000D01*
X034150Y001950D02*
X036200D01*
X027824D02*
X034050D01*
X032483Y008255D02*
X034100Y006638D01*
X007520Y002830D02*
X010500D01*
X032185Y004800D02*
X038750D01*
D80*
X004750Y001150D02*
D03*
X002100Y003450D02*
D03*
D81*
X003963Y001150D02*
D03*
X001313Y003450D02*
D03*
D82*
X001450Y006700D02*
D03*
D83*
Y005913D02*
D03*
D84*
X035900Y009400D02*
D03*
X036900D02*
D03*
X037900D02*
D03*
X038900D02*
D03*
X039900D02*
D03*
X027000Y009350D02*
D03*
X028000D02*
D03*
D85*
X040900Y009400D02*
D03*
X029000Y009350D02*
D03*
D86*
X027450Y002324D02*
D03*
Y005276D02*
D03*
D87*
X001100Y008900D02*
D03*
Y001100D02*
D03*
X048900D02*
D03*
Y008900D02*
D03*
D88*
X031850Y008850D02*
D03*
X032520D02*
D03*
X031180D02*
D03*
X030510D02*
D03*
D89*
X033190D02*
D03*
D90*
X046950Y002400D02*
D03*
X030850Y000650D02*
D03*
X024100D02*
D03*
X044750Y002950D02*
D03*
X041650Y003150D02*
D03*
X037600D02*
D03*
X010500Y002830D02*
D03*
X034100Y003000D02*
D03*
X031185Y006265D02*
D03*
X007500Y002850D02*
D03*
X038750Y004800D02*
D03*
X034100Y006638D02*
D03*
D91*
X039535Y008286D02*
D03*
X040378D02*
D03*
X039535Y007286D02*
D03*
X040378D02*
D03*
D92*
X047100Y009431D02*
D03*
Y008369D02*
D03*
X046250Y009431D02*
D03*
Y008369D02*
D03*
X045400Y009431D02*
D03*
Y008369D02*
D03*
X044550Y009431D02*
D03*
Y008369D02*
D03*
X043700Y009431D02*
D03*
Y008369D02*
D03*
X042850Y009431D02*
D03*
Y008369D02*
D03*
M02*
