%FSAX24Y24*%
%MOIN*%
G70*
G01*
G75*
G04 Layer_Physical_Order=2*
G04 Layer_Color=16711680*
%ADD10C,0.1000*%
%ADD11C,0.0100*%
%ADD12C,0.1200*%
%ADD13C,0.0200*%
%ADD14C,0.0300*%
%ADD15C,0.0400*%
%ADD16C,0.0150*%
%ADD17C,0.0500*%
%ADD18O,0.0709X0.0118*%
%ADD19O,0.0118X0.0709*%
%ADD20R,0.0413X0.0394*%
%ADD21R,0.0433X0.0669*%
%ADD22R,0.1181X0.2362*%
%ADD23R,0.0276X0.0354*%
%ADD24R,0.0374X0.0394*%
%ADD25R,0.0118X0.0157*%
%ADD26R,0.0394X0.0413*%
%ADD27O,0.0866X0.0236*%
%ADD28R,0.0787X0.0787*%
%ADD29R,0.0394X0.0374*%
%ADD30R,0.0433X0.0236*%
%ADD31R,0.1496X0.0984*%
%ADD32R,0.0787X0.0197*%
%ADD33R,0.0315X0.0315*%
%ADD34R,0.4110X0.3504*%
%ADD35R,0.0394X0.1339*%
%ADD36C,0.0150*%
%ADD37C,0.3000*%
%ADD38C,0.0700*%
%ADD39R,0.0550X0.0750*%
%ADD40O,0.0550X0.0750*%
%ADD41R,0.0750X0.0550*%
%ADD42O,0.0750X0.0550*%
%ADD43C,0.0591*%
%ADD44R,0.0591X0.0591*%
%ADD45C,0.0748*%
%ADD46C,0.2100*%
G04:AMPARAMS|DCode=47|XSize=51mil|YSize=51mil|CornerRadius=12.8mil|HoleSize=0mil|Usage=FLASHONLY|Rotation=0.000|XOffset=0mil|YOffset=0mil|HoleType=Round|Shape=RoundedRectangle|*
%AMROUNDEDRECTD47*
21,1,0.0510,0.0255,0,0,0.0*
21,1,0.0255,0.0510,0,0,0.0*
1,1,0.0255,0.0128,-0.0128*
1,1,0.0255,-0.0128,-0.0128*
1,1,0.0255,-0.0128,0.0128*
1,1,0.0255,0.0128,0.0128*
%
%ADD47ROUNDEDRECTD47*%
%ADD48R,0.0510X0.0510*%
%ADD49C,0.0250*%
%ADD50C,0.0700*%
%ADD51R,0.0630X0.0591*%
%ADD52R,0.0669X0.0433*%
G36*
X028398Y009901D02*
X028385Y009880D01*
X027923Y009698D01*
X027907Y009696D01*
X027821Y009660D01*
X027795Y009641D01*
X027788Y009636D01*
X027786Y009634D01*
X027747Y009603D01*
X027690Y009529D01*
X027654Y009443D01*
X027642Y009350D01*
X027654Y009257D01*
X027690Y009171D01*
X027747Y009097D01*
X027821Y009040D01*
X027907Y009004D01*
X028000Y008992D01*
X028093Y009004D01*
X028179Y009040D01*
X028253Y009097D01*
X028284Y009136D01*
X028286Y009138D01*
X028291Y009145D01*
X028310Y009171D01*
X028346Y009257D01*
X028348Y009273D01*
X028502Y009664D01*
X029995D01*
X030015Y009617D01*
X028961Y008564D01*
X025689D01*
X024601Y009651D01*
X024532Y009698D01*
X024450Y009714D01*
X023062D01*
Y009714D01*
X022881Y009697D01*
X022707Y009644D01*
X022547Y009558D01*
X022407Y009443D01*
X022292Y009303D01*
X022206Y009143D01*
X022153Y008969D01*
X022136Y008788D01*
X022136D01*
X022152Y008706D01*
X022199Y008637D01*
X022268Y008590D01*
X022350Y008574D01*
X022432Y008590D01*
X022501Y008637D01*
X022548Y008706D01*
X022564Y008788D01*
X022564D01*
X022561Y008791D01*
X022578Y008918D01*
X022628Y009039D01*
X022708Y009143D01*
X022811Y009222D01*
X022932Y009272D01*
X023052Y009288D01*
X023062Y009286D01*
X024361D01*
X025449Y008199D01*
X025518Y008152D01*
X025518Y008152D01*
X025518Y008152D01*
D01*
X025518Y008152D01*
X025518Y008152D01*
X025600Y008136D01*
X029050D01*
X029132Y008152D01*
X029201Y008199D01*
X029201Y008199D01*
X029201Y008199D01*
X030304Y009302D01*
X032427D01*
X032430Y009252D01*
X032413Y009249D01*
X032313Y009208D01*
X032228Y009142D01*
X032162Y009057D01*
X032121Y008957D01*
X032106Y008850D01*
Y008840D01*
Y008673D01*
X032083Y008655D01*
X031994Y008538D01*
X031937Y008402D01*
X031918Y008255D01*
X031937Y008109D01*
X031994Y007973D01*
X032083Y007856D01*
X032095Y007844D01*
X032072Y007800D01*
X032000Y007814D01*
X031786D01*
X031115Y008485D01*
X031135Y008531D01*
X031307D01*
X031381Y008546D01*
X031443Y008587D01*
X031484Y008649D01*
X031499Y008723D01*
Y008978D01*
X031484Y009051D01*
X031443Y009113D01*
X031381Y009154D01*
X031307Y009169D01*
X031052D01*
X030979Y009154D01*
X030917Y009113D01*
X030876Y009051D01*
X030870Y009021D01*
X030820D01*
X030814Y009051D01*
X030773Y009113D01*
X030711Y009154D01*
X030638Y009169D01*
X030382D01*
X030309Y009154D01*
X030247Y009113D01*
X030206Y009051D01*
X030191Y008978D01*
Y008723D01*
X030206Y008649D01*
X030247Y008587D01*
X030309Y008546D01*
X030382Y008531D01*
X030464D01*
X031546Y007449D01*
X031616Y007402D01*
X031698Y007386D01*
X032000D01*
X032082Y007402D01*
X032151Y007449D01*
X032198Y007518D01*
X032214Y007600D01*
X032200Y007672D01*
X032244Y007695D01*
X033701Y006239D01*
X033818Y006149D01*
X033954Y006092D01*
X034100Y006073D01*
X034246Y006092D01*
X034382Y006149D01*
X034499Y006239D01*
X034589Y006356D01*
X034646Y006492D01*
X034665Y006638D01*
X034646Y006784D01*
X034589Y006920D01*
X034499Y007037D01*
X033887Y007650D01*
X033911Y007694D01*
X033950Y007686D01*
X036000D01*
X036082Y007702D01*
X036151Y007749D01*
X036198Y007818D01*
X036214Y007900D01*
X036198Y007982D01*
X036151Y008051D01*
X036082Y008098D01*
X036000Y008114D01*
X033950D01*
X033868Y008098D01*
X033799Y008051D01*
X033752Y007982D01*
X033736Y007900D01*
X033744Y007861D01*
X033700Y007837D01*
X033048Y008489D01*
X033067Y008535D01*
X033505D01*
Y009165D01*
X032875D01*
Y009139D01*
X032828Y009123D01*
X032812Y009142D01*
X032727Y009208D01*
X032627Y009249D01*
X032610Y009252D01*
X032613Y009302D01*
X033446D01*
X034449Y008299D01*
X034518Y008252D01*
X034518Y008252D01*
X034518Y008252D01*
D01*
X034518Y008252D01*
X034518Y008252D01*
X034600Y008236D01*
X036950D01*
X037032Y008252D01*
X037101Y008299D01*
X037148Y008368D01*
X037164Y008450D01*
X037162Y008459D01*
X037206Y008482D01*
X037438Y008251D01*
Y006550D01*
X037438Y006550D01*
X037446Y006507D01*
X037471Y006471D01*
X038271Y005671D01*
X038271Y005671D01*
X038307Y005646D01*
X038307Y005646D01*
X038307Y005646D01*
D01*
X038307Y005646D01*
X038307Y005646D01*
X038350Y005638D01*
X038350Y005638D01*
X041600D01*
X041600Y005638D01*
X041643Y005646D01*
X041679Y005671D01*
X041836Y005827D01*
X042215Y006102D01*
X042219Y006107D01*
X042233Y006117D01*
X042274Y006178D01*
X042289Y006250D01*
X042274Y006322D01*
X042233Y006383D01*
X042172Y006424D01*
X042100Y006439D01*
X042028Y006424D01*
X041967Y006383D01*
X041957Y006369D01*
X041952Y006365D01*
X041677Y005986D01*
X041554Y005862D01*
X041286D01*
X041267Y005908D01*
X041486Y006127D01*
X041865Y006402D01*
X041869Y006407D01*
X041883Y006417D01*
X041924Y006478D01*
X041939Y006550D01*
X041924Y006622D01*
X041883Y006683D01*
X041822Y006724D01*
X041750Y006739D01*
X041678Y006724D01*
X041617Y006683D01*
X041607Y006669D01*
X041602Y006665D01*
X041327Y006286D01*
X041104Y006062D01*
X038423D01*
X037822Y006663D01*
Y006951D01*
X038112Y007150D01*
X038117Y007156D01*
X038133Y007167D01*
X038174Y007228D01*
X038189Y007300D01*
X038174Y007372D01*
X038133Y007433D01*
X038072Y007474D01*
X038000Y007489D01*
X037928Y007474D01*
X037867Y007433D01*
X037856Y007417D01*
X037850Y007412D01*
X037710Y007208D01*
X037662Y007223D01*
Y008188D01*
X037708Y008207D01*
X038294Y007621D01*
X038294Y007621D01*
X038331Y007596D01*
X038331Y007596D01*
X038331Y007596D01*
D01*
X038331Y007596D01*
X038331Y007596D01*
X038374Y007588D01*
X039160D01*
Y007390D01*
X038933Y007043D01*
X038622Y006857D01*
X038418D01*
Y006343D01*
X038952D01*
Y006530D01*
X039000Y006615D01*
X039048Y006603D01*
Y006343D01*
X039582D01*
Y006437D01*
X039711D01*
X039728Y006426D01*
X039800Y006411D01*
X039840Y006419D01*
X039842Y006419D01*
X039846Y006420D01*
X039872Y006426D01*
X039882Y006432D01*
X039883Y006433D01*
X040144Y006580D01*
X040150Y006585D01*
X040184Y006603D01*
X040289Y006689D01*
X040374Y006794D01*
X040387Y006817D01*
X040496Y006931D01*
X040753D01*
Y007588D01*
X041021D01*
X041498Y007111D01*
X041535Y007086D01*
X041578Y007078D01*
X041578Y007078D01*
X042910D01*
X042933Y007034D01*
X042926Y007022D01*
X042911Y006950D01*
X042926Y006878D01*
X042967Y006817D01*
X043028Y006776D01*
X043067Y006768D01*
X043067Y006768D01*
X043068Y006768D01*
X043100Y006761D01*
X043110Y006763D01*
X043111Y006763D01*
X043535Y006803D01*
X043897D01*
X043897Y006803D01*
X043940Y006811D01*
X043977Y006836D01*
X043979Y006838D01*
X046200D01*
X046202Y006838D01*
X046272Y006824D01*
X046333Y006783D01*
X046374Y006722D01*
X046388Y006652D01*
X046388Y006650D01*
X046387D01*
X046399Y006556D01*
X046436Y006468D01*
X046493Y006393D01*
X046568Y006336D01*
X046656Y006299D01*
X046750Y006287D01*
Y006288D01*
X047804D01*
X048463Y005629D01*
X048453Y005607D01*
X048453D01*
X048453Y005607D01*
Y005093D01*
X048501D01*
X048537Y004882D01*
X048541Y004871D01*
X048546Y004848D01*
X048585Y004789D01*
X048574Y004768D01*
X048559Y004745D01*
X048192D01*
Y003955D01*
X048745D01*
Y004124D01*
X048989Y004167D01*
X048999Y004171D01*
X049022Y004176D01*
X049083Y004217D01*
X049124Y004278D01*
X049139Y004350D01*
X049124Y004422D01*
X049083Y004483D01*
X049022Y004524D01*
X048999Y004529D01*
X048989Y004533D01*
X048745Y004576D01*
Y004736D01*
X048792Y004746D01*
X048853Y004787D01*
X048894Y004848D01*
X048899Y004871D01*
X048903Y004882D01*
X048939Y005093D01*
X048987D01*
Y005349D01*
X049035Y005362D01*
X049083Y005279D01*
Y005093D01*
X049617D01*
Y005607D01*
X049398D01*
X049028Y005779D01*
X049026Y005779D01*
X049024Y005780D01*
X049021Y005781D01*
X049019Y005782D01*
X049014Y005783D01*
X049009Y005785D01*
X048997Y005786D01*
X048985Y005789D01*
X048983Y005789D01*
X048981Y005789D01*
X048981Y005789D01*
X048620D01*
X047929Y006479D01*
X047893Y006504D01*
X047850Y006512D01*
X047850Y006512D01*
X046750D01*
Y006512D01*
X046697Y006523D01*
X046653Y006553D01*
X046623Y006597D01*
X046613Y006649D01*
X046614Y006650D01*
X046614D01*
X046599Y006757D01*
X046558Y006857D01*
X046492Y006942D01*
X046407Y007008D01*
X046307Y007049D01*
X046200Y007064D01*
Y007062D01*
X044011D01*
X043979Y007101D01*
X043989Y007150D01*
X044129Y007178D01*
X046728D01*
X046728Y007178D01*
X046771Y007186D01*
X046808Y007211D01*
X047729Y008132D01*
X047729Y008132D01*
X047754Y008169D01*
X047754Y008169D01*
X047754Y008169D01*
X047762Y008212D01*
X047762Y008212D01*
Y008265D01*
X047807Y008514D01*
X047856Y008519D01*
X047908Y008395D01*
X047999Y008246D01*
X048113Y008113D01*
X048246Y007999D01*
X048395Y007908D01*
X048556Y007841D01*
X048726Y007800D01*
X048900Y007787D01*
X049074Y007800D01*
X049244Y007841D01*
X049405Y007908D01*
X049554Y007999D01*
X049687Y008113D01*
X049801Y008246D01*
X049886Y008384D01*
X049934Y008370D01*
Y006921D01*
X049890Y006898D01*
X049872Y006909D01*
X049800Y006924D01*
X049728Y006909D01*
X049695Y006887D01*
X049680Y006879D01*
X049675Y006874D01*
X049667Y006868D01*
X049663Y006864D01*
X049354Y006588D01*
X049302Y006557D01*
X049098D01*
Y006043D01*
X049632D01*
Y006230D01*
X049664Y006288D01*
X049887Y006549D01*
X049934Y006532D01*
Y001630D01*
X049886Y001616D01*
X049801Y001754D01*
X049687Y001887D01*
X049554Y002001D01*
X049405Y002092D01*
X049244Y002159D01*
X049074Y002200D01*
X048900Y002213D01*
X048726Y002200D01*
X048556Y002159D01*
X048395Y002092D01*
X048246Y002001D01*
X048113Y001887D01*
X047999Y001754D01*
X047908Y001605D01*
X047841Y001444D01*
X047800Y001274D01*
X047787Y001100D01*
X047800Y000926D01*
X047841Y000756D01*
X047908Y000595D01*
X047999Y000446D01*
X048113Y000313D01*
X048246Y000199D01*
X048384Y000114D01*
X048370Y000066D01*
X045319D01*
Y000585D01*
X045950D01*
X045950Y000585D01*
X046195Y000604D01*
X046434Y000662D01*
X046660Y000756D01*
X046870Y000884D01*
X047056Y001044D01*
X047216Y001230D01*
X047300Y001367D01*
X047327Y001410D01*
X047329Y001414D01*
X047344Y001440D01*
X047438Y001666D01*
X047496Y001905D01*
X047515Y002150D01*
X047515Y002150D01*
Y002400D01*
X047512Y002424D01*
X047513Y002448D01*
X047502Y002497D01*
X047496Y002546D01*
X047486Y002568D01*
X047481Y002592D01*
X047458Y002636D01*
X047439Y002682D01*
X047424Y002702D01*
X047413Y002723D01*
X047380Y002760D01*
X047349Y002799D01*
X047330Y002814D01*
X047314Y002832D01*
X047272Y002859D01*
X047232Y002889D01*
X047210Y002898D01*
X047190Y002911D01*
X047142Y002926D01*
X047096Y002946D01*
X047072Y002949D01*
X047049Y002956D01*
X046999Y002958D01*
X046950Y002965D01*
X046926Y002962D01*
X046902Y002963D01*
X046853Y002952D01*
X046804Y002946D01*
X046782Y002936D01*
X046758Y002931D01*
X046714Y002908D01*
X046668Y002889D01*
X046648Y002874D01*
X046627Y002863D01*
X046590Y002830D01*
X046551Y002799D01*
X046536Y002780D01*
X046518Y002764D01*
X046491Y002722D01*
X046461Y002682D01*
X046452Y002660D01*
X046439Y002640D01*
X046424Y002592D01*
X046404Y002546D01*
X046401Y002522D01*
X046394Y002499D01*
X046281Y001867D01*
X046260Y001840D01*
X046169Y001770D01*
X046064Y001726D01*
X045964Y001713D01*
X045950Y001715D01*
X045319D01*
Y002491D01*
X044018D01*
Y001258D01*
X044004Y001150D01*
X044018Y001042D01*
Y000066D01*
X031032D01*
X031023Y000115D01*
X031132Y000161D01*
X031249Y000251D01*
X031339Y000368D01*
X031396Y000504D01*
X031415Y000650D01*
X031396Y000796D01*
X031339Y000932D01*
X031249Y001049D01*
X031132Y001139D01*
X030996Y001196D01*
X030850Y001215D01*
X024100D01*
X023954Y001196D01*
X023818Y001139D01*
X023701Y001049D01*
X023611Y000932D01*
X023554Y000796D01*
X023535Y000650D01*
X023554Y000504D01*
X023611Y000368D01*
X023701Y000251D01*
X023818Y000161D01*
X023928Y000115D01*
X023918Y000066D01*
X001630D01*
X001616Y000114D01*
X001754Y000199D01*
X001887Y000313D01*
X002001Y000446D01*
X002092Y000595D01*
X002159Y000756D01*
X002200Y000926D01*
X002213Y001100D01*
X002200Y001274D01*
X002159Y001444D01*
X002092Y001605D01*
X002001Y001754D01*
X001887Y001887D01*
X001754Y002001D01*
X001605Y002092D01*
X001444Y002159D01*
X001274Y002200D01*
X001100Y002213D01*
X000926Y002200D01*
X000756Y002159D01*
X000595Y002092D01*
X000446Y002001D01*
X000313Y001887D01*
X000199Y001754D01*
X000114Y001616D01*
X000066Y001630D01*
Y008370D01*
X000114Y008384D01*
X000199Y008246D01*
X000313Y008113D01*
X000446Y007999D01*
X000595Y007908D01*
X000756Y007841D01*
X000926Y007800D01*
X001100Y007787D01*
X001274Y007800D01*
X001444Y007841D01*
X001605Y007908D01*
X001754Y007999D01*
X001887Y008113D01*
X002001Y008246D01*
X002092Y008395D01*
X002159Y008556D01*
X002200Y008726D01*
X002213Y008900D01*
X002200Y009074D01*
X002159Y009244D01*
X002092Y009405D01*
X002001Y009554D01*
X001887Y009687D01*
X001754Y009801D01*
X001616Y009886D01*
X001630Y009934D01*
X028386D01*
X028398Y009901D01*
D02*
G37*
G36*
X038008Y008577D02*
X038051Y008586D01*
X040003D01*
Y007993D01*
X038466D01*
X037911Y008548D01*
X037934Y008592D01*
X038008Y008577D01*
D02*
G37*
G36*
X048384Y009886D02*
X048246Y009801D01*
X048113Y009687D01*
X047999Y009554D01*
X047908Y009405D01*
X047841Y009244D01*
X047800Y009074D01*
X047787Y008900D01*
X047788Y008885D01*
X047745Y008859D01*
X047722Y008874D01*
X047650Y008889D01*
X047578Y008874D01*
X047517Y008833D01*
X047476Y008772D01*
X047461Y008700D01*
X047465Y008684D01*
X047433Y008645D01*
X046705D01*
Y008631D01*
X046645D01*
Y008645D01*
X046336D01*
X045978Y009003D01*
X045974Y009022D01*
X045933Y009083D01*
X045872Y009124D01*
X045800Y009139D01*
X045728Y009124D01*
X045667Y009083D01*
X045626Y009022D01*
X045611Y008950D01*
X045626Y008878D01*
X045667Y008817D01*
X045677Y008810D01*
X045721Y008686D01*
X045693Y008645D01*
X045005D01*
Y008631D01*
X044945D01*
Y008645D01*
X044155D01*
Y008631D01*
X044095D01*
Y008645D01*
X043653D01*
X043550Y008708D01*
X043550Y008708D01*
X043550Y008708D01*
X043548Y008709D01*
X043546Y008710D01*
X043538Y008712D01*
X043531Y008717D01*
X043530Y008717D01*
X043529Y008718D01*
X043527Y008718D01*
X043526Y008719D01*
X043518Y008721D01*
X043511Y008724D01*
X043505Y008724D01*
X043500Y008726D01*
X043499Y008726D01*
X043499Y008726D01*
X043497Y008726D01*
X043495Y008727D01*
X043487Y008726D01*
X043479Y008728D01*
X043249D01*
X043180Y008797D01*
X043177Y008799D01*
X043175Y008802D01*
X043174Y008802D01*
X043174Y008803D01*
X043173Y008804D01*
X043172Y008804D01*
X043153Y008815D01*
X043135Y008827D01*
X043132Y008828D01*
X043129Y008830D01*
X043128Y008830D01*
X043127Y008830D01*
X043126Y008830D01*
X043125Y008831D01*
X043104Y008833D01*
X043082Y008838D01*
X042927D01*
X042872Y008874D01*
X042800Y008889D01*
X042728Y008874D01*
X042667Y008833D01*
X042626Y008772D01*
X042611Y008700D01*
X042615Y008684D01*
X042583Y008645D01*
X042455D01*
Y008092D01*
X042793D01*
X042808Y008044D01*
X042807Y008043D01*
X042766Y007982D01*
X042751Y007910D01*
X042766Y007838D01*
X042807Y007777D01*
X042868Y007736D01*
X042940Y007721D01*
X042968Y007727D01*
X042983Y007728D01*
X043009Y007735D01*
X043012Y007736D01*
X043013Y007736D01*
X043338Y007825D01*
X043674Y007765D01*
X043682Y007765D01*
X043700Y007761D01*
X043772Y007776D01*
X043833Y007817D01*
X043847Y007837D01*
X043897Y007841D01*
X043897Y007841D01*
Y007841D01*
X043901Y007836D01*
X043918Y007815D01*
X043924Y007810D01*
X043928Y007804D01*
X043951Y007789D01*
X043972Y007773D01*
X043979Y007770D01*
X043985Y007766D01*
X044010Y007757D01*
X044035Y007747D01*
X044043Y007746D01*
X044050Y007743D01*
X044076Y007741D01*
X044103Y007738D01*
X044110Y007739D01*
X044118Y007738D01*
X044127Y007740D01*
X044142Y007740D01*
X044168Y007738D01*
X044176Y007740D01*
X044185Y007740D01*
X044210Y007747D01*
X044235Y007752D01*
X044243Y007756D01*
X044251Y007758D01*
X044260Y007763D01*
X044298Y007730D01*
X044297Y007728D01*
X044288Y007660D01*
Y007600D01*
X044289Y007594D01*
X044288Y007588D01*
X044293Y007560D01*
X044297Y007532D01*
X044299Y007527D01*
X044300Y007521D01*
X044312Y007495D01*
X044323Y007469D01*
X044326Y007464D01*
X044329Y007459D01*
X044326Y007421D01*
X044302Y007402D01*
X044039D01*
X043977Y007464D01*
X043940Y007489D01*
X043897Y007497D01*
X043897Y007497D01*
X043703D01*
X043660Y007489D01*
X043623Y007464D01*
X043623Y007464D01*
X043621Y007462D01*
X042814D01*
X042807Y007469D01*
X042771Y007494D01*
X042767Y007494D01*
X042202Y008059D01*
Y008956D01*
X042202Y008956D01*
X042194Y008999D01*
X042169Y009035D01*
X041320Y009885D01*
X041318Y009886D01*
X041333Y009934D01*
X048370D01*
X048384Y009886D01*
D02*
G37*
G36*
X039643Y009648D02*
X039590Y009579D01*
X039554Y009493D01*
X039542Y009400D01*
X039554Y009307D01*
X039590Y009221D01*
X039647Y009147D01*
X039721Y009090D01*
X039785Y009063D01*
X039775Y009014D01*
X038997D01*
X038113Y009057D01*
X038098Y009104D01*
X038153Y009147D01*
X038161Y009156D01*
X038389Y009306D01*
X038389Y009307D01*
X038390Y009307D01*
X038395Y009313D01*
X038402Y009317D01*
X038404Y009319D01*
X038406Y009321D01*
X038779Y009693D01*
X039621D01*
X039643Y009648D01*
D02*
G37*
%LPC*%
G36*
X001885Y007035D02*
X001015D01*
Y006365D01*
X001483D01*
X001843Y006006D01*
Y005025D01*
X001839Y003885D01*
X001765D01*
Y003015D01*
X002435D01*
Y003196D01*
X003580Y003223D01*
X005185D01*
X005185Y003223D01*
X005253Y003232D01*
X005316Y003258D01*
X005370Y003300D01*
X005694Y003623D01*
X005956D01*
X005980Y003579D01*
X005976Y003572D01*
X005961Y003500D01*
X005976Y003428D01*
X005987Y003411D01*
Y003168D01*
X005999Y003106D01*
X006035Y003053D01*
X007803Y001285D01*
X007806Y001283D01*
X007817Y001267D01*
X007878Y001226D01*
X007950Y001211D01*
X008022Y001226D01*
X008083Y001267D01*
X008124Y001328D01*
X008139Y001400D01*
X008124Y001472D01*
X008083Y001533D01*
X008022Y001574D01*
X007998Y001579D01*
X007499Y002050D01*
X006313Y003236D01*
Y003411D01*
X006324Y003428D01*
X006328Y003446D01*
X006372Y003469D01*
X006390Y003462D01*
X006427Y003447D01*
X006494Y003438D01*
X006494Y003438D01*
X016950D01*
X016950Y003438D01*
X017018Y003447D01*
X017081Y003473D01*
X017135Y003515D01*
X017435Y003815D01*
X017477Y003869D01*
X017503Y003932D01*
X017512Y004000D01*
X017503Y004068D01*
X017477Y004131D01*
X017435Y004185D01*
X017381Y004227D01*
X017318Y004253D01*
X017250Y004262D01*
X017182Y004253D01*
X017119Y004227D01*
X017065Y004185D01*
X016841Y003962D01*
X006603D01*
X006495Y004070D01*
X006441Y004112D01*
X006377Y004138D01*
X006309Y004147D01*
X006309Y004147D01*
X005585D01*
X005517Y004138D01*
X005454Y004112D01*
X005400Y004070D01*
X005400Y004070D01*
X005076Y003747D01*
X002435D01*
Y003885D01*
X002367D01*
Y006114D01*
X002363Y006145D01*
X002360Y006175D01*
X002359Y006179D01*
X002358Y006182D01*
X002347Y006210D01*
X002336Y006239D01*
X002333Y006242D01*
X002332Y006245D01*
X002313Y006270D01*
X002295Y006295D01*
X001885Y006728D01*
Y007035D01*
D02*
G37*
G36*
X024050Y004512D02*
X024050Y004512D01*
X018250D01*
X018250Y004512D01*
X018207Y004504D01*
X018171Y004479D01*
X017731Y004039D01*
X017706Y004003D01*
X017698Y003960D01*
X017698Y003960D01*
Y003738D01*
X017628Y003724D01*
X017567Y003683D01*
X017526Y003622D01*
X017511Y003550D01*
X017526Y003478D01*
X017567Y003417D01*
X017616Y003383D01*
X017621Y003377D01*
X017637Y003361D01*
X017637Y003361D01*
X017673Y003336D01*
X017673Y003336D01*
X017673Y003336D01*
D01*
X017673Y003336D01*
X017673Y003336D01*
X017716Y003328D01*
X017759Y003336D01*
X017796Y003361D01*
X017889Y003454D01*
X017889Y003454D01*
X017914Y003491D01*
X017922Y003534D01*
X017922Y003534D01*
Y003914D01*
X018296Y004288D01*
X023978D01*
X024024Y004188D01*
X024026Y004178D01*
X024035Y004165D01*
X024036Y004160D01*
X024048Y004145D01*
X024067Y004117D01*
X024128Y004076D01*
X024200Y004061D01*
X024272Y004076D01*
X024333Y004117D01*
X024374Y004178D01*
X024389Y004250D01*
X024374Y004322D01*
X024333Y004383D01*
X024305Y004402D01*
X024290Y004414D01*
X024285Y004415D01*
X024272Y004424D01*
X024262Y004426D01*
X024097Y004502D01*
X024095Y004502D01*
X024093Y004504D01*
X024091Y004504D01*
X024089Y004505D01*
X024071Y004508D01*
X024054Y004512D01*
X024052Y004512D01*
X024050Y004512D01*
D02*
G37*
G36*
X023615Y002239D02*
X023543Y002224D01*
X023482Y002183D01*
X023441Y002122D01*
X023437Y002103D01*
X023131Y001797D01*
X018822D01*
X018760Y001784D01*
X018707Y001749D01*
X018421Y001463D01*
X018189D01*
X018172Y001474D01*
X018100Y001489D01*
X018028Y001474D01*
X017967Y001433D01*
X017926Y001372D01*
X017911Y001300D01*
X017926Y001228D01*
X017967Y001167D01*
X018028Y001126D01*
X018100Y001111D01*
X018172Y001126D01*
X018189Y001137D01*
X018488D01*
X018551Y001149D01*
X018604Y001185D01*
X018717Y001298D01*
X018764Y001283D01*
X018766Y001277D01*
X018775Y001262D01*
X018824Y001152D01*
X018822Y001134D01*
X018791Y001031D01*
X018772Y000967D01*
X018689Y000813D01*
X018597Y000700D01*
X018597Y000700D01*
X018597D01*
X018592Y000696D01*
X018590Y000695D01*
X018590Y000695D01*
X018590Y000695D01*
X018529Y000621D01*
X018394Y000511D01*
X018240Y000428D01*
X018073Y000378D01*
X017905Y000361D01*
X017900Y000362D01*
X004891D01*
X004289Y000964D01*
X004300Y001050D01*
Y001250D01*
X004289Y001337D01*
X004255Y001419D01*
X004202Y001489D01*
X004132Y001543D01*
X004050Y001576D01*
X003963Y001588D01*
X003875Y001576D01*
X003794Y001543D01*
X003724Y001489D01*
X003670Y001419D01*
X003636Y001337D01*
X003625Y001250D01*
Y001050D01*
X003636Y000963D01*
X003670Y000881D01*
X003724Y000811D01*
X003794Y000757D01*
X003875Y000724D01*
X003963Y000712D01*
X004050Y000724D01*
X004132Y000757D01*
X004158Y000778D01*
X004765Y000171D01*
X004765Y000171D01*
X004802Y000146D01*
X004802Y000146D01*
X004802Y000146D01*
D01*
X004802Y000146D01*
X004802Y000146D01*
X004844Y000138D01*
X004844Y000138D01*
X017900D01*
Y000137D01*
X018074Y000150D01*
X018244Y000191D01*
X018405Y000258D01*
X018554Y000349D01*
X018687Y000463D01*
X018754Y000541D01*
X018758Y000544D01*
X018760Y000547D01*
X018760Y000547D01*
X018851Y000653D01*
X018942Y000802D01*
X019007Y000960D01*
X019009Y000963D01*
X019050Y001133D01*
X019050Y001138D01*
X019105Y001262D01*
X019114Y001277D01*
X019121Y001311D01*
X019126Y001331D01*
X019125Y001332D01*
X019129Y001349D01*
X019114Y001421D01*
X019111Y001426D01*
X019134Y001471D01*
X023199D01*
X023261Y001483D01*
X023314Y001518D01*
X023668Y001872D01*
X023687Y001876D01*
X023748Y001917D01*
X023789Y001978D01*
X023804Y002050D01*
X023789Y002122D01*
X023748Y002183D01*
X023687Y002224D01*
X023615Y002239D01*
D02*
G37*
G36*
X021900D02*
X021882Y002235D01*
X021874Y002235D01*
X021465Y002162D01*
X018350D01*
X018307Y002154D01*
X018271Y002129D01*
X018271Y002129D01*
X017404Y001262D01*
X016166D01*
X015798Y001328D01*
X015783Y001376D01*
X015924Y001517D01*
X016118Y001432D01*
X016128Y001426D01*
X016174Y001417D01*
X016177Y001416D01*
X016177Y001416D01*
X016200Y001411D01*
X016272Y001426D01*
X016333Y001467D01*
X016374Y001528D01*
X016389Y001600D01*
X016374Y001672D01*
X016333Y001733D01*
X016272Y001774D01*
X016239Y001781D01*
X016237Y001782D01*
X016231Y001782D01*
X016200Y001789D01*
X016188Y001786D01*
X015889Y001762D01*
X015881Y001760D01*
X015873Y001759D01*
X015865Y001756D01*
X015857Y001754D01*
X015856Y001754D01*
X015855Y001754D01*
X015852Y001751D01*
X015847Y001750D01*
X015841Y001745D01*
X015833Y001741D01*
X015827Y001735D01*
X015820Y001731D01*
X015820Y001730D01*
X015819Y001729D01*
X015819Y001729D01*
X015416Y001327D01*
X015392Y001290D01*
X015384Y001247D01*
X015384Y001247D01*
Y001053D01*
X015384Y001053D01*
X015392Y001010D01*
X015416Y000973D01*
X015554Y000836D01*
X015554Y000836D01*
X015590Y000811D01*
X015590Y000811D01*
X015590Y000811D01*
D01*
X015590Y000811D01*
X015590Y000811D01*
X015633Y000803D01*
X015633Y000803D01*
X015771D01*
X015876Y000628D01*
X015876Y000628D01*
X015876Y000627D01*
X015895Y000596D01*
X015903Y000587D01*
X015917Y000567D01*
X015978Y000526D01*
X016050Y000511D01*
X016122Y000526D01*
X016183Y000567D01*
X016224Y000628D01*
X016239Y000700D01*
X016224Y000772D01*
X016183Y000833D01*
X016163Y000847D01*
X016154Y000855D01*
X016123Y000874D01*
X016122Y000874D01*
X016122Y000874D01*
X015983Y000958D01*
X015992Y001007D01*
X016166Y001038D01*
X017450D01*
X017450Y001038D01*
X017493Y001046D01*
X017529Y001071D01*
X018396Y001938D01*
X021465D01*
X021874Y001865D01*
X021882Y001865D01*
X021900Y001861D01*
X021972Y001876D01*
X022033Y001917D01*
X022074Y001978D01*
X022089Y002050D01*
X022074Y002122D01*
X022033Y002183D01*
X021972Y002224D01*
X021900Y002239D01*
D02*
G37*
G36*
X017550Y006134D02*
Y006133D01*
X016990D01*
X016990Y006133D01*
X016928Y006121D01*
X016875Y006086D01*
X016853Y006063D01*
X015514D01*
Y006064D01*
X015332Y006049D01*
X015155Y006007D01*
X014986Y005937D01*
X014830Y005841D01*
X014817Y005830D01*
X014803Y005818D01*
X014799Y005816D01*
X014798Y005814D01*
X014691Y005723D01*
X014692Y005722D01*
X014531Y005562D01*
X014483Y005576D01*
X014474Y005622D01*
X014433Y005683D01*
X014372Y005724D01*
X014300Y005739D01*
X014228Y005724D01*
X014211Y005713D01*
X013942D01*
Y005713D01*
X013768Y005700D01*
X013598Y005659D01*
X013437Y005592D01*
X013288Y005501D01*
X013155Y005387D01*
X013041Y005254D01*
X012950Y005105D01*
X012883Y004944D01*
X012842Y004774D01*
X012837Y004700D01*
X012818Y004672D01*
X012803Y004600D01*
X012818Y004528D01*
X012859Y004467D01*
X012920Y004426D01*
X012992Y004411D01*
X013064Y004426D01*
X013125Y004467D01*
X013166Y004528D01*
X013181Y004600D01*
X013166Y004672D01*
X013161Y004680D01*
X013168Y004754D01*
X013213Y004902D01*
X013286Y005038D01*
X013384Y005158D01*
X013504Y005256D01*
X013640Y005329D01*
X013788Y005374D01*
X013936Y005388D01*
X013942Y005387D01*
X014211D01*
X014228Y005376D01*
X014300Y005361D01*
X014307Y005363D01*
X014320Y005350D01*
X014336Y005320D01*
X014300Y005283D01*
X014264Y005230D01*
X014252Y005168D01*
Y005091D01*
X014195Y004439D01*
X014176Y004410D01*
X014161Y004338D01*
X014176Y004266D01*
X014217Y004204D01*
X014278Y004164D01*
X014350Y004149D01*
X014422Y004164D01*
X014483Y004204D01*
X014524Y004266D01*
X014528Y004285D01*
X014530Y004288D01*
X014566Y004340D01*
X014578Y004403D01*
Y004800D01*
X014625Y004816D01*
X014643Y004793D01*
X014718Y004736D01*
X014806Y004699D01*
X014900Y004687D01*
X014900Y004687D01*
X016209D01*
X016225Y004676D01*
X016297Y004661D01*
X016370Y004676D01*
X016431Y004717D01*
X016472Y004778D01*
X016486Y004850D01*
X016472Y004922D01*
X016431Y004983D01*
X016370Y005024D01*
X016297Y005039D01*
X016225Y005024D01*
X016209Y005013D01*
X015074D01*
X014889Y005050D01*
X014874Y005122D01*
X014833Y005183D01*
X014772Y005224D01*
X014726Y005233D01*
X014712Y005281D01*
X014922Y005492D01*
X014927Y005498D01*
X015013Y005569D01*
X015048Y005598D01*
X015193Y005675D01*
X015351Y005723D01*
X015507Y005738D01*
X015514Y005737D01*
X016920D01*
X016983Y005749D01*
X017036Y005785D01*
X017058Y005807D01*
X017550D01*
X017557Y005809D01*
X017714Y005793D01*
X017871Y005745D01*
X018016Y005668D01*
X018143Y005563D01*
X018248Y005436D01*
X018325Y005291D01*
X018373Y005134D01*
X018381Y005050D01*
X018376Y005042D01*
X018361Y004970D01*
X018376Y004898D01*
X018417Y004837D01*
X018478Y004796D01*
X018550Y004782D01*
X018622Y004796D01*
X018683Y004837D01*
X018724Y004898D01*
X018739Y004970D01*
X018724Y005042D01*
X018706Y005070D01*
X018699Y005152D01*
X018657Y005330D01*
X018587Y005498D01*
X018491Y005654D01*
X018373Y005793D01*
X018234Y005912D01*
X018078Y006007D01*
X017910Y006077D01*
X017732Y006119D01*
X017550Y006134D01*
D02*
G37*
G36*
X027000Y009708D02*
X026907Y009696D01*
X026821Y009660D01*
X026747Y009603D01*
X026690Y009529D01*
X026654Y009443D01*
X026642Y009350D01*
X026654Y009257D01*
X026690Y009171D01*
X026747Y009097D01*
X026821Y009040D01*
X026907Y009004D01*
X027000Y008992D01*
X027093Y009004D01*
X027179Y009040D01*
X027253Y009097D01*
X027310Y009171D01*
X027346Y009257D01*
X027358Y009350D01*
X027346Y009443D01*
X027310Y009529D01*
X027253Y009603D01*
X027179Y009660D01*
X027093Y009696D01*
X027000Y009708D01*
D02*
G37*
G36*
X027450Y005714D02*
X027337Y005699D01*
X027231Y005655D01*
X027140Y005586D01*
X027071Y005495D01*
X027027Y005390D01*
X027012Y005276D01*
X027027Y005163D01*
X027071Y005058D01*
X027140Y004967D01*
X027231Y004897D01*
X027337Y004854D01*
X027450Y004839D01*
X027563Y004854D01*
X027669Y004897D01*
X027760Y004967D01*
X027829Y005058D01*
X027873Y005163D01*
X027888Y005276D01*
X027873Y005390D01*
X027829Y005495D01*
X027760Y005586D01*
X027669Y005655D01*
X027563Y005699D01*
X027450Y005714D01*
D02*
G37*
G36*
X031185Y006830D02*
X031039Y006811D01*
X030903Y006754D01*
X030786Y006664D01*
X030696Y006547D01*
X030639Y006411D01*
X030620Y006265D01*
Y005800D01*
X030620Y005800D01*
X030639Y005555D01*
X030697Y005316D01*
X030697Y005316D01*
X030697Y005316D01*
X030758Y005121D01*
X030724Y005084D01*
X030700Y005089D01*
X030628Y005074D01*
X030611Y005063D01*
X029600D01*
Y005064D01*
X029451Y005049D01*
X029308Y005006D01*
X029176Y004935D01*
X029060Y004840D01*
X028965Y004724D01*
X028894Y004592D01*
X028851Y004449D01*
X028836Y004300D01*
X028837D01*
X028838Y004294D01*
X028824Y004186D01*
X028780Y004081D01*
X028710Y003990D01*
X028619Y003920D01*
X028514Y003876D01*
X028406Y003862D01*
X028400Y003863D01*
X024339D01*
X024322Y003874D01*
X024250Y003889D01*
X024178Y003874D01*
X024117Y003833D01*
X024076Y003772D01*
X024061Y003700D01*
X024076Y003628D01*
X024117Y003567D01*
X024178Y003526D01*
X024250Y003511D01*
X024322Y003526D01*
X024339Y003537D01*
X028037D01*
X028042Y003487D01*
Y003487D01*
X028042D01*
D01*
X027978Y003474D01*
X027917Y003433D01*
X027876Y003372D01*
X027861Y003300D01*
X027876Y003228D01*
X027917Y003167D01*
X027978Y003126D01*
X028050Y003111D01*
X028068Y003115D01*
X028076Y003115D01*
X028485Y003188D01*
X033537D01*
X033537Y003188D01*
X033580Y003196D01*
X033617Y003221D01*
X034052Y003656D01*
X041618D01*
X041618Y003656D01*
X041661Y003664D01*
X041697Y003688D01*
X042986Y004977D01*
X043365Y005252D01*
X043369Y005257D01*
X043383Y005267D01*
X043424Y005328D01*
X043439Y005400D01*
X043424Y005472D01*
X043383Y005533D01*
X043322Y005574D01*
X043250Y005589D01*
X043178Y005574D01*
X043117Y005533D01*
X043107Y005519D01*
X043102Y005515D01*
X042827Y005136D01*
X041571Y003880D01*
X034005D01*
X034005Y003880D01*
X033962Y003871D01*
X033926Y003847D01*
X033491Y003412D01*
X028485D01*
X028076Y003485D01*
X028076D01*
X028058Y003487D01*
X028063Y003537D01*
X028400D01*
Y003536D01*
X028549Y003551D01*
X028692Y003594D01*
X028824Y003665D01*
X028940Y003760D01*
X029035Y003876D01*
X029106Y004008D01*
X029149Y004151D01*
X029164Y004300D01*
X029163D01*
X029162Y004306D01*
X029176Y004414D01*
X029220Y004519D01*
X029290Y004610D01*
X029381Y004680D01*
X029486Y004724D01*
X029594Y004738D01*
X029600Y004737D01*
X030611D01*
X030628Y004726D01*
X030700Y004711D01*
X030772Y004726D01*
X030833Y004767D01*
X030874Y004828D01*
X030880Y004856D01*
X030881Y004857D01*
X030928Y004869D01*
X031079Y004694D01*
X031265Y004534D01*
X031475Y004406D01*
X031701Y004312D01*
X031940Y004254D01*
X032185Y004235D01*
X032185Y004235D01*
X038750D01*
X038896Y004254D01*
X039032Y004311D01*
X039149Y004401D01*
X039239Y004518D01*
X039296Y004654D01*
X039315Y004800D01*
X039296Y004946D01*
X039239Y005082D01*
X039149Y005199D01*
X039032Y005289D01*
X038896Y005346D01*
X038750Y005365D01*
X032185D01*
X032171Y005363D01*
X032071Y005376D01*
X031966Y005420D01*
X031875Y005490D01*
X031805Y005581D01*
X031761Y005686D01*
X031748Y005786D01*
X031750Y005800D01*
Y006265D01*
X031731Y006411D01*
X031674Y006547D01*
X031584Y006664D01*
X031467Y006754D01*
X031331Y006811D01*
X031185Y006830D01*
D02*
G37*
%LPD*%
D10*
X045950Y001150D02*
G03*
X046950Y002150I000000J001000D01*
G01*
X037200Y003150D02*
G03*
X036200Y002150I000000J-001000D01*
G01*
X027237Y002537D02*
G03*
X026529Y002830I-000707J-000707D01*
G01*
X027450Y002324D02*
G03*
X027824Y001950I000374J000000D01*
G01*
X031185Y005800D02*
G03*
X032185Y004800I001000J000000D01*
G01*
X032483Y008255D02*
X034100Y006638D01*
X007500Y002850D02*
X010500Y002830D01*
X007500Y002850D02*
X010500Y002830D01*
X034100Y002000D02*
Y003000D01*
X007520Y002830D02*
X010500D01*
X046816Y001650D02*
X046950Y002400D01*
X042600Y001741D02*
Y003150D01*
X027450Y002324D02*
X031176Y001950D01*
X026788Y002796D02*
X027450Y002324D01*
X044569Y001150D02*
X045950D01*
X046950Y002150D02*
Y002400D01*
X042600Y003150D02*
X044550D01*
X041650D02*
X042600D01*
Y001150D02*
Y003150D01*
X017650Y002830D02*
X018300D01*
X015300D02*
X017650D01*
X024100Y000650D02*
X030850D01*
X037200Y003150D02*
X037600D01*
X041650D01*
X036200Y001950D02*
Y002150D01*
X018300Y002830D02*
X026529D01*
X027237Y002537D02*
X027450Y002324D01*
X010500Y002830D02*
X015300D01*
X034100Y002000D02*
Y003000D01*
X034150Y001950D02*
X036200D01*
X027824D02*
X034050D01*
X034100Y002000D02*
X034150Y001950D01*
X032483Y008255D02*
X034100Y006638D01*
X007520Y002830D02*
X010500D01*
X007500Y002850D02*
X007520Y002830D01*
X031185Y005800D02*
Y006265D01*
X032185Y004800D02*
X038750D01*
D11*
X039800Y006600D02*
G03*
X040378Y007178I000000J000578D01*
G01*
X046500Y006650D02*
G03*
X046750Y006400I000250J000000D01*
G01*
X046500Y006650D02*
G03*
X046200Y006950I-000300J000000D01*
G01*
X018900Y000995D02*
G03*
X018940Y001166I-000950J000312D01*
G01*
X018679Y000623D02*
G03*
X018900Y000995I-000729J000684D01*
G01*
X017900Y000250D02*
G03*
X018679Y000623I000000J001000D01*
G01*
X048528Y004291D02*
X048933Y004423D01*
X048528Y004291D02*
X048954Y004275D01*
X048528Y004409D02*
X048954Y004425D01*
X048528Y004409D02*
X048933Y004277D01*
X048543Y004203D02*
X048918Y004418D01*
X048543Y004203D02*
X048969Y004278D01*
X048543Y004497D02*
X048969Y004422D01*
X048543Y004497D02*
X048918Y004282D01*
X048525Y004350D02*
X048943Y004425D01*
X048525Y004350D02*
X048943Y004275D01*
X048575Y005325D02*
X048788Y004951D01*
X048575Y005325D02*
X048648Y004901D01*
X048793D02*
X048865Y005325D01*
X048652Y004951D02*
X048865Y005325D01*
X048720Y005345D02*
X048795Y004927D01*
X048645D02*
X048720Y005345D01*
X049468Y006396D02*
X049800Y006735D01*
X049468Y006396D02*
X049742Y006783D01*
X049468Y006396D02*
X049849Y006679D01*
X049572Y006352D02*
X049800Y006735D01*
X049572Y006352D02*
X049733Y006768D01*
X049572Y006352D02*
X049861Y006691D01*
X049421Y006497D02*
X049800Y006735D01*
X049421Y006497D02*
X049755Y006795D01*
X049421Y006497D02*
X049834Y006668D01*
X049463Y006398D02*
X049743Y006784D01*
X049463Y006398D02*
X049849Y006678D01*
X015801Y002329D02*
X016100Y001950D01*
X015801Y002329D02*
X016155Y002001D01*
X015801Y002329D02*
X016038Y001908D01*
X017126Y005468D02*
X017512Y005188D01*
X017232Y005574D02*
X017512Y005188D01*
X018940Y001166D02*
Y001349D01*
X018867Y001333D02*
X018940Y001166D01*
X019013Y001333D01*
X047575Y008693D02*
X047650Y008275D01*
X047725Y008693D01*
X041219Y007881D02*
X041350Y007750D01*
X041219Y007881D02*
X041391Y007813D01*
X041219Y007881D02*
X041287Y007709D01*
X037710Y007010D02*
X038000Y007300D01*
X037710Y007010D02*
X037942Y007348D01*
X037710Y007010D02*
X038048Y007242D01*
X041413Y006213D02*
X041750Y006550D01*
X041413Y006213D02*
X041693Y006599D01*
X041413Y006213D02*
X041799Y006493D01*
X043100Y006950D02*
X043530Y006915D01*
X043100Y006875D02*
X043530Y006915D01*
X043113Y007024D02*
X043530Y006915D01*
X046057Y005725D02*
X046475Y005800D01*
X046057Y005875D02*
X046475Y005800D01*
X046658D02*
X047150Y005900D01*
X046658Y005800D02*
X047130Y005972D01*
X046658Y005800D02*
X047159Y005826D01*
X042940Y007910D02*
X043371Y007950D01*
X042953Y007836D02*
X043371Y007950D01*
X042940Y007985D02*
X043371Y007950D01*
X043275D02*
X043700D01*
X043275D02*
X043693Y008025D01*
X043275Y007950D02*
X043693Y007875D01*
X028057Y003225D02*
X028475Y003300D01*
X028057Y003375D02*
X028475Y003300D01*
X024050Y004400D02*
X024243Y004312D01*
X024050Y004400D02*
X024138Y004207D01*
X015737Y001075D02*
X016156Y001150D01*
X015737Y001225D02*
X016156Y001150D01*
X021475Y002050D02*
X021893Y002125D01*
X021475Y002050D02*
X021893Y001975D01*
X015835Y000915D02*
X016050Y000700D01*
X015835Y000915D02*
X016096Y000759D01*
X015835Y000915D02*
X015991Y000654D01*
X015898Y001650D02*
X016200Y001600D01*
X015898Y001650D02*
X016203Y001675D01*
X015898Y001650D02*
X016179Y001528D01*
X039828Y006531D02*
X040089Y006677D01*
X039790Y006674D02*
X040089Y006677D01*
X041763Y005913D02*
X042100Y006250D01*
X041763Y005913D02*
X042043Y006299D01*
X041763Y005913D02*
X042149Y006193D01*
X042913Y005063D02*
X043193Y005449D01*
X042913Y005063D02*
X043299Y005343D01*
X048473Y004284D02*
X048950Y004350D01*
X048473Y004416D02*
X048950Y004350D01*
X048497Y004186D02*
X048950Y004350D01*
X048497Y004514D02*
X048950Y004350D01*
X049531Y004468D02*
X049850Y004669D01*
X049572Y004415D02*
X049850Y004669D01*
X049501Y004527D02*
X049850Y004669D01*
X049649Y004350D02*
X049850Y004669D01*
X049476Y004625D02*
X049850Y004669D01*
X048981Y005677D02*
X049340Y005350D01*
X048981Y005677D02*
X049421Y005472D01*
X048981Y005677D02*
X049226Y005258D01*
X048575Y005325D02*
X048720Y004920D01*
X048865Y005325D01*
X049375Y006300D02*
X049774Y006709D01*
X049492Y006212D02*
X049774Y006709D01*
X049284Y006415D02*
X049774Y006709D01*
X048745Y006300D02*
X049144Y005891D01*
X048654Y006185D02*
X049144Y005891D01*
X048862Y006388D02*
X049144Y005891D01*
X040300Y006889D02*
X040358Y007286D01*
X040213Y007281D02*
X040300Y006889D01*
X040496Y007240D01*
X040116Y007246D02*
X040300Y006889D01*
X040578Y007179D01*
X038950Y006865D02*
X039515Y007286D01*
X038950Y006865D02*
X039417Y007393D01*
X038950Y006865D02*
X039590Y007161D01*
X038950Y006865D02*
X039337Y007454D01*
X038950Y006865D02*
X039625Y007067D01*
X038695Y006600D02*
X039094Y007009D01*
X038812Y006512D02*
X039094Y007009D01*
X038604Y006715D02*
X039094Y007009D01*
X028114Y009260D02*
X028426Y009776D01*
X027910Y009464D02*
X028426Y009776D01*
X028205Y009216D02*
X028426Y009776D01*
X027866Y009555D02*
X028426Y009776D01*
X037925Y009257D02*
X038327Y009400D01*
X037925Y009543D02*
X038327Y009400D01*
X037970Y009165D02*
X038327Y009400D01*
X037970Y009635D02*
X038327Y009400D01*
X035925Y009257D02*
X036327Y009400D01*
X035925Y009543D02*
X036327Y009400D01*
X035970Y009165D02*
X036327Y009400D01*
X035970Y009635D02*
X036327Y009400D01*
X039371Y007286D02*
X039535D01*
X038685Y006600D02*
X039371Y007286D01*
X041150Y005950D02*
X041750Y006550D01*
X037710Y007010D02*
X038000Y007300D01*
X037710Y006616D02*
Y007010D01*
Y006616D02*
X038376Y005950D01*
X041150D01*
X037550Y006550D02*
Y008297D01*
Y006550D02*
X038350Y005750D01*
X037013Y008835D02*
X037550Y008297D01*
X041600Y005750D02*
X042100Y006250D01*
X038350Y005750D02*
X041600D01*
X016150Y001650D02*
X016200Y001600D01*
X015898Y001650D02*
X016150D01*
X015496Y001247D02*
X015898Y001650D01*
X015633Y000915D02*
X015835D01*
X016050Y000700D01*
X015496Y001053D02*
Y001247D01*
Y001053D02*
X015633Y000915D01*
X018350Y002050D02*
X021900D01*
X017450Y001150D02*
X018350Y002050D01*
X015731Y001150D02*
X017450D01*
X018250Y004400D02*
X024050D01*
X024200Y004250D01*
X017716Y003440D02*
X017810Y003534D01*
Y003960D01*
X017465Y003647D02*
X017650Y003832D01*
Y005050D01*
X017465Y003399D02*
X017650Y003214D01*
X017465Y003399D02*
Y003647D01*
X017700Y003456D02*
Y003550D01*
Y003456D02*
X017716Y003440D01*
X017650Y002830D02*
Y003214D01*
X017810Y003960D02*
X018250Y004400D01*
X028050Y003300D02*
X033537D01*
X034005Y003768D01*
X041618D01*
X043250Y005400D01*
X004844Y000250D02*
X017900D01*
X003963Y001132D02*
Y001150D01*
Y001132D02*
X004844Y000250D01*
X017175Y005525D02*
X017650Y005050D01*
X041578Y007190D02*
X043760D01*
X041068Y007700D02*
X041578Y007190D01*
X042980Y007950D02*
X043700D01*
X042940Y007910D02*
X042980Y007950D01*
X046728Y007290D02*
X047650Y008212D01*
X043897Y007385D02*
X043992Y007290D01*
X046728D01*
X043135Y006915D02*
X043897D01*
X043100Y006950D02*
X043135Y006915D01*
X043897D02*
X043932Y006950D01*
X047050Y005800D02*
X047150Y005900D01*
X046050Y005800D02*
X047050D01*
X041241Y009805D02*
X042090Y008956D01*
X038732Y009805D02*
X041241D01*
X038327Y009400D02*
X038732Y009805D01*
X037900Y009400D02*
X038327D01*
X036900D02*
X038419Y007881D01*
X037079Y008995D02*
X038374Y007700D01*
X036666Y008835D02*
X037013D01*
X036506Y008995D02*
X036666Y008835D01*
X035732Y008995D02*
X036506D01*
X035495Y009232D02*
Y009605D01*
X035300Y009800D02*
X035495Y009605D01*
Y009232D02*
X035732Y008995D01*
X033696Y009800D02*
X035300D01*
X041219Y007881D02*
X041350Y007750D01*
X038419Y007881D02*
X041219D01*
X036732Y008995D02*
X037079D01*
X036327Y009400D02*
X036732Y008995D01*
X038374Y007700D02*
X041068D01*
X035900Y009400D02*
X036327D01*
X042090Y008013D02*
Y008956D01*
X042768Y007350D02*
X043668D01*
X042728Y007390D02*
X042768Y007350D01*
X042713Y007390D02*
X042728D01*
X042090Y008013D02*
X042713Y007390D01*
X043703Y007385D02*
X043897D01*
X043668Y007350D02*
X043703Y007385D01*
X043932Y006950D02*
X046200D01*
X043760Y007190D02*
X043800Y007150D01*
X033691Y009805D02*
X033696Y009800D01*
X033009Y009805D02*
X033691D01*
X042800Y007600D02*
X042850D01*
X047650Y008212D02*
Y008700D01*
X046750Y006400D02*
X047850D01*
X018940Y001166D02*
Y001349D01*
X040378Y007178D02*
Y007286D01*
X016100Y001950D02*
Y002030D01*
X015300Y002830D02*
X016100Y002030D01*
X049365Y006300D02*
X049800Y006735D01*
X048735Y006300D02*
X049185Y005850D01*
X049550D01*
X049850Y005550D01*
Y004669D02*
Y005550D01*
X049531Y004350D02*
X049850Y004669D01*
X048720Y004920D02*
Y005350D01*
X049307D02*
X049350D01*
X048981Y005677D02*
X049307Y005350D01*
X048573Y005677D02*
X048981D01*
X047850Y006400D02*
X048573Y005677D01*
X048468Y004350D02*
X048950D01*
X032980Y009776D02*
X033009Y009805D01*
X028000Y009350D02*
X028426Y009776D01*
X032980D01*
D13*
X018550Y004970D02*
G03*
X017550Y005970I-001000J000000D01*
G01*
X014914Y005700D02*
G03*
X014807Y005607I000600J-000800D01*
G01*
X015514Y005900D02*
G03*
X014914Y005700I000000J-001000D01*
G01*
X019900Y009215D02*
G03*
X018900Y008215I000000J-001000D01*
G01*
X018300Y002830D02*
G03*
X018900Y003430I000000J000600D01*
G01*
X014700Y005050D02*
G03*
X014900Y004850I000200J000000D01*
G01*
X013942Y005550D02*
G03*
X012992Y004600I000000J-000950D01*
G01*
X028400Y003700D02*
G03*
X029000Y004300I000000J000600D01*
G01*
X029600Y004900D02*
G03*
X029000Y004300I000000J-000600D01*
G01*
X029975Y004900D02*
X030700D01*
X007385Y001933D02*
X007950Y001400D01*
X006150Y003168D02*
Y003500D01*
X040699Y008416D02*
X041400Y008150D01*
X041264Y008286D02*
X041400Y008150D01*
X040627Y008286D02*
X041400Y008150D01*
X041264Y008286D02*
X041400Y008150D01*
X040419Y008092D02*
X041400Y008150D01*
X041264Y008286D02*
X041400Y008150D01*
X040627Y008286D02*
X041400Y008150D01*
X041264Y008286D02*
X041400Y008150D01*
X042882Y009353D02*
X043300Y008850D01*
Y008982D01*
X042850Y009431D02*
X043300Y008850D01*
Y008982D01*
X042968Y009431D02*
X043300Y008850D01*
Y008982D01*
X043069Y009491D02*
X043300Y008850D01*
Y008982D01*
X042300Y008100D02*
X042850Y007600D01*
X013942Y005550D02*
X014300D01*
X014350Y004338D02*
X014415Y005084D01*
X039325Y006600D02*
X039800D01*
X039315D02*
X039800D01*
X043818Y008369D02*
X044150Y008000D01*
X043918Y008428D02*
X044150Y008000D01*
X043736Y008286D02*
X044150Y008000D01*
X043868Y008235D02*
X044150Y008000D01*
X042300Y008881D02*
X042732Y009431D01*
X042300Y008881D02*
X042635Y009496D01*
X042300Y008881D02*
X042817Y009352D01*
X042968Y009431D02*
X043300Y008982D01*
X042882Y009353D02*
X043300Y008982D01*
X043069Y009491D02*
X043300Y008982D01*
X042968Y009431D02*
X043582D01*
X042979Y009315D02*
X043582Y009431D01*
X042979Y009548D02*
X043582Y009431D01*
X042968D02*
X043573Y009548D01*
X043001Y009320D02*
X043573Y009548D01*
X042957Y009548D02*
X043573Y009548D01*
X042968Y009431D02*
X043573Y009315D01*
X042957Y009315D02*
X043573Y009315D01*
X043001Y009543D02*
X043573Y009315D01*
X042968Y009431D02*
X043700D01*
X042977Y009315D02*
X043700Y009431D01*
X042977Y009548D02*
X043700Y009431D01*
X043818Y008369D02*
X044103Y008000D01*
X043736Y008286D02*
X044103Y008000D01*
X043918Y008428D02*
X044103Y008000D01*
X043818Y009431D02*
X044432D01*
X043829Y009315D02*
X044432Y009431D01*
X043829Y009548D02*
X044432Y009431D01*
X043818D02*
X044423Y009548D01*
X043851Y009320D02*
X044423Y009548D01*
X043807Y009548D02*
X044423Y009548D01*
X043818Y009431D02*
X044423Y009315D01*
X043807Y009315D02*
X044423Y009315D01*
X043851Y009543D02*
X044423Y009315D01*
X043818Y009431D02*
X044550D01*
X043827Y009315D02*
X044550Y009431D01*
X043827Y009548D02*
X044550Y009431D01*
X042850D02*
X043582D01*
X042850D02*
X043573Y009548D01*
X042850Y009431D02*
X043573Y009315D01*
X044668Y009431D02*
X045282D01*
X044679Y009315D02*
X045282Y009431D01*
X044679Y009548D02*
X045282Y009431D01*
X044668D02*
X045273Y009548D01*
X044701Y009320D02*
X045273Y009548D01*
X044657Y009548D02*
X045273Y009548D01*
X044668Y009431D02*
X045273Y009315D01*
X044657Y009315D02*
X045273Y009315D01*
X044701Y009543D02*
X045273Y009315D01*
X044668Y009431D02*
X045400D01*
X044677Y009315D02*
X045400Y009431D01*
X044677Y009548D02*
X045400Y009431D01*
X043700D02*
X044432D01*
X043700D02*
X044423Y009548D01*
X043700Y009431D02*
X044423Y009315D01*
X044550Y009431D02*
X045282D01*
X044550D02*
X045273Y009548D01*
X044550Y009431D02*
X045273Y009315D01*
X045518Y009431D02*
X046132D01*
X045529Y009315D02*
X046132Y009431D01*
X045529Y009548D02*
X046132Y009431D01*
X045518D02*
X046123Y009548D01*
X045551Y009320D02*
X046123Y009548D01*
X045507Y009548D02*
X046123Y009548D01*
X045518Y009431D02*
X046123Y009315D01*
X045507Y009315D02*
X046123Y009315D01*
X045551Y009543D02*
X046123Y009315D01*
X045518Y009431D02*
X046250D01*
X045527Y009315D02*
X046250Y009431D01*
X045527Y009548D02*
X046250Y009431D01*
X045800Y008950D02*
X046132Y008369D01*
X045800Y008950D02*
X046228Y008435D01*
X045800Y008950D02*
X046026Y008320D01*
X046368Y009431D02*
X046982D01*
X046379Y009315D02*
X046982Y009431D01*
X046379Y009548D02*
X046982Y009431D01*
X046368D02*
X046973Y009548D01*
X046401Y009320D02*
X046973Y009548D01*
X046357Y009548D02*
X046973Y009548D01*
X046368Y009431D02*
X046973Y009315D01*
X046357Y009315D02*
X046973Y009315D01*
X046401Y009543D02*
X046973Y009315D01*
X046368Y009431D02*
X047100D01*
X046377Y009315D02*
X047100Y009431D01*
X046377Y009548D02*
X047100Y009431D01*
X045400D02*
X046132D01*
X045400D02*
X046123Y009548D01*
X045400Y009431D02*
X046123Y009315D01*
X046250Y009431D02*
X046982D01*
X046250D02*
X046973Y009548D01*
X046250Y009431D02*
X046973Y009315D01*
X040397Y008286D02*
X041264D01*
X040419Y008092D02*
X041264Y008286D01*
X040419Y008480D02*
X041264Y008286D01*
X039325Y006600D02*
X039800D01*
X039315D02*
X039800D01*
X014350Y004338D02*
X014415Y004403D01*
X015514Y005900D02*
X016920D01*
X016990Y005970D02*
X017550D01*
X024250Y003700D02*
X028400D01*
X016920Y005900D02*
X016990Y005970D01*
X041264Y008286D02*
X041400Y008150D01*
X040378Y008286D02*
X041264D01*
X043868Y008235D02*
X044103Y008000D01*
X044150D01*
X045800Y008950D02*
X046250Y008500D01*
Y008369D02*
Y008500D01*
X014500Y005300D02*
X014807Y005607D01*
X014415Y004403D02*
Y005168D01*
X014500Y005253D01*
Y005300D01*
X013942Y005550D02*
X014300D01*
X042300Y008100D02*
X042800Y007600D01*
X042300Y008100D02*
Y008881D01*
X042850Y009431D01*
Y007600D02*
X044150D01*
X018100Y001300D02*
X018488D01*
X018822Y001634D01*
X023199D01*
X023615Y002050D01*
X043300Y008850D02*
Y008982D01*
X042850Y009431D02*
X043300Y008982D01*
X046250Y009431D02*
X047100D01*
X045400D02*
X046250D01*
X044550D02*
X045400D01*
X043700D02*
X044550D01*
X042850D02*
X043700D01*
X019900Y009215D02*
X021265D01*
X018900Y006250D02*
Y008215D01*
X014900Y004850D02*
X016297D01*
X006150Y003168D02*
Y003500D01*
Y003168D02*
X007918Y001400D01*
X007934Y001416D02*
X007950Y001400D01*
X018900Y003430D02*
Y003900D01*
X029600Y004900D02*
X030700D01*
D14*
X023062Y009500D02*
G03*
X022350Y008788I000000J-000712D01*
G01*
X031698Y007600D02*
X032000D01*
X035925Y008450D02*
X036950D01*
X037950Y008850D02*
X038992Y008800D01*
X040900Y008798D02*
Y009400D01*
X001450Y004738D02*
Y005913D01*
X001313Y003550D02*
X001450Y004752D01*
X001313Y003450D02*
X001450Y003587D01*
Y005913D01*
X038017Y008800D02*
X040771D01*
X040836Y008735D01*
X038008Y008791D02*
X038017Y008800D01*
X040900Y008798D02*
Y009400D01*
X040836Y008735D02*
X040900Y008798D01*
X037950Y008850D02*
X038008Y008791D01*
X034600Y008450D02*
X036950D01*
X023062Y009500D02*
X024450D01*
X025600Y008350D01*
X029050D01*
X030216Y009516D01*
X033534D01*
X034600Y008450D01*
X033950Y007900D02*
X036000D01*
X031698Y007600D02*
X032000D01*
X030510Y008788D02*
X031698Y007600D01*
X030510Y008788D02*
Y008850D01*
D15*
X016950Y003700D02*
X017250Y004000D01*
X044150Y008000D02*
X044432Y008369D01*
X044150Y008000D02*
X044472Y008369D01*
X044550Y007600D02*
X045887Y007660D01*
X042968Y008369D02*
X043582D01*
X042968D02*
X043700D01*
X043818D02*
X044432D01*
X043818D02*
X044432D01*
X043818D02*
X044472D01*
X043818D02*
X044472D01*
X042850D02*
X043582D01*
X044668D02*
X045282D01*
X044668D02*
X045400D01*
X044103Y008000D02*
X044432Y008369D01*
X043700D02*
X044432D01*
X044550D02*
X045282D01*
X045518D02*
X046132D01*
X045518D02*
X046250D01*
X046391Y007660D01*
X046368Y008369D02*
X046982D01*
X046368D02*
X046982D01*
X046368D02*
X047100D01*
X045400D02*
X046132D01*
X046391Y007660D02*
X046982Y008369D01*
X046250D02*
X046982D01*
X001550Y006700D02*
X002105Y006114D01*
X002100Y003450D02*
X003577Y003485D01*
X002100Y003550D02*
X002105Y005025D01*
X001519Y006700D02*
X002105Y006114D01*
Y003485D02*
X005185D01*
X001450Y006700D02*
X001519D01*
X002105Y003485D02*
Y006114D01*
X006494Y003700D02*
X016950D01*
X005185Y003485D02*
X005585Y003885D01*
X006309D01*
X006494Y003700D01*
X016950D02*
X017250Y004000D01*
X044103Y008000D02*
X044472Y008369D01*
X044550Y007660D02*
X046391D01*
X044550Y007600D02*
Y007660D01*
X046391D02*
X047100Y008369D01*
X046250D02*
X047100D01*
X045400D02*
X046250D01*
X044550D02*
X045400D01*
X044472D02*
X044550D01*
X043700D02*
X044472D01*
X042850D02*
X043700D01*
D16*
X042968D02*
X043192Y008590D01*
X043088Y008293D02*
X043192Y008590D01*
X042894Y008489D02*
X043192Y008590D01*
X042968Y008369D02*
X043582D01*
X042984Y008228D02*
X043582Y008369D01*
X042984Y008509D02*
X043582Y008369D01*
X042968D02*
X043192Y008590D01*
X043088Y008293D02*
X043192Y008590D01*
X042894Y008489D02*
X043192Y008590D01*
X042968Y008369D02*
X043632Y008501D01*
X043010Y008233D02*
X043632Y008501D01*
X042955Y008509D02*
X043632Y008501D01*
X042968Y008369D02*
X043192Y008590D01*
X043088Y008293D02*
X043192Y008590D01*
X042894Y008489D02*
X043192Y008590D01*
X042968Y008369D02*
X043493Y008258D01*
X042958Y008227D02*
X043493Y008258D01*
X043015Y008502D02*
X043493Y008258D01*
X042968Y008369D02*
X043082Y008700D01*
X043108Y008350D01*
X042846Y008441D02*
X043082Y008700D01*
X042968Y008369D02*
X043192Y008590D01*
X043088Y008293D02*
X043192Y008590D01*
X042894Y008489D02*
X043192Y008590D01*
X042968Y008369D02*
X043192Y008590D01*
X043088Y008293D02*
X043192Y008590D01*
X042894Y008489D02*
X043192Y008590D01*
X042968Y008369D02*
X043479Y008590D01*
X043041Y008247D02*
X043479Y008590D01*
X042929Y008504D02*
X043479Y008590D01*
X043582Y008369D01*
X043479Y008590D02*
X043687Y008463D01*
X043442Y008348D02*
X043479Y008590D01*
X043192D02*
X043582Y008369D01*
X043192Y008590D02*
X043632Y008501D01*
X043192Y008590D02*
X043493Y008258D01*
X043479Y008590D02*
X043582Y008369D01*
X043479Y008590D02*
X043687Y008463D01*
X043442Y008348D02*
X043479Y008590D01*
X043082Y008700D02*
X043192Y008590D01*
X043479D02*
X043700Y008369D01*
X043192Y008590D02*
X043479D01*
X042800Y008700D02*
X043082D01*
D20*
X039315Y006600D02*
D03*
X038685D02*
D03*
X048735Y006300D02*
D03*
X049365D02*
D03*
X048720Y005350D02*
D03*
X049350D02*
D03*
D21*
X049531Y004350D02*
D03*
X048468D02*
D03*
D22*
X042700Y001250D02*
D03*
X044668D02*
D03*
D38*
X032520Y008255D02*
Y008850D01*
Y008255D02*
Y008840D01*
D39*
X004750Y001150D02*
D03*
X002100Y003450D02*
D03*
D40*
X003963Y001150D02*
D03*
X001313Y003450D02*
D03*
D41*
X001450Y006700D02*
D03*
D42*
Y005913D02*
D03*
D43*
X035900Y009400D02*
D03*
X036900D02*
D03*
X037900D02*
D03*
X038900D02*
D03*
X039900D02*
D03*
X027000Y009350D02*
D03*
X028000D02*
D03*
D44*
X040900Y009400D02*
D03*
X029000Y009350D02*
D03*
D45*
X027450Y002324D02*
D03*
Y005276D02*
D03*
D46*
X001100Y008900D02*
D03*
Y001100D02*
D03*
X048900D02*
D03*
Y008900D02*
D03*
D47*
X031850Y008850D02*
D03*
X032520D02*
D03*
X031180D02*
D03*
X030510D02*
D03*
D48*
X033190D02*
D03*
D49*
X049750Y003000D02*
D03*
X049500Y002500D02*
D03*
X049000D02*
D03*
X048500D02*
D03*
X048000D02*
D03*
X047500Y007500D02*
D03*
X047750Y007000D02*
D03*
Y004000D02*
D03*
Y003000D02*
D03*
Y002000D02*
D03*
X047500Y000500D02*
D03*
X047250Y007000D02*
D03*
X047000Y005500D02*
D03*
Y004500D02*
D03*
X047250Y001000D02*
D03*
X047000Y000500D02*
D03*
X046750Y009000D02*
D03*
X046500Y000500D02*
D03*
X046000Y006500D02*
D03*
Y005500D02*
D03*
X046250Y005000D02*
D03*
Y003000D02*
D03*
X045500Y006500D02*
D03*
X045750Y006000D02*
D03*
X045500Y005500D02*
D03*
X045750Y005000D02*
D03*
Y003000D02*
D03*
X045000Y006500D02*
D03*
X045250Y006000D02*
D03*
X045000Y005500D02*
D03*
X045250Y005000D02*
D03*
X044500Y005500D02*
D03*
X044750Y005000D02*
D03*
X044000Y005500D02*
D03*
X044250Y005000D02*
D03*
X042750Y004000D02*
D03*
X042500Y003500D02*
D03*
X042750Y003000D02*
D03*
X042250Y004000D02*
D03*
Y003000D02*
D03*
X041000Y003500D02*
D03*
Y002500D02*
D03*
X040500Y003500D02*
D03*
X040750Y003000D02*
D03*
Y002000D02*
D03*
Y001000D02*
D03*
X039000Y003500D02*
D03*
Y002500D02*
D03*
Y001500D02*
D03*
Y000500D02*
D03*
X038500Y003500D02*
D03*
X038750Y003000D02*
D03*
Y002000D02*
D03*
Y001000D02*
D03*
X038000Y005500D02*
D03*
Y003500D02*
D03*
X038250Y003000D02*
D03*
X037750Y006000D02*
D03*
X037500Y005500D02*
D03*
X037250Y006000D02*
D03*
X037000Y005500D02*
D03*
Y003500D02*
D03*
Y002500D02*
D03*
Y001500D02*
D03*
Y000500D02*
D03*
X036750Y006000D02*
D03*
X036500Y005500D02*
D03*
X036750Y003000D02*
D03*
Y002000D02*
D03*
Y001000D02*
D03*
X036250Y006000D02*
D03*
X036000Y005500D02*
D03*
X035750Y006000D02*
D03*
X035500Y005500D02*
D03*
X035000Y006500D02*
D03*
X035250Y006000D02*
D03*
X035000Y005500D02*
D03*
Y002500D02*
D03*
Y001500D02*
D03*
Y000500D02*
D03*
X034750Y007000D02*
D03*
Y003000D02*
D03*
X033000Y006500D02*
D03*
X033250Y006000D02*
D03*
X033000Y005500D02*
D03*
X033250Y003000D02*
D03*
X033000Y002500D02*
D03*
X033250Y002000D02*
D03*
X033000Y001500D02*
D03*
X033250Y001000D02*
D03*
X033000Y000500D02*
D03*
X032750Y007000D02*
D03*
Y006000D02*
D03*
X032500Y005500D02*
D03*
X031000Y004500D02*
D03*
X031250Y004000D02*
D03*
Y003000D02*
D03*
X031000Y002500D02*
D03*
X031250Y002000D02*
D03*
X031000Y001500D02*
D03*
X030500Y005500D02*
D03*
Y004500D02*
D03*
X030750Y004000D02*
D03*
Y003000D02*
D03*
X030500Y002500D02*
D03*
X030750Y002000D02*
D03*
X030500Y001500D02*
D03*
X030000Y008500D02*
D03*
X030250Y008000D02*
D03*
X030000Y006500D02*
D03*
X030250Y006000D02*
D03*
X030000Y005500D02*
D03*
Y004500D02*
D03*
X030250Y004000D02*
D03*
Y003000D02*
D03*
X030000Y002500D02*
D03*
X030250Y002000D02*
D03*
X030000Y001500D02*
D03*
X029500Y009500D02*
D03*
X029750Y008000D02*
D03*
X029500Y006500D02*
D03*
X029750Y006000D02*
D03*
X029500Y005500D02*
D03*
Y004500D02*
D03*
X029750Y004000D02*
D03*
Y003000D02*
D03*
X029500Y002500D02*
D03*
X029750Y002000D02*
D03*
X029500Y001500D02*
D03*
X029250Y008000D02*
D03*
X029000Y006500D02*
D03*
X029250Y006000D02*
D03*
X029000Y005500D02*
D03*
X029250Y004000D02*
D03*
Y003000D02*
D03*
X029000Y002500D02*
D03*
X029250Y002000D02*
D03*
X029000Y001500D02*
D03*
X028750Y008000D02*
D03*
X028500Y006500D02*
D03*
X028750Y006000D02*
D03*
X028500Y005500D02*
D03*
X028750Y005000D02*
D03*
X028500Y004500D02*
D03*
X028750Y003000D02*
D03*
X028500Y002500D02*
D03*
X028750Y002000D02*
D03*
X028500Y001500D02*
D03*
X028250Y008000D02*
D03*
X028000Y006500D02*
D03*
X028250Y006000D02*
D03*
Y005000D02*
D03*
X028000Y004500D02*
D03*
X028250Y004000D02*
D03*
Y003000D02*
D03*
X028000Y002500D02*
D03*
X028250Y002000D02*
D03*
X028000Y001500D02*
D03*
X027750Y008000D02*
D03*
X027500Y006500D02*
D03*
X027750Y004000D02*
D03*
Y003000D02*
D03*
X027500Y001500D02*
D03*
X027250Y008000D02*
D03*
X027000Y006500D02*
D03*
X027250Y004000D02*
D03*
Y003000D02*
D03*
X027000Y001500D02*
D03*
X026500Y009500D02*
D03*
X026750Y008000D02*
D03*
X026500Y006500D02*
D03*
X026750Y004000D02*
D03*
Y003000D02*
D03*
X026500Y002500D02*
D03*
X026750Y002000D02*
D03*
X026500Y001500D02*
D03*
X026000Y009500D02*
D03*
X026250Y009000D02*
D03*
Y008000D02*
D03*
X026000Y006500D02*
D03*
X026250Y004000D02*
D03*
Y003000D02*
D03*
X026000Y002500D02*
D03*
X026250Y002000D02*
D03*
X026000Y001500D02*
D03*
X025500Y009500D02*
D03*
X025750Y009000D02*
D03*
Y008000D02*
D03*
X025500Y006500D02*
D03*
X025750Y004000D02*
D03*
Y003000D02*
D03*
X025500Y002500D02*
D03*
X025750Y002000D02*
D03*
X025500Y001500D02*
D03*
X025000Y009500D02*
D03*
X025250Y008000D02*
D03*
X025000Y006500D02*
D03*
X025250Y004000D02*
D03*
Y003000D02*
D03*
X025000Y002500D02*
D03*
X025250Y002000D02*
D03*
X025000Y001500D02*
D03*
X024500Y006500D02*
D03*
X024750Y003000D02*
D03*
X024500Y002500D02*
D03*
X024750Y002000D02*
D03*
X024500Y001500D02*
D03*
X024250Y009000D02*
D03*
X024000Y006500D02*
D03*
X024250Y003000D02*
D03*
Y002000D02*
D03*
X023750Y009000D02*
D03*
Y004000D02*
D03*
X023500Y002500D02*
D03*
X023250Y003000D02*
D03*
X023000Y002500D02*
D03*
X022750Y003000D02*
D03*
X022500Y002500D02*
D03*
X022250Y003000D02*
D03*
X022000Y002500D02*
D03*
X021500Y009500D02*
D03*
X021750Y003000D02*
D03*
X021500Y002500D02*
D03*
X021750Y001000D02*
D03*
X021000Y009500D02*
D03*
Y008500D02*
D03*
X021250Y003000D02*
D03*
X021000Y002500D02*
D03*
X021250Y001000D02*
D03*
X020500Y009500D02*
D03*
X020750Y003000D02*
D03*
X020250D02*
D03*
X019250Y008000D02*
D03*
X019000Y007500D02*
D03*
Y005500D02*
D03*
Y000500D02*
D03*
X018750Y008000D02*
D03*
Y007000D02*
D03*
X018000Y004500D02*
D03*
X017500Y005500D02*
D03*
X015750Y002000D02*
D03*
X014750Y006000D02*
D03*
X014250D02*
D03*
X013750D02*
D03*
X013250D02*
D03*
X013000Y005500D02*
D03*
X012750Y006000D02*
D03*
X012500Y005500D02*
D03*
Y004500D02*
D03*
X012750Y003000D02*
D03*
X012500Y002500D02*
D03*
X012750Y002000D02*
D03*
X012500Y001500D02*
D03*
X012750Y001000D02*
D03*
X012500Y000500D02*
D03*
X012250Y006000D02*
D03*
X012000Y005500D02*
D03*
Y004500D02*
D03*
X012250Y003000D02*
D03*
X011750Y006000D02*
D03*
X011500Y005500D02*
D03*
X011750Y003000D02*
D03*
X011250Y006000D02*
D03*
X011000Y005500D02*
D03*
X011250Y005000D02*
D03*
X011000Y004500D02*
D03*
X011250Y003000D02*
D03*
X010750Y006000D02*
D03*
X010500Y005500D02*
D03*
X010750Y005000D02*
D03*
X010500Y004500D02*
D03*
X010750Y002000D02*
D03*
X010500Y001500D02*
D03*
X010750Y001000D02*
D03*
X010500Y000500D02*
D03*
X010250Y006000D02*
D03*
X010000Y005500D02*
D03*
X010250Y005000D02*
D03*
X010000Y004500D02*
D03*
Y002500D02*
D03*
X010250Y002000D02*
D03*
X010000Y001500D02*
D03*
X010250Y001000D02*
D03*
X010000Y000500D02*
D03*
X009750Y006000D02*
D03*
X009500Y005500D02*
D03*
X009750Y005000D02*
D03*
Y003000D02*
D03*
X009250Y006000D02*
D03*
X009000Y005500D02*
D03*
X009250Y005000D02*
D03*
X008750Y006000D02*
D03*
X008500Y005500D02*
D03*
X008750Y005000D02*
D03*
X008500Y004500D02*
D03*
X008250Y006000D02*
D03*
X008000Y005500D02*
D03*
X008250Y005000D02*
D03*
X008000Y004500D02*
D03*
X008250Y003000D02*
D03*
X008000Y002500D02*
D03*
Y000500D02*
D03*
X007750Y006000D02*
D03*
X007500Y005500D02*
D03*
X007750Y005000D02*
D03*
X007500Y004500D02*
D03*
X007250Y006000D02*
D03*
X007000Y005500D02*
D03*
X007250Y005000D02*
D03*
X006500Y005500D02*
D03*
X006750Y005000D02*
D03*
X006500Y004500D02*
D03*
X006750Y003000D02*
D03*
X006250Y005000D02*
D03*
X006000Y004500D02*
D03*
Y002500D02*
D03*
X006250Y002000D02*
D03*
X006000Y001500D02*
D03*
X006250Y001000D02*
D03*
X006000Y000500D02*
D03*
X005750Y008000D02*
D03*
Y007000D02*
D03*
Y005000D02*
D03*
X005500Y004500D02*
D03*
X005750Y003000D02*
D03*
X005500Y002500D02*
D03*
X005750Y002000D02*
D03*
X005500Y001500D02*
D03*
X005750Y001000D02*
D03*
X005500Y000500D02*
D03*
X005250Y003000D02*
D03*
X005000Y002500D02*
D03*
X005250Y002000D02*
D03*
Y001000D02*
D03*
X005000Y000500D02*
D03*
X004750Y003000D02*
D03*
X004500Y002500D02*
D03*
X004750Y002000D02*
D03*
X004000Y008500D02*
D03*
X004250Y003000D02*
D03*
X004000Y002500D02*
D03*
X004250Y002000D02*
D03*
X004000Y000500D02*
D03*
X003750Y005000D02*
D03*
Y003000D02*
D03*
X003500Y002500D02*
D03*
X003750Y002000D02*
D03*
X003500Y001500D02*
D03*
Y000500D02*
D03*
X003250Y003000D02*
D03*
X003000Y002500D02*
D03*
X003250Y002000D02*
D03*
X003000Y001500D02*
D03*
X003250Y001000D02*
D03*
X003000Y000500D02*
D03*
X002500Y009500D02*
D03*
X002750Y009000D02*
D03*
X002500Y008500D02*
D03*
X002750Y008000D02*
D03*
X002500Y007500D02*
D03*
X002750Y007000D02*
D03*
X002500Y006500D02*
D03*
X002750Y006000D02*
D03*
X002500Y005500D02*
D03*
X002750Y005000D02*
D03*
X002500Y004500D02*
D03*
X002750Y004000D02*
D03*
Y003000D02*
D03*
X002500Y002500D02*
D03*
X002750Y002000D02*
D03*
X002500Y001500D02*
D03*
X002750Y001000D02*
D03*
X002500Y000500D02*
D03*
X002250Y008000D02*
D03*
X002000Y007500D02*
D03*
X002250Y007000D02*
D03*
X002000Y002500D02*
D03*
X002250Y002000D02*
D03*
X001500Y007500D02*
D03*
Y004500D02*
D03*
Y002500D02*
D03*
X001000Y007500D02*
D03*
Y005500D02*
D03*
X001250Y005000D02*
D03*
X001000Y004500D02*
D03*
X001250Y004000D02*
D03*
X001000Y002500D02*
D03*
X000500Y007500D02*
D03*
X000750Y007000D02*
D03*
X000500Y006500D02*
D03*
X000750Y006000D02*
D03*
X000500Y005500D02*
D03*
X000750Y005000D02*
D03*
X000500Y004500D02*
D03*
X000750Y004000D02*
D03*
X000500Y003500D02*
D03*
X000750Y003000D02*
D03*
X000500Y002500D02*
D03*
X043250Y005400D02*
D03*
X044550Y007600D02*
D03*
X044150Y008000D02*
D03*
X042100Y006250D02*
D03*
X039800Y006600D02*
D03*
X014350Y004338D02*
D03*
X016200Y001600D02*
D03*
X016050Y000700D02*
D03*
X021900Y002050D02*
D03*
X015731Y001150D02*
D03*
X018900Y003900D02*
D03*
X018550Y004970D02*
D03*
X024200Y004250D02*
D03*
X017700Y003550D02*
D03*
X028050Y003300D02*
D03*
X038700Y008250D02*
D03*
X017250Y004000D02*
D03*
X043700Y007950D02*
D03*
X042800Y008700D02*
D03*
X045800Y008950D02*
D03*
X014700Y005050D02*
D03*
X014300Y005550D02*
D03*
X044150Y007600D02*
D03*
X043800Y007150D02*
D03*
X042940Y007910D02*
D03*
X047150Y005900D02*
D03*
X046050Y005800D02*
D03*
X037950Y008850D02*
D03*
X036950Y008450D02*
D03*
X043100Y006950D02*
D03*
X042850Y007600D02*
D03*
X018100Y001300D02*
D03*
X023615Y002050D02*
D03*
X024250Y003700D02*
D03*
X041750Y006550D02*
D03*
X038000Y007300D02*
D03*
X043300Y008850D02*
D03*
X041350Y007750D02*
D03*
X047650Y008700D02*
D03*
X041400Y008150D02*
D03*
X022350Y008788D02*
D03*
X018940Y001349D02*
D03*
X006150Y003500D02*
D03*
X007950Y001400D02*
D03*
X017175Y005525D02*
D03*
X016100Y001950D02*
D03*
X012992Y004600D02*
D03*
X016297Y004850D02*
D03*
X049800Y006735D02*
D03*
X048720Y004920D02*
D03*
X048950Y004350D02*
D03*
X021265Y009215D02*
D03*
X018900Y006250D02*
D03*
X030700Y004900D02*
D03*
X036000Y007900D02*
D03*
X033950D02*
D03*
X032000Y007600D02*
D03*
D50*
X046950Y002400D02*
D03*
X030850Y000650D02*
D03*
X024100D02*
D03*
X044750Y002950D02*
D03*
X041650Y003150D02*
D03*
X037600D02*
D03*
X010500Y002830D02*
D03*
X034100Y003000D02*
D03*
X031185Y006265D02*
D03*
X007500Y002850D02*
D03*
X038750Y004800D02*
D03*
X034100Y006638D02*
D03*
D51*
X039535Y008286D02*
D03*
X040378D02*
D03*
X039535Y007286D02*
D03*
X040378D02*
D03*
D52*
X047100Y009431D02*
D03*
Y008369D02*
D03*
X046250Y009431D02*
D03*
Y008369D02*
D03*
X045400Y009431D02*
D03*
Y008369D02*
D03*
X044550Y009431D02*
D03*
Y008369D02*
D03*
X043700Y009431D02*
D03*
Y008369D02*
D03*
X042850Y009431D02*
D03*
Y008369D02*
D03*
M02*
