%FSAX24Y24*%
%MOIN*%
G70*
G01*
G75*
G04 Layer_Color=8421504*
%ADD10C,0.1000*%
%ADD11C,0.0150*%
%ADD12C,0.0200*%
%ADD13C,0.0100*%
%ADD14C,0.0400*%
%ADD15C,0.1200*%
%ADD16C,0.0500*%
%ADD17C,0.0300*%
%ADD18C,0.0150*%
%ADD19R,0.0394X0.1339*%
%ADD20R,0.4110X0.3504*%
%ADD21R,0.0315X0.0315*%
%ADD22R,0.0433X0.0236*%
%ADD23R,0.0394X0.0374*%
%ADD24R,0.1496X0.0984*%
%ADD25R,0.0787X0.0197*%
%ADD26R,0.0787X0.0787*%
%ADD27O,0.0866X0.0236*%
%ADD28R,0.0394X0.0413*%
%ADD29R,0.0374X0.0394*%
%ADD30R,0.0118X0.0157*%
%ADD31R,0.0276X0.0354*%
%ADD32R,0.1181X0.2362*%
%ADD33R,0.0413X0.0394*%
%ADD34R,0.0433X0.0669*%
%ADD35O,0.0118X0.0709*%
%ADD36O,0.0709X0.0118*%
%ADD37C,0.0700*%
%ADD38C,0.3000*%
G04:AMPARAMS|DCode=39|XSize=51mil|YSize=51mil|CornerRadius=12.8mil|HoleSize=0mil|Usage=FLASHONLY|Rotation=0.000|XOffset=0mil|YOffset=0mil|HoleType=Round|Shape=RoundedRectangle|*
%AMROUNDEDRECTD39*
21,1,0.0510,0.0255,0,0,0.0*
21,1,0.0255,0.0510,0,0,0.0*
1,1,0.0255,0.0128,-0.0128*
1,1,0.0255,-0.0128,-0.0128*
1,1,0.0255,-0.0128,0.0128*
1,1,0.0255,0.0128,0.0128*
%
%ADD39ROUNDEDRECTD39*%
%ADD40R,0.0510X0.0510*%
%ADD41C,0.2100*%
%ADD42R,0.0591X0.0591*%
%ADD43C,0.0591*%
%ADD44C,0.0748*%
%ADD45O,0.0750X0.0550*%
%ADD46R,0.0750X0.0550*%
%ADD47O,0.0550X0.0750*%
%ADD48R,0.0550X0.0750*%
%ADD49C,0.0700*%
%ADD50C,0.0250*%
%ADD51R,0.0669X0.0433*%
%ADD52R,0.0630X0.0591*%
%ADD53C,0.0098*%
%ADD54C,0.0236*%
%ADD55C,0.0079*%
%ADD56C,0.0050*%
D18*
X030700Y004900D02*
D03*
X042698Y005690D02*
D03*
D19*
X009050Y004042D02*
D03*
X007050D02*
D03*
X013550D02*
D03*
X011550D02*
D03*
X022400Y001242D02*
D03*
X020400D02*
D03*
D20*
X008050Y008058D02*
D03*
X012550D02*
D03*
X021400Y005258D02*
D03*
D21*
X018400Y002375D02*
D03*
Y001725D02*
D03*
D22*
X003618Y004524D02*
D03*
Y004150D02*
D03*
Y003776D02*
D03*
X004681D02*
D03*
Y004150D02*
D03*
Y004524D02*
D03*
X015606Y003574D02*
D03*
Y003200D02*
D03*
Y002826D02*
D03*
X016669D02*
D03*
Y003200D02*
D03*
Y003574D02*
D03*
D23*
X005165Y009300D02*
D03*
X004535D02*
D03*
X003335D02*
D03*
X003965D02*
D03*
X017102Y008300D02*
D03*
X016472D02*
D03*
X015222D02*
D03*
X015852D02*
D03*
D24*
X048784Y006904D02*
D03*
Y003596D02*
D03*
D25*
X047800Y005250D02*
D03*
Y004935D02*
D03*
Y004620D02*
D03*
Y005565D02*
D03*
Y005880D02*
D03*
D26*
X003413Y005650D02*
D03*
X004987D02*
D03*
X003413Y008350D02*
D03*
X004987D02*
D03*
X003413Y007000D02*
D03*
X004987D02*
D03*
X015400Y004850D02*
D03*
X016975D02*
D03*
X015400Y007350D02*
D03*
X016975D02*
D03*
X015400Y006100D02*
D03*
X016975D02*
D03*
D27*
X014909Y001935D02*
D03*
Y001435D02*
D03*
Y000935D02*
D03*
Y000435D02*
D03*
X016799Y001935D02*
D03*
Y001435D02*
D03*
Y000935D02*
D03*
Y000435D02*
D03*
D28*
X017700Y002315D02*
D03*
Y001685D02*
D03*
Y001015D02*
D03*
Y000385D02*
D03*
D29*
X018600Y001015D02*
D03*
Y000385D02*
D03*
X021900Y008585D02*
D03*
Y009215D02*
D03*
X022750Y008585D02*
D03*
Y009215D02*
D03*
D30*
X024174Y009374D02*
D03*
X023426D02*
D03*
X024174Y008429D02*
D03*
X023800D02*
D03*
X023426D02*
D03*
D31*
X037195Y007700D02*
D03*
X036605D02*
D03*
D32*
X045550Y001250D02*
D03*
X043582D02*
D03*
X037900D02*
D03*
X035931D02*
D03*
X034100D02*
D03*
X032132D02*
D03*
X041750D02*
D03*
X039781D02*
D03*
X007050D02*
D03*
X009018D02*
D03*
X011700D02*
D03*
X013669D02*
D03*
D33*
X045185Y009600D02*
D03*
X045815D02*
D03*
X046685D02*
D03*
X047315D02*
D03*
X040915Y006600D02*
D03*
X040285D02*
D03*
X038535Y006800D02*
D03*
X039165D02*
D03*
X039165Y007450D02*
D03*
X038535D02*
D03*
D34*
X040932Y008200D02*
D03*
X039869D02*
D03*
X040932Y007350D02*
D03*
X039869D02*
D03*
X039232Y008200D02*
D03*
X038168D02*
D03*
D35*
X042517Y009444D02*
D03*
X042714D02*
D03*
X042911D02*
D03*
X043108D02*
D03*
X043305D02*
D03*
X043502D02*
D03*
X043698D02*
D03*
X043895D02*
D03*
X044092D02*
D03*
X044289D02*
D03*
X044486D02*
D03*
X044683D02*
D03*
Y006256D02*
D03*
X044486D02*
D03*
X044289D02*
D03*
X044092D02*
D03*
X043895D02*
D03*
X043698D02*
D03*
X043502D02*
D03*
X043305D02*
D03*
X043108D02*
D03*
X042911D02*
D03*
X042714D02*
D03*
X042517D02*
D03*
D36*
X045194Y008933D02*
D03*
Y008736D02*
D03*
Y008539D02*
D03*
Y008342D02*
D03*
Y008145D02*
D03*
Y007948D02*
D03*
Y007752D02*
D03*
Y007555D02*
D03*
Y007358D02*
D03*
Y007161D02*
D03*
Y006964D02*
D03*
Y006767D02*
D03*
X042006D02*
D03*
Y006964D02*
D03*
Y007161D02*
D03*
Y007358D02*
D03*
Y007555D02*
D03*
Y007752D02*
D03*
Y007948D02*
D03*
Y008145D02*
D03*
Y008342D02*
D03*
Y008539D02*
D03*
Y008736D02*
D03*
Y008933D02*
D03*
M02*
