%FSAX24Y24*%
%MOIN*%
G70*
G01*
G75*
G04 Layer_Color=65535*
%ADD10C,0.0100*%
%ADD11R,0.0300X0.0300*%
%ADD12P,0.0424X4X360.0*%
%ADD13P,0.0424X4X90.0*%
%ADD14R,0.0300X0.0300*%
%ADD15R,0.0118X0.0157*%
%ADD16R,0.0394X0.0413*%
%ADD17R,0.0984X0.1496*%
%ADD18R,0.0197X0.0787*%
%ADD19O,0.0709X0.0118*%
%ADD20O,0.0118X0.0709*%
%ADD21R,0.0394X0.0374*%
%ADD22C,0.0100*%
%ADD23C,0.0300*%
%ADD24C,0.0150*%
%ADD25C,0.0200*%
%ADD26C,0.0866*%
%ADD27C,0.2100*%
%ADD28C,0.0591*%
%ADD29R,0.0591X0.0591*%
%ADD30C,0.0250*%
%ADD31C,0.0260*%
%ADD32R,0.0413X0.0394*%
%ADD33R,0.0630X0.0591*%
%ADD34R,0.0374X0.0394*%
%ADD35R,0.0709X0.0630*%
%ADD36O,0.0079X0.0177*%
%ADD37O,0.0098X0.0197*%
%ADD38O,0.0177X0.0079*%
%ADD39O,0.0197X0.0098*%
%ADD40C,0.0098*%
%ADD41C,0.0236*%
%ADD42C,0.0050*%
%ADD43C,0.0079*%
D22*
X016096Y013784D02*
G03*
X016096Y013784I-002362J000000D01*
G01*
X023596D02*
G03*
X023596Y013784I-002362J000000D01*
G01*
X019828Y029684D02*
G03*
X019828Y029684I-002362J000000D01*
G01*
X014878D02*
G03*
X014878Y029684I-002362J000000D01*
G01*
X024778D02*
G03*
X024778Y029684I-002362J000000D01*
G01*
X019828Y024734D02*
G03*
X019828Y024734I-002362J000000D01*
G01*
Y034634D02*
G03*
X019828Y034634I-002362J000000D01*
G01*
X012579Y038400D02*
X013721D01*
X012579D02*
Y039000D01*
Y039014D02*
X013721D01*
Y038400D02*
Y039000D01*
X015679Y039570D02*
Y039915D01*
X019321Y039570D02*
Y039915D01*
X015679Y037651D02*
X016614D01*
X015679D02*
Y037798D01*
X019321Y037651D02*
Y037798D01*
X018386Y037651D02*
X019321D01*
X017650Y029900D02*
X017550Y030000D01*
X017350D01*
X017250Y029900D01*
Y029500D01*
X017350Y029400D01*
X017550D01*
X017650Y029500D01*
X019325Y016995D02*
X019225Y017095D01*
X019025D01*
X018925Y016995D01*
Y016595D01*
X019025Y016495D01*
X019225D01*
X019325Y016595D01*
X019625Y016995D02*
Y016895D01*
X019525D01*
X019725D01*
X019625D01*
Y016595D01*
X019725Y016495D01*
X020025Y016895D02*
Y016495D01*
Y016695D01*
X020125Y016795D01*
X020225Y016895D01*
X020325D01*
X020624Y016495D02*
X020824D01*
X020724D01*
Y017095D01*
X020624D01*
X017250Y025000D02*
Y024400D01*
X017550D01*
X017650Y024500D01*
Y024900D01*
X017550Y025000D01*
X017250D01*
X011425Y017095D02*
Y016495D01*
Y016795D01*
X011825D01*
Y017095D01*
Y016495D01*
X012025D02*
X012225D01*
X012125D01*
Y016895D01*
X012025D01*
X012925Y017095D02*
Y016495D01*
X012625D01*
X012525Y016595D01*
Y016795D01*
X012625Y016895D01*
X012925D01*
X013424Y016495D02*
X013224D01*
X013124Y016595D01*
Y016795D01*
X013224Y016895D01*
X013424D01*
X013524Y016795D01*
Y016695D01*
X013124D01*
X022300Y030150D02*
Y029550D01*
X022700D01*
X012400Y029400D02*
Y030000D01*
X012700D01*
X012800Y029900D01*
Y029700D01*
X012700Y029600D01*
X012400D01*
X012600D02*
X012800Y029400D01*
X017250Y034850D02*
Y034350D01*
X017350Y034250D01*
X017550D01*
X017650Y034350D01*
Y034850D01*
D40*
X010955Y035808D02*
G03*
X010955Y035808I-000049J000000D01*
G01*
D41*
X011929Y035139D02*
G03*
X011929Y035139I-000118J000000D01*
G01*
D42*
X016270Y011970D02*
X016730D01*
X016270Y012980D02*
X016730D01*
Y011970D02*
Y012980D01*
X016270Y011970D02*
Y012980D01*
X018270D02*
X018730D01*
X018270Y011970D02*
X018730D01*
X018270D02*
Y012980D01*
X018730Y011970D02*
Y012980D01*
X019575Y027250D02*
X019900Y027575D01*
X020289Y026536D02*
X020614Y026861D01*
X019575Y027250D02*
X020289Y026536D01*
X019900Y027575D02*
X020614Y026861D01*
X014325Y026950D02*
X014650Y026625D01*
X015039Y027664D02*
X015364Y027339D01*
X014650Y026625D02*
X015364Y027339D01*
X014325Y026950D02*
X015039Y027664D01*
X021270Y025770D02*
Y026230D01*
X022280Y025770D02*
Y026230D01*
X021270Y025770D02*
X022280D01*
X021270Y026230D02*
X022280D01*
Y025120D02*
Y025580D01*
X021270Y025120D02*
Y025580D01*
X022280D01*
X021270Y025120D02*
X022280D01*
X019525Y032100D02*
X019850Y031775D01*
X020239Y032814D02*
X020564Y032489D01*
X019850Y031775D02*
X020564Y032489D01*
X019525Y032100D02*
X020239Y032814D01*
D43*
X011417Y033367D02*
Y035533D01*
X013583Y033367D02*
Y035533D01*
X011417D02*
X013583D01*
X011417Y033367D02*
X013583D01*
X019550Y018400D02*
X020550D01*
X019550D02*
Y021400D01*
X020550D01*
Y018400D02*
Y021400D01*
X023800Y018350D02*
Y024350D01*
X022800Y018350D02*
Y024350D01*
Y018350D02*
X023800D01*
X022800Y024350D02*
X023800D01*
M02*
