M48
;Layer_Color=9474304
;FILE_FORMAT=2:4
INCH
;TYPE=PLATED
T1F00S00C0.0130
T2F00S00C0.0150
T3F00S00C0.0354
T4F00S00C0.0433
T5F00S00C0.1200
%
T01
X012308Y024700
T02
X013000Y011000
X014000
X015000
X015500Y012000
X014500
X013500
X012500
X012000Y013000
X011000
X011500Y014000
X012500
X013500
X014500
X015500
X012000Y015000
X011000
X016000
X016500Y014000
X017500
X018500
X019500
X019000Y015000
X018000
Y013000
X017000
Y011000
X018000
X019000
X020000
X021000
X022000
X022500Y012000
X021500
X020500
X019500
X023000Y013000
X024000
X024500Y014000
X023500
X024000Y015000
X021000
X016000Y011000
X016500Y016000
X017500
X018500
X019500
X020500
X021500
X022500
X023000Y017000
X024000
X024500Y018000
X024000Y019000
Y021000
X024500Y022000
X024000Y023000
X024500Y024000
X024000Y025000
X023000
X023500Y026000
X024500
X024000Y027000
X023000
X022000Y026550
X021500Y028000
X020500
X020000Y029000
X019000
X019150Y029500
X019500Y030000
X020500
X021500
X024500
X024000Y031000
Y029000
X024500Y028000
X019050Y027600
X017500Y028000
X016500
Y030000
X017500
X017000Y031000
X019000
Y025000
X018000
X017000
X016000
Y023000
X017000
X018000
X019000
X019500Y024000
X020500
X021500
X021000Y025000
X021500Y022000
X020500
X019500
X018500
X017500
X016500
X017000Y021000
X018000
X019000
X019500Y020000
X018500
X017500
X016500
X017000Y019000
X018000
X019000
X019500Y018000
X020500
X021500
X022500
X022000Y019000
X021000
X021500Y020000
X022500
X022350Y022250
X021000Y021000
Y017000
X022000
X020000
X019000
X018000
X017000
X016000
X016500Y018000
X017500
X018500
X016000Y019000
Y021000
X017500Y024000
Y026000
X024500Y016000
X015500
X014500
X013500
X012500
X011500
X012000Y017000
X013000
X013500Y018000
X014500
X015500
X015000Y019000
X015500Y020000
X014500
X013500
X012500
X011500
X012000Y021000
X013000
X013500Y022000
X014500
X015500
X015000Y023000
X015500Y024000
X014500
X013500
X012400Y023700
X012000Y023000
X012800Y022950
X012500Y022000
X011500
X011050Y023500
X011200Y023900
X011100Y025600
X011500Y026000
X012750Y026200
X013117Y026167
X014500Y026000
X014346Y026600
X015500Y026000
X015000Y025000
X014900Y027900
X015500Y028000
Y030000
X011500
Y028000
X012500
X012000Y027000
Y019000
X011000
X011500Y018000
X012500
X011000Y017000
X015000Y021000
X015100Y032365
X015300Y032650
X014900
X014500Y033100
X013950Y032850
X013550Y032150
X013400Y031350
X012764Y031300
X012750Y031700
X012050Y031950
X011900Y031500
X012283Y033415
X012610Y033400
X012750Y034100
X013400
X013500Y034450
X013550Y033750
X011515Y033685
X011550Y034300
Y034900
Y036600
X011150Y036350
X010800Y035850
X010250Y034250
Y033500
X011800Y037300
X012050Y037950
X012735Y037850
X012600Y036850
X014600Y035900
X014700Y035100
X015150Y034700
X015500Y032000
X014950Y038332
X013960Y038661
X013900Y039250
X016600Y039050
X016500Y037700
X016900Y037100
X016950Y036550
X017200Y036800
X017150Y036100
X017200Y035750
X017750Y035150
X018250Y034800
X018600Y034650
X020000Y035000
X019600Y035400
X019500Y036000
X020500
X021500
X022500
X023500
X024500
X024000Y037000
X023000
X022000
X021000
X020000
X019000
X020500Y038000
X021500
X022500
X022000Y039000
X021000
X020000
X018350Y039400
X017415Y038350
X015900Y036250
X016115Y034700
X016250Y032650
X017000Y033000
X017350Y032700
X017250Y032100
X018500Y032000
X019850Y032600
X019950Y032950
X020500Y032000
X022500
X023500
X024500
X024000Y033000
X023000
X022000
X022500Y034000
X023500
X024500
X024000Y035000
X023000
X022000
X021000
X021500Y034000
X020500
T03
X020050Y018900
Y019900
Y020900
X023300Y020850
Y021850
Y022850
Y023850
Y019850
Y018850
T04
X012750Y012800
X014719
Y014769
X012750
X020250
X022218
Y012800
X020250
X018450Y023750
Y025719
X016481
Y023750
Y028700
Y030668
X018450
Y028700
X021432
Y030668
X023400
Y028700
X013500
Y030668
X011531
Y028700
X016481Y033650
Y035619
X018450
Y033650
T05
X011150Y011150
X023850
X011150Y038850
X023850
M30
