%FSAX24Y24*%
%MOIN*%
G70*
G01*
G75*
G04 Layer_Color=16711935*
%ADD10C,0.0100*%
%ADD11R,0.0300X0.0300*%
%ADD12P,0.0424X4X360.0*%
%ADD13P,0.0424X4X90.0*%
%ADD14R,0.0300X0.0300*%
%ADD15R,0.0118X0.0157*%
%ADD16R,0.0394X0.0413*%
%ADD17R,0.0984X0.1496*%
%ADD18R,0.0197X0.0787*%
%ADD19O,0.0709X0.0118*%
%ADD20O,0.0118X0.0709*%
%ADD21R,0.0394X0.0374*%
%ADD22C,0.0100*%
%ADD23C,0.0300*%
%ADD24C,0.0150*%
%ADD25C,0.0200*%
%ADD26C,0.0866*%
%ADD27C,0.2100*%
%ADD28C,0.0591*%
%ADD29R,0.0591X0.0591*%
%ADD30C,0.0250*%
%ADD31C,0.0260*%
%ADD32R,0.0413X0.0394*%
%ADD33R,0.0630X0.0591*%
%ADD34R,0.0374X0.0394*%
%ADD35R,0.0709X0.0630*%
%ADD36O,0.0079X0.0177*%
%ADD37O,0.0098X0.0197*%
%ADD38O,0.0177X0.0079*%
%ADD39O,0.0197X0.0098*%
%ADD40C,0.0098*%
%ADD41C,0.0236*%
%ADD42C,0.0050*%
%ADD43C,0.0079*%
%ADD44C,0.0180*%
%ADD45R,0.0380X0.0380*%
%ADD46P,0.0537X4X360.0*%
%ADD47P,0.0537X4X90.0*%
%ADD48R,0.0380X0.0380*%
%ADD49R,0.0198X0.0237*%
%ADD50R,0.0474X0.0493*%
%ADD51R,0.1064X0.1576*%
%ADD52R,0.0277X0.0867*%
%ADD53O,0.0789X0.0198*%
%ADD54O,0.0198X0.0789*%
%ADD55R,0.0474X0.0454*%
%ADD56C,0.0946*%
%ADD57C,0.2180*%
%ADD58C,0.0671*%
%ADD59R,0.0671X0.0671*%
%ADD60C,0.0330*%
%ADD61R,0.0493X0.0474*%
%ADD62R,0.0710X0.0671*%
%ADD63R,0.0454X0.0474*%
%ADD64R,0.0789X0.0710*%
%ADD65O,0.0159X0.0257*%
%ADD66O,0.0178X0.0277*%
%ADD67O,0.0257X0.0159*%
%ADD68O,0.0277X0.0178*%
%ADD69C,0.0340*%
D45*
X012700Y027250D02*
D03*
Y026700D02*
D03*
X013150Y027250D02*
D03*
Y026700D02*
D03*
X011850Y034300D02*
D03*
Y033750D02*
D03*
X012400Y034300D02*
D03*
Y033750D02*
D03*
X015550Y035750D02*
D03*
Y036300D02*
D03*
X015000Y035750D02*
D03*
Y036300D02*
D03*
X014350Y039050D02*
D03*
Y038500D02*
D03*
X011050Y025000D02*
D03*
Y024450D02*
D03*
D48*
X011250Y036800D02*
D03*
X010700D02*
D03*
X013850Y031850D02*
D03*
X014400D02*
D03*
X013850Y032400D02*
D03*
X014400D02*
D03*
X012250Y036800D02*
D03*
X012800D02*
D03*
X011250Y037350D02*
D03*
X010700D02*
D03*
X011500Y023450D02*
D03*
X012050D02*
D03*
X012600D02*
D03*
X013150D02*
D03*
D50*
X014950Y039065D02*
D03*
Y038435D02*
D03*
X013000Y034315D02*
D03*
Y033685D02*
D03*
D56*
X014719Y012800D02*
D03*
X012750Y014769D02*
D03*
X014719D02*
D03*
X012750Y012800D02*
D03*
X022218D02*
D03*
X020250Y014769D02*
D03*
X022218D02*
D03*
X020250Y012800D02*
D03*
X018450Y030668D02*
D03*
X016481Y028700D02*
D03*
Y030668D02*
D03*
X018450Y028700D02*
D03*
X013500Y030668D02*
D03*
X011531Y028700D02*
D03*
Y030668D02*
D03*
X013500Y028700D02*
D03*
X023400Y030668D02*
D03*
X021432Y028700D02*
D03*
Y030668D02*
D03*
X023400Y028700D02*
D03*
X018450Y025719D02*
D03*
X016481Y023750D02*
D03*
Y025719D02*
D03*
X018450Y023750D02*
D03*
Y035619D02*
D03*
X016481Y033650D02*
D03*
Y035619D02*
D03*
X018450Y033650D02*
D03*
D57*
X011150Y038850D02*
D03*
X023850D02*
D03*
Y011150D02*
D03*
X011150D02*
D03*
D58*
X020050Y020900D02*
D03*
Y019900D02*
D03*
X023300Y023850D02*
D03*
Y022850D02*
D03*
Y021850D02*
D03*
Y020850D02*
D03*
Y019850D02*
D03*
D59*
X020050Y018900D02*
D03*
X023300Y018850D02*
D03*
D60*
X022350Y022250D02*
D03*
X016250Y032650D02*
D03*
X014700Y035100D02*
D03*
X014600Y035900D02*
D03*
X011550Y034300D02*
D03*
X012600Y036850D02*
D03*
X011550Y036600D02*
D03*
X011150Y036350D02*
D03*
X019850Y032600D02*
D03*
X019950Y032950D02*
D03*
X017150Y036100D02*
D03*
X017750Y035150D02*
D03*
X013900Y039250D02*
D03*
X013960Y038661D02*
D03*
X014950Y038332D02*
D03*
X017415Y038350D02*
D03*
X018350Y039400D02*
D03*
X016600Y039050D02*
D03*
X019050Y027600D02*
D03*
X013500Y034450D02*
D03*
X022000Y026550D02*
D03*
X016950Y036550D02*
D03*
X017200Y035750D02*
D03*
Y036800D02*
D03*
X016900Y037100D02*
D03*
X019600Y035400D02*
D03*
X018250Y034800D02*
D03*
X017350Y032700D02*
D03*
X010800Y035850D02*
D03*
X011550Y034900D02*
D03*
X012750Y026200D02*
D03*
X011515Y033685D02*
D03*
X011900Y031500D02*
D03*
X013550Y032150D02*
D03*
X013950Y032850D02*
D03*
X014500Y033100D02*
D03*
X013117Y026167D02*
D03*
X012050Y031950D02*
D03*
X012610Y033400D02*
D03*
X014346Y026600D02*
D03*
X014900Y027900D02*
D03*
X015900Y036250D02*
D03*
X015150Y034700D02*
D03*
X015300Y032650D02*
D03*
X016115Y034700D02*
D03*
X012750Y034100D02*
D03*
X012283Y033415D02*
D03*
X012764Y031300D02*
D03*
X013400Y031350D02*
D03*
X012750Y031700D02*
D03*
X010250Y034250D02*
D03*
Y033500D02*
D03*
X014900Y032650D02*
D03*
X015100Y032365D02*
D03*
X019150Y029500D02*
D03*
X017250Y032100D02*
D03*
X013400Y034100D02*
D03*
X013550Y033750D02*
D03*
X018600Y034650D02*
D03*
X016500Y037700D02*
D03*
X012735Y037850D02*
D03*
X012050Y037950D02*
D03*
X011800Y037300D02*
D03*
X011200Y023900D02*
D03*
X012800Y022950D02*
D03*
X011100Y025600D02*
D03*
X012400Y023700D02*
D03*
X011050Y023500D02*
D03*
D61*
X017815Y038750D02*
D03*
X017185D02*
D03*
X015035Y035150D02*
D03*
X015665D02*
D03*
X012865Y037350D02*
D03*
X012235D02*
D03*
D62*
X012122Y036014D02*
D03*
X012965D02*
D03*
X012122Y035014D02*
D03*
X012965D02*
D03*
D63*
X013500Y038435D02*
D03*
Y039065D02*
D03*
D64*
X012308Y024700D02*
D03*
D65*
X012800Y025340D02*
D03*
X011816D02*
D03*
Y024060D02*
D03*
X012800D02*
D03*
D66*
X012603Y025330D02*
D03*
X012406D02*
D03*
X012209D02*
D03*
X012013D02*
D03*
Y024070D02*
D03*
X012209D02*
D03*
X012406D02*
D03*
X012603D02*
D03*
D67*
X011668Y025192D02*
D03*
Y024208D02*
D03*
X012948D02*
D03*
Y025192D02*
D03*
D68*
X011678Y024995D02*
D03*
Y024798D02*
D03*
Y024602D02*
D03*
Y024405D02*
D03*
X012938D02*
D03*
Y024602D02*
D03*
Y024798D02*
D03*
Y024995D02*
D03*
D69*
X012308Y024700D02*
D03*
M02*
