%FSAX24Y24*%
%MOIN*%
G70*
G01*
G75*
G04 Layer_Color=8388736*
%ADD10C,0.0100*%
%ADD11R,0.0300X0.0300*%
%ADD12P,0.0424X4X360.0*%
%ADD13P,0.0424X4X90.0*%
%ADD14R,0.0300X0.0300*%
%ADD15R,0.0118X0.0157*%
%ADD16R,0.0394X0.0413*%
%ADD17R,0.0984X0.1496*%
%ADD18R,0.0197X0.0787*%
%ADD19O,0.0709X0.0118*%
%ADD20O,0.0118X0.0709*%
%ADD21R,0.0394X0.0374*%
%ADD22C,0.0100*%
%ADD23C,0.0300*%
%ADD24C,0.0150*%
%ADD25C,0.0200*%
%ADD26C,0.0866*%
%ADD27C,0.2100*%
%ADD28C,0.0591*%
%ADD29R,0.0591X0.0591*%
%ADD30C,0.0250*%
%ADD31C,0.0260*%
%ADD32R,0.0413X0.0394*%
%ADD33R,0.0630X0.0591*%
%ADD34R,0.0374X0.0394*%
%ADD35R,0.0709X0.0630*%
%ADD36O,0.0079X0.0177*%
%ADD37O,0.0098X0.0197*%
%ADD38O,0.0177X0.0079*%
%ADD39O,0.0197X0.0098*%
%ADD40C,0.0098*%
%ADD41C,0.0236*%
%ADD42C,0.0050*%
%ADD43C,0.0079*%
%ADD44C,0.0180*%
%ADD45R,0.0380X0.0380*%
%ADD46P,0.0537X4X360.0*%
%ADD47P,0.0537X4X90.0*%
%ADD48R,0.0380X0.0380*%
%ADD49R,0.0198X0.0237*%
%ADD50R,0.0474X0.0493*%
%ADD51R,0.1064X0.1576*%
%ADD52R,0.0277X0.0867*%
%ADD53O,0.0789X0.0198*%
%ADD54O,0.0198X0.0789*%
%ADD55R,0.0474X0.0454*%
%ADD56C,0.0946*%
%ADD57C,0.2180*%
%ADD58C,0.0671*%
%ADD59R,0.0671X0.0671*%
%ADD60C,0.0330*%
D44*
X019850Y032600D02*
D03*
D45*
X016500Y012750D02*
D03*
Y012200D02*
D03*
X018500D02*
D03*
Y012750D02*
D03*
D46*
X020289Y026861D02*
D03*
X019900Y027250D02*
D03*
D47*
X015039Y027339D02*
D03*
X014650Y026950D02*
D03*
X020239Y032489D02*
D03*
X019850Y032100D02*
D03*
D48*
X022050Y026000D02*
D03*
X021500D02*
D03*
Y025350D02*
D03*
X022050D02*
D03*
D49*
X013524Y039171D02*
D03*
X013150D02*
D03*
X012776D02*
D03*
X013524Y038226D02*
D03*
X012776D02*
D03*
D50*
X024400Y020715D02*
D03*
Y020085D02*
D03*
D51*
X019154Y038684D02*
D03*
X015846D02*
D03*
D52*
X016870Y037700D02*
D03*
X017185D02*
D03*
X018130D02*
D03*
X017815D02*
D03*
X017500D02*
D03*
D53*
X010906Y035533D02*
D03*
Y035336D02*
D03*
Y035139D02*
D03*
Y034942D02*
D03*
Y034745D02*
D03*
Y034548D02*
D03*
Y034352D02*
D03*
Y034155D02*
D03*
Y033958D02*
D03*
Y033761D02*
D03*
Y033564D02*
D03*
Y033367D02*
D03*
X014094D02*
D03*
Y033564D02*
D03*
Y033761D02*
D03*
Y033958D02*
D03*
Y034155D02*
D03*
Y034352D02*
D03*
Y034548D02*
D03*
Y034745D02*
D03*
Y034942D02*
D03*
Y035139D02*
D03*
Y035336D02*
D03*
Y035533D02*
D03*
D54*
X011417Y032856D02*
D03*
X011614D02*
D03*
X011811D02*
D03*
X012008D02*
D03*
X012205D02*
D03*
X012402D02*
D03*
X012598D02*
D03*
X012795D02*
D03*
X012992D02*
D03*
X013189D02*
D03*
X013386D02*
D03*
X013583D02*
D03*
Y036044D02*
D03*
X013386D02*
D03*
X013189D02*
D03*
X012992D02*
D03*
X012795D02*
D03*
X012598D02*
D03*
X012402D02*
D03*
X012205D02*
D03*
X012008D02*
D03*
X011811D02*
D03*
X011614D02*
D03*
X011417D02*
D03*
D55*
X014165Y037750D02*
D03*
X013535D02*
D03*
D56*
X014719Y012800D02*
D03*
X012750Y014769D02*
D03*
X014719D02*
D03*
X012750Y012800D02*
D03*
X022218D02*
D03*
X020250Y014769D02*
D03*
X022218D02*
D03*
X020250Y012800D02*
D03*
X018450Y030668D02*
D03*
X016481Y028700D02*
D03*
Y030668D02*
D03*
X018450Y028700D02*
D03*
X013500Y030668D02*
D03*
X011531Y028700D02*
D03*
Y030668D02*
D03*
X013500Y028700D02*
D03*
X023400Y030668D02*
D03*
X021432Y028700D02*
D03*
Y030668D02*
D03*
X023400Y028700D02*
D03*
X018450Y025719D02*
D03*
X016481Y023750D02*
D03*
Y025719D02*
D03*
X018450Y023750D02*
D03*
Y035619D02*
D03*
X016481Y033650D02*
D03*
Y035619D02*
D03*
X018450Y033650D02*
D03*
D57*
X011150Y038850D02*
D03*
X023850D02*
D03*
Y011150D02*
D03*
X011150D02*
D03*
D58*
X020050Y020900D02*
D03*
Y019900D02*
D03*
X023300Y023850D02*
D03*
Y022850D02*
D03*
Y021850D02*
D03*
Y020850D02*
D03*
Y019850D02*
D03*
D59*
X020050Y018900D02*
D03*
X023300Y018850D02*
D03*
D60*
X022350Y022250D02*
D03*
X016250Y032650D02*
D03*
X014700Y035100D02*
D03*
X014600Y035900D02*
D03*
X011550Y034300D02*
D03*
X012600Y036850D02*
D03*
X011550Y036600D02*
D03*
X011150Y036350D02*
D03*
X019850Y032600D02*
D03*
X019950Y032950D02*
D03*
X017150Y036100D02*
D03*
X017750Y035150D02*
D03*
X013900Y039250D02*
D03*
X013960Y038661D02*
D03*
X014950Y038332D02*
D03*
X017415Y038350D02*
D03*
X018350Y039400D02*
D03*
X016600Y039050D02*
D03*
X019050Y027600D02*
D03*
X013500Y034450D02*
D03*
X022000Y026550D02*
D03*
X016950Y036550D02*
D03*
X017200Y035750D02*
D03*
Y036800D02*
D03*
X016900Y037100D02*
D03*
X019600Y035400D02*
D03*
X018250Y034800D02*
D03*
X017350Y032700D02*
D03*
X010800Y035850D02*
D03*
X011550Y034900D02*
D03*
X012750Y026200D02*
D03*
X011515Y033685D02*
D03*
X011900Y031500D02*
D03*
X013550Y032150D02*
D03*
X013950Y032850D02*
D03*
X014500Y033100D02*
D03*
X013117Y026167D02*
D03*
X012050Y031950D02*
D03*
X012610Y033400D02*
D03*
X014346Y026600D02*
D03*
X014900Y027900D02*
D03*
X015900Y036250D02*
D03*
X015150Y034700D02*
D03*
X015300Y032650D02*
D03*
X016115Y034700D02*
D03*
X012750Y034100D02*
D03*
X012283Y033415D02*
D03*
X012764Y031300D02*
D03*
X013400Y031350D02*
D03*
X012750Y031700D02*
D03*
X010250Y034250D02*
D03*
Y033500D02*
D03*
X014900Y032650D02*
D03*
X015100Y032365D02*
D03*
X019150Y029500D02*
D03*
X017250Y032100D02*
D03*
X013400Y034100D02*
D03*
X013550Y033750D02*
D03*
X018600Y034650D02*
D03*
X016500Y037700D02*
D03*
X012735Y037850D02*
D03*
X012050Y037950D02*
D03*
X011800Y037300D02*
D03*
X011200Y023900D02*
D03*
X012800Y022950D02*
D03*
X011100Y025600D02*
D03*
X012400Y023700D02*
D03*
X011050Y023500D02*
D03*
M02*
