%FSAX24Y24*%
%MOIN*%
G70*
G01*
G75*
G04 Layer_Physical_Order=2*
G04 Layer_Color=16711680*
%ADD10C,0.0100*%
%ADD11R,0.0300X0.0300*%
%ADD12P,0.0424X4X360.0*%
%ADD13P,0.0424X4X90.0*%
%ADD14R,0.0300X0.0300*%
%ADD15R,0.0118X0.0157*%
%ADD16R,0.0394X0.0413*%
%ADD17R,0.0984X0.1496*%
%ADD18R,0.0197X0.0787*%
%ADD19O,0.0709X0.0118*%
%ADD20O,0.0118X0.0709*%
%ADD21R,0.0394X0.0374*%
%ADD22C,0.0100*%
%ADD23C,0.0300*%
%ADD24C,0.0150*%
%ADD25C,0.0200*%
%ADD26C,0.0866*%
%ADD27C,0.2100*%
%ADD28C,0.0591*%
%ADD29R,0.0591X0.0591*%
%ADD30C,0.0250*%
%ADD31C,0.0260*%
%ADD32R,0.0413X0.0394*%
%ADD33R,0.0630X0.0591*%
%ADD34R,0.0374X0.0394*%
%ADD35R,0.0709X0.0630*%
%ADD36O,0.0079X0.0177*%
%ADD37O,0.0098X0.0197*%
%ADD38O,0.0177X0.0079*%
%ADD39O,0.0197X0.0098*%
G36*
X023341Y039840D02*
X023196Y039751D01*
X023063Y039637D01*
X022949Y039504D01*
X022858Y039355D01*
X022791Y039194D01*
X022750Y039024D01*
X022737Y038850D01*
X022750Y038676D01*
X022791Y038506D01*
X022858Y038345D01*
X022949Y038196D01*
X023063Y038063D01*
X023196Y037949D01*
X023345Y037858D01*
X023506Y037791D01*
X023676Y037750D01*
X023850Y037737D01*
X024024Y037750D01*
X024194Y037791D01*
X024355Y037858D01*
X024504Y037949D01*
X024637Y038063D01*
X024751Y038196D01*
X024840Y038341D01*
X024888Y038327D01*
Y011673D01*
X024840Y011659D01*
X024751Y011804D01*
X024637Y011937D01*
X024504Y012051D01*
X024355Y012142D01*
X024194Y012209D01*
X024024Y012250D01*
X023850Y012263D01*
X023676Y012250D01*
X023506Y012209D01*
X023345Y012142D01*
X023196Y012051D01*
X023063Y011937D01*
X022949Y011804D01*
X022858Y011655D01*
X022791Y011494D01*
X022750Y011324D01*
X022737Y011150D01*
X022750Y010976D01*
X022791Y010806D01*
X022858Y010645D01*
X022949Y010496D01*
X023063Y010363D01*
X023196Y010249D01*
X023341Y010160D01*
X023327Y010112D01*
X011673D01*
X011659Y010160D01*
X011804Y010249D01*
X011937Y010363D01*
X012051Y010496D01*
X012142Y010645D01*
X012209Y010806D01*
X012250Y010976D01*
X012263Y011150D01*
X012250Y011324D01*
X012209Y011494D01*
X012142Y011655D01*
X012051Y011804D01*
X011937Y011937D01*
X011804Y012051D01*
X011655Y012142D01*
X011494Y012209D01*
X011324Y012250D01*
X011150Y012263D01*
X010976Y012250D01*
X010806Y012209D01*
X010645Y012142D01*
X010496Y012051D01*
X010363Y011937D01*
X010249Y011804D01*
X010160Y011659D01*
X010112Y011673D01*
Y034067D01*
X010156Y034090D01*
X010178Y034076D01*
X010250Y034061D01*
X010322Y034076D01*
X010383Y034117D01*
X010424Y034178D01*
X010439Y034250D01*
X010435Y034268D01*
X010435Y034276D01*
X010362Y034685D01*
Y037454D01*
X010444Y037535D01*
X010490Y037516D01*
Y037371D01*
X010486Y037350D01*
Y036800D01*
X010490Y036779D01*
Y036590D01*
X010679D01*
X010856Y036413D01*
X010972Y036297D01*
X010976Y036278D01*
X011017Y036217D01*
X011078Y036176D01*
X011150Y036161D01*
X011222Y036176D01*
X011283Y036217D01*
X011324Y036278D01*
X011339Y036350D01*
X011324Y036422D01*
X011283Y036483D01*
X011222Y036524D01*
X011203Y036528D01*
X010914Y036817D01*
Y037350D01*
X010910Y037371D01*
Y037542D01*
X010910Y037542D01*
D01*
D01*
X010910Y037560D01*
D01*
X010928Y037578D01*
X011968D01*
Y037093D01*
X012084D01*
X012085Y037046D01*
X012049Y037010D01*
X012040D01*
Y036821D01*
X012007Y036788D01*
X012003Y036781D01*
X011997Y036776D01*
X011989Y036762D01*
X011978Y036749D01*
X011976Y036741D01*
X011972Y036735D01*
X011970Y036727D01*
X011966Y036720D01*
X011859Y036369D01*
X011747D01*
Y035659D01*
X011976D01*
X012007Y035612D01*
X012204Y035415D01*
X012185Y035369D01*
X011747D01*
Y035215D01*
X011481Y035075D01*
X011478Y035074D01*
X011471Y035069D01*
X011458Y035063D01*
X011445Y035052D01*
X011417Y035033D01*
X011376Y034972D01*
X011361Y034900D01*
X011376Y034828D01*
X011417Y034767D01*
X011478Y034726D01*
X011511Y034719D01*
X011526Y034714D01*
X011542Y034713D01*
X011550Y034711D01*
X011553Y034712D01*
X011747Y034693D01*
Y034659D01*
X012497D01*
Y035337D01*
X014200D01*
X014262Y035349D01*
X014315Y035385D01*
X014653Y035722D01*
X014672Y035726D01*
X014733Y035767D01*
X014774Y035828D01*
X014778Y035847D01*
X015021Y036090D01*
X015210D01*
Y036137D01*
X015340D01*
Y036090D01*
X015584D01*
X015600Y036087D01*
X015811D01*
X015828Y036076D01*
X015900Y036061D01*
X015972Y036076D01*
X016033Y036117D01*
X016074Y036178D01*
X016089Y036250D01*
X016074Y036322D01*
X016033Y036383D01*
X015972Y036424D01*
X015900Y036439D01*
X015830Y036425D01*
X015760Y036435D01*
Y036510D01*
X015340D01*
Y036463D01*
X015210D01*
Y036510D01*
X014790D01*
Y036321D01*
X014547Y036078D01*
X014528Y036074D01*
X014467Y036033D01*
X014426Y035972D01*
X014422Y035953D01*
X014132Y035663D01*
X013340D01*
Y036000D01*
X013341Y036011D01*
X013340Y036019D01*
Y036369D01*
X013299D01*
X013262Y036678D01*
Y037065D01*
X013262Y037065D01*
X013262Y037065D01*
X013258Y037085D01*
X013255Y037104D01*
X013255Y037105D01*
X013254Y037106D01*
X013254Y037107D01*
X013254Y037108D01*
X013254Y037108D01*
X013254Y037108D01*
X013132Y037400D01*
Y037578D01*
X016125D01*
X016125Y037578D01*
X016168Y037586D01*
X016204Y037611D01*
X016846Y038252D01*
X017217Y038475D01*
X017248Y038442D01*
Y038433D01*
X017241Y038422D01*
X017226Y038350D01*
X017241Y038278D01*
X017282Y038217D01*
X017343Y038176D01*
X017415Y038161D01*
X017487Y038176D01*
X017516Y038195D01*
X017531Y038203D01*
X017540Y038211D01*
X017548Y038217D01*
X017551Y038220D01*
X017863Y038485D01*
X017877Y038493D01*
X018082D01*
Y039007D01*
X017548D01*
Y038819D01*
X017500Y038732D01*
X017452Y038745D01*
Y039007D01*
X016925D01*
Y039007D01*
X016925D01*
X016906Y039053D01*
X017039Y039186D01*
X018350D01*
X018432Y039202D01*
X018501Y039249D01*
X018548Y039318D01*
X018564Y039400D01*
X018548Y039482D01*
X018501Y039551D01*
X018432Y039598D01*
X018350Y039614D01*
X016950D01*
X016868Y039598D01*
X016799Y039551D01*
X016449Y039201D01*
X016402Y039132D01*
X016386Y039050D01*
X016402Y038968D01*
X016449Y038899D01*
X016518Y038852D01*
X016600Y038836D01*
X016682Y038852D01*
X016751Y038899D01*
X016872Y039019D01*
X016918Y039000D01*
Y038820D01*
X016686Y038410D01*
X016079Y037802D01*
X013160D01*
X013082Y037880D01*
Y037947D01*
X013082Y037947D01*
X013074Y037990D01*
X013049Y038027D01*
X013049Y038027D01*
X012912Y038164D01*
X012875Y038189D01*
X012832Y038197D01*
X012832Y038197D01*
X012638D01*
X012638Y038197D01*
X012595Y038189D01*
X012558Y038164D01*
X012558Y038164D01*
X012421Y038027D01*
X012397Y037990D01*
X012391Y037961D01*
X012232Y037802D01*
X011649D01*
X011639Y037851D01*
X011655Y037858D01*
X011804Y037949D01*
X011937Y038063D01*
X012051Y038196D01*
X012142Y038345D01*
X012209Y038506D01*
X012250Y038676D01*
X012263Y038850D01*
X012250Y039024D01*
X012209Y039194D01*
X012142Y039355D01*
X012051Y039504D01*
X011937Y039637D01*
X011804Y039751D01*
X011659Y039840D01*
X011673Y039888D01*
X023327D01*
X023341Y039840D01*
D02*
G37*
G36*
X012598Y037417D02*
Y037093D01*
X012820D01*
X013038Y036993D01*
Y036707D01*
X012802Y036369D01*
X012590D01*
Y035663D01*
X012508D01*
X012497Y036022D01*
Y036369D01*
X012451D01*
X012434Y036562D01*
X012460Y036590D01*
X012460D01*
Y037010D01*
X012413D01*
Y037093D01*
X012502D01*
Y037386D01*
X012552Y037436D01*
X012598Y037417D01*
D02*
G37*
%LPC*%
G36*
X018450Y024247D02*
X018321Y024230D01*
X018201Y024181D01*
X018098Y024102D01*
X018019Y023999D01*
X017970Y023879D01*
X017953Y023750D01*
X017970Y023621D01*
X018019Y023501D01*
X018098Y023398D01*
X018201Y023319D01*
X018321Y023270D01*
X018450Y023253D01*
X018579Y023270D01*
X018699Y023319D01*
X018802Y023398D01*
X018881Y023501D01*
X018930Y023621D01*
X018947Y023750D01*
X018930Y023879D01*
X018881Y023999D01*
X018802Y024102D01*
X018699Y024181D01*
X018579Y024230D01*
X018450Y024247D01*
D02*
G37*
G36*
X023300Y024208D02*
X023207Y024196D01*
X023121Y024160D01*
X023047Y024103D01*
X022990Y024029D01*
X022954Y023943D01*
X022942Y023850D01*
X022954Y023757D01*
X022990Y023671D01*
X023047Y023597D01*
X023121Y023540D01*
X023207Y023504D01*
X023300Y023492D01*
X023393Y023504D01*
X023479Y023540D01*
X023553Y023597D01*
X023610Y023671D01*
X023646Y023757D01*
X023658Y023850D01*
X023646Y023943D01*
X023610Y024029D01*
X023553Y024103D01*
X023479Y024160D01*
X023393Y024196D01*
X023300Y024208D01*
D02*
G37*
G36*
X010800Y036039D02*
X010728Y036024D01*
X010667Y035983D01*
X010626Y035922D01*
X010611Y035850D01*
X010626Y035778D01*
X010667Y035717D01*
X010678Y035709D01*
Y021360D01*
X010678Y021360D01*
X010686Y021317D01*
X010711Y021281D01*
X019271Y012721D01*
X019271Y012721D01*
X019307Y012696D01*
X019307Y012696D01*
X019307Y012696D01*
D01*
X019307Y012696D01*
X019307Y012696D01*
X019350Y012688D01*
X019350Y012688D01*
X019487D01*
X019904Y012444D01*
X020001Y012369D01*
X020121Y012320D01*
X020250Y012303D01*
X020379Y012320D01*
X020499Y012369D01*
X020596Y012444D01*
X021013Y012688D01*
X021455D01*
X021872Y012444D01*
X021970Y012369D01*
X022090Y012320D01*
X022218Y012303D01*
X022347Y012320D01*
X022467Y012369D01*
X022570Y012448D01*
X022649Y012551D01*
X022699Y012671D01*
X022716Y012800D01*
X022699Y012929D01*
X022649Y013049D01*
X022570Y013152D01*
X022467Y013231D01*
X022347Y013280D01*
X022218Y013297D01*
X022090Y013280D01*
X021970Y013231D01*
X021872Y013156D01*
X021455Y012912D01*
X021013D01*
X020596Y013156D01*
X020499Y013231D01*
X020379Y013280D01*
X020250Y013297D01*
X020121Y013280D01*
X020001Y013231D01*
X019904Y013156D01*
X019487Y012912D01*
X019396D01*
X010902Y021406D01*
Y023323D01*
X010946Y023347D01*
X010978Y023326D01*
X011050Y023311D01*
X011122Y023326D01*
X011183Y023367D01*
X011224Y023428D01*
X011239Y023500D01*
X011232Y023532D01*
X011229Y023551D01*
X011227Y023557D01*
X011224Y023572D01*
X011219Y023580D01*
X011186Y023670D01*
X011211Y023714D01*
X011218Y023715D01*
X011226Y023715D01*
X011635Y023788D01*
X011646D01*
X011646Y023788D01*
X011656Y023790D01*
X011666Y023790D01*
X011677Y023794D01*
X011689Y023796D01*
X011697Y023802D01*
X011707Y023806D01*
X011877Y023917D01*
X011908Y023948D01*
X011926Y023988D01*
X011926Y024032D01*
X011922Y024041D01*
X011928Y024070D01*
X011919Y024113D01*
X011915Y024119D01*
X011909Y024148D01*
X011887Y024181D01*
X011855Y024203D01*
X011818Y024210D01*
X011811Y024247D01*
X011789Y024280D01*
X011789Y024280D01*
X011789D01*
X011770Y024302D01*
Y024302D01*
X011806Y024326D01*
X011830Y024362D01*
X011839Y024405D01*
X011830Y024447D01*
X011806Y024483D01*
Y024523D01*
X011830Y024559D01*
X011839Y024602D01*
X011830Y024644D01*
X011806Y024680D01*
Y024720D01*
X011830Y024756D01*
X011839Y024798D01*
X011830Y024841D01*
X011806Y024877D01*
Y024917D01*
X011830Y024953D01*
X011839Y024995D01*
X011830Y025038D01*
X011806Y025074D01*
X011770Y025098D01*
X011727Y025107D01*
X011629D01*
X011586Y025098D01*
X011550Y025074D01*
X011526Y025038D01*
X011517Y024995D01*
X011526Y024953D01*
X011550Y024917D01*
Y024877D01*
X011526Y024841D01*
X011517Y024798D01*
X011526Y024756D01*
X011550Y024720D01*
Y024680D01*
X011526Y024644D01*
X011517Y024602D01*
X011526Y024559D01*
X011550Y024523D01*
Y024483D01*
X011526Y024447D01*
X011520Y024416D01*
X011472Y024402D01*
X011344Y024529D01*
X011341Y024532D01*
X011338Y024535D01*
X011326Y024542D01*
X011316Y024550D01*
X011260Y024578D01*
Y024660D01*
X010902D01*
Y035696D01*
X010933Y035717D01*
X010974Y035778D01*
X010989Y035850D01*
X010974Y035922D01*
X010933Y035983D01*
X010872Y036024D01*
X010800Y036039D01*
D02*
G37*
G36*
X022350Y022439D02*
X022278Y022424D01*
X022217Y022383D01*
X022176Y022322D01*
X022161Y022250D01*
X022176Y022178D01*
X022217Y022117D01*
X022278Y022076D01*
X022350Y022061D01*
X022368Y022065D01*
X022376Y022065D01*
X022785Y022138D01*
X022821D01*
X022951Y021782D01*
X022954Y021757D01*
X022990Y021671D01*
X023007Y021649D01*
X023010Y021643D01*
X023013Y021641D01*
X023047Y021597D01*
X023121Y021540D01*
X023207Y021504D01*
X023300Y021492D01*
X023393Y021504D01*
X023479Y021540D01*
X023553Y021597D01*
X023610Y021671D01*
X023646Y021757D01*
X023658Y021850D01*
X023646Y021943D01*
X023610Y022029D01*
X023553Y022103D01*
X023509Y022137D01*
X023507Y022140D01*
X023501Y022143D01*
X023479Y022160D01*
X023393Y022196D01*
X023368Y022199D01*
X022938Y022355D01*
X022933Y022356D01*
X022929Y022358D01*
X022922Y022359D01*
X022915Y022361D01*
X022910Y022361D01*
X022905Y022362D01*
X022902Y022362D01*
X022900Y022362D01*
X022900Y022362D01*
X022785D01*
X022376Y022435D01*
X022368Y022435D01*
X022350Y022439D01*
D02*
G37*
G36*
X023655Y019205D02*
X022945D01*
Y018495D01*
X023655D01*
Y019205D01*
D02*
G37*
G36*
X023300Y020208D02*
X023207Y020196D01*
X023121Y020160D01*
X023047Y020103D01*
X022990Y020029D01*
X022954Y019943D01*
X022942Y019850D01*
X022954Y019757D01*
X022990Y019671D01*
X023047Y019597D01*
X023121Y019540D01*
X023207Y019504D01*
X023300Y019492D01*
X023393Y019504D01*
X023479Y019540D01*
X023553Y019597D01*
X023610Y019671D01*
X023646Y019757D01*
X023658Y019850D01*
X023646Y019943D01*
X023610Y020029D01*
X023553Y020103D01*
X023479Y020160D01*
X023393Y020196D01*
X023300Y020208D01*
D02*
G37*
G36*
X014719Y013297D02*
X014590Y013280D01*
X014470Y013231D01*
X014372Y013156D01*
X013955Y012912D01*
X013513D01*
X013096Y013156D01*
X012999Y013231D01*
X012879Y013280D01*
X012750Y013297D01*
X012621Y013280D01*
X012501Y013231D01*
X012398Y013152D01*
X012319Y013049D01*
X012270Y012929D01*
X012253Y012800D01*
X012270Y012671D01*
X012319Y012551D01*
X012398Y012448D01*
X012501Y012369D01*
X012621Y012320D01*
X012750Y012303D01*
X012879Y012320D01*
X012999Y012369D01*
X013096Y012444D01*
X013513Y012688D01*
X013955D01*
X014372Y012444D01*
X014470Y012369D01*
X014590Y012320D01*
X014719Y012303D01*
X014847Y012320D01*
X014967Y012369D01*
X015070Y012448D01*
X015149Y012551D01*
X015199Y012671D01*
X015216Y012800D01*
X015199Y012929D01*
X015149Y013049D01*
X015070Y013152D01*
X014967Y013231D01*
X014847Y013280D01*
X014719Y013297D01*
D02*
G37*
G36*
X011816Y025490D02*
X011777Y025483D01*
X011744Y025461D01*
X011722Y025428D01*
X011714Y025389D01*
Y025291D01*
X011722Y025252D01*
X011744Y025219D01*
X011777Y025197D01*
X011816Y025189D01*
X011855Y025197D01*
X011887Y025219D01*
X011909Y025252D01*
X011917Y025291D01*
Y025389D01*
X011909Y025428D01*
X011887Y025461D01*
X011855Y025483D01*
X011816Y025490D01*
D02*
G37*
G36*
X013900Y039464D02*
X013685D01*
X013603Y039448D01*
X013534Y039401D01*
X013454Y039322D01*
X013253D01*
Y038808D01*
X013747D01*
Y038943D01*
X013990Y039056D01*
X014020Y039078D01*
X014051Y039099D01*
X014053Y039100D01*
X014054Y039102D01*
X014056Y039104D01*
X014057Y039105D01*
X014077Y039137D01*
X014098Y039168D01*
X014098Y039170D01*
X014099Y039172D01*
X014100Y039174D01*
X014101Y039176D01*
X014107Y039213D01*
X014114Y039250D01*
X014114Y039252D01*
X014114Y039254D01*
X014114Y039256D01*
X014114Y039259D01*
X014105Y039295D01*
X014098Y039332D01*
X014097Y039334D01*
X014096Y039336D01*
X014095Y039338D01*
X014094Y039340D01*
X014072Y039370D01*
X014051Y039401D01*
X014050Y039403D01*
X014048Y039404D01*
X014046Y039406D01*
X014045Y039407D01*
X014013Y039427D01*
X013982Y039448D01*
X013980Y039448D01*
X013978Y039449D01*
X013976Y039450D01*
X013974Y039451D01*
X013937Y039457D01*
X013900Y039464D01*
D02*
G37*
G36*
X016900Y037289D02*
X016828Y037274D01*
X016767Y037233D01*
X016726Y037172D01*
X016711Y037100D01*
X016726Y037028D01*
X016767Y036967D01*
X016828Y036926D01*
X016900Y036911D01*
X016922Y036916D01*
X016934Y036916D01*
X017011Y036934D01*
X017040Y036893D01*
X017026Y036872D01*
X017011Y036800D01*
X017018Y036768D01*
X016982Y036732D01*
X016950Y036739D01*
X016878Y036724D01*
X016817Y036683D01*
X016776Y036622D01*
X016761Y036550D01*
X016776Y036478D01*
X016817Y036417D01*
X016878Y036376D01*
X016950Y036361D01*
X017022Y036376D01*
X017038Y036386D01*
X017100Y036324D01*
X017086Y036276D01*
X017078Y036274D01*
X017017Y036233D01*
X016976Y036172D01*
X016961Y036100D01*
X016976Y036028D01*
X017017Y035967D01*
X017078Y035926D01*
X017078Y035926D01*
D01*
X017067Y035883D01*
X017067Y035883D01*
X017067D01*
X017026Y035822D01*
X017011Y035750D01*
X017026Y035678D01*
X017067Y035617D01*
X017128Y035576D01*
X017200Y035561D01*
X017225Y035566D01*
X017352Y035439D01*
X017594Y035047D01*
X017603Y035038D01*
X017617Y035017D01*
X017678Y034976D01*
X017750Y034961D01*
X017822Y034976D01*
X017883Y035017D01*
X017924Y035078D01*
X017929Y035100D01*
X017977Y035115D01*
X018095Y034996D01*
X018095Y034996D01*
X018132Y034972D01*
X018132Y034972D01*
X018117Y034933D01*
X018117Y034933D01*
X018117D01*
X018107Y034919D01*
X018102Y034915D01*
X017827Y034536D01*
X017271Y033979D01*
X017246Y033943D01*
X017238Y033900D01*
X017238Y033900D01*
Y033135D01*
X017165Y032726D01*
X017165Y032718D01*
X017161Y032700D01*
X017176Y032628D01*
X017217Y032567D01*
X017227Y032560D01*
X017212Y032512D01*
X016433D01*
X016410Y032556D01*
X016424Y032578D01*
X016439Y032650D01*
X016424Y032722D01*
X016383Y032783D01*
X016369Y032793D01*
X016365Y032798D01*
X015986Y033073D01*
X015862Y033196D01*
Y034435D01*
X015862Y034435D01*
X015854Y034478D01*
X015829Y034514D01*
X015829Y034514D01*
X015497Y034847D01*
X015516Y034893D01*
X015602D01*
X015670Y034852D01*
X015978Y034572D01*
X015982Y034567D01*
X015990Y034561D01*
X015994Y034558D01*
X016007Y034549D01*
X016043Y034526D01*
X016115Y034511D01*
X016187Y034526D01*
X016248Y034567D01*
X016289Y034628D01*
X016304Y034700D01*
X016289Y034772D01*
X016268Y034803D01*
X016260Y034818D01*
X016254Y034825D01*
X016248Y034833D01*
X016244Y034836D01*
X015973Y035146D01*
X015932Y035220D01*
Y035407D01*
X015398D01*
Y035011D01*
X015352Y034992D01*
X015302Y035042D01*
Y035407D01*
X014768D01*
Y035327D01*
X014638Y035276D01*
X014628Y035274D01*
X014587Y035247D01*
X014587Y035247D01*
X014587Y035247D01*
X014567Y035233D01*
X014526Y035172D01*
X014511Y035100D01*
X014526Y035028D01*
X014567Y034967D01*
X014628Y034926D01*
X014661Y034919D01*
X014679Y034914D01*
X014688Y034914D01*
X014700Y034911D01*
X014706Y034913D01*
X014768Y034908D01*
Y034893D01*
X014985D01*
X015007Y034892D01*
X015016Y034893D01*
X015020Y034892D01*
X015029Y034856D01*
X015029Y034842D01*
X015017Y034833D01*
X014976Y034772D01*
X014961Y034700D01*
X014976Y034628D01*
X014987Y034611D01*
Y033975D01*
Y033203D01*
X014990Y033186D01*
X014946Y033162D01*
X013923Y034186D01*
X013648Y034565D01*
X013643Y034569D01*
X013633Y034583D01*
X013572Y034624D01*
X013500Y034639D01*
X013428Y034624D01*
X013367Y034583D01*
X013326Y034522D01*
X013311Y034450D01*
X013326Y034378D01*
X013362Y034323D01*
X013347Y034287D01*
X013340Y034277D01*
X013328Y034274D01*
X013301Y034256D01*
X013257Y034280D01*
Y034582D01*
X012743D01*
Y034396D01*
X012618Y034234D01*
X012617Y034233D01*
X012613Y034227D01*
X012597Y034207D01*
X012591Y034195D01*
X012576Y034172D01*
X012561Y034100D01*
X012576Y034028D01*
X012592Y034004D01*
X012568Y033960D01*
X012190D01*
Y033872D01*
X012131Y033860D01*
X012125Y033857D01*
X012060Y033871D01*
Y033960D01*
X011640D01*
Y033913D01*
X011580D01*
X011517Y033901D01*
X011465Y033865D01*
X011462Y033863D01*
X011443Y033859D01*
X011382Y033818D01*
X011341Y033757D01*
X011326Y033685D01*
X011341Y033613D01*
X011382Y033552D01*
X011443Y033511D01*
X011515Y033496D01*
X011587Y033511D01*
X011634Y033542D01*
X011637Y033543D01*
X011640Y033540D01*
Y033540D01*
X011844D01*
X011853Y033534D01*
X011915Y033522D01*
X012076D01*
X012108Y033483D01*
X012094Y033415D01*
X012108Y033343D01*
X012149Y033282D01*
X012188Y033256D01*
Y032133D01*
X012144Y032110D01*
X012122Y032124D01*
X012050Y032139D01*
X011978Y032124D01*
X011917Y032083D01*
X011876Y032022D01*
X011861Y031950D01*
X011876Y031878D01*
X011917Y031817D01*
X011978Y031776D01*
X012028Y031766D01*
Y031690D01*
X011984Y031667D01*
X011972Y031674D01*
X011900Y031689D01*
X011828Y031674D01*
X011767Y031633D01*
X011726Y031572D01*
X011711Y031500D01*
X011719Y031460D01*
X011722Y031444D01*
X011724Y031438D01*
X011726Y031428D01*
X011729Y031423D01*
X011868Y031026D01*
Y030988D01*
X011868Y030988D01*
X011876Y030945D01*
X011901Y030909D01*
X011962Y030847D01*
Y029523D01*
X011962Y029523D01*
X011971Y029480D01*
X011995Y029444D01*
X012525Y028914D01*
Y028343D01*
X012525Y028343D01*
X012533Y028300D01*
X012558Y028263D01*
X013063Y027758D01*
X013063Y027758D01*
X013100Y027733D01*
X013143Y027725D01*
X013714D01*
X014388Y027051D01*
X014388Y027051D01*
X014425Y027026D01*
X014425Y027026D01*
X014425Y027026D01*
D01*
X014425Y027026D01*
X014425Y027026D01*
X014467Y027018D01*
X014467Y027018D01*
X018571D01*
X019778Y025811D01*
Y021360D01*
X019565Y021147D01*
X019541Y021111D01*
X019533Y021068D01*
X019533Y021068D01*
Y020305D01*
X019533Y020305D01*
X019533Y020303D01*
X019533Y020301D01*
X019534Y020295D01*
X019534Y020290D01*
X019536Y020284D01*
X019536Y020277D01*
X019539Y020272D01*
X019540Y020266D01*
X019701Y019830D01*
X019704Y019807D01*
X019740Y019721D01*
X019757Y019698D01*
X019761Y019691D01*
X019763Y019690D01*
X019797Y019647D01*
X019871Y019590D01*
X019957Y019554D01*
X020050Y019542D01*
X020143Y019554D01*
X020229Y019590D01*
X020303Y019647D01*
X020360Y019721D01*
X020396Y019807D01*
X020408Y019900D01*
X020396Y019993D01*
X020360Y020079D01*
X020303Y020153D01*
X020260Y020187D01*
X020259Y020189D01*
X020252Y020193D01*
X020229Y020210D01*
X020143Y020246D01*
X020120Y020249D01*
X019757Y020383D01*
Y020621D01*
X019802Y020643D01*
X019871Y020590D01*
X019957Y020554D01*
X020050Y020542D01*
X020143Y020554D01*
X020229Y020590D01*
X020303Y020647D01*
X020360Y020721D01*
X020396Y020807D01*
X020408Y020900D01*
X020396Y020993D01*
X020360Y021079D01*
X020303Y021153D01*
X020229Y021210D01*
X020162Y021238D01*
Y023064D01*
X020208Y023083D01*
X020521Y022771D01*
X020521Y022771D01*
X020557Y022746D01*
X020600Y022738D01*
X022681D01*
X023107Y022550D01*
X023121Y022540D01*
X023207Y022504D01*
X023238Y022500D01*
X023247Y022498D01*
X023250Y022498D01*
X023300Y022492D01*
X023393Y022504D01*
X023479Y022540D01*
X023553Y022597D01*
X023610Y022671D01*
X023646Y022757D01*
X023658Y022850D01*
X023646Y022943D01*
X023610Y023029D01*
X023553Y023103D01*
X023479Y023160D01*
X023393Y023196D01*
X023300Y023208D01*
X023250Y023202D01*
X023247Y023202D01*
X023238Y023200D01*
X023207Y023196D01*
X023121Y023160D01*
X023107Y023150D01*
X022681Y022962D01*
X020646D01*
X020322Y023286D01*
Y025990D01*
X020322Y025990D01*
X020314Y026033D01*
X020289Y026069D01*
X020289Y026069D01*
X018983Y027376D01*
X019006Y027420D01*
X019050Y027411D01*
X019122Y027426D01*
X019183Y027467D01*
X019224Y027528D01*
X019239Y027600D01*
X019224Y027672D01*
X019183Y027733D01*
X019169Y027743D01*
X019165Y027748D01*
X018786Y028023D01*
X018634Y028175D01*
X018634Y028225D01*
X018664Y028255D01*
X018699Y028269D01*
X018802Y028348D01*
X018881Y028451D01*
X018901Y028501D01*
X018907Y028510D01*
X018910Y028521D01*
X018930Y028571D01*
X018947Y028700D01*
X018930Y028829D01*
X018881Y028949D01*
X018802Y029052D01*
X018699Y029131D01*
X018579Y029180D01*
X018450Y029197D01*
X018321Y029180D01*
X018201Y029131D01*
X018098Y029052D01*
X018019Y028949D01*
X017970Y028829D01*
X017953Y028700D01*
X017970Y028571D01*
X017990Y028521D01*
X017993Y028510D01*
X017999Y028501D01*
X018019Y028451D01*
X018098Y028348D01*
X018201Y028269D01*
X018236Y028255D01*
X018371Y028121D01*
X018371Y028121D01*
X018627Y027864D01*
X018822Y027596D01*
X018793Y027554D01*
X018750Y027562D01*
X018750Y027562D01*
X014646D01*
X013972Y028236D01*
X013936Y028261D01*
X013893Y028269D01*
X013893Y028269D01*
X013826D01*
X013810Y028316D01*
X013852Y028348D01*
X013892Y028401D01*
X014090Y028551D01*
X014477Y028164D01*
X014752Y027785D01*
X014757Y027781D01*
X014767Y027767D01*
X014828Y027726D01*
X014900Y027711D01*
X014972Y027726D01*
X015033Y027767D01*
X015074Y027828D01*
X015089Y027900D01*
X015074Y027972D01*
X015033Y028033D01*
X015019Y028043D01*
X015015Y028048D01*
X014636Y028323D01*
X014179Y028779D01*
X014175Y028782D01*
X014172Y028786D01*
X014172Y028786D01*
X014172Y028786D01*
X014170Y028787D01*
X014168Y028789D01*
X014168Y028790D01*
D01*
D01*
X013892Y028999D01*
X013856Y029046D01*
X013612Y029463D01*
Y029905D01*
X013856Y030322D01*
X013931Y030420D01*
X013980Y030540D01*
X013997Y030668D01*
X013980Y030797D01*
X013931Y030917D01*
X013852Y031020D01*
X013749Y031099D01*
X013747Y031100D01*
Y031609D01*
X013747Y031609D01*
X013739Y031652D01*
X013714Y031689D01*
X013714Y031689D01*
X013702Y031701D01*
Y031778D01*
X013702Y031778D01*
X013694Y031821D01*
X013669Y031857D01*
X013669Y031857D01*
X013427Y032099D01*
Y033557D01*
X013471Y033580D01*
X013478Y033576D01*
X013542Y033563D01*
X013812Y033293D01*
Y033011D01*
X013799Y033001D01*
X013752Y032932D01*
X013736Y032850D01*
X013752Y032768D01*
X013799Y032699D01*
X013868Y032652D01*
X013898Y032646D01*
X013996Y032548D01*
Y032450D01*
X013999Y032436D01*
X013998Y032421D01*
X014007Y032395D01*
X014012Y032368D01*
X014020Y032356D01*
X014025Y032342D01*
X014043Y032321D01*
X014059Y032299D01*
X014071Y032290D01*
X014080Y032280D01*
X014105Y032267D01*
X014128Y032252D01*
X014142Y032249D01*
X014156Y032243D01*
X014190Y032234D01*
Y032190D01*
X014198D01*
X014203Y032074D01*
X014190Y032060D01*
X014190D01*
Y031640D01*
X014610D01*
Y032060D01*
X014610D01*
X014597Y032074D01*
X014602Y032190D01*
X014610D01*
Y032202D01*
X015011D01*
X015028Y032191D01*
X015100Y032176D01*
X015172Y032191D01*
X015189Y032202D01*
X015418D01*
X015480Y032214D01*
X015533Y032250D01*
X015568Y032285D01*
X015572Y032288D01*
X019650D01*
X019650Y032288D01*
X019657Y032289D01*
X019664Y032289D01*
X019672Y032291D01*
X019679Y032292D01*
X019686Y032295D01*
X019693Y032296D01*
X019699Y032300D01*
X019706Y032303D01*
X019920Y032425D01*
X019922Y032426D01*
X019930Y032431D01*
X019951Y032443D01*
X019962Y032452D01*
X019983Y032467D01*
X020024Y032528D01*
X020039Y032600D01*
X020024Y032672D01*
X019988Y032727D01*
X020003Y032763D01*
X020010Y032773D01*
X020022Y032776D01*
X020083Y032817D01*
X020124Y032878D01*
X020139Y032950D01*
X020124Y033022D01*
X020083Y033083D01*
X020069Y033093D01*
X020065Y033098D01*
X019686Y033373D01*
X019329Y033729D01*
X019293Y033754D01*
X019250Y033762D01*
X019250Y033762D01*
X019213D01*
X018809Y033998D01*
X018686Y034245D01*
X018914Y034473D01*
X018914Y034473D01*
X018939Y034510D01*
X018947Y034553D01*
X018947Y034553D01*
Y034579D01*
X018993Y034598D01*
X022488Y031103D01*
X022957Y030449D01*
X022969Y030420D01*
X023044Y030322D01*
X023288Y029905D01*
Y029463D01*
X023044Y029046D01*
X022969Y028949D01*
X022920Y028829D01*
X022903Y028700D01*
X022920Y028571D01*
X022969Y028451D01*
X023044Y028354D01*
X023266Y027974D01*
X022264Y026973D01*
X021885Y026698D01*
X021881Y026693D01*
X021867Y026683D01*
X021826Y026622D01*
X021811Y026550D01*
X021826Y026478D01*
X021867Y026417D01*
X021928Y026376D01*
X022000Y026361D01*
X022072Y026376D01*
X022133Y026417D01*
X022143Y026431D01*
X022148Y026435D01*
X022423Y026814D01*
X023479Y027871D01*
X023504Y027907D01*
X023508Y027930D01*
X023756Y028354D01*
X023831Y028451D01*
X023880Y028571D01*
X023897Y028700D01*
X023880Y028829D01*
X023831Y028949D01*
X023756Y029046D01*
X023512Y029463D01*
Y029905D01*
X023756Y030322D01*
X023831Y030420D01*
X023880Y030540D01*
X023897Y030668D01*
X023880Y030797D01*
X023831Y030917D01*
X023752Y031020D01*
X023649Y031099D01*
X023591Y031123D01*
X023590Y031124D01*
X023579Y031128D01*
X023529Y031149D01*
X023400Y031166D01*
X023386Y031164D01*
X022627Y031281D01*
X019107Y034801D01*
Y035695D01*
X019153Y035714D01*
X019192Y035676D01*
X019448Y035291D01*
X019455Y035284D01*
X019467Y035267D01*
X019528Y035226D01*
X019600Y035211D01*
X019672Y035226D01*
X019733Y035267D01*
X019774Y035328D01*
X019789Y035400D01*
X019774Y035472D01*
X019733Y035533D01*
X019722Y035541D01*
X019720Y035543D01*
X019354Y035831D01*
X019263Y035922D01*
X019257Y035953D01*
X019232Y035989D01*
X019232Y035989D01*
X018821Y036401D01*
X018784Y036425D01*
X018741Y036434D01*
X018741Y036434D01*
X017951D01*
X017547Y036838D01*
Y036897D01*
X017547Y036897D01*
X017539Y036940D01*
X017514Y036977D01*
X017514Y036977D01*
X017312Y037179D01*
X017304Y037185D01*
X017297Y037191D01*
X017294Y037193D01*
X017292Y037195D01*
X017283Y037198D01*
X017275Y037204D01*
X017266Y037205D01*
X017257Y037209D01*
X016934Y037284D01*
X016922Y037284D01*
X016900Y037289D01*
D02*
G37*
G36*
X014885Y038714D02*
X014350D01*
X014337Y038712D01*
X014324Y038713D01*
X014317Y038710D01*
X014140D01*
Y038530D01*
X014137Y038520D01*
X014138Y038510D01*
X014136Y038500D01*
X014138Y038487D01*
X014137Y038474D01*
X014140Y038466D01*
Y038290D01*
X014306D01*
X014693Y038182D01*
Y038168D01*
X014741D01*
X014760Y038163D01*
X014892Y038126D01*
X014919Y038124D01*
X014945Y038118D01*
X014948Y038119D01*
X014950Y038118D01*
X014963Y038121D01*
X014976Y038120D01*
X015001Y038128D01*
X015027Y038133D01*
X015029Y038134D01*
X015032Y038134D01*
X015043Y038142D01*
X015055Y038146D01*
X015075Y038163D01*
X015084Y038168D01*
X015207D01*
Y038702D01*
X014947D01*
X014928Y038705D01*
X014908Y038710D01*
X014890Y038714D01*
X014888Y038714D01*
X014885Y038714D01*
D02*
G37*
G36*
X018450Y026216D02*
X018321Y026199D01*
X018201Y026149D01*
X018098Y026070D01*
X018019Y025967D01*
X017970Y025847D01*
X017953Y025719D01*
X017970Y025590D01*
X018019Y025470D01*
X018098Y025367D01*
X018201Y025288D01*
X018321Y025238D01*
X018450Y025221D01*
X018579Y025238D01*
X018699Y025288D01*
X018802Y025367D01*
X018881Y025470D01*
X018930Y025590D01*
X018947Y025719D01*
X018930Y025847D01*
X018881Y025967D01*
X018802Y026070D01*
X018699Y026149D01*
X018579Y026199D01*
X018450Y026216D01*
D02*
G37*
G36*
X013150Y027464D02*
X012700D01*
X012679Y027460D01*
X012490D01*
Y027271D01*
X012486Y027250D01*
X012490Y027229D01*
Y027040D01*
X012679D01*
X012700Y027036D01*
X013089D01*
X013206Y026958D01*
X013191Y026910D01*
X012940D01*
D01*
D01*
X012940Y026910D01*
X012910D01*
Y026910D01*
X012490D01*
Y026490D01*
X012521D01*
X012566Y026168D01*
X012570Y026155D01*
X012576Y026128D01*
X012617Y026067D01*
X012638Y026052D01*
Y025601D01*
X012524Y025487D01*
X012520Y025481D01*
X012514Y025478D01*
X012469Y025468D01*
X012449Y025482D01*
X012406Y025490D01*
X012364Y025482D01*
X012328Y025458D01*
X012288D01*
X012252Y025482D01*
X012209Y025490D01*
X012167Y025482D01*
X012131Y025458D01*
X012107Y025422D01*
X012098Y025379D01*
Y025281D01*
X012107Y025238D01*
X012131Y025202D01*
X012167Y025178D01*
X012209Y025169D01*
X012252Y025178D01*
X012288Y025202D01*
X012328D01*
X012364Y025178D01*
X012406Y025169D01*
X012449Y025178D01*
X012485Y025202D01*
X012524D01*
X012561Y025178D01*
X012603Y025169D01*
X012646Y025178D01*
X012682Y025202D01*
X012684Y025206D01*
X012733Y025216D01*
X012761Y025197D01*
X012798Y025190D01*
X012805Y025153D01*
X012823Y025126D01*
X012814Y025077D01*
X012810Y025074D01*
X012786Y025038D01*
X012777Y024995D01*
X012786Y024953D01*
X012810Y024917D01*
Y024877D01*
X012786Y024841D01*
X012777Y024798D01*
X012786Y024756D01*
X012810Y024720D01*
Y024680D01*
X012786Y024644D01*
X012777Y024602D01*
X012786Y024559D01*
X012810Y024523D01*
Y024483D01*
X012786Y024447D01*
X012777Y024405D01*
X012786Y024362D01*
X012810Y024326D01*
X012846Y024302D01*
X012846Y024302D01*
X012827Y024280D01*
X012827Y024280D01*
X012827D01*
X012805Y024247D01*
X012798Y024210D01*
X012761Y024203D01*
X012728Y024181D01*
X012728D01*
X012728Y024181D01*
Y024181D01*
X012690Y024186D01*
X012682Y024198D01*
X012646Y024222D01*
X012603Y024231D01*
X012561Y024222D01*
X012524Y024198D01*
X012485D01*
X012449Y024222D01*
X012406Y024231D01*
X012364Y024222D01*
X012328Y024198D01*
X012288D01*
X012252Y024222D01*
X012209Y024231D01*
X012167Y024222D01*
X012131Y024198D01*
X012107Y024162D01*
X012098Y024119D01*
Y024074D01*
X012097Y024070D01*
Y024039D01*
X012061Y023933D01*
X011920Y023660D01*
X011840D01*
Y023240D01*
X012260D01*
Y023427D01*
X012261Y023431D01*
X012262Y023464D01*
X012307Y023487D01*
X012329Y023472D01*
X012390Y023382D01*
Y023240D01*
X012810D01*
Y023660D01*
X012789D01*
X012767Y023705D01*
X012793Y023738D01*
X012854D01*
X012854Y023738D01*
X012897Y023746D01*
X012934Y023771D01*
X013226Y024063D01*
X013226Y024063D01*
X013250Y024099D01*
X013250Y024099D01*
X013250Y024099D01*
X013258Y024142D01*
X013258Y024142D01*
Y025061D01*
X013258Y025061D01*
X013250Y025104D01*
X013226Y025141D01*
X013226Y025141D01*
X013154Y025212D01*
X013279Y025374D01*
X014082Y026177D01*
X014460Y026452D01*
X014465Y026457D01*
X014479Y026467D01*
X014520Y026528D01*
X014534Y026600D01*
X014520Y026672D01*
X014479Y026733D01*
X014418Y026774D01*
X014346Y026789D01*
X014327Y026785D01*
X014319Y026785D01*
X013911Y026712D01*
X013846D01*
X013599Y026959D01*
X013360Y027317D01*
Y027460D01*
X013171D01*
X013150Y027464D01*
D02*
G37*
G36*
X018450Y031166D02*
X018321Y031149D01*
X018201Y031099D01*
X018098Y031020D01*
X018019Y030917D01*
X017970Y030797D01*
X017953Y030668D01*
X017970Y030540D01*
X018019Y030420D01*
X018098Y030317D01*
X018201Y030238D01*
X018321Y030188D01*
X018450Y030171D01*
X018579Y030188D01*
X018699Y030238D01*
X018802Y030317D01*
X018881Y030420D01*
X018930Y030540D01*
X018947Y030668D01*
X018930Y030797D01*
X018881Y030917D01*
X018802Y031020D01*
X018699Y031099D01*
X018579Y031149D01*
X018450Y031166D01*
D02*
G37*
%LPD*%
G36*
X013203Y032053D02*
X013203Y032053D01*
X013211Y032010D01*
X013236Y031973D01*
X013478Y031731D01*
Y031654D01*
X013478Y031654D01*
X013486Y031612D01*
X013511Y031575D01*
X013523Y031563D01*
Y031186D01*
X013500Y031166D01*
X013371Y031149D01*
X013251Y031099D01*
X013148Y031020D01*
X013069Y030917D01*
X013020Y030797D01*
X013003Y030668D01*
X013020Y030540D01*
X013069Y030420D01*
X013144Y030322D01*
X013388Y029905D01*
Y029463D01*
X013144Y029046D01*
X013116Y029010D01*
X013069Y029026D01*
Y029093D01*
X013061Y029136D01*
X013036Y029172D01*
X013036Y029172D01*
X012507Y029702D01*
Y031026D01*
X012507Y031026D01*
X012498Y031069D01*
X012474Y031105D01*
X012474Y031105D01*
X012412Y031167D01*
Y031394D01*
X012460Y031409D01*
X012615Y031187D01*
X012621Y031182D01*
X012631Y031167D01*
X012692Y031126D01*
X012764Y031111D01*
X012836Y031126D01*
X012898Y031167D01*
X012939Y031228D01*
X012953Y031300D01*
X012939Y031372D01*
X012898Y031433D01*
X012882Y031444D01*
X012877Y031449D01*
X012572Y031663D01*
Y033021D01*
X012610Y033211D01*
X012682Y033226D01*
X012743Y033267D01*
X012784Y033328D01*
X012799Y033400D01*
X012814Y033418D01*
X013203D01*
Y032053D01*
D02*
G37*
D11*
X012700Y027250D02*
D03*
Y026700D02*
D03*
X013150Y027250D02*
D03*
Y026700D02*
D03*
X011850Y034300D02*
D03*
Y033750D02*
D03*
X012400Y034300D02*
D03*
Y033750D02*
D03*
X015550Y035750D02*
D03*
Y036300D02*
D03*
X015000Y035750D02*
D03*
Y036300D02*
D03*
X014350Y039050D02*
D03*
Y038500D02*
D03*
X011050Y025000D02*
D03*
Y024450D02*
D03*
D14*
X011250Y036800D02*
D03*
X010700D02*
D03*
X013850Y031850D02*
D03*
X014400D02*
D03*
X013850Y032400D02*
D03*
X014400D02*
D03*
X012250Y036800D02*
D03*
X012800D02*
D03*
X011250Y037350D02*
D03*
X010700D02*
D03*
X011500Y023450D02*
D03*
X012050D02*
D03*
X012600D02*
D03*
X013150D02*
D03*
D16*
X014950Y039065D02*
D03*
Y038435D02*
D03*
X013000Y034315D02*
D03*
Y033685D02*
D03*
D22*
X012013Y024995D02*
X012308Y024700D01*
X012013Y024995D02*
X012359Y024762D01*
X012013Y024995D02*
X012246Y024649D01*
X012013Y024405D02*
X012308Y024700D01*
X012013Y024405D02*
X012246Y024751D01*
X012013Y024405D02*
X012359Y024638D01*
X011050Y023718D02*
X011124Y023513D01*
X010976D02*
X011050Y023718D01*
X012400Y023700D02*
X012501Y023462D01*
X012336Y023661D02*
X012501Y023462D01*
X012473Y023719D02*
X012501Y023462D01*
X012400Y023700D02*
X012603Y023900D01*
X012459Y023654D02*
X012603Y023900D01*
X012355Y023760D02*
X012603Y023900D01*
X012400Y023700D02*
X012600Y023450D01*
X012347Y023647D02*
X012600Y023450D01*
X012464Y023740D02*
X012600Y023450D01*
X012400Y023700D02*
X012657Y023532D01*
X012367Y023633D02*
X012657Y023532D01*
X012448Y023757D02*
X012657Y023532D01*
X012400Y023700D02*
X012518Y023393D01*
X012334Y023665D02*
X012518Y023393D01*
X012473Y023719D02*
X012518Y023393D01*
X012400Y023700D02*
X012600Y023450D01*
X012347Y023647D02*
X012600Y023450D01*
X012464Y023740D02*
X012600Y023450D01*
X011207Y023825D02*
X011625Y023900D01*
X011207Y023975D02*
X011625Y023900D01*
X018485Y034897D02*
X018600Y034650D01*
X018485Y034897D02*
X018663Y034691D01*
X018485Y034897D02*
X018528Y034628D01*
X014544Y032976D02*
X014900Y032650D01*
X014544Y032976D02*
X014946Y032709D01*
X014544Y032976D02*
X014845Y032599D01*
X014646Y033027D02*
X014900Y032650D01*
X014646Y033027D02*
X014958Y032697D01*
X014646Y033027D02*
X014835Y032613D01*
X014593Y033007D02*
X014900Y032650D01*
X014593Y033007D02*
X014953Y032703D01*
X014593Y033007D02*
X014839Y032606D01*
X010250Y034675D02*
X010325Y034257D01*
X010175D02*
X010250Y034675D01*
X012460Y031604D02*
X012764Y031300D01*
X012460Y031604D02*
X012812Y031357D01*
X012460Y031604D02*
X012707Y031252D01*
X012750Y034100D02*
X012878Y034387D01*
X012822Y034078D02*
X012878Y034387D01*
X012686Y034139D02*
X012878Y034387D01*
X012750Y034100D02*
X013000Y034305D01*
X012804Y034048D02*
X013000Y034305D01*
X012709Y034163D02*
X013000Y034305D01*
X012750Y034100D02*
X013077Y034180D01*
X012776Y034030D02*
X013077Y034180D01*
X012740Y034174D02*
X013077Y034180D01*
X012750Y034100D02*
X013000Y034315D01*
X012805Y034049D02*
X013000Y034315D01*
X012708Y034162D02*
X013000Y034315D01*
X015783Y035039D02*
X016115Y034700D01*
X015783Y035039D02*
X016164Y034757D01*
X015783Y035039D02*
X016057Y034652D01*
X015881Y035081D02*
X016115Y034700D01*
X015881Y035081D02*
X016175Y034744D01*
X015881Y035081D02*
X016048Y034666D01*
X015778Y035037D02*
X016115Y034700D01*
X015778Y035037D02*
X016164Y034757D01*
X015778Y035037D02*
X016058Y034651D01*
X015738Y034943D02*
X016115Y034700D01*
X015738Y034943D02*
X016150Y034766D01*
X015738Y034943D02*
X016069Y034641D01*
X014963Y032987D02*
X015300Y032650D01*
X014963Y032987D02*
X015349Y032707D01*
X014963Y032987D02*
X015243Y032601D01*
X014563Y028237D02*
X014900Y027900D01*
X014563Y028237D02*
X014949Y027957D01*
X014563Y028237D02*
X014843Y027851D01*
X014009Y026263D02*
X014289Y026649D01*
X014009Y026263D02*
X014394Y026543D01*
X013921Y026600D02*
X014339Y026675D01*
X013921Y026600D02*
X014339Y026525D01*
X013117Y026167D02*
X013150Y026599D01*
X013192Y026168D01*
X013043Y026179D02*
X013150Y026599D01*
X013070Y026605D02*
X013117Y026167D01*
X013070Y026605D02*
X013191Y026181D01*
X013042Y026165D02*
X013070Y026605D01*
X013117Y026167D02*
X013226Y026584D01*
X013191Y026154D02*
X013226Y026584D01*
X013046Y026192D02*
X013226Y026584D01*
X013117Y026167D02*
X013150Y026595D01*
X013192Y026168D01*
X013043Y026179D02*
X013150Y026595D01*
X012910Y025960D02*
X013117Y026167D01*
X012910Y025960D02*
X013058Y026213D01*
X012910Y025960D02*
X013163Y026108D01*
X014451Y033043D02*
X014837Y032763D01*
X014557Y033149D02*
X014837Y032763D01*
X013502Y032092D02*
X013850Y031850D01*
X013608Y032198D02*
X013850Y031850D01*
X013517Y032083D02*
X013912Y031929D01*
X013595Y032210D02*
X013912Y031929D01*
X013502Y032092D02*
X013850Y031850D01*
X013608Y032198D02*
X013850Y031850D01*
X011900Y031500D02*
X011980Y031045D01*
X011827Y031481D02*
X011980Y031045D01*
X011975Y031507D02*
X011980Y031045D01*
X012750Y026200D02*
X012788Y026638D01*
X012825Y026200D01*
X012676Y026213D02*
X012788Y026638D01*
X012617Y026617D02*
X012750Y026200D01*
X012617Y026617D02*
X012819Y026229D01*
X012617Y026617D02*
X012677Y026183D01*
X012700Y026634D02*
X012750Y026200D01*
X012700Y026634D02*
X012823Y026215D01*
X012675Y026198D02*
X012700Y026634D01*
X011550Y034900D02*
X011999Y035129D01*
X011589Y034836D02*
X011999Y035129D01*
X011521Y034969D02*
X011999Y035129D01*
X011550Y034900D02*
X011939Y035189D01*
X011599Y034843D02*
X011939Y035189D01*
X011510Y034964D02*
X011939Y035189D01*
X011550Y034900D02*
X012053Y035014D01*
X011572Y034828D02*
X012053Y035014D01*
X011539Y034974D02*
X012053Y035014D01*
X011550Y034900D02*
X012062Y034876D01*
X011552Y034825D02*
X012062Y034876D01*
X011559Y034974D02*
X012062Y034876D01*
X011550Y034900D02*
X012034Y034778D01*
X011537Y034826D02*
X012034Y034778D01*
X011574Y034971D02*
X012034Y034778D01*
X011550Y034900D02*
X012053Y035014D01*
X011572Y034828D02*
X012053Y035014D01*
X011539Y034974D02*
X012053Y035014D01*
X017350Y033125D02*
X017425Y032707D01*
X017275D02*
X017350Y033125D01*
X017913Y034463D02*
X018250Y034800D01*
X017913Y034463D02*
X018193Y034849D01*
X017913Y034463D02*
X018299Y034743D01*
X019279Y035747D02*
X019600Y035400D01*
X019279Y035747D02*
X019651Y035455D01*
X019279Y035747D02*
X019541Y035354D01*
X016900Y037100D02*
X017232D01*
X016908Y037025D02*
X017232Y037100D01*
X016908Y037175D02*
X017232Y037100D01*
X022057Y026501D02*
X022337Y026887D01*
X021951Y026607D02*
X022337Y026887D01*
X013451Y034393D02*
X013837Y034113D01*
X013557Y034499D02*
X013837Y034113D01*
X018713Y027937D02*
X019050Y027600D01*
X018713Y027937D02*
X019099Y027657D01*
X018713Y027937D02*
X018993Y027551D01*
X017458Y038289D02*
X017798Y038577D01*
X017382Y038418D02*
X017798Y038577D01*
X017441Y035509D02*
X017750Y035150D01*
X017441Y035509D02*
X017803Y035203D01*
X017441Y035509D02*
X017689Y035106D01*
X019613Y033287D02*
X019950Y032950D01*
X019613Y033287D02*
X019999Y033007D01*
X019613Y033287D02*
X019893Y032901D01*
X019650Y032400D02*
X019850Y032600D01*
X019650Y032400D02*
X019790Y032646D01*
X019650Y032400D02*
X019896Y032540D01*
X012595Y036775D02*
X012800Y036800D01*
X012631Y036918D02*
X012800Y036800D01*
X012561Y036786D02*
X012753Y036712D01*
X012660Y036896D02*
X012753Y036712D01*
X012600Y036850D02*
X012750D01*
X012619Y036777D02*
X012750Y036850D01*
X012619Y036923D02*
X012750Y036850D01*
X012600D02*
X012800Y036800D01*
X012595Y036775D02*
X012800Y036800D01*
X012631Y036918D02*
X012800Y036800D01*
X012631Y036782D02*
X012800Y036900D01*
X012595Y036925D02*
X012800Y036900D01*
X012619Y036777D02*
X012750Y036850D01*
X012619Y036923D02*
X012750Y036850D01*
X014720Y035028D02*
X015025Y035150D01*
X014697Y035175D02*
X015025Y035150D01*
X014749Y035043D02*
X014971Y035287D01*
X014665Y035166D02*
X014971Y035287D01*
X014686Y035026D02*
X015015Y035004D01*
X014730Y035169D02*
X015015Y035004D01*
X014710Y035026D02*
X014985Y035100D01*
X014710Y035174D02*
X014985Y035100D01*
X015913Y032987D02*
X016299Y032707D01*
X015913Y032987D02*
X016193Y032601D01*
X022357Y022175D02*
X022775Y022250D01*
X022357Y022325D02*
X022775Y022250D01*
X012600Y023450D02*
X012603Y023900D01*
X012699Y023460D01*
X012501Y023462D02*
X012603Y023900D01*
X012400Y023650D02*
X012600Y023450D01*
X012400Y023650D02*
X012657Y023532D01*
X012400Y023650D02*
X012518Y023393D01*
X013150Y026250D02*
Y026700D01*
X013051Y026689D02*
X013150Y026250D01*
X013249Y026689D01*
X013087Y027173D02*
X013512Y026888D01*
X013227Y027313D02*
X013512Y026888D01*
X012601Y026689D02*
X012700Y026250D01*
X012799Y026689D01*
X012997Y025192D02*
X013194Y025449D01*
X012603Y023672D02*
Y024021D01*
X012209Y023933D02*
X012209Y024021D01*
X012165Y023889D02*
X012209Y024021D01*
X012209Y023933D02*
X012209Y024021D01*
X012013D02*
X012013Y023963D01*
X012013Y024119D02*
X012013Y024405D01*
X011646Y023900D02*
X011816Y024011D01*
X011470Y024246D02*
X011619Y024208D01*
X012013Y025281D02*
X012013Y024995D01*
X012875Y037350D02*
X013150Y037065D01*
X012790Y037230D02*
X013150Y037065D01*
X012998Y037431D02*
X013150Y037065D01*
X011073Y024353D02*
X011265Y024450D01*
X011073Y024547D02*
X011265Y024450D01*
X011050Y024082D02*
Y024450D01*
X010951Y024436D02*
X011050Y024082D01*
X011149Y024436D01*
X011064Y024901D02*
X011408Y025000D01*
X011064Y025099D02*
X011408Y025000D01*
X012050Y023450D02*
X012165Y023889D01*
X012149Y023435D02*
X012165Y023889D01*
X011957Y023486D02*
X012165Y023889D01*
X015675Y035150D02*
X016074Y034741D01*
X015584Y035035D02*
X016074Y034741D01*
X015792Y035238D02*
X016074Y034741D01*
X014700Y035100D02*
X015025Y035150D01*
X014700Y035100D02*
X014971Y035287D01*
X014700Y035100D02*
X015015Y035004D01*
X012600Y036850D02*
X012800Y036800D01*
X012600Y036850D02*
X012800Y036900D01*
X012600Y036850D02*
X012753Y036712D01*
X011664Y035014D02*
X012103D01*
X011664D02*
X012079Y035157D01*
X011664Y035014D02*
X012079Y034871D01*
X011664Y035014D02*
X012034Y035249D01*
X011664Y035014D02*
X012034Y034778D01*
X012985Y036014D02*
X013150Y036672D01*
X013129Y035994D02*
X013150Y036672D01*
X012848Y036064D02*
X013150Y036672D01*
X013229Y035998D01*
X012761Y036116D02*
X013150Y036672D01*
X014400Y031950D02*
Y032400D01*
X014301Y032389D02*
X014400Y031950D01*
X014499Y032389D01*
X014400Y032400D02*
X014479Y031952D01*
X014304Y032372D02*
X014479Y031952D01*
X014500Y032406D01*
X014321Y031952D02*
X014400Y032400D01*
X014300Y032406D02*
X014321Y031952D01*
X014496Y032372D01*
X014400Y032300D02*
X014499Y031861D01*
X014301D02*
X014400Y032300D01*
X013550Y032150D02*
X013850Y031850D01*
X013550Y032150D02*
X013912Y031929D01*
X013550Y032150D02*
X013771Y031788D01*
X012750Y034065D02*
X013000Y034305D01*
X012750Y034065D02*
X012878Y034387D01*
X012750Y034065D02*
X013077Y034180D01*
X016776Y038341D02*
X017175Y038750D01*
X016776Y038341D02*
X017058Y038838D01*
X016776Y038341D02*
X017266Y038635D01*
X017415Y038350D02*
X017805Y038750D01*
X017415Y038350D02*
X017687Y038838D01*
X017415Y038350D02*
X017896Y038635D01*
X022900Y022250D02*
X023389Y021965D01*
X022900Y022250D02*
X023185Y021761D01*
X022900Y022250D02*
X023432Y022057D01*
X022900Y022250D02*
X023093Y021718D01*
X022705Y022850D02*
X023282Y022994D01*
X022705Y022850D02*
X023282Y022706D01*
X022705Y022850D02*
X023249Y023090D01*
X022705Y022850D02*
X023249Y022610D01*
X019645Y020305D02*
X020050Y019900D01*
X019645Y020305D02*
X020139Y020015D01*
X019645Y020305D02*
X019935Y019811D01*
X019645Y020305D02*
X020182Y020107D01*
X019645Y020305D02*
X019843Y019768D01*
X018455Y033567D02*
X019183Y033650D01*
X018455Y033733D02*
X019183Y033650D01*
X018473Y033468D02*
X019183Y033650D01*
X018473Y033832D02*
X019183Y033650D01*
X018505Y033372D02*
X019183Y033650D01*
X018505Y033928D02*
X019183Y033650D01*
X018550Y033280D02*
X019183Y033650D01*
X018550Y034020D02*
X019183Y033650D01*
X018450D02*
X018550Y034268D01*
X018533Y033642D02*
X018550Y034268D01*
X018369Y033669D02*
X018550Y034268D01*
X018633Y033647D01*
X018276Y033705D02*
X018550Y034268D01*
X018732Y033669D01*
X018188Y033757D02*
X018550Y034268D01*
X018829Y033707D01*
X018109Y033824D02*
X018550Y034268D01*
X017964Y035619D02*
X018450D01*
X017964D02*
X018443Y035701D01*
X017964Y035619D02*
X018443Y035536D01*
X017964Y035619D02*
X018416Y035798D01*
X017964Y035619D02*
X018416Y035439D01*
X017964Y035619D02*
X018368Y035889D01*
X017964Y035619D02*
X018368Y035348D01*
X017964Y035619D02*
X018299Y035971D01*
X017964Y035619D02*
X018299Y035266D01*
X023400Y029433D02*
X023483Y028705D01*
X023317D02*
X023400Y029433D01*
X023582Y028723D01*
X023218D02*
X023400Y029433D01*
X023678Y028755D01*
X023122D02*
X023400Y029433D01*
X023770Y028800D01*
X023030D02*
X023400Y029433D01*
X023317Y028695D02*
X023400Y027967D01*
X023483Y028695D01*
X023218Y028677D02*
X023400Y027967D01*
X023582Y028677D01*
X023122Y028645D02*
X023400Y027967D01*
X023678Y028645D01*
X023030Y028600D02*
X023400Y027967D01*
X023770Y028600D01*
X022574Y031176D02*
X023400Y030668D01*
X022574Y031176D02*
X023440Y030741D01*
X022574Y031176D02*
X023354Y030600D01*
X022574Y031176D02*
X023481Y030833D01*
X022574Y031176D02*
X023290Y030522D01*
X022574Y031176D02*
X023511Y030929D01*
X022574Y031176D02*
X023218Y030452D01*
X022574Y031176D02*
X023532Y031028D01*
X022574Y031176D02*
X023139Y030388D01*
X023317Y030664D02*
X023400Y029935D01*
X023483Y030664D01*
X023218Y030646D02*
X023400Y029935D01*
X023582Y030646D01*
X023122Y030614D02*
X023400Y029935D01*
X023678Y030614D01*
X023030Y030568D02*
X023400Y029935D01*
X023770Y030568D01*
X013506Y028617D02*
X014100Y028700D01*
X013506Y028783D02*
X014100Y028700D01*
X013528Y028519D02*
X014100Y028700D01*
X013528Y028881D02*
X014100Y028700D01*
X013567Y028425D02*
X014100Y028700D01*
X013567Y028975D02*
X014100Y028700D01*
X013622Y028337D02*
X014100Y028700D01*
X013622Y029063D02*
X014100Y028700D01*
X013500Y029433D02*
X013583Y028705D01*
X013417D02*
X013500Y029433D01*
X013682Y028723D01*
X013318D02*
X013500Y029433D01*
X013778Y028755D01*
X013222D02*
X013500Y029433D01*
X013870Y028800D01*
X013130D02*
X013500Y029433D01*
X011531Y028700D02*
X011720Y027919D01*
X011452Y028676D02*
X011720Y027919D01*
X011613Y028715D02*
X011720Y027919D01*
X011360Y028637D02*
X011720Y027919D01*
X011713Y028722D02*
X011720Y027919D01*
X011272Y028586D02*
X011720Y027919D01*
X011814Y028717D01*
X011191Y028524D02*
X011720Y027919D01*
X011915Y028699D01*
X013417Y030664D02*
X013500Y029935D01*
X013583Y030664D01*
X013318Y030646D02*
X013500Y029935D01*
X013682Y030646D01*
X013222Y030614D02*
X013500Y029935D01*
X013778Y030614D01*
X013130Y030568D02*
X013500Y029935D01*
X013870Y030568D01*
X018367Y028693D02*
X018450Y028200D01*
X018533Y028693D01*
X018270Y028666D02*
X018450Y028200D01*
X018630Y028666D01*
X018179Y028620D02*
X018450Y028200D01*
X018721Y028620D01*
X018096Y028553D02*
X018450Y028200D01*
X018804Y028553D01*
X019517Y012800D02*
X020245Y012883D01*
X019517Y012800D02*
X020245Y012717D01*
X019517Y012800D02*
X020227Y012982D01*
X019517Y012800D02*
X020227Y012618D01*
X019517Y012800D02*
X020195Y013078D01*
X019517Y012800D02*
X020195Y012522D01*
X019517Y012800D02*
X020150Y013170D01*
X019517Y012800D02*
X020150Y012430D01*
X020255Y012717D02*
X020983Y012800D01*
X020255Y012883D02*
X020983Y012800D01*
X020273Y012618D02*
X020983Y012800D01*
X020273Y012982D02*
X020983Y012800D01*
X020305Y012522D02*
X020983Y012800D01*
X020305Y013078D02*
X020983Y012800D01*
X020350Y012430D02*
X020983Y012800D01*
X020350Y013170D02*
X020983Y012800D01*
X021485D02*
X022214Y012883D01*
X021485Y012800D02*
X022214Y012717D01*
X021485Y012800D02*
X022196Y012982D01*
X021485Y012800D02*
X022196Y012618D01*
X021485Y012800D02*
X022164Y013078D01*
X021485Y012800D02*
X022164Y012522D01*
X021485Y012800D02*
X022118Y013170D01*
X021485Y012800D02*
X022118Y012430D01*
X012755Y012717D02*
X013483Y012800D01*
X012755Y012883D02*
X013483Y012800D01*
X012773Y012618D02*
X013483Y012800D01*
X012773Y012982D02*
X013483Y012800D01*
X012805Y012522D02*
X013483Y012800D01*
X012805Y013078D02*
X013483Y012800D01*
X012850Y012430D02*
X013483Y012800D01*
X012850Y013170D02*
X013483Y012800D01*
X013985D02*
X014719D01*
X013985D02*
X014714Y012883D01*
X013985Y012800D02*
X014714Y012717D01*
X013985Y012800D02*
X014696Y012982D01*
X013985Y012800D02*
X014696Y012618D01*
X013985Y012800D02*
X014664Y013078D01*
X013985Y012800D02*
X014664Y012522D01*
X013985Y012800D02*
X014618Y013170D01*
X013985Y012800D02*
X014618Y012430D01*
X022900Y022250D02*
X023300Y021850D01*
X022350Y022250D02*
X022900D01*
X015750Y033150D02*
X016250Y032650D01*
X015750Y033150D02*
Y034435D01*
X019650Y032400D02*
X019850Y032600D01*
X015035Y035150D02*
X015750Y034435D01*
X014985Y035100D02*
X015035Y035150D01*
X014700Y035100D02*
X014985D01*
X012965Y036014D02*
X013150Y036199D01*
Y037065D01*
X012865Y037350D02*
X013150Y037065D01*
X012750Y036850D02*
X012800Y036800D01*
X012600Y036850D02*
X012750D01*
X012638Y038085D02*
X012832D01*
X012500Y037947D02*
X012638Y038085D01*
X012500Y037912D02*
Y037947D01*
X013114Y037690D02*
X016125D01*
X019250Y033650D02*
X019950Y032950D01*
X018450Y033650D02*
X019250D01*
X017750Y035150D02*
Y035200D01*
X017200Y035750D02*
X017750Y035200D01*
X017415Y038350D02*
X017815Y038750D01*
X018450Y028200D02*
X019050Y027600D01*
X018450Y028200D02*
Y028700D01*
X017964Y035619D02*
X018450D01*
X017838Y036162D02*
X018675D01*
X023082Y030668D02*
X023400D01*
Y028700D02*
Y030668D01*
Y027950D02*
Y028700D01*
X022000Y026550D02*
X023400Y027950D01*
X013500Y028700D02*
Y030668D01*
X017200Y036800D02*
X017838Y036162D01*
X016125Y037690D02*
X017185Y038750D01*
X016950Y036550D02*
X017032D01*
X017150Y036100D02*
X017182D01*
X017032Y036550D02*
X017964Y035619D01*
X017182Y036100D02*
X017435Y035847D01*
Y035815D02*
Y035847D01*
X016900Y037100D02*
X016950D01*
X019600Y035400D02*
X019613Y035413D01*
X017435Y035815D02*
X018175Y035075D01*
X018307D01*
X019153Y035873D02*
X019613Y035413D01*
X017350Y033900D02*
X018250Y034800D01*
X017350Y032700D02*
Y033900D01*
X010790Y035840D02*
X010800Y035850D01*
X019350Y012800D02*
X020250D01*
X022218D01*
X011550Y034900D02*
X011664Y035014D01*
X012122D01*
X012750Y025554D02*
Y026200D01*
X012603Y025407D02*
X012750Y025554D01*
X012603Y025330D02*
Y025407D01*
X012910Y025960D02*
X013117Y026167D01*
X012910Y025488D02*
Y025960D01*
X012800Y025378D02*
X012910Y025488D01*
X012800Y025330D02*
Y025378D01*
X012050Y031950D02*
X012140Y031860D01*
X012957Y028475D02*
X013275Y028157D01*
X013893D02*
X014600Y027450D01*
X012957Y028475D02*
Y029093D01*
X013275Y028157D02*
X013893D01*
X012797Y028409D02*
Y029027D01*
Y028409D02*
X013209Y027997D01*
X013827D01*
X014534Y027290D01*
X018684D01*
X011900Y031500D02*
X011980Y031420D01*
X012637Y028343D02*
Y028961D01*
Y028343D02*
X013143Y027837D01*
X011980Y030988D02*
Y031420D01*
Y030988D02*
X012075Y030893D01*
Y029523D02*
Y030893D01*
X012140Y031054D02*
X012235Y030960D01*
X012395Y029655D02*
Y031026D01*
X012300Y031121D02*
X012395Y031026D01*
X012140Y031054D02*
Y031860D01*
X013143Y027837D02*
X013761D01*
X014467Y027130D01*
X018617D01*
X018684Y027290D02*
X020050Y025924D01*
Y020900D02*
Y025924D01*
X018617Y027130D02*
X019890Y025857D01*
Y021313D02*
Y025857D01*
X019645Y021068D02*
X019890Y021313D01*
X019645Y020305D02*
Y021068D01*
Y020305D02*
X020050Y019900D01*
X013550Y032150D02*
X013850Y031850D01*
X012395Y029655D02*
X012957Y029093D01*
X012235Y029589D02*
X012797Y029027D01*
X012235Y029589D02*
Y030960D01*
X012075Y029523D02*
X012637Y028961D01*
X014500Y033100D02*
X014900Y032700D01*
Y032650D02*
Y032700D01*
X012750Y012800D02*
X014719D01*
X011050Y024450D02*
X011265D01*
X011470Y024246D01*
X011640D02*
X011678Y024208D01*
X011050Y025000D02*
X011408D01*
X011600Y025192D01*
X011678D01*
X012013Y023963D02*
Y024405D01*
X012308Y024700D01*
X011470Y024246D02*
X011640D01*
X012300Y031121D02*
Y033400D01*
X012600D02*
X012610D01*
X013146Y024142D02*
Y025061D01*
X013015Y025192D02*
X013146Y025061D01*
X012938Y025192D02*
X013015D01*
X012013Y024995D02*
X012308Y024700D01*
X012013Y024995D02*
Y025407D01*
X011531Y028700D02*
X011720Y028511D01*
X013500Y028700D02*
X014100D01*
X014900Y027900D01*
X013500Y034450D02*
X015300Y032650D01*
X015453Y032400D02*
X019650D01*
X014400Y031850D02*
Y032365D01*
X015665Y035150D02*
X016115Y034700D01*
X012285Y033415D02*
X012300Y033400D01*
X012283Y033415D02*
X012285D01*
X012460Y031604D02*
X012764Y031300D01*
X012460Y031604D02*
Y033260D01*
X012518Y033318D01*
Y033318D01*
X012600Y033400D01*
X013635Y030803D02*
Y031609D01*
X013500Y030668D02*
X013635Y030803D01*
X013315Y032053D02*
X013590Y031778D01*
Y031654D02*
X013635Y031609D01*
X013590Y031654D02*
Y031778D01*
X010250Y037500D02*
X010440Y037690D01*
X010250Y034250D02*
Y037500D01*
X012750Y034065D02*
Y034100D01*
X013315Y032053D02*
Y034015D01*
X013400Y034100D01*
X012750Y034065D02*
X013000Y034315D01*
X014600Y027450D02*
X018750D01*
X020210Y025990D01*
Y023240D02*
Y025990D01*
Y023240D02*
X020600Y022850D01*
X023300D01*
X018741Y036322D02*
X019153Y035910D01*
Y035873D02*
Y035910D01*
X017435Y036791D02*
Y036897D01*
Y036791D02*
X017905Y036322D01*
X018741D01*
X016950Y037100D02*
X017232D01*
X017435Y036897D01*
X018450Y035619D02*
X018781D01*
X018485Y034765D02*
X018600Y034650D01*
X018485Y034765D02*
Y034897D01*
X018307Y035075D02*
X018485Y034897D01*
X018450Y033650D02*
X018550Y033750D01*
Y035059D02*
Y035387D01*
X018781Y035619D01*
X018550Y033750D02*
Y034268D01*
X018835Y034553D01*
Y034774D01*
X018550Y035059D02*
X018835Y034774D01*
X018995Y034755D02*
X023082Y030668D01*
X018995Y034755D02*
Y035805D01*
X018993Y035807D02*
X018995Y035805D01*
X018993Y035807D02*
Y035843D01*
X018675Y036162D02*
X018993Y035843D01*
X012832Y038085D02*
X012970Y037947D01*
Y037834D02*
Y037947D01*
Y037834D02*
X013114Y037690D01*
X012278D02*
X012500Y037912D01*
X010440Y037690D02*
X012278D01*
X010790Y021360D02*
X019350Y012800D01*
X011200Y023900D02*
X011646D01*
X011816Y024070D01*
X010790Y021360D02*
Y035840D01*
X011720Y025700D02*
X012013Y025407D01*
X012746Y023850D02*
X012854D01*
X013146Y024142D01*
X011720Y025700D02*
Y028511D01*
X012165Y023889D02*
X012209Y023933D01*
Y024070D01*
X012050Y023450D02*
X012165Y023565D01*
Y023889D01*
X011050Y023500D02*
Y023718D01*
X010965Y023803D02*
X011050Y023718D01*
X010965Y023803D02*
Y023997D01*
X011050Y024082D01*
Y024450D01*
X013150Y026200D02*
Y026700D01*
X013117Y026167D02*
X013150Y026200D01*
X012700Y026250D02*
Y026700D01*
Y026250D02*
X012750Y026200D01*
X013150Y027250D02*
X013800Y026600D01*
X014346D01*
X012938Y025192D02*
X014346Y026600D01*
X012400Y023650D02*
X012600Y023450D01*
X012400Y023650D02*
Y023700D01*
X012600Y023450D02*
X012603Y023453D01*
Y023993D01*
Y024070D01*
Y023993D02*
X012746Y023850D01*
D23*
X011100Y025600D02*
X011531Y026030D01*
X011050Y025000D02*
X011100Y025600D01*
X011250Y037350D02*
X011800Y037300D01*
X011300D02*
X011800D01*
X012050Y037950D02*
X012585Y038435D01*
X014350Y038500D02*
X014950Y038332D01*
X014350Y038500D02*
X014950Y038332D01*
X014885Y038500D02*
X014950Y038332D01*
X014885Y038500D02*
X014950Y038332D01*
X013500Y038445D02*
X013960Y038661D01*
X013735Y038435D02*
X013960Y038661D01*
X013500Y039075D02*
X013900Y039250D01*
X013685D02*
X013900D01*
X013500Y039065D02*
X013900Y039250D01*
X013685D02*
X013900D01*
X012800Y022950D02*
X013150Y023450D01*
X011050Y025000D02*
X011100Y025600D01*
X013500Y039075D02*
X013900Y039250D01*
X012585Y038435D02*
X013500D01*
X013735D01*
X013500Y038445D02*
X013960Y038661D01*
X010700Y036800D02*
Y037350D01*
X011250Y036800D02*
Y037350D01*
X011800Y037300D01*
X014350Y039050D02*
X014950Y039065D01*
X014210Y032637D02*
X014400Y032400D01*
X014210Y032450D02*
X014400Y032400D01*
X014210Y032637D02*
X014400Y032400D01*
X014350Y038500D02*
X014950Y038445D01*
X022368Y019918D02*
X023300Y020850D01*
X019118Y019832D02*
X020050Y018900D01*
X016481Y036952D02*
X016763Y035649D01*
X016200D02*
X016481Y036952D01*
X014989Y023450D02*
X016481Y023750D01*
X014989Y023450D02*
X016400Y024021D01*
X014989Y023450D02*
X016511Y023468D01*
X016200Y023719D02*
X016481Y022469D01*
X016763Y023719D01*
X011250Y030638D02*
X011531Y029335D01*
X011813Y030638D01*
X011250Y028670D02*
X011531Y027367D01*
X011813Y028670D01*
X011531Y030033D02*
X011813Y028730D01*
X011250D02*
X011531Y030033D01*
X020050Y016162D02*
X020250Y014769D01*
X020050Y016162D02*
X020525Y014837D01*
X019967Y014757D02*
X020050Y016162D01*
X011250Y036800D02*
Y037350D01*
X010700Y036800D02*
Y037350D01*
X013500Y038435D02*
X013735D01*
X012585D02*
X013500D01*
X013735D02*
X013960Y038661D01*
X013685Y039250D02*
X013900D01*
X013500Y039065D02*
X013685Y039250D01*
X014365Y039065D02*
X014950D01*
X014350Y039050D02*
X014365Y039065D01*
X013960Y038707D02*
X014303Y039050D01*
X013960Y038661D02*
Y038707D01*
X014303Y039050D02*
X014350D01*
Y038500D02*
X014885D01*
X014950Y038435D01*
Y038332D02*
Y038435D01*
X016600Y039050D02*
X016950Y039400D01*
X018350D01*
X013997Y032850D02*
X014210Y032637D01*
X013950Y032850D02*
X013997D01*
X014210Y032450D02*
Y032637D01*
X016481Y035619D02*
Y037679D01*
X012100Y037950D02*
X012585Y038435D01*
X012050Y037950D02*
X012100D01*
X011300Y037300D02*
X011800D01*
X011250Y037350D02*
X011300Y037300D01*
X011531Y026030D02*
Y028700D01*
Y030668D01*
X011102Y025600D02*
X011531Y026030D01*
X012800Y022950D02*
X013150Y023300D01*
Y023450D01*
X011050Y025000D02*
X011100Y025050D01*
Y025600D01*
X013150Y023450D02*
X016181D01*
X016481Y023750D01*
Y022469D02*
Y023750D01*
Y022469D02*
X020050Y018900D01*
Y014969D02*
Y018900D01*
Y014969D02*
X020250Y014769D01*
X020050Y018900D02*
X021350D01*
X023300Y020850D01*
X011500Y023403D02*
Y023450D01*
Y023403D02*
X011953Y022950D01*
X012800D01*
X012700Y027250D02*
X013150D01*
D24*
X013550Y033750D02*
X013950Y033350D01*
Y032850D02*
Y033350D01*
D25*
X012235Y037350D02*
X012735Y037850D01*
X014400Y032365D02*
X015100D01*
X013050Y031700D02*
X013400Y031350D01*
X015150Y033975D02*
Y034700D01*
X015550Y036300D02*
X015900Y036250D01*
X015600D02*
X015900D01*
X011515Y033685D02*
X011850Y033750D01*
X010700Y036800D02*
X011150Y036350D01*
X011250Y036800D02*
X011550Y036600D01*
X011250Y036800D02*
X011550Y036600D01*
X011250Y036800D02*
X011550Y036600D01*
X011435Y036232D02*
X011550Y036600D01*
X014200Y035500D02*
X014600Y035900D01*
X012245Y037350D02*
X012250Y036800D01*
X011929Y036043D02*
X012250Y036800D01*
X012316Y036043D01*
X012122Y036014D02*
X012250Y036800D01*
X012985Y035014D02*
X013988Y035240D01*
X013045Y034828D02*
X013988Y035240D01*
X012960Y035207D02*
X013988Y035240D01*
X012122Y036672D02*
X012316Y036043D01*
X011929D02*
X012122Y036672D01*
X012142Y036014D02*
X012350Y035500D01*
X011977Y035910D02*
X012350Y035500D01*
X012333Y036054D02*
X012350Y035500D01*
X014600Y035900D02*
X015000Y036300D01*
X014700Y035550D02*
X015000Y035750D01*
X014800Y035550D02*
X015000Y035750D01*
X014800Y035550D02*
X015000Y035750D01*
X015550Y036300D02*
X015900Y036250D01*
X015000Y035750D02*
X015550D01*
X014210Y032450D02*
X014400Y032400D01*
X013850Y031850D02*
Y032400D01*
X012165Y033700D02*
X012400Y033750D01*
X012985Y033700D01*
X012150Y033685D02*
X012400Y033750D01*
X012165Y033700D02*
X012400Y033750D01*
X011850D02*
X012150Y033685D01*
X011250Y036800D02*
X011450Y036600D01*
X011250Y036800D02*
X011550Y036600D01*
X015550Y035750D02*
X016481Y035619D01*
X015550Y035750D02*
X016491Y035751D01*
X015550Y035750D02*
X016454Y035488D01*
X015550Y035750D02*
X016469Y035951D01*
X015550Y035750D02*
X016377Y035302D01*
X016349Y035610D02*
X016481Y034585D01*
X016614Y035610D01*
X016153Y035565D02*
X016481Y034585D01*
X016810Y035565D01*
X016481Y034683D02*
X016614Y033659D01*
X016349D02*
X016481Y034683D01*
X016810Y033704D01*
X016153D02*
X016481Y034683D01*
X021432Y029635D02*
Y030668D01*
X021299Y030660D02*
X021432Y029635D01*
X021564Y030660D01*
X021103Y030615D02*
X021432Y029635D01*
X021760Y030615D01*
X021432Y029733D02*
X021564Y028709D01*
X021299D02*
X021432Y029733D01*
X021760Y028754D01*
X021103D02*
X021432Y029733D01*
X016349Y030660D02*
X016481Y029635D01*
X016614Y030660D01*
X016153Y030615D02*
X016481Y029635D01*
X016810Y030615D01*
X016481Y031332D02*
X016614Y030682D01*
X016349D02*
X016481Y031332D01*
X016804Y030752D01*
X016159D02*
X016481Y031332D01*
Y028700D02*
X017000Y029500D01*
X016598Y028636D02*
X017000Y029500D01*
X016375Y028780D02*
X017000Y029500D01*
X016788Y028570D02*
X017000Y029500D01*
X016238Y028927D02*
X017000Y029500D01*
X016481Y028700D02*
Y029733D01*
X016614Y028709D01*
X016349D02*
X016481Y029733D01*
X016810Y028754D01*
X016153D02*
X016481Y029733D01*
X013685Y014769D02*
X014719D01*
X013685D02*
X014710Y014901D01*
X013685Y014769D02*
X014710Y014636D01*
X013685Y014769D02*
X014665Y015097D01*
X013685Y014769D02*
X014665Y014440D01*
X012759Y014636D02*
X013783Y014769D01*
X012759Y014901D02*
X013783Y014769D01*
X012804Y014440D02*
X013783Y014769D01*
X012804Y015097D02*
X013783Y014769D01*
X014700Y035550D02*
X014800D01*
X015000Y035750D01*
X015550D01*
X014600Y035900D02*
X015000Y036300D01*
X015550D01*
X011580Y033750D02*
X011850D01*
X011915Y033685D01*
X011550Y034300D02*
X011850D01*
X012400D01*
Y034345D01*
X012965Y034910D01*
Y035014D01*
X012122Y036014D02*
Y036672D01*
X012250Y036800D01*
X012235Y037350D02*
X012735Y037850D01*
X012235Y037350D02*
X012235D01*
X012235D02*
X012250Y037335D01*
Y036800D02*
Y037335D01*
X011450Y036600D02*
X011550D01*
X011250Y036800D02*
X011450Y036600D01*
X010700Y036800D02*
X011150Y036350D01*
X014200Y035500D02*
X014600Y035900D01*
X015550Y035750D02*
X016350D01*
X016481Y035619D01*
X011515Y033685D02*
X011580Y033750D01*
X012965Y035014D02*
X013191Y035240D01*
X014390D01*
X014700Y035550D01*
X013850Y031850D02*
Y032400D01*
X015550Y036300D02*
X015600Y036250D01*
X015900D01*
X015585Y032532D02*
Y032768D01*
X015150Y033203D02*
Y034700D01*
Y033203D02*
X015585Y032768D01*
X015453Y032400D02*
X015585Y032532D01*
X014210Y032450D02*
X014295Y032365D01*
X015418D02*
X015453Y032400D01*
X014295Y032365D02*
X014400D01*
X016481Y033650D02*
Y035619D01*
X011915Y033685D02*
X012150D01*
X012165Y033700D01*
X012985D02*
X013000Y033685D01*
X012165Y033700D02*
X012985D01*
X013050Y031700D02*
X013400Y031350D01*
X012750Y031700D02*
X013050D01*
X010250Y033500D02*
Y033847D01*
X010580Y034177D01*
Y035667D01*
X010515Y035732D02*
X010580Y035667D01*
X010515Y035732D02*
Y035968D01*
X010682Y036135D01*
X010962D01*
X011032Y036065D01*
X011268D01*
X011435Y036232D01*
Y036485D01*
X011550Y036600D01*
X014400Y032365D02*
X015100D01*
X015418D01*
X017000Y029500D02*
X019150D01*
X016481Y028981D02*
X017000Y029500D01*
X016481Y028700D02*
Y028981D01*
Y030668D01*
X021432Y028700D02*
Y030668D01*
X016481D02*
Y031332D01*
X017250Y032100D01*
X012122Y035728D02*
Y036014D01*
Y035728D02*
X012350Y035500D01*
X014200D01*
X016500Y037699D02*
Y037700D01*
X012750Y014769D02*
X014719D01*
D26*
Y012800D02*
D03*
X012750Y014769D02*
D03*
X014719D02*
D03*
X012750Y012800D02*
D03*
X022218D02*
D03*
X020250Y014769D02*
D03*
X022218D02*
D03*
X020250Y012800D02*
D03*
X018450Y030668D02*
D03*
X016481Y028700D02*
D03*
Y030668D02*
D03*
X018450Y028700D02*
D03*
X013500Y030668D02*
D03*
X011531Y028700D02*
D03*
Y030668D02*
D03*
X013500Y028700D02*
D03*
X023400Y030668D02*
D03*
X021432Y028700D02*
D03*
Y030668D02*
D03*
X023400Y028700D02*
D03*
X018450Y025719D02*
D03*
X016481Y023750D02*
D03*
Y025719D02*
D03*
X018450Y023750D02*
D03*
Y035619D02*
D03*
X016481Y033650D02*
D03*
Y035619D02*
D03*
X018450Y033650D02*
D03*
D27*
X011150Y038850D02*
D03*
X023850D02*
D03*
Y011150D02*
D03*
X011150D02*
D03*
D28*
X020050Y020900D02*
D03*
Y019900D02*
D03*
X023300Y023850D02*
D03*
Y022850D02*
D03*
Y021850D02*
D03*
Y020850D02*
D03*
Y019850D02*
D03*
D29*
X020050Y018900D02*
D03*
X023300Y018850D02*
D03*
D30*
X024000Y037000D02*
D03*
X024500Y036000D02*
D03*
X024000Y035000D02*
D03*
X024500Y034000D02*
D03*
X024000Y033000D02*
D03*
X024500Y032000D02*
D03*
X024000Y031000D02*
D03*
X024500Y030000D02*
D03*
X024000Y029000D02*
D03*
X024500Y028000D02*
D03*
X024000Y027000D02*
D03*
X024500Y026000D02*
D03*
X024000Y025000D02*
D03*
X024500Y024000D02*
D03*
X024000Y023000D02*
D03*
X024500Y022000D02*
D03*
X024000Y021000D02*
D03*
Y019000D02*
D03*
X024500Y018000D02*
D03*
X024000Y017000D02*
D03*
X024500Y016000D02*
D03*
X024000Y015000D02*
D03*
X024500Y014000D02*
D03*
X024000Y013000D02*
D03*
X023000Y037000D02*
D03*
X023500Y036000D02*
D03*
X023000Y035000D02*
D03*
X023500Y034000D02*
D03*
X023000Y033000D02*
D03*
X023500Y032000D02*
D03*
X023000Y027000D02*
D03*
X023500Y026000D02*
D03*
X023000Y025000D02*
D03*
Y017000D02*
D03*
X023500Y014000D02*
D03*
X023000Y013000D02*
D03*
X022000Y039000D02*
D03*
X022500Y038000D02*
D03*
X022000Y037000D02*
D03*
X022500Y036000D02*
D03*
X022000Y035000D02*
D03*
X022500Y034000D02*
D03*
X022000Y033000D02*
D03*
X022500Y032000D02*
D03*
Y020000D02*
D03*
X022000Y019000D02*
D03*
X022500Y018000D02*
D03*
X022000Y017000D02*
D03*
X022500Y016000D02*
D03*
Y012000D02*
D03*
X022000Y011000D02*
D03*
X021000Y039000D02*
D03*
X021500Y038000D02*
D03*
X021000Y037000D02*
D03*
X021500Y036000D02*
D03*
X021000Y035000D02*
D03*
X021500Y034000D02*
D03*
Y030000D02*
D03*
Y028000D02*
D03*
X021000Y025000D02*
D03*
X021500Y024000D02*
D03*
Y022000D02*
D03*
X021000Y021000D02*
D03*
X021500Y020000D02*
D03*
X021000Y019000D02*
D03*
X021500Y018000D02*
D03*
X021000Y017000D02*
D03*
X021500Y016000D02*
D03*
X021000Y015000D02*
D03*
X021500Y012000D02*
D03*
X021000Y011000D02*
D03*
X020000Y039000D02*
D03*
X020500Y038000D02*
D03*
X020000Y037000D02*
D03*
X020500Y036000D02*
D03*
X020000Y035000D02*
D03*
X020500Y034000D02*
D03*
Y032000D02*
D03*
Y030000D02*
D03*
X020000Y029000D02*
D03*
X020500Y028000D02*
D03*
Y024000D02*
D03*
Y022000D02*
D03*
Y018000D02*
D03*
X020000Y017000D02*
D03*
X020500Y016000D02*
D03*
Y012000D02*
D03*
X020000Y011000D02*
D03*
X019000Y037000D02*
D03*
X019500Y036000D02*
D03*
X019000Y031000D02*
D03*
X019500Y030000D02*
D03*
X019000Y029000D02*
D03*
Y025000D02*
D03*
X019500Y024000D02*
D03*
X019000Y023000D02*
D03*
X019500Y022000D02*
D03*
X019000Y021000D02*
D03*
X019500Y020000D02*
D03*
X019000Y019000D02*
D03*
X019500Y018000D02*
D03*
X019000Y017000D02*
D03*
X019500Y016000D02*
D03*
X019000Y015000D02*
D03*
X019500Y014000D02*
D03*
Y012000D02*
D03*
X019000Y011000D02*
D03*
X018500Y032000D02*
D03*
X018000Y025000D02*
D03*
Y023000D02*
D03*
X018500Y022000D02*
D03*
X018000Y021000D02*
D03*
X018500Y020000D02*
D03*
X018000Y019000D02*
D03*
X018500Y018000D02*
D03*
X018000Y017000D02*
D03*
X018500Y016000D02*
D03*
X018000Y015000D02*
D03*
X018500Y014000D02*
D03*
X018000Y013000D02*
D03*
Y011000D02*
D03*
X017000Y033000D02*
D03*
Y031000D02*
D03*
X017500Y030000D02*
D03*
Y028000D02*
D03*
Y026000D02*
D03*
X017000Y025000D02*
D03*
X017500Y024000D02*
D03*
X017000Y023000D02*
D03*
X017500Y022000D02*
D03*
X017000Y021000D02*
D03*
X017500Y020000D02*
D03*
X017000Y019000D02*
D03*
X017500Y018000D02*
D03*
X017000Y017000D02*
D03*
X017500Y016000D02*
D03*
Y014000D02*
D03*
X017000Y013000D02*
D03*
Y011000D02*
D03*
X016500Y030000D02*
D03*
Y028000D02*
D03*
X016000Y025000D02*
D03*
Y023000D02*
D03*
X016500Y022000D02*
D03*
X016000Y021000D02*
D03*
X016500Y020000D02*
D03*
X016000Y019000D02*
D03*
X016500Y018000D02*
D03*
X016000Y017000D02*
D03*
X016500Y016000D02*
D03*
X016000Y015000D02*
D03*
X016500Y014000D02*
D03*
X016000Y011000D02*
D03*
X015500Y032000D02*
D03*
Y030000D02*
D03*
Y028000D02*
D03*
Y026000D02*
D03*
X015000Y025000D02*
D03*
X015500Y024000D02*
D03*
X015000Y023000D02*
D03*
X015500Y022000D02*
D03*
X015000Y021000D02*
D03*
X015500Y020000D02*
D03*
X015000Y019000D02*
D03*
X015500Y018000D02*
D03*
Y016000D02*
D03*
Y014000D02*
D03*
Y012000D02*
D03*
X015000Y011000D02*
D03*
X014500Y026000D02*
D03*
Y024000D02*
D03*
Y022000D02*
D03*
Y020000D02*
D03*
Y018000D02*
D03*
Y016000D02*
D03*
Y014000D02*
D03*
Y012000D02*
D03*
X014000Y011000D02*
D03*
X013500Y024000D02*
D03*
Y022000D02*
D03*
X013000Y021000D02*
D03*
X013500Y020000D02*
D03*
Y018000D02*
D03*
X013000Y017000D02*
D03*
X013500Y016000D02*
D03*
Y014000D02*
D03*
Y012000D02*
D03*
X013000Y011000D02*
D03*
X012500Y028000D02*
D03*
X012000Y027000D02*
D03*
Y023000D02*
D03*
X012500Y022000D02*
D03*
X012000Y021000D02*
D03*
X012500Y020000D02*
D03*
X012000Y019000D02*
D03*
X012500Y018000D02*
D03*
X012000Y017000D02*
D03*
X012500Y016000D02*
D03*
X012000Y015000D02*
D03*
X012500Y014000D02*
D03*
X012000Y013000D02*
D03*
X012500Y012000D02*
D03*
X011500Y030000D02*
D03*
Y028000D02*
D03*
Y026000D02*
D03*
Y022000D02*
D03*
Y020000D02*
D03*
X011000Y019000D02*
D03*
X011500Y018000D02*
D03*
X011000Y017000D02*
D03*
X011500Y016000D02*
D03*
X011000Y015000D02*
D03*
X011500Y014000D02*
D03*
X011000Y013000D02*
D03*
X022350Y022250D02*
D03*
X016250Y032650D02*
D03*
X014700Y035100D02*
D03*
X014600Y035900D02*
D03*
X011550Y034300D02*
D03*
X012600Y036850D02*
D03*
X011550Y036600D02*
D03*
X011150Y036350D02*
D03*
X019850Y032600D02*
D03*
X019950Y032950D02*
D03*
X017150Y036100D02*
D03*
X017750Y035150D02*
D03*
X013900Y039250D02*
D03*
X013960Y038661D02*
D03*
X014950Y038332D02*
D03*
X017415Y038350D02*
D03*
X018350Y039400D02*
D03*
X016600Y039050D02*
D03*
X019050Y027600D02*
D03*
X013500Y034450D02*
D03*
X022000Y026550D02*
D03*
X016950Y036550D02*
D03*
X017200Y035750D02*
D03*
Y036800D02*
D03*
X016900Y037100D02*
D03*
X019600Y035400D02*
D03*
X018250Y034800D02*
D03*
X017350Y032700D02*
D03*
X010800Y035850D02*
D03*
X011550Y034900D02*
D03*
X012750Y026200D02*
D03*
X011515Y033685D02*
D03*
X011900Y031500D02*
D03*
X013550Y032150D02*
D03*
X013950Y032850D02*
D03*
X014500Y033100D02*
D03*
X013117Y026167D02*
D03*
X012050Y031950D02*
D03*
X012610Y033400D02*
D03*
X014346Y026600D02*
D03*
X014900Y027900D02*
D03*
X015900Y036250D02*
D03*
X015150Y034700D02*
D03*
X015300Y032650D02*
D03*
X016115Y034700D02*
D03*
X012750Y034100D02*
D03*
X012283Y033415D02*
D03*
X012764Y031300D02*
D03*
X013400Y031350D02*
D03*
X012750Y031700D02*
D03*
X010250Y034250D02*
D03*
Y033500D02*
D03*
X014900Y032650D02*
D03*
X015100Y032365D02*
D03*
X019150Y029500D02*
D03*
X017250Y032100D02*
D03*
X013400Y034100D02*
D03*
X013550Y033750D02*
D03*
X018600Y034650D02*
D03*
X016500Y037700D02*
D03*
X012735Y037850D02*
D03*
X012050Y037950D02*
D03*
X011800Y037300D02*
D03*
X011200Y023900D02*
D03*
X012800Y022950D02*
D03*
X011100Y025600D02*
D03*
X012400Y023700D02*
D03*
X011050Y023500D02*
D03*
D31*
X012308Y024700D02*
D03*
D32*
X017815Y038750D02*
D03*
X017185D02*
D03*
X015035Y035150D02*
D03*
X015665D02*
D03*
X012865Y037350D02*
D03*
X012235D02*
D03*
D33*
X012122Y036014D02*
D03*
X012965D02*
D03*
X012122Y035014D02*
D03*
X012965D02*
D03*
D34*
X013500Y038435D02*
D03*
Y039065D02*
D03*
D35*
X012308Y024700D02*
D03*
D36*
X012800Y025340D02*
D03*
X011816D02*
D03*
Y024060D02*
D03*
X012800D02*
D03*
D37*
X012603Y025330D02*
D03*
X012406D02*
D03*
X012209D02*
D03*
X012013D02*
D03*
Y024070D02*
D03*
X012209D02*
D03*
X012406D02*
D03*
X012603D02*
D03*
D38*
X011668Y025192D02*
D03*
Y024208D02*
D03*
X012948D02*
D03*
Y025192D02*
D03*
D39*
X011678Y024995D02*
D03*
Y024798D02*
D03*
Y024602D02*
D03*
Y024405D02*
D03*
X012938D02*
D03*
Y024602D02*
D03*
Y024798D02*
D03*
Y024995D02*
D03*
M02*
