%FSAX24Y24*%
%MOIN*%
G70*
G01*
G75*
G04 Layer_Color=8421504*
%ADD10C,0.0100*%
%ADD11R,0.0300X0.0300*%
%ADD12P,0.0424X4X360.0*%
%ADD13P,0.0424X4X90.0*%
%ADD14R,0.0300X0.0300*%
%ADD15R,0.0118X0.0157*%
%ADD16R,0.0394X0.0413*%
%ADD17R,0.0984X0.1496*%
%ADD18R,0.0197X0.0787*%
%ADD19O,0.0709X0.0118*%
%ADD20O,0.0118X0.0709*%
%ADD21R,0.0394X0.0374*%
%ADD22C,0.0100*%
%ADD23C,0.0300*%
%ADD24C,0.0150*%
%ADD25C,0.0200*%
%ADD26C,0.0866*%
%ADD27C,0.2100*%
%ADD28C,0.0591*%
%ADD29R,0.0591X0.0591*%
%ADD30C,0.0250*%
%ADD31C,0.0260*%
%ADD32R,0.0413X0.0394*%
%ADD33R,0.0630X0.0591*%
%ADD34R,0.0374X0.0394*%
%ADD35R,0.0709X0.0630*%
%ADD36O,0.0079X0.0177*%
%ADD37O,0.0098X0.0197*%
%ADD38O,0.0177X0.0079*%
%ADD39O,0.0197X0.0098*%
%ADD40C,0.0098*%
%ADD41C,0.0236*%
%ADD42C,0.0050*%
%ADD43C,0.0079*%
D10*
X019850Y032600D02*
D03*
D11*
X016500Y012750D02*
D03*
Y012200D02*
D03*
X018500D02*
D03*
Y012750D02*
D03*
D12*
X020289Y026861D02*
D03*
X019900Y027250D02*
D03*
D13*
X015039Y027339D02*
D03*
X014650Y026950D02*
D03*
X020239Y032489D02*
D03*
X019850Y032100D02*
D03*
D14*
X022050Y026000D02*
D03*
X021500D02*
D03*
Y025350D02*
D03*
X022050D02*
D03*
D15*
X013524Y039171D02*
D03*
X013150D02*
D03*
X012776D02*
D03*
X013524Y038226D02*
D03*
X012776D02*
D03*
D16*
X024400Y020715D02*
D03*
Y020085D02*
D03*
D17*
X019154Y038684D02*
D03*
X015846D02*
D03*
D18*
X016870Y037700D02*
D03*
X017185D02*
D03*
X018130D02*
D03*
X017815D02*
D03*
X017500D02*
D03*
D19*
X010906Y035533D02*
D03*
Y035336D02*
D03*
Y035139D02*
D03*
Y034942D02*
D03*
Y034745D02*
D03*
Y034548D02*
D03*
Y034352D02*
D03*
Y034155D02*
D03*
Y033958D02*
D03*
Y033761D02*
D03*
Y033564D02*
D03*
Y033367D02*
D03*
X014094D02*
D03*
Y033564D02*
D03*
Y033761D02*
D03*
Y033958D02*
D03*
Y034155D02*
D03*
Y034352D02*
D03*
Y034548D02*
D03*
Y034745D02*
D03*
Y034942D02*
D03*
Y035139D02*
D03*
Y035336D02*
D03*
Y035533D02*
D03*
D20*
X011417Y032856D02*
D03*
X011614D02*
D03*
X011811D02*
D03*
X012008D02*
D03*
X012205D02*
D03*
X012402D02*
D03*
X012598D02*
D03*
X012795D02*
D03*
X012992D02*
D03*
X013189D02*
D03*
X013386D02*
D03*
X013583D02*
D03*
Y036044D02*
D03*
X013386D02*
D03*
X013189D02*
D03*
X012992D02*
D03*
X012795D02*
D03*
X012598D02*
D03*
X012402D02*
D03*
X012205D02*
D03*
X012008D02*
D03*
X011811D02*
D03*
X011614D02*
D03*
X011417D02*
D03*
D21*
X014165Y037750D02*
D03*
X013535D02*
D03*
M02*
